<svg width="1044" height="814" viewBox="0 0 1044 814" fill="none" xmlns="http://www.w3.org/2000/svg">
<path d="M774.691 740.913H766.483V285.101H774.691V740.913Z" fill="#4760E9"/>
<path d="M813.561 740.913H811.773V285.101H813.561V740.913Z" fill="#4760E9"/>
<path d="M788.289 740.913H786.508V285.101H788.289V740.913Z" fill="#4760E9"/>
<path d="M817.404 740.913H815.623V285.101H817.404V740.913Z" fill="#4760E9"/>
<path d="M838.656 350.105V385.331H832.659L795.721 347.392V334.985L832.659 297.046H838.656V350.105ZM830.062 394.068H743.391V388.194L781.001 350.105H792.446L830.056 388.194V394.068H830.062ZM734.797 385.331V297.046H740.781L777.719 334.985V347.392L740.781 385.331H734.797ZM743.391 288.329H830.056V294.19L792.446 332.272H781.001L743.391 294.19V288.316V288.329ZM795.708 284.083H730.993V398.314H842.44V284.063L795.708 284.083Z" fill="#4760E9"/>
<path d="M838.656 464.35V499.583H832.659L795.721 461.644V449.23L832.659 411.291H838.656V464.35ZM830.062 508.32H743.391V502.439L781.001 464.35H792.446L830.049 502.439V508.313L830.062 508.32ZM734.797 499.583V411.291H740.781L777.719 449.23V461.644L740.781 499.583H734.797ZM743.391 402.581H830.056V408.456L792.446 446.544H781.001L743.391 408.428V402.554V402.581ZM795.708 398.342H730.993V512.559H842.44V398.314L795.708 398.342Z" fill="#4760E9"/>
<path d="M838.656 578.602V613.828H832.659L795.721 575.889V563.489L832.659 525.549H838.656V578.609V578.602ZM830.062 622.565H743.391V616.69L781.001 578.609H792.446L830.056 616.69V622.565H830.062ZM734.797 613.828V525.543H740.781L777.725 563.489V575.895L740.781 613.828H734.797ZM743.391 516.826H830.056V522.7L792.439 560.775H780.994L743.391 522.68V516.806V516.826ZM795.708 512.58H730.993V626.811H842.44V512.559L795.708 512.58Z" fill="#4760E9"/>
<path d="M841.755 316.88H733.042V313.149H841.755V316.88Z" fill="#4760E9"/>
<path d="M842.44 279.03H730.993V275.299H842.44V279.03Z" fill="#4760E9"/>
<path d="M842.44 271.48H730.993V270.592H842.44V271.48Z" fill="#4760E9"/>
<path d="M734.582 270.592H731.052V286.003H734.582V270.592Z" fill="#4760E9"/>
<path d="M842.604 270.592H839.073V286.003H842.604V270.592Z" fill="#4760E9"/>
<path d="M825.508 736.816H743.391V730.942L781.001 692.853H792.446L826.911 727.767L827.661 722.965L795.689 690.14V677.727L832.627 639.787H838.656V652.567L842.453 628.202V626.845H730.993V741.063H824.842L825.508 736.816ZM743.391 631.057H830.056V636.925L792.446 675.013H781.001L743.391 636.925V631.057ZM734.797 728.059V639.787H740.781L777.719 677.727V690.14L740.781 728.079L734.797 728.059Z" fill="#4760E9"/>
<path d="M708.599 756.135H702.388V327.625H708.599V756.135Z" fill="#B2B6BB"/>
<path d="M738.027 756.135H736.677V327.625H738.027V756.135Z" fill="#B2B6BB"/>
<path d="M718.896 756.135H717.552V327.625H718.896V756.135Z" fill="#B2B6BB"/>
<path d="M740.938 756.135H739.587V327.625H740.938V756.135Z" fill="#B2B6BB"/>
<path d="M757.015 376.832V403.498H752.447L724.488 374.777V365.416L752.447 336.695H757.015V376.859V376.832ZM750.49 410.111H684.901V405.668L713.376 376.839H722.034L750.51 405.668V410.111H750.49ZM678.376 403.498V336.668H682.943L710.903 365.416V374.777L682.937 403.498H678.376ZM684.901 330.054H750.51V334.497L722.034 363.333H713.376L684.901 334.497V330.054ZM724.507 326.839H675.531V413.327H759.899V326.839H724.507Z" fill="#B2B6BB"/>
<path d="M757.015 463.32V489.992H752.447L724.488 461.271V451.876L752.447 423.156H757.015V463.32ZM750.49 496.606H684.901V492.156L713.376 463.327H722.034L750.51 492.156V496.606H750.49ZM678.376 489.992V423.156H682.943L710.909 451.876V461.271L682.943 489.992H678.376ZM684.901 416.542H750.51V420.985L722.034 449.821H713.376L684.901 420.985V416.542ZM724.507 413.327H675.531V499.814H759.899V413.327H724.507Z" fill="#B2B6BB"/>
<path d="M757.015 549.807V576.479H752.447L724.488 547.759V538.391L752.447 509.67H757.015V549.834V549.807ZM750.49 583.093H684.901V578.643L713.376 549.814H722.034L750.51 578.643V583.093H750.49ZM678.376 576.479V509.643H682.943L710.903 538.391V547.786L682.937 576.506L678.376 576.479ZM684.901 503.029H750.51V507.472L722.034 536.308H713.376L684.901 507.472V503.029ZM724.507 499.814H675.531V586.302H759.899V499.814H724.507Z" fill="#B2B6BB"/>
<path d="M757.015 636.295V662.967H752.447L724.488 634.246V624.851L752.447 596.131H757.015V636.295ZM750.49 669.581H684.901V665.131L713.376 636.302H722.034L750.51 665.131V669.581H750.49ZM678.376 662.967V596.131H682.943L710.909 624.851V634.246L682.943 662.967H678.376ZM684.901 589.517H750.51V593.967L722.034 622.796H713.376L684.901 593.967V589.517ZM724.507 586.302H675.531V672.796H759.899V586.302H724.507Z" fill="#B2B6BB"/>
<path d="M757.015 722.789V749.454H752.447L724.488 720.734V711.366L752.447 682.639H757.015V722.809V722.789ZM750.49 756.068H684.901V751.625L713.376 722.789H722.034L750.51 751.625V756.068H750.49ZM678.376 749.454V682.618H682.943L710.903 711.366V720.754L682.937 749.475L678.376 749.454ZM684.901 676.004H750.51V680.454L722.034 709.283H713.376L684.901 680.454V676.004ZM724.507 672.796H675.531V759.283H759.899V672.796H724.507Z" fill="#B2B6BB"/>
<path d="M696.411 335.968H693.305V331.701H696.411V335.968ZM696.411 341.849H693.305V337.603H696.411V341.87V341.849ZM696.411 347.724H693.305V343.464H696.411V347.724ZM696.411 353.605H693.305V349.338H696.411V353.605ZM696.411 359.486H693.305V355.24H696.411V359.506V359.486ZM696.411 365.36H693.305V361.1H696.411V365.36ZM696.411 371.241H693.305V366.975H696.411V371.241ZM696.411 377.123H693.305V372.876H696.411V377.143V377.123ZM696.411 382.997H693.305V378.737H696.411V382.997ZM696.411 388.878H693.305V384.611H696.411V388.878ZM696.411 394.759H693.305V390.513H696.411V394.78V394.759ZM696.411 400.634H693.305V396.374H696.411V400.634ZM696.411 406.515H693.305V402.248H696.411V406.515ZM696.411 412.396H693.305V408.15H696.411V412.416V412.396ZM696.411 418.27H693.305V414.01H696.411V418.27ZM696.411 424.151H693.305V419.885H696.411V424.151ZM696.411 430.033H693.305V425.786H696.411V430.053V430.033ZM696.411 435.907H693.305V431.647H696.411V435.907ZM696.411 441.788H693.305V437.521H696.411V441.788ZM696.411 447.669H693.305V443.423H696.411V447.69V447.669ZM696.411 453.544H693.305V449.284H696.411V453.544ZM696.411 459.425H693.305V455.158H696.411V459.425ZM696.411 465.306H693.305V461.06H696.411V465.326V465.306ZM696.411 471.18H693.305V466.92H696.411V471.18ZM696.411 477.061H693.305V472.795H696.411V477.061ZM696.411 482.943H693.305V478.696H696.411V482.963V482.943ZM696.411 488.824H693.305V484.557H696.411V488.824ZM696.411 494.698H693.305V490.431H696.411V494.698ZM696.411 500.579H693.305V496.333H696.411V500.6V500.579ZM696.411 506.454H693.305V502.194H696.411V506.454ZM696.411 512.335H693.305V508.068H696.411V512.335ZM696.411 518.216H693.305V513.97H696.411V518.236V518.216ZM696.411 524.097H693.305V519.83H696.411V524.097ZM696.411 529.971H693.305V525.712H696.411V529.971ZM696.411 535.853H693.305V531.606H696.411V535.873V535.853ZM696.411 541.734H693.305V537.467H696.411V541.734ZM696.411 547.608H693.305V543.341H696.411V547.608ZM696.411 553.489H693.305V549.243H696.411V553.51V553.489ZM696.411 559.364H693.305V555.104H696.411V559.364ZM696.411 565.245H693.305V560.978H696.411V565.245ZM696.411 327.957V330.087H693.305V327.957H691.752V568.996H693.305V566.88H696.411V569.016H697.964V327.957H696.411Z" fill="#B2B6BB"/>
<path d="M759.37 351.679H677.077V348.857H759.37V351.679Z" fill="#B2B6BB"/>
<path d="M759.893 323.026H675.524V320.204H759.893V323.026Z" fill="#B2B6BB"/>
<path d="M759.893 317.308H675.524V316.636H759.893V317.308Z" fill="#B2B6BB"/>
<path d="M678.245 316.636H675.57V328.304H678.245V316.636Z" fill="#B2B6BB"/>
<path d="M760.017 316.636H757.341V328.304H760.017V316.636Z" fill="#B2B6BB"/>
<path opacity="0.2" d="M681.586 597.894C681.455 597.907 681.331 597.907 681.201 597.894C680.868 597.894 680.548 597.894 680.189 597.894C680.653 597.978 681.123 597.978 681.586 597.894Z" fill="#F4F4F4"/>
<path opacity="0.2" d="M779.507 576.634L779.65 576.451C779.598 576.506 779.546 576.567 779.507 576.634Z" fill="#F4F4F4"/>
<path opacity="0.2" d="M678.839 644.543C679.224 644.38 679.622 644.231 680.02 644.109C679.831 644.21 679.296 644.332 678.839 644.543Z" fill="#F4F4F4"/>
<path opacity="0.2" d="M679.903 597.982C680.001 597.972 680.092 597.972 680.189 597.982C680.092 597.968 680.001 597.968 679.903 597.982Z" fill="#F4F4F4"/>
<path opacity="0.2" d="M681.586 597.894C681.455 597.907 681.331 597.907 681.201 597.894C680.868 597.894 680.548 597.894 680.189 597.894C680.653 597.978 681.123 597.978 681.586 597.894Z" fill="black"/>
<path opacity="0.2" d="M779.507 576.634L779.65 576.451C779.598 576.506 779.546 576.567 779.507 576.634Z" fill="black"/>
<path opacity="0.2" d="M678.839 644.543C679.224 644.38 679.622 644.231 680.02 644.109C679.831 644.21 679.296 644.332 678.839 644.543Z" fill="black"/>
<path opacity="0.2" d="M679.903 597.982C680.001 597.972 680.092 597.972 680.189 597.982C680.092 597.968 680.001 597.968 679.903 597.982Z" fill="black"/>
<path d="M779.507 576.635C779.344 576.813 779.187 577.001 779.05 577.198C779.187 577.273 779.311 576.92 779.507 576.635Z" fill="#F4F4F4"/>
<path d="M254.086 813.319H244.116V259.637H254.086V813.319Z" fill="#4760E9"/>
<path d="M301.309 813.319H299.143V259.637H301.309V813.319Z" fill="#4760E9"/>
<path d="M270.608 813.319H268.442V259.637H270.608V813.319Z" fill="#4760E9"/>
<path d="M305.981 813.319H303.814V259.637H305.981V813.319Z" fill="#4760E9"/>
<path d="M331.781 338.607V381.403H324.486L279.613 335.31V320.238L324.486 274.145H331.774V338.586L331.781 338.607ZM321.341 392.019H216.053V384.883L261.728 338.614H275.626L321.301 384.883V392.019H321.341ZM205.613 381.403V274.145H212.908L257.787 320.238V335.31L212.908 381.403H205.613ZM216.053 263.529H321.341V270.665L275.666 316.934H261.767L216.092 270.665V263.529H216.053ZM279.613 258.374H201V397.174H336.394V258.374H279.613Z" fill="#4760E9"/>
<path d="M331.781 477.401V520.204H324.486L279.613 474.078V459.025L324.486 412.946H331.774V477.388L331.781 477.401ZM321.341 530.82H216.053V523.684L261.728 477.415H275.626L321.301 523.684V530.82H321.341ZM205.613 520.204V412.946H212.908L257.774 459.025V474.098L212.895 520.225L205.613 520.204ZM216.053 402.33H321.341V409.466L275.666 455.735H261.767L216.092 409.466V402.33H216.053ZM279.613 397.175H201V535.976H336.394V397.175H279.613Z" fill="#4760E9"/>
<path d="M331.781 616.201V659.004H324.486L279.613 612.911V597.839L324.486 551.746H331.774V616.188L331.781 616.201ZM321.341 669.62H216.053V662.484L261.728 616.215H275.626L321.301 662.484V669.62H321.341ZM205.613 659.004V551.746H212.908L257.787 597.839V612.911L212.908 659.004H205.613ZM216.053 541.13H321.341V548.266L275.666 594.535H261.767L216.092 548.266V541.103L216.053 541.13ZM279.613 535.975H201V674.775H336.394V535.975H279.613Z" fill="#4760E9"/>
<path d="M331.781 755.003V797.805H324.486L279.613 751.679V736.641L324.486 690.514H331.774V754.956L331.781 755.003ZM321.341 808.421H216.053V801.285L261.728 755.01H275.626L321.301 801.285V808.421H321.341ZM205.613 797.805V690.548H212.908L257.787 736.675V751.747L212.908 797.873L205.613 797.805ZM216.053 679.932H321.341V687.068L275.666 733.337H261.767L216.092 687.068V679.932H216.053ZM279.613 674.777H201V813.577H336.394V674.777H279.613Z" fill="#4760E9"/>
<path d="M234.486 273.026H229.501V266.182H234.486V273.026ZM234.486 282.462H229.501V275.618H234.486V282.462ZM234.486 291.898H229.501V285.053H234.486V291.898ZM234.486 301.333H229.501V294.489H234.486V301.333ZM234.486 310.769H229.501V303.924H234.486V310.769ZM234.486 320.198H229.501V313.353H234.486V320.198ZM234.486 329.633H229.501V322.789H234.486V329.633ZM234.486 339.069H229.501V332.224H234.486V339.069ZM234.486 348.504H229.501V341.674H234.486V348.518V348.504ZM234.486 357.94H229.501V351.096H234.486V357.954V357.94ZM234.486 367.376H229.501V360.531H234.486V367.376ZM234.486 376.811H229.501V369.967H234.486V376.811ZM234.486 386.24H229.501V379.403H234.486V386.24ZM234.486 395.676H229.501V388.831H234.486V395.676ZM234.486 405.111H229.501V398.267H234.486V405.111ZM234.486 414.547H229.501V407.703H234.486V414.547ZM234.486 423.983H229.501V417.138H234.486V423.983ZM234.486 433.418H229.501V426.574H234.486V433.418ZM234.486 442.854H229.501V436.009H234.486V442.854ZM234.486 452.289H229.501V445.459H234.486V452.303V452.289ZM234.486 461.725H229.501V454.881H234.486V461.739V461.725ZM234.486 471.154H229.501V464.309H234.486V471.154ZM234.486 480.589H229.501V473.745H234.486V480.589ZM234.486 490.025H229.501V483.181H234.486V490.025ZM234.486 499.461H229.501V492.616H234.486V499.461ZM234.486 508.896H229.501V502.052H234.486V508.896ZM234.486 518.332H229.501V511.488H234.486V518.332ZM234.486 527.768H229.501V520.923H234.486V527.768ZM234.486 537.196H229.501V530.359H234.486V537.196ZM234.486 546.632H229.501V539.788H234.486V546.632ZM234.486 556.068H229.501V549.244H234.486V556.088V556.068ZM234.486 565.503H229.501V558.659H234.486V565.524V565.503ZM234.486 574.939H229.501V568.094H234.486V574.939ZM234.486 584.374H229.501V577.53H234.486V584.374ZM234.486 593.81H229.501V586.966H234.486V593.81ZM234.486 603.246H229.501V596.401H234.486V603.246ZM234.486 612.675H229.501V605.83H234.486V612.675ZM234.486 622.11H229.501V615.266H234.486V622.11ZM234.486 631.546H229.501V624.701H234.486V631.546ZM234.486 640.981H229.501V634.137H234.486V640.981ZM234.486 260.172V263.564H229.501V260.172H227.008V646.998H229.501V643.573H234.486V646.998H236.978V260.172H234.486Z" fill="#4760E9"/>
<path d="M335.564 298.239H203.485V293.708H335.564V298.239Z" fill="#4760E9"/>
<path d="M336.394 252.256H201V247.724H336.394V252.256Z" fill="#4760E9"/>
<path d="M336.394 243.085H201V242H336.394V243.085Z" fill="#4760E9"/>
<path d="M205.358 242.006H201.071V260.728H205.358V242.006Z" fill="#4760E9"/>
<path d="M336.59 242.006H332.303V260.728H336.59V242.006Z" fill="#4760E9"/>
<path d="M319.802 762.472H313.46V324.587H319.802V762.472Z" fill="#B2B6BB"/>
<path d="M349.867 762.472H348.49V324.587H349.867V762.472Z" fill="#B2B6BB"/>
<path d="M330.324 762.472H328.941V324.587H330.324V762.472Z" fill="#B2B6BB"/>
<path d="M352.851 762.472H351.468V324.587H352.851V762.472Z" fill="#B2B6BB"/>
<path d="M369.273 374.871V402.12H364.634L336.061 372.768V363.177L364.634 333.825H369.273V374.871ZM362.624 408.883H295.587V404.338L324.682 374.871H333.529L362.624 404.338V408.883ZM288.938 402.099V333.825H293.577L322.15 363.177V372.768L293.577 402.12L288.938 402.099ZM295.587 327.042H362.624V331.587L333.529 361.074H324.682L295.587 331.607V327.062V327.042ZM336.042 323.759H285.988V412.146H372.21V323.779L336.042 323.759Z" fill="#B2B6BB"/>
<path d="M369.273 463.252V490.501H364.634L336.061 461.156V451.564L364.634 422.213H369.273V463.259V463.252ZM362.624 497.264H295.587V492.719L324.682 463.252H333.529L362.624 492.719V497.264ZM288.938 490.48V422.206H293.577L322.15 451.564V461.163L293.577 490.501L288.938 490.48ZM295.587 415.429H362.624V419.968L333.529 449.434H324.682L295.587 419.968V415.429ZM336.042 412.146H285.988V500.547H372.21V412.167L336.042 412.146Z" fill="#B2B6BB"/>
<path d="M369.273 551.631V578.887H364.634L336.061 549.535V539.937L364.634 510.579H369.273V551.625V551.631ZM362.624 585.643H295.587V581.125L324.682 551.665H333.529L362.624 581.125V585.67V585.643ZM288.938 578.86V510.579H293.577L322.15 539.93V549.528L293.577 578.887L288.938 578.86ZM295.587 503.802H362.624V508.347L333.529 537.807H324.682L295.587 508.347V503.802ZM336.042 500.519H285.988V588.926H372.21V500.546L336.042 500.519Z" fill="#B2B6BB"/>
<path d="M369.273 640.011V667.274H364.634L336.061 637.922V628.317L364.634 598.965H369.273V640.011ZM362.624 674.057H295.587V669.512L324.682 640.052H333.529L362.624 669.512V674.057ZM288.938 667.274V598.965H293.577L322.15 628.317V637.915L293.577 667.274H288.938ZM295.587 592.216H362.624V596.727L333.529 626.187H324.682L295.587 596.727V592.182V592.216ZM336.042 588.933H285.988V677.306H372.21V588.926L336.042 588.933Z" fill="#B2B6BB"/>
<path d="M369.273 728.391V755.647H364.634L336.061 726.288V716.697L364.634 687.352H369.273V728.391ZM362.624 762.403H295.587V757.865L324.682 728.398H333.529L362.624 757.865V762.403ZM288.938 755.62V687.352H293.577L322.15 716.697V726.288L293.577 755.64L288.938 755.62ZM295.587 680.562H362.624V685.107L333.529 714.574H324.682L295.587 685.107V680.562ZM336.042 677.279H285.988V765.666H372.21V677.306L336.042 677.279Z" fill="#B2B6BB"/>
<path d="M371.687 349.169H287.586V346.279H371.687V349.169Z" fill="#B2B6BB"/>
<path d="M372.209 319.886H286.001V317.003H372.209V319.886Z" fill="#B2B6BB"/>
<path d="M372.209 314.045H286.001V313.36H372.209V314.045Z" fill="#B2B6BB"/>
<path d="M288.781 313.36H286.047V325.285H288.781V313.36Z" fill="#B2B6BB"/>
<path d="M372.339 313.36H369.605V325.285H372.339V313.36Z" fill="#B2B6BB"/>
<path opacity="0.2" d="M306.058 557.777L306.156 557.614C306.078 557.668 306.052 557.729 306.058 557.777Z" fill="#F4F4F4"/>
<path opacity="0.2" d="M284.365 544.624C284.404 544.766 284.639 544.895 284.913 545.017C284.75 544.874 284.397 544.746 284.365 544.624Z" fill="#F4F4F4"/>
<path opacity="0.2" d="M307.253 556.827C307.449 556.646 307.669 556.496 307.906 556.38C307.664 556.488 307.444 556.64 307.253 556.827Z" fill="#F4F4F4"/>
<path opacity="0.2" d="M264.886 567.226C264.911 567.287 264.944 567.344 264.984 567.395L264.886 567.226Z" fill="#F4F4F4"/>
<path opacity="0.2" d="M378.336 661.365L378.075 660.938C378.166 661.074 378.244 661.223 378.336 661.365Z" fill="#F4F4F4"/>
<path opacity="0.2" d="M214.389 601.476L214.696 601.415C214.774 601.415 214.846 601.361 214.918 601.347L214.389 601.476Z" fill="#F4F4F4"/>
<path opacity="0.2" d="M225.757 594.692C225.819 594.614 225.874 594.53 225.919 594.442C225.867 594.557 225.815 594.638 225.757 594.692Z" fill="#F4F4F4"/>
<path opacity="0.2" d="M378.075 660.937C378.045 660.891 378.017 660.844 377.991 660.795C378.016 660.844 378.045 660.892 378.075 660.937Z" fill="#F4F4F4"/>
<path opacity="0.2" d="M304.14 553.192C303.921 552.743 303.677 552.308 303.409 551.889C303.507 551.808 303.801 552.384 304.14 553.192Z" fill="#F4F4F4"/>
<path opacity="0.2" d="M306.058 557.777L306.156 557.614C306.078 557.668 306.052 557.729 306.058 557.777Z" fill="black"/>
<path opacity="0.2" d="M284.365 544.624C284.404 544.766 284.639 544.895 284.913 545.017C284.75 544.874 284.397 544.746 284.365 544.624Z" fill="black"/>
<path opacity="0.2" d="M307.253 556.827C307.449 556.646 307.669 556.496 307.906 556.38C307.664 556.488 307.444 556.64 307.253 556.827Z" fill="black"/>
<path opacity="0.2" d="M264.886 567.226C264.911 567.287 264.944 567.344 264.984 567.395L264.886 567.226Z" fill="black"/>
<path opacity="0.2" d="M378.336 661.365L378.075 660.938C378.166 661.074 378.244 661.223 378.336 661.365Z" fill="black"/>
<path opacity="0.2" d="M214.389 601.476L214.696 601.415C214.774 601.415 214.846 601.361 214.918 601.347L214.389 601.476Z" fill="black"/>
<path opacity="0.2" d="M225.757 594.692C225.819 594.614 225.874 594.53 225.919 594.442C225.867 594.557 225.815 594.638 225.757 594.692Z" fill="black"/>
<path opacity="0.2" d="M378.075 660.937C378.045 660.891 378.017 660.844 377.991 660.795C378.016 660.844 378.045 660.892 378.075 660.937Z" fill="black"/>
<path d="M378.683 661.989C378.572 661.765 378.448 661.555 378.337 661.365C378.461 661.568 378.572 661.778 378.683 661.989Z" fill="#F4F4F4"/>
</svg>
