<svg xmlns="http://www.w3.org/2000/svg" width="64" height="65"><g fill-rule="nonzero" fill="none"><circle fill="#F8BF1A" cx="32.2" cy="32.4" r="31.7"/><path d="M14.6 50.2v-8.4h4.9V22.6h-4.9v-8.1h20.5c1.4 0 2.8.4 4.1.9 2.6 1 4.9 2.5 6.7 4.7 1.6 1.9 2.7 4.1 3.3 6.6 1 4.2 1 8.5-.2 12.7-1.6 5.5-5 9.2-10.8 10.5-1 .2-2.1.3-3.1.4H15.4c-.3-.1-.5-.1-.8-.1zm14.9-8.4c1.1 0 2.2.1 3.3 0 1.4-.1 2.7-.6 3.6-1.8.8-1 1.5-2.1 1.9-3.3.8-2.7.5-5.4-.1-8.1-.3-1.6-1.1-3.1-2.1-4.3-.6-.7-1.4-1.5-2.3-1.6-1.4-.3-2.9-.1-4.3-.1v19.2z" fill="#FFF"/></g></svg>