<svg width="721" height="233" viewBox="0 0 721 233" fill="none" xmlns="http://www.w3.org/2000/svg">
<path d="M0 16C0 7.16345 7.16344 0 16 0H705C713.837 0 721 7.16344 721 16V217C721 225.837 713.837 233 705 233H16C7.16345 233 0 225.837 0 217V16Z" fill="#FFEECA"/>
<path d="M393.486 68.4062H380.22V82H371.993V47.875H394.822V54.2266H380.22V62.0781H393.486V68.4062ZM412.374 79.2578C410.702 81.3984 408.444 82.4688 405.6 82.4688C402.819 82.4688 400.71 81.6641 399.272 80.0547C397.85 78.4297 397.14 76.1016 397.14 73.0703V56.6406H405.038V73.1172C405.038 75.2891 406.093 76.375 408.202 76.375C410.015 76.375 411.304 75.7266 412.069 74.4297V56.6406H420.015V82H412.608L412.374 79.2578ZM436.536 82.4688C432.645 82.4688 429.497 81.3125 427.09 79C424.684 76.6719 423.481 73.6484 423.481 69.9297V69.2734C423.481 66.6797 423.958 64.3906 424.911 62.4062C425.88 60.4219 427.286 58.8906 429.13 57.8125C430.973 56.7188 433.161 56.1719 435.692 56.1719C439.255 56.1719 442.067 57.2812 444.13 59.5C446.192 61.7031 447.223 64.7812 447.223 68.7344V71.8047H431.52C431.801 73.2266 432.419 74.3438 433.372 75.1562C434.325 75.9688 435.559 76.375 437.075 76.375C439.575 76.375 441.528 75.5 442.934 73.75L446.544 78.0156C445.559 79.375 444.161 80.4609 442.348 81.2734C440.551 82.0703 438.614 82.4688 436.536 82.4688ZM435.645 62.2656C433.333 62.2656 431.958 63.7969 431.52 66.8594H439.489V66.25C439.52 64.9844 439.2 64.0078 438.528 63.3203C437.856 62.6172 436.895 62.2656 435.645 62.2656ZM458.659 82H450.737V46H458.659V82ZM501.052 54.2266H490.81V82H482.584V54.2266H472.529V47.875H501.052V54.2266ZM514.433 82C514.152 81.4844 513.902 80.7266 513.683 79.7266C512.23 81.5547 510.199 82.4688 507.589 82.4688C505.199 82.4688 503.167 81.75 501.495 80.3125C499.824 78.8594 498.988 77.0391 498.988 74.8516C498.988 72.1016 500.003 70.0234 502.035 68.6172C504.066 67.2109 507.019 66.5078 510.894 66.5078H513.331V65.1719C513.331 62.8438 512.324 61.6797 510.308 61.6797C508.433 61.6797 507.495 62.6016 507.495 64.4453H499.597C499.597 61.9922 500.636 60 502.714 58.4688C504.808 56.9375 507.472 56.1719 510.706 56.1719C513.941 56.1719 516.495 56.9609 518.37 58.5391C520.245 60.1172 521.206 62.2812 521.253 65.0312V76.2578C521.285 78.5859 521.644 80.3672 522.331 81.6016V82H514.433ZM509.488 76.8438C510.472 76.8438 511.285 76.6328 511.925 76.2109C512.581 75.7891 513.05 75.3125 513.331 74.7812V70.7266H511.035C508.285 70.7266 506.91 71.9609 506.91 74.4297C506.91 75.1484 507.152 75.7344 507.636 76.1875C508.12 76.625 508.738 76.8438 509.488 76.8438ZM532.806 56.6406L533.064 59.6172C534.814 57.3203 537.228 56.1719 540.306 56.1719C542.946 56.1719 544.915 56.9609 546.212 58.5391C547.525 60.1172 548.204 62.4922 548.251 65.6641V82H540.329V65.9922C540.329 64.7109 540.071 63.7734 539.556 63.1797C539.04 62.5703 538.103 62.2656 536.743 62.2656C535.196 62.2656 534.048 62.875 533.298 64.0938V82H525.4V56.6406H532.806ZM562.733 72.5547L560.507 74.7812V82H552.608V45.9766H560.507V65.1016L561.303 64.0469L567.257 56.6406H576.725L567.843 67.0703L577.311 82H568.264L562.733 72.5547Z" fill="black"/>
<path d="M598.863 200.953C598.863 199.719 598.558 198.75 597.949 198.047C597.339 197.344 596.269 196.68 594.738 196.055C593.207 195.43 591.792 194.797 590.496 194.156C589.199 193.516 588.082 192.773 587.144 191.93C586.207 191.086 585.488 190.109 584.988 189C584.488 187.891 584.238 186.547 584.238 184.969C584.238 182.328 585.128 180.156 586.91 178.453C588.691 176.734 591.066 175.734 594.035 175.453V170.508H597.761V175.547C600.621 175.969 602.863 177.148 604.488 179.086C606.128 181.008 606.949 183.453 606.949 186.422H599.027C599.027 184.797 598.714 183.547 598.089 182.672C597.464 181.797 596.574 181.359 595.417 181.359C594.386 181.359 593.582 181.688 593.003 182.344C592.441 182.984 592.16 183.875 592.16 185.016C592.16 186.172 592.488 187.094 593.144 187.781C593.8 188.453 594.855 189.102 596.308 189.727C597.761 190.336 599.128 190.977 600.41 191.648C601.707 192.305 602.824 193.055 603.761 193.898C604.699 194.742 605.433 195.727 605.964 196.852C606.496 197.977 606.761 199.328 606.761 200.906C606.761 203.578 605.91 205.758 604.207 207.445C602.519 209.133 600.214 210.117 597.292 210.398V215.109H593.566V210.375C590.16 210.016 587.542 208.852 585.714 206.883C583.902 204.898 582.996 202.289 582.996 199.055H590.894C590.894 200.836 591.285 202.195 592.066 203.133C592.863 204.055 593.988 204.516 595.441 204.516C596.503 204.516 597.339 204.203 597.949 203.578C598.558 202.938 598.863 202.062 598.863 200.953ZM611.306 193.312L613.392 175.875H633.337V182.016H619.814L619.04 188.789C619.603 188.461 620.337 188.172 621.243 187.922C622.165 187.672 623.064 187.547 623.939 187.547C627.329 187.547 629.931 188.555 631.743 190.57C633.571 192.57 634.486 195.383 634.486 199.008C634.486 201.195 633.993 203.18 633.009 204.961C632.04 206.727 630.673 208.086 628.907 209.039C627.142 209.992 625.056 210.469 622.65 210.469C620.509 210.469 618.501 210.031 616.626 209.156C614.751 208.266 613.282 207.055 612.22 205.523C611.157 203.977 610.634 202.234 610.65 200.297H618.571C618.65 201.547 619.048 202.539 619.767 203.273C620.486 204.008 621.431 204.375 622.603 204.375C625.259 204.375 626.587 202.406 626.587 198.469C626.587 194.828 624.962 193.008 621.712 193.008C619.868 193.008 618.493 193.602 617.587 194.789L611.306 193.312ZM662.233 196.055C662.233 200.664 661.194 204.219 659.116 206.719C657.054 209.219 654.14 210.469 650.374 210.469C646.577 210.469 643.64 209.211 641.561 206.695C639.483 204.18 638.444 200.633 638.444 196.055V189.82C638.444 185.211 639.475 181.656 641.538 179.156C643.616 176.656 646.546 175.406 650.327 175.406C654.108 175.406 657.038 176.664 659.116 179.18C661.194 181.695 662.233 185.25 662.233 189.844V196.055ZM654.335 188.812C654.335 186.359 654.015 184.531 653.374 183.328C652.733 182.109 651.718 181.5 650.327 181.5C648.968 181.5 647.975 182.062 647.35 183.188C646.741 184.312 646.413 186.016 646.366 188.297V197.016C646.366 199.562 646.686 201.43 647.327 202.617C647.968 203.789 648.983 204.375 650.374 204.375C651.718 204.375 652.71 203.805 653.35 202.664C653.991 201.508 654.319 199.703 654.335 197.25V188.812ZM689.934 196.055C689.934 200.664 688.895 204.219 686.817 206.719C684.755 209.219 681.84 210.469 678.075 210.469C674.278 210.469 671.34 209.211 669.262 206.695C667.184 204.18 666.145 200.633 666.145 196.055V189.82C666.145 185.211 667.176 181.656 669.239 179.156C671.317 176.656 674.247 175.406 678.028 175.406C681.809 175.406 684.739 176.664 686.817 179.18C688.895 181.695 689.934 185.25 689.934 189.844V196.055ZM682.036 188.812C682.036 186.359 681.715 184.531 681.075 183.328C680.434 182.109 679.419 181.5 678.028 181.5C676.669 181.5 675.676 182.062 675.051 183.188C674.442 184.312 674.114 186.016 674.067 188.297V197.016C674.067 199.562 674.387 201.43 675.028 202.617C675.669 203.789 676.684 204.375 678.075 204.375C679.419 204.375 680.411 203.805 681.051 202.664C681.692 201.508 682.02 199.703 682.036 197.25V188.812Z" fill="black"/>
<path d="M224 28L225 212" stroke="black" stroke-width="3"/>
<rect x="449" y="168" width="114" height="48" rx="16" fill="#37A360"/>
<path d="M463.089 194.658V199H460.004V186.203H465.11C466.089 186.203 466.953 186.385 467.703 186.748C468.459 187.105 469.042 187.618 469.452 188.286C469.868 188.948 470.076 189.701 470.076 190.545C470.076 191.793 469.628 192.792 468.731 193.542C467.841 194.286 466.616 194.658 465.058 194.658H463.089ZM463.089 192.276H465.11C465.708 192.276 466.162 192.127 466.473 191.828C466.789 191.529 466.947 191.107 466.947 190.562C466.947 189.965 466.786 189.487 466.464 189.13C466.142 188.772 465.702 188.591 465.145 188.585H463.089V192.276ZM481.802 186.203V194.579C481.802 195.528 481.599 196.352 481.195 197.049C480.791 197.74 480.211 198.268 479.455 198.631C478.699 198.994 477.806 199.176 476.774 199.176C475.216 199.176 473.988 198.771 473.092 197.963C472.195 197.154 471.738 196.047 471.721 194.641V186.203H474.823V194.702C474.858 196.103 475.509 196.803 476.774 196.803C477.413 196.803 477.896 196.627 478.224 196.275C478.553 195.924 478.717 195.353 478.717 194.562V186.203H481.802ZM488.526 194.482H486.856V199H483.771V186.203H488.807C490.325 186.203 491.511 186.54 492.367 187.214C493.222 187.888 493.65 188.84 493.65 190.07C493.65 190.961 493.468 191.699 493.105 192.285C492.748 192.871 492.185 193.346 491.418 193.709L494.09 198.868V199H490.785L488.526 194.482ZM486.856 192.101H488.807C489.393 192.101 489.833 191.948 490.126 191.644C490.425 191.333 490.574 190.902 490.574 190.352C490.574 189.801 490.425 189.37 490.126 189.06C489.827 188.743 489.387 188.585 488.807 188.585H486.856V192.101ZM505.903 194.667C505.862 195.558 505.622 196.346 505.182 197.031C504.743 197.711 504.125 198.238 503.328 198.613C502.537 198.988 501.631 199.176 500.612 199.176C498.93 199.176 497.606 198.628 496.639 197.532C495.672 196.437 495.189 194.89 495.189 192.892V192.259C495.189 191.005 495.406 189.909 495.839 188.972C496.279 188.028 496.909 187.302 497.729 186.792C498.549 186.276 499.499 186.019 500.577 186.019C502.129 186.019 503.378 186.429 504.321 187.249C505.264 188.063 505.8 189.188 505.929 190.624H502.853C502.83 189.845 502.633 189.285 502.264 188.945C501.895 188.605 501.333 188.436 500.577 188.436C499.809 188.436 499.247 188.723 498.889 189.297C498.532 189.871 498.344 190.788 498.327 192.048V192.953C498.327 194.318 498.497 195.294 498.836 195.88C499.182 196.466 499.774 196.759 500.612 196.759C501.321 196.759 501.863 196.592 502.238 196.258C502.613 195.924 502.812 195.394 502.836 194.667H505.903ZM518.094 199H515.027V193.656H510.483V199H507.398V186.203H510.483V191.283H515.027V186.203H518.094V199ZM527.517 196.609H523.289L522.551 199H519.255L523.949 186.203H526.849L531.577 199H528.264L527.517 196.609ZM524.028 194.228H526.779L525.399 189.789L524.028 194.228ZM539.154 195.599C539.154 195.147 538.993 194.796 538.671 194.544C538.355 194.292 537.795 194.031 536.992 193.762C536.19 193.492 535.533 193.231 535.024 192.979C533.365 192.165 532.536 191.046 532.536 189.622C532.536 188.913 532.741 188.289 533.152 187.75C533.568 187.205 534.153 186.783 534.909 186.484C535.665 186.18 536.515 186.027 537.458 186.027C538.378 186.027 539.201 186.191 539.928 186.52C540.66 186.848 541.229 187.316 541.633 187.926C542.037 188.529 542.239 189.221 542.239 190H539.163C539.163 189.479 539.002 189.074 538.68 188.787C538.363 188.5 537.933 188.356 537.388 188.356C536.837 188.356 536.401 188.479 536.078 188.726C535.762 188.966 535.604 189.273 535.604 189.648C535.604 189.977 535.779 190.275 536.131 190.545C536.483 190.809 537.101 191.084 537.986 191.371C538.87 191.652 539.597 191.957 540.165 192.285C541.548 193.082 542.239 194.181 542.239 195.581C542.239 196.7 541.818 197.579 540.974 198.218C540.13 198.856 538.973 199.176 537.502 199.176C536.465 199.176 535.525 198.991 534.681 198.622C533.843 198.247 533.21 197.737 532.782 197.093C532.361 196.442 532.15 195.695 532.15 194.852H535.243C535.243 195.537 535.419 196.044 535.771 196.372C536.128 196.694 536.705 196.855 537.502 196.855C538.012 196.855 538.413 196.747 538.706 196.53C539.005 196.308 539.154 195.997 539.154 195.599ZM551.794 193.577H546.942V196.627H552.673V199H543.857V186.203H552.69V188.585H546.942V191.283H551.794V193.577Z" fill="white"/>
<path d="M94 221V80.7244C95.4867 51.0207 103.505 28.6984 117.313 13C131.033 28.3494 138.922 49.9588 140.431 78.4149V220.993L94 221Z" fill="#F8BF1A"/>
<path opacity="0.3" d="M102.969 37.4757H131.649V37.5203H132.162C131.984 37.0673 131.814 36.6069 131.631 36.1539H102.969C102.791 36.6069 102.616 37.0673 102.442 37.5203H102.951C102.959 37.5069 102.965 37.4921 102.969 37.4757Z" fill="black"/>
<path opacity="0.3" d="M140.436 94.3807L139.815 94.3733H94.4206L94.0456 94.3807V95.606H140.436V94.3807Z" fill="black"/>
<path opacity="0.3" d="M140.431 97.1125H94V158.815H140.431V97.1125ZM96.1296 157.508H94.7902V98.4121H96.1296V157.508ZM99.3172 157.508H96.9064V98.4121H99.3172V157.508ZM102.505 157.508H100.094V98.4121H102.505V157.508ZM105.692 157.508H103.282V98.4121H105.692V157.508ZM108.88 157.508H106.501V98.4121H108.907L108.88 157.508ZM112.068 157.508H109.657V98.4121H112.068V157.508ZM115.255 157.508H112.849V98.4121H115.255V157.508ZM118.443 157.508H116.037V98.4121H118.443V157.508ZM121.631 157.508H119.224V98.4121H121.631V157.508ZM124.823 157.508H122.412V98.4121H124.823V157.508ZM128.01 157.508H125.6V98.4121H128.01V157.508ZM131.198 157.508H128.787V98.4121H131.198V157.508ZM134.386 157.508H131.975V98.4121H134.386V157.508ZM137.573 157.508H135.162V98.4121H137.573V157.508ZM138.355 157.508V98.4121H139.814V157.508H138.355Z" fill="black"/>
<path opacity="0.3" d="M94.7997 161.547H139.819H140.436V160.255H94.0229V161.547H94.7997Z" fill="black"/>
<path opacity="0.2" d="M96.5724 221V80.7244C97.9118 51.0207 104.988 28.6984 117.212 13C117.212 46.4166 117.122 221 117.122 221H96.5724Z" fill="black"/>
</svg>
