<svg width="721" height="233" viewBox="0 0 721 233" fill="none" xmlns="http://www.w3.org/2000/svg">
<path d="M0 16C0 7.16345 7.16344 0 16 0H705C713.837 0 721 7.16344 721 16V217C721 225.837 713.837 233 705 233H16C7.16345 233 0 225.837 0 217V16Z" fill="#61656D"/>
<path d="M225 23L226 207" stroke="black" stroke-width="3"/>
<path d="M350.153 68.6719H364.473V75H341.926V40.875H350.153V68.6719ZM379.752 75.4688C375.862 75.4688 372.713 74.3125 370.307 72C367.901 69.6719 366.698 66.6484 366.698 62.9297V62.2734C366.698 59.6797 367.174 57.3906 368.127 55.4062C369.096 53.4219 370.502 51.8906 372.346 50.8125C374.19 49.7188 376.377 49.1719 378.909 49.1719C382.471 49.1719 385.284 50.2812 387.346 52.5C389.409 54.7031 390.44 57.7812 390.44 61.7344V64.8047H374.737C375.018 66.2266 375.635 67.3438 376.588 68.1562C377.541 68.9688 378.776 69.375 380.291 69.375C382.791 69.375 384.745 68.5 386.151 66.75L389.76 71.0156C388.776 72.375 387.377 73.4609 385.565 74.2734C383.768 75.0703 381.83 75.4688 379.752 75.4688ZM378.862 55.2656C376.549 55.2656 375.174 56.7969 374.737 59.8594H382.705V59.25C382.737 57.9844 382.416 57.0078 381.745 56.3203C381.073 55.6172 380.112 55.2656 378.862 55.2656ZM395.289 75V55.125H391.609V49.6406H395.289V47.625C395.289 44.7344 396.141 42.4922 397.844 40.8984C399.547 39.3047 401.938 38.5078 405.016 38.5078C406.141 38.5078 407.375 38.6719 408.719 39L408.742 44.8125C408.258 44.6719 407.609 44.6016 406.797 44.6016C404.406 44.6016 403.211 45.6328 403.211 47.6953V49.6406H408.156V55.125H403.211V75H395.289ZM420.037 43.3359V49.6406H424.209V55.125H420.037V66.7266C420.037 67.6797 420.209 68.3438 420.552 68.7188C420.896 69.0938 421.576 69.2812 422.592 69.2812C423.373 69.2812 424.029 69.2344 424.56 69.1406V74.7891C423.138 75.2422 421.654 75.4688 420.107 75.4688C417.388 75.4688 415.381 74.8281 414.084 73.5469C412.787 72.2656 412.138 70.3203 412.138 67.7109V55.125H408.904V49.6406H412.138V43.3359H420.037ZM439.462 75V40.875H451.72C456.111 40.875 459.446 41.6797 461.728 43.2891C464.025 44.8984 465.173 47.2344 465.173 50.2969C465.173 52.0625 464.767 53.5703 463.954 54.8203C463.142 56.0703 461.946 56.9922 460.368 57.5859C462.15 58.0547 463.517 58.9297 464.47 60.2109C465.423 61.4922 465.9 63.0547 465.9 64.8984C465.9 68.2422 464.837 70.7578 462.712 72.4453C460.603 74.1172 457.47 74.9688 453.314 75H439.462ZM447.689 60.4922V68.6719H453.079C454.564 68.6719 455.704 68.3359 456.501 67.6641C457.298 66.9766 457.696 66.0156 457.696 64.7812C457.696 61.9375 456.282 60.5078 453.454 60.4922H447.689ZM447.689 55.1016H451.978C453.775 55.0859 455.056 54.7578 455.821 54.1172C456.587 53.4766 456.97 52.5312 456.97 51.2812C456.97 49.8438 456.556 48.8125 455.728 48.1875C454.9 47.5469 453.564 47.2266 451.72 47.2266H447.689V55.1016ZM468.991 62.0859C468.991 59.5547 469.483 57.3047 470.468 55.3359C471.452 53.3516 472.866 51.8281 474.71 50.7656C476.554 49.7031 478.718 49.1719 481.202 49.1719C484.999 49.1719 487.991 50.3516 490.179 52.7109C492.366 55.0547 493.46 58.25 493.46 62.2969V62.5781C493.46 66.5312 492.358 69.6719 490.155 72C487.968 74.3125 484.999 75.4688 481.249 75.4688C477.639 75.4688 474.741 74.3906 472.554 72.2344C470.366 70.0625 469.186 67.125 469.014 63.4219L468.991 62.0859ZM476.889 62.5781C476.889 64.9219 477.257 66.6406 477.991 67.7344C478.725 68.8281 479.811 69.375 481.249 69.375C484.061 69.375 485.499 67.2109 485.561 62.8828V62.0859C485.561 57.5391 484.108 55.2656 481.202 55.2656C478.561 55.2656 477.132 57.2266 476.913 61.1484L476.889 62.5781ZM495.848 62.0859C495.848 59.5547 496.34 57.3047 497.325 55.3359C498.309 53.3516 499.723 51.8281 501.567 50.7656C503.411 49.7031 505.575 49.1719 508.059 49.1719C511.856 49.1719 514.848 50.3516 517.036 52.7109C519.223 55.0547 520.317 58.25 520.317 62.2969V62.5781C520.317 66.5312 519.215 69.6719 517.012 72C514.825 74.3125 511.856 75.4688 508.106 75.4688C504.497 75.4688 501.598 74.3906 499.411 72.2344C497.223 70.0625 496.044 67.125 495.872 63.4219L495.848 62.0859ZM503.747 62.5781C503.747 64.9219 504.114 66.6406 504.848 67.7344C505.583 68.8281 506.669 69.375 508.106 69.375C510.919 69.375 512.356 67.2109 512.419 62.8828V62.0859C512.419 57.5391 510.965 55.2656 508.059 55.2656C505.419 55.2656 503.989 57.2266 503.77 61.1484L503.747 62.5781ZM536.979 67.875C536.979 67.2031 536.627 66.6641 535.924 66.2578C535.221 65.8516 533.885 65.4297 531.916 64.9922C529.948 64.5547 528.323 63.9844 527.041 63.2812C525.76 62.5625 524.783 61.6953 524.112 60.6797C523.44 59.6641 523.104 58.5 523.104 57.1875C523.104 54.8594 524.065 52.9453 525.987 51.4453C527.908 49.9297 530.424 49.1719 533.533 49.1719C536.877 49.1719 539.565 49.9297 541.596 51.4453C543.627 52.9609 544.643 54.9531 544.643 57.4219H536.721C536.721 55.3906 535.651 54.375 533.51 54.375C532.682 54.375 531.987 54.6094 531.424 55.0781C530.862 55.5312 530.58 56.1016 530.58 56.7891C530.58 57.4922 530.924 58.0625 531.612 58.5C532.299 58.9375 533.393 59.2969 534.893 59.5781C536.408 59.8594 537.737 60.1953 538.877 60.5859C542.69 61.8984 544.596 64.25 544.596 67.6406C544.596 69.9531 543.565 71.8359 541.502 73.2891C539.455 74.7422 536.799 75.4688 533.533 75.4688C531.362 75.4688 529.424 75.0781 527.721 74.2969C526.018 73.5156 524.69 72.4531 523.737 71.1094C522.783 69.7656 522.307 68.3516 522.307 66.8672H529.69C529.721 68.0391 530.112 68.8984 530.862 69.4453C531.612 69.9766 532.573 70.2422 533.744 70.2422C534.823 70.2422 535.627 70.0234 536.158 69.5859C536.705 69.1484 536.979 68.5781 536.979 67.875ZM557.414 43.3359V49.6406H561.586V55.125H557.414V66.7266C557.414 67.6797 557.586 68.3438 557.93 68.7188C558.273 69.0938 558.953 69.2812 559.969 69.2812C560.75 69.2812 561.406 69.2344 561.937 69.1406V74.7891C560.516 75.2422 559.031 75.4688 557.484 75.4688C554.766 75.4688 552.758 74.8281 551.461 73.5469C550.164 72.2656 549.516 70.3203 549.516 67.7109V55.125H546.281V49.6406H549.516V43.3359H557.414ZM576.888 75.4688C572.998 75.4688 569.849 74.3125 567.443 72C565.037 69.6719 563.834 66.6484 563.834 62.9297V62.2734C563.834 59.6797 564.31 57.3906 565.263 55.4062C566.232 53.4219 567.638 51.8906 569.482 50.8125C571.326 49.7188 573.513 49.1719 576.045 49.1719C579.607 49.1719 582.42 50.2812 584.482 52.5C586.545 54.7031 587.576 57.7812 587.576 61.7344V64.8047H571.873C572.154 66.2266 572.771 67.3438 573.724 68.1562C574.677 68.9688 575.912 69.375 577.427 69.375C579.927 69.375 581.88 68.5 583.287 66.75L586.896 71.0156C585.912 72.375 584.513 73.4609 582.701 74.2734C580.904 75.0703 578.966 75.4688 576.888 75.4688ZM575.998 55.2656C573.685 55.2656 572.31 56.7969 571.873 59.8594H579.841V59.25C579.873 57.9844 579.552 57.0078 578.88 56.3203C578.209 55.6172 577.248 55.2656 575.998 55.2656ZM606.019 56.7891L603.417 56.6016C600.933 56.6016 599.339 57.3828 598.636 58.9453V75H590.738V49.6406H598.144L598.402 52.8984C599.73 50.4141 601.581 49.1719 603.956 49.1719C604.8 49.1719 605.534 49.2656 606.159 49.4531L606.019 56.7891Z" fill="black"/>
<path d="M598.863 200.953C598.863 199.719 598.558 198.75 597.949 198.047C597.339 197.344 596.269 196.68 594.738 196.055C593.207 195.43 591.792 194.797 590.496 194.156C589.199 193.516 588.082 192.773 587.144 191.93C586.207 191.086 585.488 190.109 584.988 189C584.488 187.891 584.238 186.547 584.238 184.969C584.238 182.328 585.128 180.156 586.91 178.453C588.691 176.734 591.066 175.734 594.035 175.453V170.508H597.761V175.547C600.621 175.969 602.863 177.148 604.488 179.086C606.128 181.008 606.949 183.453 606.949 186.422H599.027C599.027 184.797 598.714 183.547 598.089 182.672C597.464 181.797 596.574 181.359 595.417 181.359C594.386 181.359 593.582 181.688 593.003 182.344C592.441 182.984 592.16 183.875 592.16 185.016C592.16 186.172 592.488 187.094 593.144 187.781C593.8 188.453 594.855 189.102 596.308 189.727C597.761 190.336 599.128 190.977 600.41 191.648C601.707 192.305 602.824 193.055 603.761 193.898C604.699 194.742 605.433 195.727 605.964 196.852C606.496 197.977 606.761 199.328 606.761 200.906C606.761 203.578 605.91 205.758 604.207 207.445C602.519 209.133 600.214 210.117 597.292 210.398V215.109H593.566V210.375C590.16 210.016 587.542 208.852 585.714 206.883C583.902 204.898 582.996 202.289 582.996 199.055H590.894C590.894 200.836 591.285 202.195 592.066 203.133C592.863 204.055 593.988 204.516 595.441 204.516C596.503 204.516 597.339 204.203 597.949 203.578C598.558 202.938 598.863 202.062 598.863 200.953ZM611.306 193.312L613.392 175.875H633.337V182.016H619.814L619.04 188.789C619.603 188.461 620.337 188.172 621.243 187.922C622.165 187.672 623.064 187.547 623.939 187.547C627.329 187.547 629.931 188.555 631.743 190.57C633.571 192.57 634.486 195.383 634.486 199.008C634.486 201.195 633.993 203.18 633.009 204.961C632.04 206.727 630.673 208.086 628.907 209.039C627.142 209.992 625.056 210.469 622.65 210.469C620.509 210.469 618.501 210.031 616.626 209.156C614.751 208.266 613.282 207.055 612.22 205.523C611.157 203.977 610.634 202.234 610.65 200.297H618.571C618.65 201.547 619.048 202.539 619.767 203.273C620.486 204.008 621.431 204.375 622.603 204.375C625.259 204.375 626.587 202.406 626.587 198.469C626.587 194.828 624.962 193.008 621.712 193.008C619.868 193.008 618.493 193.602 617.587 194.789L611.306 193.312ZM662.233 196.055C662.233 200.664 661.194 204.219 659.116 206.719C657.054 209.219 654.139 210.469 650.374 210.469C646.577 210.469 643.639 209.211 641.561 206.695C639.483 204.18 638.444 200.633 638.444 196.055V189.82C638.444 185.211 639.475 181.656 641.538 179.156C643.616 176.656 646.546 175.406 650.327 175.406C654.108 175.406 657.038 176.664 659.116 179.18C661.194 181.695 662.233 185.25 662.233 189.844V196.055ZM654.335 188.812C654.335 186.359 654.014 184.531 653.374 183.328C652.733 182.109 651.718 181.5 650.327 181.5C648.968 181.5 647.975 182.062 647.35 183.188C646.741 184.312 646.413 186.016 646.366 188.297V197.016C646.366 199.562 646.686 201.43 647.327 202.617C647.968 203.789 648.983 204.375 650.374 204.375C651.718 204.375 652.71 203.805 653.35 202.664C653.991 201.508 654.319 199.703 654.335 197.25V188.812ZM689.934 196.055C689.934 200.664 688.895 204.219 686.817 206.719C684.754 209.219 681.84 210.469 678.075 210.469C674.278 210.469 671.34 209.211 669.262 206.695C667.184 204.18 666.145 200.633 666.145 196.055V189.82C666.145 185.211 667.176 181.656 669.239 179.156C671.317 176.656 674.247 175.406 678.028 175.406C681.809 175.406 684.739 176.664 686.817 179.18C688.895 181.695 689.934 185.25 689.934 189.844V196.055ZM682.036 188.812C682.036 186.359 681.715 184.531 681.075 183.328C680.434 182.109 679.419 181.5 678.028 181.5C676.669 181.5 675.676 182.062 675.051 183.188C674.442 184.312 674.114 186.016 674.067 188.297V197.016C674.067 199.562 674.387 201.43 675.028 202.617C675.669 203.789 676.684 204.375 678.075 204.375C679.419 204.375 680.411 203.805 681.051 202.664C681.692 201.508 682.02 199.703 682.036 197.25V188.812Z" fill="black"/>
<path d="M449 186C449 177.163 456.163 170 465 170H547C555.837 170 563 177.163 563 186V202C563 210.837 555.837 218 547 218H465C456.163 218 449 210.837 449 202V186Z" fill="#0E1A13"/>
<path d="M457.252 196.658V201H454.168V188.203H459.274C460.252 188.203 461.117 188.385 461.867 188.748C462.623 189.105 463.206 189.618 463.616 190.286C464.032 190.948 464.24 191.701 464.24 192.545C464.24 193.793 463.792 194.792 462.895 195.542C462.004 196.286 460.78 196.658 459.221 196.658H457.252ZM457.252 194.276H459.274C459.872 194.276 460.326 194.127 460.636 193.828C460.953 193.529 461.111 193.107 461.111 192.562C461.111 191.965 460.95 191.487 460.627 191.13C460.305 190.772 459.866 190.591 459.309 190.585H457.252V194.276ZM475.965 188.203V196.579C475.965 197.528 475.763 198.352 475.359 199.049C474.954 199.74 474.374 200.268 473.619 200.631C472.863 200.994 471.969 201.176 470.938 201.176C469.379 201.176 468.152 200.771 467.255 199.963C466.359 199.154 465.902 198.047 465.884 196.641V188.203H468.987V196.702C469.022 198.103 469.672 198.803 470.938 198.803C471.577 198.803 472.06 198.627 472.388 198.275C472.716 197.924 472.88 197.353 472.88 196.562V188.203H475.965ZM482.69 196.482H481.02V201H477.935V188.203H482.971C484.489 188.203 485.675 188.54 486.531 189.214C487.386 189.888 487.814 190.84 487.814 192.07C487.814 192.961 487.632 193.699 487.269 194.285C486.911 194.871 486.349 195.346 485.581 195.709L488.253 200.868V201H484.949L482.69 196.482ZM481.02 194.101H482.971C483.557 194.101 483.996 193.948 484.289 193.644C484.588 193.333 484.738 192.902 484.738 192.352C484.738 191.801 484.588 191.37 484.289 191.06C483.99 190.743 483.551 190.585 482.971 190.585H481.02V194.101ZM500.067 196.667C500.026 197.558 499.785 198.346 499.346 199.031C498.906 199.711 498.288 200.238 497.491 200.613C496.7 200.988 495.795 201.176 494.776 201.176C493.094 201.176 491.77 200.628 490.803 199.532C489.836 198.437 489.353 196.89 489.353 194.892V194.259C489.353 193.005 489.569 191.909 490.003 190.972C490.443 190.028 491.072 189.302 491.893 188.792C492.713 188.276 493.662 188.019 494.74 188.019C496.293 188.019 497.541 188.429 498.485 189.249C499.428 190.063 499.964 191.188 500.093 192.624H497.017C496.993 191.845 496.797 191.285 496.428 190.945C496.059 190.605 495.496 190.436 494.74 190.436C493.973 190.436 493.41 190.723 493.053 191.297C492.695 191.871 492.508 192.788 492.49 194.048V194.953C492.49 196.318 492.66 197.294 493 197.88C493.346 198.466 493.938 198.759 494.776 198.759C495.485 198.759 496.027 198.592 496.402 198.258C496.777 197.924 496.976 197.394 496.999 196.667H500.067ZM512.258 201H509.19V195.656H504.646V201H501.562V188.203H504.646V193.283H509.19V188.203H512.258V201ZM521.681 198.609H517.453L516.715 201H513.419L518.112 188.203H521.013L525.741 201H522.428L521.681 198.609ZM518.191 196.228H520.942L519.562 191.789L518.191 196.228ZM533.318 197.599C533.318 197.147 533.157 196.796 532.835 196.544C532.518 196.292 531.959 196.031 531.156 195.762C530.353 195.492 529.697 195.231 529.187 194.979C527.529 194.165 526.7 193.046 526.7 191.622C526.7 190.913 526.905 190.289 527.315 189.75C527.731 189.205 528.317 188.783 529.073 188.484C529.829 188.18 530.678 188.027 531.622 188.027C532.542 188.027 533.365 188.191 534.092 188.52C534.824 188.848 535.392 189.316 535.797 189.926C536.201 190.529 536.403 191.221 536.403 192H533.327C533.327 191.479 533.166 191.074 532.843 190.787C532.527 190.5 532.096 190.356 531.551 190.356C531.001 190.356 530.564 190.479 530.242 190.726C529.926 190.966 529.767 191.273 529.767 191.648C529.767 191.977 529.943 192.275 530.295 192.545C530.646 192.809 531.264 193.084 532.149 193.371C533.034 193.652 533.76 193.957 534.329 194.285C535.712 195.082 536.403 196.181 536.403 197.581C536.403 198.7 535.981 199.579 535.137 200.218C534.294 200.856 533.136 201.176 531.666 201.176C530.629 201.176 529.688 200.991 528.844 200.622C528.007 200.247 527.374 199.737 526.946 199.093C526.524 198.442 526.313 197.695 526.313 196.852H529.407C529.407 197.537 529.583 198.044 529.934 198.372C530.292 198.694 530.869 198.855 531.666 198.855C532.176 198.855 532.577 198.747 532.87 198.53C533.169 198.308 533.318 197.997 533.318 197.599ZM545.958 195.577H541.106V198.627H546.837V201H538.021V188.203H546.854V190.585H541.106V193.283H545.958V195.577ZM548.129 201V188.203H552.251C553.382 188.203 554.399 188.461 555.301 188.977C556.204 189.486 556.907 190.21 557.411 191.147C557.92 192.079 558.178 193.125 558.184 194.285V194.874C558.184 196.046 557.935 197.098 557.437 198.029C556.945 198.955 556.248 199.682 555.345 200.209C554.449 200.73 553.447 200.994 552.339 201H548.129ZM551.214 190.585V198.627H552.287C553.171 198.627 553.851 198.313 554.326 197.687C554.8 197.054 555.038 196.116 555.038 194.874V194.32C555.038 193.084 554.8 192.152 554.326 191.525C553.851 190.898 553.16 190.585 552.251 190.585H551.214Z" fill="white"/>
<path d="M122.917 175.686C122.89 175.693 122.863 175.701 122.836 175.712C122.86 175.695 122.888 175.686 122.917 175.686Z" fill="white"/>
<path d="M121.392 162.307H136.285L138.971 173.656C141.864 185.763 141.068 198.505 136.692 210.121C134.322 216.375 131.53 221.632 128.839 221.632C126.147 221.632 123.358 216.375 120.988 210.121C116.613 198.505 115.815 185.763 118.706 173.656L121.392 162.316V162.307Z" fill="#FB5521"/>
<path opacity="0.2" d="M121.393 162.378H136.286L138.971 173.717C141.866 185.826 141.07 198.571 136.693 210.189C134.322 216.443 131.53 221.696 128.839 221.696C126.148 221.696 123.359 216.443 120.988 210.189C116.613 198.572 115.816 185.83 118.707 173.723L121.393 162.384V162.378Z" fill="black"/>
<path opacity="0.2" d="M122.812 162.307H134.868L137.044 171.49C139.385 181.292 138.74 191.607 135.198 201.011C133.279 206.077 131.014 210.33 128.839 210.33C126.663 210.33 124.401 206.077 122.483 201.011C118.939 191.608 118.294 181.291 120.636 171.49L122.812 162.307Z" fill="white"/>
<path opacity="0.2" d="M124.228 162.307H133.451L135.124 169.33C136.914 176.832 136.417 184.726 133.702 191.922C132.232 195.795 130.506 199.051 128.838 199.051C127.17 199.051 125.444 195.795 123.977 191.922C121.267 184.729 120.774 176.838 122.566 169.341L124.239 162.319L124.228 162.307Z" fill="white"/>
<path d="M125.645 162.307H132.032L133.184 167.173C134.424 172.365 134.083 177.83 132.208 182.812C131.19 185.494 129.993 187.741 128.839 187.741C127.684 187.741 126.488 185.488 125.472 182.812C123.594 177.831 123.252 172.365 124.493 167.173L125.645 162.307Z" fill="white"/>
<path d="M122.547 155.326V154.21H119.948L122.533 143.955H135.638L138.224 154.21H135.624V155.326H135.128L136.955 162.566H121.217L123.043 155.326H122.547Z" fill="#B2B6BB"/>
<path opacity="0.2" d="M129.957 154.987H135.574V154.21H129.957V154.987Z" fill="black"/>
<path opacity="0.2" d="M135.83 144.048L138.251 154.08H130.213V144.048H135.83Z" fill="black"/>
<path opacity="0.2" d="M135.153 155.326L137.08 162.618H129.937V155.326H135.153Z" fill="black"/>
<path d="M135.641 143.954H122.457V38.1762H123.665V36.2134H122.457V34.1548L127.843 20H130.286L135.641 34.1867V36.2452H134.651V38.1762H135.641V143.954Z" fill="#B2B6BB"/>
<path d="M135.641 145.119H122.457V39.3413H123.665V37.3784H122.457V35.3198L127.843 21.165H130.286L135.641 35.3517V37.4103H134.651V39.3413H135.641V145.119Z" fill="#B2B6BB"/>
<path opacity="0.2" d="M135.574 108.721H129.84V90.8899H135.574V108.721Z" fill="black"/>
<path opacity="0.2" d="M135.574 126.333H129.84V108.409H135.574V126.333Z" fill="black"/>
<path opacity="0.2" d="M135.574 133.534H129.84V126.034H135.574V133.534Z" fill="black"/>
<path opacity="0.2" d="M135.574 138.072H129.84V132.722H135.574V138.072Z" fill="black"/>
<path opacity="0.2" d="M135.574 143.407H129.84V138.02H135.574V143.407Z" fill="black"/>
<path opacity="0.3" d="M123.414 152.537H134.963L134.924 152.377L132.799 143.92L132.559 143.986L134.645 152.279H123.724L125.578 143.983L125.338 143.925L123.414 152.537Z" fill="black"/>
<path opacity="0.2" d="M135.574 73.2358H129.84V55.8018H135.574V73.2358Z" fill="black"/>
<path opacity="0.2" d="M135.574 90.8464H129.84V73.5168H135.574V90.8464Z" fill="black"/>
<path opacity="0.2" d="M130.459 20L135.574 34.2012V36.2453H134.553V38.1762H135.574V55.7059H129.84V38.1762V36.2453V36.1322V34.2012V20.0174L130.459 20Z" fill="black"/>
<path opacity="0.3" d="M132.557 143.824H125.584V42.6789H132.557V143.824ZM125.336 144.082H132.805V42.4209H125.336V144.082Z" fill="black"/>
<path d="M122.499 126.55H135.641V126.034H122.499V126.55Z" fill="#61656D"/>
<path d="M122.192 134.233H135.945V132.676H122.192V134.233Z" fill="#61656D"/>
<path d="M122.192 139.577H135.945V138.02H122.192V139.577Z" fill="#61656D"/>
<path d="M122.192 144.92H135.945V143.363H122.192V144.92Z" fill="#61656D"/>
<path d="M122.499 108.922H135.641V108.409H122.499V108.922Z" fill="#61656D"/>
<path d="M119.884 154.468H138.288V153.952H119.884V154.468Z" fill="#61656D"/>
<path opacity="0.3" d="M124.112 160.989H134.166L132.799 155.294L132.559 155.358L133.848 160.731H124.421L125.581 155.355L125.339 155.297L124.112 160.989Z" fill="black"/>
<path opacity="0.3" d="M129.263 151.081H125.012V148.591H129.263V151.081ZM124.764 151.337H129.505V148.333H124.764V151.331V151.337Z" fill="black"/>
<path opacity="0.3" d="M124.889 150.704H129.385V150.446H124.889V150.704Z" fill="black"/>
<path d="M122.46 55.5352H135.641V56.0686H122.46V55.5352Z" fill="#61656D"/>
<path d="M122.46 73.146H135.641V73.6795H122.46V73.146Z" fill="#61656D"/>
<path d="M122.46 90.7539H135.641V91.2874H122.46V90.7539Z" fill="#61656D"/>
<path d="M123.665 37.379H122.457V35.3204L122.51 35.1813H135.577L135.641 35.3523V37.4109H134.651L123.665 37.379Z" fill="#61656D"/>
<path d="M122.46 41.049H135.641V45.0501H122.46V41.049Z" fill="#61656D"/>
<path d="M135.382 38.5505H135.878V37.9648H122.263V38.5505H122.759H135.382Z" fill="#61656D"/>
<path d="M122.449 154.88H135.794V155.413H122.449V154.88Z" fill="#61656D"/>
<path d="M121.091 162.74H137.08V162.224H121.091V162.74Z" fill="#61656D"/>
<path d="M120.753 56.541H122.547V45.1957H120.753V56.541Z" fill="#868A91"/>
</svg>
