<svg width="721" height="233" viewBox="0 0 721 233" fill="none" xmlns="http://www.w3.org/2000/svg">
<path d="M0 16C0 7.16345 7.16344 0 16 0H705C713.837 0 721 7.16344 721 16V217C721 225.837 713.837 233 705 233H16C7.16345 233 0 225.837 0 217V16Z" fill="#61656D"/>
<path d="M225 23L226 207" stroke="black" stroke-width="3"/>
<path d="M428.546 58.6406C428.546 61.9688 427.929 64.9141 426.694 67.4766C425.46 70.0391 423.702 72.0156 421.421 73.4062C419.155 74.7812 416.569 75.4688 413.663 75.4688C410.757 75.4688 408.179 74.8047 405.929 73.4766C403.679 72.1328 401.921 70.2188 400.655 67.7344C399.405 65.25 398.749 62.3984 398.686 59.1797V57.2578C398.686 53.9141 399.296 50.9688 400.515 48.4219C401.749 45.8594 403.507 43.8828 405.788 42.4922C408.085 41.1016 410.694 40.4062 413.616 40.4062C416.507 40.4062 419.085 41.0938 421.35 42.4688C423.616 43.8438 425.374 45.8047 426.624 48.3516C427.89 50.8828 428.53 53.7891 428.546 57.0703V58.6406ZM420.179 57.2109C420.179 53.8203 419.608 51.25 418.468 49.5C417.343 47.7344 415.725 46.8516 413.616 46.8516C409.491 46.8516 407.311 49.9453 407.077 56.1328L407.054 58.6406C407.054 61.9844 407.608 64.5547 408.718 66.3516C409.827 68.1484 411.475 69.0469 413.663 69.0469C415.741 69.0469 417.343 68.1641 418.468 66.3984C419.593 64.6328 420.163 62.0938 420.179 58.7812V57.2109ZM447.669 56.7891L445.067 56.6016C442.583 56.6016 440.989 57.3828 440.286 58.9453V75H432.387V49.6406H439.794L440.051 52.8984C441.379 50.4141 443.231 49.1719 445.606 49.1719C446.45 49.1719 447.184 49.2656 447.809 49.4531L447.669 56.7891ZM473.963 62.5312C473.963 66.6875 473.104 69.8828 471.385 72.1172C469.666 74.3516 467.244 75.4688 464.119 75.4688C461.541 75.4688 459.463 74.4453 457.885 72.3984L457.557 75H450.479V39H458.377V51.6797C459.846 50.0078 461.744 49.1719 464.073 49.1719C467.229 49.1719 469.666 50.3047 471.385 52.5703C473.104 54.8359 473.963 58.0234 473.963 62.1328V62.5312ZM466.041 62.0391C466.041 59.6016 465.713 57.8672 465.057 56.8359C464.416 55.7891 463.424 55.2656 462.08 55.2656C460.299 55.2656 459.065 55.9453 458.377 57.3047V67.3828C459.049 68.7266 460.299 69.3984 462.127 69.3984C463.987 69.3984 465.166 68.4922 465.666 66.6797C465.916 65.7891 466.041 64.2422 466.041 62.0391ZM485.703 75H477.781V49.6406H485.703V75ZM477.312 43.1016C477.312 41.9766 477.719 41.0547 478.531 40.3359C479.344 39.6172 480.398 39.2578 481.695 39.2578C482.992 39.2578 484.047 39.6172 484.859 40.3359C485.672 41.0547 486.078 41.9766 486.078 43.1016C486.078 44.2266 485.672 45.1484 484.859 45.8672C484.047 46.5859 482.992 46.9453 481.695 46.9453C480.398 46.9453 479.344 46.5859 478.531 45.8672C477.719 45.1484 477.312 44.2266 477.312 43.1016ZM499.693 43.3359V49.6406H503.865V55.125H499.693V66.7266C499.693 67.6797 499.865 68.3438 500.209 68.7188C500.552 69.0938 501.232 69.2812 502.248 69.2812C503.029 69.2812 503.685 69.2344 504.216 69.1406V74.7891C502.795 75.2422 501.31 75.4688 499.763 75.4688C497.045 75.4688 495.037 74.8281 493.74 73.5469C492.443 72.2656 491.795 70.3203 491.795 67.7109V55.125H488.56V49.6406H491.795V43.3359H499.693ZM519.167 75.4688C515.277 75.4688 512.128 74.3125 509.722 72C507.316 69.6719 506.113 66.6484 506.113 62.9297V62.2734C506.113 59.6797 506.589 57.3906 507.542 55.4062C508.511 53.4219 509.917 51.8906 511.761 50.8125C513.605 49.7188 515.792 49.1719 518.324 49.1719C521.886 49.1719 524.699 50.2812 526.761 52.5C528.824 54.7031 529.855 57.7812 529.855 61.7344V64.8047H514.152C514.433 66.2266 515.05 67.3438 516.003 68.1562C516.956 68.9688 518.191 69.375 519.706 69.375C522.206 69.375 524.16 68.5 525.566 66.75L529.175 71.0156C528.191 72.375 526.792 73.4609 524.98 74.2734C523.183 75.0703 521.245 75.4688 519.167 75.4688ZM518.277 55.2656C515.964 55.2656 514.589 56.7969 514.152 59.8594H522.12V59.25C522.152 57.9844 521.831 57.0078 521.16 56.3203C520.488 55.6172 519.527 55.2656 518.277 55.2656ZM548.298 56.7891L545.696 56.6016C543.212 56.6016 541.618 57.3828 540.915 58.9453V75H533.017V49.6406H540.423L540.681 52.8984C542.009 50.4141 543.86 49.1719 546.235 49.1719C547.079 49.1719 547.814 49.2656 548.439 49.4531L548.298 56.7891Z" fill="black"/>
<path d="M585.012 200.953C585.012 199.719 584.708 198.75 584.098 198.047C583.489 197.344 582.419 196.68 580.887 196.055C579.356 195.43 577.942 194.797 576.645 194.156C575.348 193.516 574.231 192.773 573.294 191.93C572.356 191.086 571.637 190.109 571.137 189C570.637 187.891 570.387 186.547 570.387 184.969C570.387 182.328 571.278 180.156 573.059 178.453C574.84 176.734 577.215 175.734 580.184 175.453V170.508H583.911V175.547C586.77 175.969 589.012 177.148 590.637 179.086C592.278 181.008 593.098 183.453 593.098 186.422H585.176C585.176 184.797 584.864 183.547 584.239 182.672C583.614 181.797 582.723 181.359 581.567 181.359C580.536 181.359 579.731 181.688 579.153 182.344C578.59 182.984 578.309 183.875 578.309 185.016C578.309 186.172 578.637 187.094 579.294 187.781C579.95 188.453 581.005 189.102 582.458 189.727C583.911 190.336 585.278 190.977 586.559 191.648C587.856 192.305 588.973 193.055 589.911 193.898C590.848 194.742 591.583 195.727 592.114 196.852C592.645 197.977 592.911 199.328 592.911 200.906C592.911 203.578 592.059 205.758 590.356 207.445C588.669 209.133 586.364 210.117 583.442 210.398V215.109H579.715V210.375C576.309 210.016 573.692 208.852 571.864 206.883C570.051 204.898 569.145 202.289 569.145 199.055H577.044C577.044 200.836 577.434 202.195 578.215 203.133C579.012 204.055 580.137 204.516 581.59 204.516C582.653 204.516 583.489 204.203 584.098 203.578C584.708 202.938 585.012 202.062 585.012 200.953ZM614.494 210H606.573V184.781L598.791 187.055V181.055L613.768 175.875H614.494V210ZM648.383 196.055C648.383 200.664 647.344 204.219 645.266 206.719C643.203 209.219 640.289 210.469 636.523 210.469C632.727 210.469 629.789 209.211 627.711 206.695C625.633 204.18 624.594 200.633 624.594 196.055V189.82C624.594 185.211 625.625 181.656 627.688 179.156C629.766 176.656 632.695 175.406 636.477 175.406C640.258 175.406 643.188 176.664 645.266 179.18C647.344 181.695 648.383 185.25 648.383 189.844V196.055ZM640.484 188.812C640.484 186.359 640.164 184.531 639.523 183.328C638.883 182.109 637.867 181.5 636.477 181.5C635.117 181.5 634.125 182.062 633.5 183.188C632.891 184.312 632.562 186.016 632.516 188.297V197.016C632.516 199.562 632.836 201.43 633.477 202.617C634.117 203.789 635.133 204.375 636.523 204.375C637.867 204.375 638.859 203.805 639.5 202.664C640.141 201.508 640.469 199.703 640.484 197.25V188.812ZM676.084 196.055C676.084 200.664 675.045 204.219 672.966 206.719C670.904 209.219 667.99 210.469 664.224 210.469C660.427 210.469 657.49 209.211 655.412 206.695C653.334 204.18 652.295 200.633 652.295 196.055V189.82C652.295 185.211 653.326 181.656 655.388 179.156C657.466 176.656 660.396 175.406 664.177 175.406C667.959 175.406 670.888 176.664 672.966 179.18C675.045 181.695 676.084 185.25 676.084 189.844V196.055ZM668.185 188.812C668.185 186.359 667.865 184.531 667.224 183.328C666.584 182.109 665.568 181.5 664.177 181.5C662.818 181.5 661.826 182.062 661.201 183.188C660.591 184.312 660.263 186.016 660.216 188.297V197.016C660.216 199.562 660.537 201.43 661.177 202.617C661.818 203.789 662.834 204.375 664.224 204.375C665.568 204.375 666.56 203.805 667.201 202.664C667.841 201.508 668.17 199.703 668.185 197.25V188.812ZM703.785 196.055C703.785 200.664 702.745 204.219 700.667 206.719C698.605 209.219 695.691 210.469 691.925 210.469C688.128 210.469 685.191 209.211 683.113 206.695C681.035 204.18 679.995 200.633 679.995 196.055V189.82C679.995 185.211 681.027 181.656 683.089 179.156C685.167 176.656 688.097 175.406 691.878 175.406C695.66 175.406 698.589 176.664 700.667 179.18C702.745 181.695 703.785 185.25 703.785 189.844V196.055ZM695.886 188.812C695.886 186.359 695.566 184.531 694.925 183.328C694.285 182.109 693.269 181.5 691.878 181.5C690.519 181.5 689.527 182.062 688.902 183.188C688.292 184.312 687.964 186.016 687.917 188.297V197.016C687.917 199.562 688.238 201.43 688.878 202.617C689.519 203.789 690.535 204.375 691.925 204.375C693.269 204.375 694.261 203.805 694.902 202.664C695.542 201.508 695.87 199.703 695.886 197.25V188.812Z" fill="black"/>
<path d="M449 186C449 177.163 456.163 170 465 170H547C555.837 170 563 177.163 563 186V202C563 210.837 555.837 218 547 218H465C456.163 218 449 210.837 449 202V186Z" fill="#0E1A13"/>
<path d="M457.252 196.658V201H454.168V188.203H459.274C460.252 188.203 461.117 188.385 461.867 188.748C462.623 189.105 463.206 189.618 463.616 190.286C464.032 190.948 464.24 191.701 464.24 192.545C464.24 193.793 463.792 194.792 462.895 195.542C462.004 196.286 460.78 196.658 459.221 196.658H457.252ZM457.252 194.276H459.274C459.872 194.276 460.326 194.127 460.636 193.828C460.953 193.529 461.111 193.107 461.111 192.562C461.111 191.965 460.95 191.487 460.627 191.13C460.305 190.772 459.866 190.591 459.309 190.585H457.252V194.276ZM475.965 188.203V196.579C475.965 197.528 475.763 198.352 475.359 199.049C474.954 199.74 474.374 200.268 473.619 200.631C472.863 200.994 471.969 201.176 470.938 201.176C469.379 201.176 468.152 200.771 467.255 199.963C466.359 199.154 465.902 198.047 465.884 196.641V188.203H468.987V196.702C469.022 198.103 469.672 198.803 470.938 198.803C471.577 198.803 472.06 198.627 472.388 198.275C472.716 197.924 472.88 197.353 472.88 196.562V188.203H475.965ZM482.69 196.482H481.02V201H477.935V188.203H482.971C484.489 188.203 485.675 188.54 486.531 189.214C487.386 189.888 487.814 190.84 487.814 192.07C487.814 192.961 487.632 193.699 487.269 194.285C486.911 194.871 486.349 195.346 485.581 195.709L488.253 200.868V201H484.949L482.69 196.482ZM481.02 194.101H482.971C483.557 194.101 483.996 193.948 484.289 193.644C484.588 193.333 484.738 192.902 484.738 192.352C484.738 191.801 484.588 191.37 484.289 191.06C483.99 190.743 483.551 190.585 482.971 190.585H481.02V194.101ZM500.067 196.667C500.026 197.558 499.785 198.346 499.346 199.031C498.906 199.711 498.288 200.238 497.491 200.613C496.7 200.988 495.795 201.176 494.776 201.176C493.094 201.176 491.77 200.628 490.803 199.532C489.836 198.437 489.353 196.89 489.353 194.892V194.259C489.353 193.005 489.569 191.909 490.003 190.972C490.443 190.028 491.072 189.302 491.893 188.792C492.713 188.276 493.662 188.019 494.74 188.019C496.293 188.019 497.541 188.429 498.485 189.249C499.428 190.063 499.964 191.188 500.093 192.624H497.017C496.993 191.845 496.797 191.285 496.428 190.945C496.059 190.605 495.496 190.436 494.74 190.436C493.973 190.436 493.41 190.723 493.053 191.297C492.695 191.871 492.508 192.788 492.49 194.048V194.953C492.49 196.318 492.66 197.294 493 197.88C493.346 198.466 493.938 198.759 494.776 198.759C495.485 198.759 496.027 198.592 496.402 198.258C496.777 197.924 496.976 197.394 496.999 196.667H500.067ZM512.258 201H509.19V195.656H504.646V201H501.562V188.203H504.646V193.283H509.19V188.203H512.258V201ZM521.681 198.609H517.453L516.715 201H513.419L518.112 188.203H521.013L525.741 201H522.428L521.681 198.609ZM518.191 196.228H520.942L519.562 191.789L518.191 196.228ZM533.318 197.599C533.318 197.147 533.157 196.796 532.835 196.544C532.518 196.292 531.959 196.031 531.156 195.762C530.353 195.492 529.697 195.231 529.187 194.979C527.529 194.165 526.7 193.046 526.7 191.622C526.7 190.913 526.905 190.289 527.315 189.75C527.731 189.205 528.317 188.783 529.073 188.484C529.829 188.18 530.678 188.027 531.622 188.027C532.542 188.027 533.365 188.191 534.092 188.52C534.824 188.848 535.392 189.316 535.797 189.926C536.201 190.529 536.403 191.221 536.403 192H533.327C533.327 191.479 533.166 191.074 532.843 190.787C532.527 190.5 532.096 190.356 531.551 190.356C531.001 190.356 530.564 190.479 530.242 190.726C529.926 190.966 529.767 191.273 529.767 191.648C529.767 191.977 529.943 192.275 530.295 192.545C530.646 192.809 531.264 193.084 532.149 193.371C533.034 193.652 533.76 193.957 534.329 194.285C535.712 195.082 536.403 196.181 536.403 197.581C536.403 198.7 535.981 199.579 535.137 200.218C534.294 200.856 533.136 201.176 531.666 201.176C530.629 201.176 529.688 200.991 528.844 200.622C528.007 200.247 527.374 199.737 526.946 199.093C526.524 198.442 526.313 197.695 526.313 196.852H529.407C529.407 197.537 529.583 198.044 529.934 198.372C530.292 198.694 530.869 198.855 531.666 198.855C532.176 198.855 532.577 198.747 532.87 198.53C533.169 198.308 533.318 197.997 533.318 197.599ZM545.958 195.577H541.106V198.627H546.837V201H538.021V188.203H546.854V190.585H541.106V193.283H545.958V195.577ZM548.129 201V188.203H552.251C553.382 188.203 554.399 188.461 555.301 188.977C556.204 189.486 556.907 190.21 557.411 191.147C557.92 192.079 558.178 193.125 558.184 194.285V194.874C558.184 196.046 557.935 197.098 557.437 198.029C556.945 198.955 556.248 199.682 555.345 200.209C554.449 200.73 553.447 200.994 552.339 201H548.129ZM551.214 190.585V198.627H552.287C553.171 198.627 553.851 198.313 554.326 197.687C554.8 197.054 555.038 196.116 555.038 194.874V194.32C555.038 193.084 554.8 192.152 554.326 191.525C553.851 190.898 553.16 190.585 552.251 190.585H551.214Z" fill="white"/>
<path d="M180.244 187.214L178.726 166.869C178.578 164.884 177.771 163.014 176.444 161.578L147.97 130.997C147.324 130.308 146.887 129.436 146.715 128.49C145.876 123.983 142.915 108.167 139.874 93.763C135.017 70.7626 133.271 66.8484 132.433 66.1831V65.817C132.433 37.3037 123.038 16 114.639 16C106.241 16 96.8454 37.3037 96.8454 65.817V66.1831C95.9822 66.8484 94.2361 70.7574 89.3796 93.763C86.3437 108.167 83.3772 123.983 82.5438 128.49C82.3677 129.436 81.9302 130.307 81.2838 130.997L52.8098 161.578C51.4808 163.014 50.6712 164.883 50.518 166.869L49 187.203L92.5941 202.824C92.5941 204.846 92.6754 206.958 92.8372 209.162C92.8372 211.297 95.8136 211.74 97.2472 211.854C97.2075 212.045 97.1579 212.236 97.1232 212.432C97.0815 212.664 97.0914 212.904 97.1524 213.132C97.2135 213.36 97.3241 213.57 97.4754 213.747C98.904 215.649 104.495 217.279 108.225 217.387C109.817 218.202 112.342 218.615 114.674 218.718C116.961 218.615 119.481 218.202 121.068 217.387C124.799 217.279 130.379 215.649 131.808 213.747C131.96 213.572 132.071 213.364 132.132 213.138C132.193 212.911 132.203 212.673 132.16 212.442C132.125 212.236 132.076 212.045 132.031 211.838C133.519 211.694 136.307 211.235 136.307 209.193C136.46 206.996 136.54 204.889 136.55 202.87L180.283 187.203L180.244 187.214Z" fill="#DADDDF"/>
<path opacity="0.2" d="M110.695 21.3122C105.63 24.6333 104.32 45.1429 103.69 50.4856H106.88C106.061 53.9923 106.577 59.9539 109.549 59.9539H111.677V169.799C106.394 171.532 102.018 174.162 98.541 178.72V64.3373C99.0024 42.8531 104.598 24.2878 110.695 21.3122Z" fill="black"/>
<path opacity="0.2" d="M97.1118 80.2314V180.639L95.9014 183.661C95.3001 185.129 94.8577 186.661 94.5819 188.23C94.1751 190.669 93.4409 192.732 93.297 196.316C93.1532 199.9 92.93 200.514 92.93 200.514L56.0923 189.071V183.372H54.6041V178.885L56.3552 171.33C56.698 169.858 57.4098 168.505 58.4188 167.411L83.4502 140.264C84.6963 138.925 85.5555 137.249 85.9305 135.427L97.1118 80.2469V80.2314Z" fill="black"/>
<path opacity="0.2" d="M113.246 170.531C113.246 170.531 112.412 179.112 112.194 187.008C111.976 194.903 111.534 203.773 111.534 203.773L97.5553 202.86V211.323L94.326 210.565C94.326 210.565 92.8675 193.031 97.2626 183.047C102.07 172.135 113.246 170.531 113.246 170.531Z" fill="black"/>
<path d="M110.701 45.0557L109.634 41.7449L108.35 41.6263L106.003 44.1996L107.928 47.1237L110.701 45.0557Z" fill="#61656D"/>
<path d="M107.57 47.4228L106.072 45.1434L104.242 46.4688L103.691 50.4861H106.886L107.57 47.4228Z" fill="#61656D"/>
<path d="M114.614 45.6174H117.942L119.679 40.2179L114.614 39.2742L109.549 40.2179L111.285 45.6174H114.614Z" fill="#61656D"/>
<path d="M118.534 45.0557L121.302 47.1237L123.227 44.1996L120.881 41.6263L119.596 41.7449L118.534 45.0557Z" fill="#61656D"/>
<path d="M121.658 47.4228L122.348 50.4861H125.537L124.987 46.4688L123.156 45.1434L121.658 47.4228Z" fill="#61656D"/>
<path opacity="0.3" d="M109.549 59.9539H113.805V55.5292H109.549V59.9539Z" fill="black"/>
<path opacity="0.3" d="M115.422 59.9539H119.679V55.5292H115.422V59.9539Z" fill="black"/>
<path opacity="0.3" d="M130.244 158.896H114.832V136.051H130.244V158.896ZM98.9925 136.051H114.405V158.896H98.9825V136.051H98.9925ZM98.9925 112.741H114.405V135.592H98.9825V112.72L98.9925 112.741ZM98.9925 89.4362H114.405V112.287H98.9825V89.4362H98.9925ZM98.9925 66.1315H114.405V88.9978H98.9825V66.1522L98.9925 66.1315ZM130.244 88.9772H114.832V66.1315H130.244V88.9978V88.9772ZM114.832 112.287V89.4362H130.244V112.287H114.832ZM130.244 112.741V135.592H114.832V112.72L130.244 112.741ZM130.686 135.819V65.6829H98.541V159.355H130.686V135.819Z" fill="black"/>
<path d="M121.052 217.713C121.253 217.452 121.364 217.129 121.369 216.795C121.463 212.819 120.318 206.996 118.889 204.093L128.627 203.521C130.417 205.583 131.886 209.993 132.506 213.319C132.506 213.386 132.556 213.551 132.337 213.835C131.41 215.072 127.258 217.295 121.057 217.728L121.052 217.713Z" fill="#F8BF1A"/>
<path opacity="0.2" d="M121.95 217.713C128.151 217.28 131.375 215.057 132.318 213.819C132.536 213.536 132.501 213.371 132.487 213.304C132.472 213.237 132.452 213.133 132.437 213.051C123.939 217.842 123.587 213.485 123.587 213.485C123.198 210.287 122.345 207.169 121.057 204.238L120.601 203.99L119.782 204.093C121.216 206.976 122.362 212.819 122.263 216.795C122.259 217.129 122.149 217.451 121.95 217.713Z" fill="black"/>
<path d="M107.982 217.713C107.778 217.454 107.664 217.13 107.66 216.795C107.57 212.819 108.711 206.996 110.14 204.093L100.402 203.521C98.6109 205.583 97.1425 209.993 96.5274 213.319C96.5274 213.386 96.4733 213.551 96.6916 213.835C97.6192 215.072 101.771 217.295 107.977 217.728L107.982 217.713Z" fill="#F8BF1A"/>
<path opacity="0.2" d="M100.323 214.433C97.5796 212.061 102.307 204.335 102.307 204.335L102.625 203.649L100.392 203.521C98.6015 205.583 97.1332 209.993 96.518 213.319C96.518 213.386 96.4635 213.551 96.6817 213.835C97.6094 215.072 100.764 216.821 107.154 217.769C107 217.592 106.874 217.39 106.782 217.171L106.593 217.099C101.935 216.408 100.323 214.433 100.323 214.433Z" fill="black"/>
<path d="M107.52 217.084C107.426 212.892 108.601 206.899 110.099 203.949L111.334 204.016C111.3 206.156 111.28 208.188 111.28 210.04C111.28 212.402 112.153 215.161 114.613 215.161C117.074 215.161 117.952 212.402 117.952 210.04C117.952 208.188 117.927 206.151 117.892 204.011L119.123 203.944C120.611 206.899 121.806 212.886 121.712 217.095C121.712 218.224 118.334 218.771 114.633 218.946C110.893 218.771 107.515 218.224 107.52 217.084Z" fill="#F8BF1A"/>
<path opacity="0.2" d="M107.52 217.084C107.426 212.892 108.601 206.899 110.099 203.949L111.334 204.016C111.3 206.156 111.28 208.188 111.28 210.04C111.28 212.402 112.153 215.161 114.613 215.161C117.074 215.161 117.952 212.402 117.952 210.04C117.952 208.188 117.927 206.151 117.892 204.011L119.123 203.944C120.611 206.899 121.806 212.886 121.712 217.095C121.712 218.224 118.334 218.771 114.633 218.946C110.893 218.771 107.515 218.224 107.52 217.084Z" fill="black"/>
<path opacity="0.2" d="M114.614 163.399V215.16L112.63 214.314C112.025 201.752 113.156 183.166 114.614 163.399Z" fill="black"/>
<path opacity="0.3" d="M57.5715 178.73L57.135 178.679L57.6906 173.388C57.9203 171.235 58.8147 169.217 60.2404 167.637L85.242 140.016C86.2336 138.916 86.9192 137.555 87.2262 136.082L97.0384 88.8895L97.47 88.9875L87.6578 136.18C87.3279 137.726 86.6032 139.151 85.5595 140.305L60.5578 167.937C59.1986 169.445 58.3444 171.37 58.1222 173.424L57.5715 178.73Z" fill="black"/>
<path opacity="0.3" d="M171.78 178.731L171.225 173.44C171.006 171.386 170.153 169.461 168.794 167.953L143.778 140.327C142.732 139.174 142.007 137.748 141.679 136.201L131.872 88.9989L132.304 88.9009L142.116 136.093C142.42 137.568 143.106 138.928 144.1 140.028L169.102 167.654C170.527 169.234 171.422 171.251 171.651 173.404L172.207 178.695L171.77 178.747L171.78 178.731Z" fill="black"/>
<path opacity="0.3" d="M142.353 110.705H132.095V110.432H142.353V110.705Z" fill="black"/>
<path opacity="0.3" d="M97.2571 110.705H87.0034V110.432H97.2571V110.705Z" fill="black"/>
<path d="M131.842 168.149H124.059V153.317H127.194V62.6H132.299V62.8733H127.462V153.591H124.322V167.876H131.842V168.149Z" fill="#3F4249"/>
<path opacity="0.3" d="M128.147 166.87H130.552V162.92H128.147V166.87ZM130.815 167.143H127.904V162.646H130.835V167.143H130.815Z" fill="black"/>
<path d="M105.04 168.149H97.2572V167.876H104.777V153.591H101.637V62.8733H96.8008V62.6H101.905V153.317H105.04V168.149Z" fill="#3F4249"/>
<path opacity="0.3" d="M98.5459 166.87H100.952V162.92H98.5459V166.87ZM101.215 167.143H98.2831V162.646H101.215V167.143Z" fill="black"/>
<path opacity="0.3" d="M134.485 176.622H138.622V170.665H134.485V176.622ZM138.89 176.895H134.222V170.392H138.89V176.895Z" fill="black"/>
<path opacity="0.3" d="M90.7531 176.622H94.8903V170.665H90.7531V176.622ZM95.1532 176.895H90.4853V170.392H95.1632V176.895H95.1532Z" fill="black"/>
<path opacity="0.3" d="M92.8029 196.162L56.8928 186.653L56.9722 183.228L57.4137 183.239L57.3442 186.297L92.912 195.719L92.8029 196.162Z" fill="black"/>
<path opacity="0.3" d="M135.989 196.162L135.885 195.719L172.291 186.297L172.222 183.239L172.658 183.228L172.738 186.653L135.989 196.162Z" fill="black"/>
<path opacity="0.3" d="M124.064 33.7613L123.127 29.9193H105.913L105.035 33.7613L104.782 33.6942L105.705 29.6408H123.33L124.317 33.6942L124.064 33.7613Z" fill="black"/>
<path opacity="0.3" d="M101.215 50.6248H97.8662V50.3515H100.952V43.2244L102.172 41.9558V33.7303H102.44V42.0692L101.215 43.3379V50.6248Z" fill="black"/>
<path opacity="0.3" d="M131.202 50.6248H127.854V43.3379L126.629 42.0692V33.7303H126.896V41.9558L128.122 43.2244V50.3515H131.202V50.6248Z" fill="black"/>
<path opacity="0.3" d="M107.382 43.0703H107.119V37.6812L114.55 35.8195L114.58 35.8247L121.793 37.6864V42.7712H121.53V37.8978L114.55 36.1032L107.382 37.8978V43.0703Z" fill="black"/>
<path opacity="0.3" d="M104.375 203.382C103.825 190.959 105.01 182.852 108.23 177.081L108.463 177.215C105.268 182.919 104.087 190.979 104.638 203.346H104.375V203.382Z" fill="black"/>
<path opacity="0.3" d="M97.2907 203.382C96.5764 190.953 98.1142 182.841 102.276 177.081L102.489 177.246C99.7115 181.083 96.6458 187.519 97.5536 203.361H97.2907V203.382Z" fill="black"/>
<path opacity="0.3" d="M124.723 203.381H124.46C125.011 191.004 123.83 182.954 120.641 177.25L120.869 177.116C124.088 182.866 125.274 190.968 124.723 203.417V203.381Z" fill="black"/>
<path opacity="0.3" d="M131.807 203.381H131.545C132.254 191.004 130.731 182.965 126.584 177.266L126.797 177.101C130.959 182.856 132.497 190.968 131.758 203.402L131.807 203.381Z" fill="black"/>
<path d="M124.963 26.2584C121.853 19.776 118.147 16.0114 114.615 16.0114C111.083 16.0114 107.377 19.776 104.267 26.2584H109.277L110.984 27.8055V28.8369H118.246V27.8055L119.953 26.2584H124.963Z" fill="#3F4249"/>
<path d="M126.995 34.3343H128.081C127.982 34.0248 127.888 33.7206 127.788 33.4163H120.486V31.3999H108.745V33.4163H101.438C101.338 33.7154 101.249 34.0248 101.155 34.3343H126.995Z" fill="#3F4249"/>
<path d="M178.726 166.87C178.578 164.884 177.771 163.014 176.444 161.578L147.97 130.997C147.324 130.308 146.887 129.437 146.715 128.491C145.876 123.984 142.915 108.167 139.874 93.7634C135.017 70.763 133.271 66.8489 132.433 66.1836H131.555V179.726C128.202 174.156 123.122 170.65 116.336 169.139C115.641 162.842 115.046 162.832 114.639 162.832C114.232 162.832 113.647 162.832 112.948 169.103C106.166 170.577 101.102 174.022 97.7234 179.494V66.132H96.8454V66.1939C95.9822 66.8592 94.2361 70.7682 89.3796 93.7737C86.3437 108.177 83.3772 123.994 82.5438 128.501C82.3677 129.446 81.9302 130.318 81.2838 131.008L52.8098 161.589C51.4828 163.022 50.6732 164.887 50.518 166.87L49 187.204L92.5941 202.824C92.5941 204.846 92.6754 206.959 92.8372 209.162C92.8372 211.297 95.8135 211.741 97.2472 211.854C97.2472 211.854 98.3633 206.868 100.72 203.763L101.935 203.825L108.805 204.17L109.773 204.217L111.102 204.284C111.063 206.507 111.043 208.616 111.043 210.534C111.043 212.984 111.98 215.846 114.629 215.846C117.278 215.846 118.216 212.984 118.216 210.534C118.216 208.611 118.216 206.501 118.156 204.279H118.623L119.461 204.237L120.453 204.191L127.319 203.846L128.455 203.789C128.455 203.789 130.806 205.965 132.001 211.865C133.49 211.72 136.277 211.261 136.277 209.219C136.43 207.022 136.511 204.915 136.521 202.897L180.254 187.23L178.726 166.87ZM177.356 179.437H178.78L179.028 182.738H177.356V179.437ZM176.915 179.437V182.738H173.859V179.437H176.915ZM132.408 72.8052L141.794 114.881L140.39 118.574L140.415 118.708C141.685 125.232 142.692 130.616 143.178 133.246C143.386 134.365 143.902 135.398 144.666 136.216L173.14 166.797C174.321 168.08 175.04 169.747 175.179 171.516L175.675 178.53H132.408V72.8052ZM173.418 179.448V182.748H170.357V179.448H173.418ZM169.916 179.448V182.748H166.855V179.448H169.916ZM166.418 179.448V182.748H163.358V179.448H166.418ZM162.916 179.448V182.748H159.86V179.448H162.916ZM155.917 179.448V182.748H152.856V179.448H155.917ZM152.419 179.448V182.748H149.359V179.448H152.419ZM148.917 179.448V182.748H145.856V179.448H148.917ZM145.42 179.448V182.748H142.359V179.448H145.42ZM141.918 179.448V182.748H138.857V179.448H141.918ZM138.445 179.448V182.748H135.345V179.448H138.445ZM132.433 181.185V179.448H134.943V182.748H133.127C132.889 182.232 132.631 181.717 132.373 181.201L132.433 181.185ZM127.686 176.028C126.361 176.333 122.998 176.921 117.01 176.952C116.812 174.141 116.623 171.882 116.44 170.077C120.999 171.16 124.744 173.125 127.661 176.049L127.686 176.028ZM112.843 170.046C112.66 171.856 112.466 174.12 112.273 176.952C106.186 176.952 102.788 176.333 101.449 176.028C104.376 173.094 108.166 171.119 112.819 170.067L112.843 170.046ZM54.0599 171.511C54.1913 169.738 54.9121 168.068 56.0987 166.787L84.5727 136.206C85.3352 135.386 85.8521 134.354 86.0609 133.235C86.557 130.657 87.5491 125.299 88.824 118.698V118.564L87.4201 114.871L96.7958 72.7949V178.514H53.5737L54.0599 171.511ZM96.8206 179.437V181.02C96.5279 181.577 96.2501 182.145 95.9872 182.738H94.3105V179.437H96.8206ZM93.8442 179.437V182.738H90.7884V179.437H93.8442ZM90.3717 179.437V182.738H87.311V179.437H90.3717ZM86.8695 179.437V182.738H83.8138V179.437H86.8695ZM83.3971 179.437V182.738H80.3364V179.437H83.3971ZM79.8949 179.437V182.738H76.8093V179.437H79.8949ZM76.4224 179.437V182.738H73.3369V179.437H76.4224ZM69.423 179.437V182.738H66.3622V179.437H69.423ZM65.9208 179.437V182.738H62.86V179.437H65.9208ZM62.4235 179.437V182.738H59.3628V179.437H62.4235ZM58.9213 179.437V182.738H55.8655V179.437H58.9213ZM52.3633 179.437H55.424V182.738H52.3633V179.437ZM50.4981 179.437H51.9218V182.738H50.2501L50.4981 179.437ZM71.5709 192.907L50.8206 186.874L49.9673 186.569L50.1757 183.723L71.5709 185.038V192.907ZM72.9202 182.738H69.8148V179.437H72.8706L72.9202 182.738ZM92.6983 199.055L73.1434 193.382V185.131L94.6131 186.466C93.4384 190.56 92.7781 194.795 92.6487 199.065L92.6983 199.055ZM111.152 203.366L97.2621 202.665V210.916C95.5655 210.735 93.7648 210.276 93.7648 209.116C93.4831 205.322 93.4433 201.513 93.6457 197.714C95.1637 198.229 100.179 199.586 111.256 199.606C111.157 200.906 111.127 202.154 111.102 203.376L111.152 203.366ZM111.266 198.725C99.6878 198.725 94.7569 197.177 93.6904 196.796C93.8377 194.676 94.1111 192.568 94.5089 190.484C95.9971 191.102 100.601 192.51 111.474 192.515C111.345 194.594 111.276 196.677 111.216 198.714L111.266 198.725ZM111.514 191.598C100.338 191.598 95.878 190.076 94.7024 189.571C95.1483 187.469 95.7863 185.415 96.6073 183.439C98.0954 183.955 102.367 185.105 111.807 185.131C111.648 187.245 111.534 189.416 111.464 191.587L111.514 191.598ZM96.9843 182.599C97.2075 182.119 97.4406 181.65 97.6887 181.196H97.7482V181.077C98.5781 179.542 99.5772 178.112 100.725 176.817C101.583 177.06 105.025 177.849 112.208 177.9C112.149 178.772 112.094 179.685 112.03 180.659C111.96 181.821 111.894 183.006 111.831 184.213C102.605 184.182 98.3832 183.088 96.9346 182.588L96.9843 182.599ZM114.664 214.949C112.089 214.949 111.955 211.282 111.955 210.55C111.955 194.135 113.369 167.746 114.664 164.059C115.959 167.746 117.372 194.135 117.372 210.55C117.323 211.272 117.189 214.938 114.614 214.938L114.664 214.949ZM117.273 180.659C117.214 179.685 117.154 178.772 117.095 177.9C124.178 177.859 127.581 177.06 128.44 176.817C129.969 178.536 131.238 180.485 132.205 182.599C130.756 183.114 126.57 184.182 117.472 184.213C117.376 182.999 117.293 181.811 117.224 180.649L117.273 180.659ZM117.521 185.125C126.862 185.095 131.094 183.975 132.577 183.439C133.385 185.413 134.008 187.463 134.437 189.561C133.261 190.076 128.827 191.577 117.769 191.587C117.68 189.416 117.581 187.245 117.487 185.115L117.521 185.125ZM117.854 192.515C128.618 192.515 133.187 191.102 134.675 190.484C135.058 192.564 135.317 194.667 135.449 196.78C134.378 197.167 129.496 198.673 118.012 198.709C117.953 196.677 117.883 194.594 117.804 192.505L117.854 192.515ZM135.39 209.157C135.39 210.287 133.589 210.746 131.892 210.921V202.67L118.127 203.361C118.104 202.144 118.074 200.897 118.037 199.622C129.01 199.586 133.996 198.245 135.509 197.729C135.711 201.537 135.671 205.355 135.39 209.157ZM156.14 193.361L136.436 199.106C136.305 194.826 135.638 190.583 134.452 186.482L156.12 185.146L156.14 193.361ZM156.358 179.437H159.419V182.738H156.358V179.437ZM157.707 192.907V185.048L179.103 183.733L179.311 186.58L178.458 186.884L157.707 192.907Z" fill="#3F4249"/>
<path d="M124.963 26.2584C121.853 19.776 118.147 16.0114 114.615 16.0114C111.083 16.0114 107.377 19.776 104.267 26.2584H109.277L110.984 27.8055V28.8369H118.246V27.8055L119.953 26.2584H124.963Z" fill="#3F4249"/>
<path d="M178.726 166.87C178.578 164.884 177.771 163.014 176.444 161.578L147.97 130.997C147.324 130.308 146.887 129.437 146.715 128.491C145.876 123.984 142.915 108.167 139.874 93.7634C135.017 70.763 133.271 66.8489 132.433 66.1836H131.555V179.726C128.202 174.156 123.122 170.65 116.336 169.139C115.641 162.842 115.046 162.832 114.639 162.832C114.232 162.832 113.647 162.832 112.948 169.103C106.166 170.577 101.102 174.022 97.7234 179.494V66.132H96.8454V66.1939C95.9822 66.8592 94.2361 70.7682 89.3796 93.7737C86.3437 108.177 83.3772 123.994 82.5438 128.501C82.3677 129.446 81.9302 130.318 81.2838 131.008L52.8098 161.589C51.4828 163.022 50.6732 164.887 50.518 166.87L49 187.204L92.5941 202.824C92.5941 204.846 92.6754 206.959 92.8372 209.162C92.8372 211.297 95.8135 211.741 97.2472 211.854C97.2472 211.854 98.3633 206.868 100.72 203.763L101.935 203.825L108.805 204.17L109.773 204.217L111.102 204.284C111.063 206.507 111.043 208.616 111.043 210.534C111.043 212.984 111.98 215.846 114.629 215.846C117.278 215.846 118.216 212.984 118.216 210.534C118.216 208.611 118.216 206.501 118.156 204.279H118.623L119.461 204.237L120.453 204.191L127.319 203.846L128.455 203.789C128.455 203.789 130.806 205.965 132.001 211.865C133.49 211.72 136.277 211.261 136.277 209.219C136.43 207.022 136.511 204.915 136.521 202.897L180.254 187.23L178.726 166.87ZM177.356 179.437H178.78L179.028 182.738H177.356V179.437ZM176.915 179.437V182.738H173.859V179.437H176.915ZM132.408 72.8052L141.794 114.881L140.39 118.574L140.415 118.708C141.685 125.232 142.692 130.616 143.178 133.246C143.386 134.365 143.902 135.398 144.666 136.216L173.14 166.797C174.321 168.08 175.04 169.747 175.179 171.516L175.675 178.53H132.408V72.8052ZM173.418 179.448V182.748H170.357V179.448H173.418ZM169.916 179.448V182.748H166.855V179.448H169.916ZM166.418 179.448V182.748H163.358V179.448H166.418ZM162.916 179.448V182.748H159.86V179.448H162.916ZM155.917 179.448V182.748H152.856V179.448H155.917ZM152.419 179.448V182.748H149.359V179.448H152.419ZM148.917 179.448V182.748H145.856V179.448H148.917ZM145.42 179.448V182.748H142.359V179.448H145.42ZM141.918 179.448V182.748H138.857V179.448H141.918ZM138.445 179.448V182.748H135.345V179.448H138.445ZM132.433 181.185V179.448H134.943V182.748H133.127C132.889 182.232 132.631 181.717 132.373 181.201L132.433 181.185ZM127.686 176.028C126.361 176.333 122.998 176.921 117.01 176.952C116.812 174.141 116.623 171.882 116.44 170.077C120.999 171.16 124.744 173.125 127.661 176.049L127.686 176.028ZM112.843 170.046C112.66 171.856 112.466 174.12 112.273 176.952C106.186 176.952 102.788 176.333 101.449 176.028C104.376 173.094 108.166 171.119 112.819 170.067L112.843 170.046ZM54.0599 171.511C54.1913 169.738 54.9121 168.068 56.0987 166.787L84.5727 136.206C85.3352 135.386 85.8521 134.354 86.0609 133.235C86.557 130.657 87.5491 125.299 88.824 118.698V118.564L87.4201 114.871L96.7958 72.7949V178.514H53.5737L54.0599 171.511ZM96.8206 179.437V181.02C96.5279 181.577 96.2501 182.145 95.9872 182.738H94.3105V179.437H96.8206ZM93.8442 179.437V182.738H90.7884V179.437H93.8442ZM90.3717 179.437V182.738H87.311V179.437H90.3717ZM86.8695 179.437V182.738H83.8138V179.437H86.8695ZM83.3971 179.437V182.738H80.3364V179.437H83.3971ZM79.8949 179.437V182.738H76.8093V179.437H79.8949ZM76.4224 179.437V182.738H73.3369V179.437H76.4224ZM69.423 179.437V182.738H66.3622V179.437H69.423ZM65.9208 179.437V182.738H62.86V179.437H65.9208ZM62.4235 179.437V182.738H59.3628V179.437H62.4235ZM58.9213 179.437V182.738H55.8655V179.437H58.9213ZM52.3633 179.437H55.424V182.738H52.3633V179.437ZM50.4981 179.437H51.9218V182.738H50.2501L50.4981 179.437ZM71.5709 192.907L50.8206 186.874L49.9673 186.569L50.1757 183.723L71.5709 185.038V192.907ZM72.9202 182.738H69.8148V179.437H72.8706L72.9202 182.738ZM92.6983 199.055L73.1434 193.382V185.131L94.6131 186.466C93.4384 190.56 92.7781 194.795 92.6487 199.065L92.6983 199.055ZM111.152 203.366L97.2621 202.665V210.916C95.5655 210.735 93.7648 210.276 93.7648 209.116C93.4831 205.322 93.4433 201.513 93.6457 197.714C95.1637 198.229 100.179 199.586 111.256 199.606C111.157 200.906 111.127 202.154 111.102 203.376L111.152 203.366ZM111.266 198.725C99.6878 198.725 94.7569 197.177 93.6904 196.796C93.8377 194.676 94.1111 192.568 94.5089 190.484C95.9971 191.102 100.601 192.51 111.474 192.515C111.345 194.594 111.276 196.677 111.216 198.714L111.266 198.725ZM111.514 191.598C100.338 191.598 95.878 190.076 94.7024 189.571C95.1483 187.469 95.7863 185.415 96.6073 183.439C98.0954 183.955 102.367 185.105 111.807 185.131C111.648 187.245 111.534 189.416 111.464 191.587L111.514 191.598ZM96.9843 182.599C97.2075 182.119 97.4406 181.65 97.6887 181.196H97.7482V181.077C98.5781 179.542 99.5772 178.112 100.725 176.817C101.583 177.06 105.025 177.849 112.208 177.9C112.149 178.772 112.094 179.685 112.03 180.659C111.96 181.821 111.894 183.006 111.831 184.213C102.605 184.182 98.3832 183.088 96.9346 182.588L96.9843 182.599ZM114.664 214.949C112.089 214.949 111.955 211.282 111.955 210.55C111.955 194.135 113.369 167.746 114.664 164.059C115.959 167.746 117.372 194.135 117.372 210.55C117.323 211.272 117.189 214.938 114.614 214.938L114.664 214.949ZM117.273 180.659C117.214 179.685 117.154 178.772 117.095 177.9C124.178 177.859 127.581 177.06 128.44 176.817C129.969 178.536 131.238 180.485 132.205 182.599C130.756 183.114 126.57 184.182 117.472 184.213C117.376 182.999 117.293 181.811 117.224 180.649L117.273 180.659ZM117.521 185.125C126.862 185.095 131.094 183.975 132.577 183.439C133.385 185.413 134.008 187.463 134.437 189.561C133.261 190.076 128.827 191.577 117.769 191.587C117.68 189.416 117.581 187.245 117.487 185.115L117.521 185.125ZM117.854 192.515C128.618 192.515 133.187 191.102 134.675 190.484C135.058 192.564 135.317 194.667 135.449 196.78C134.378 197.167 129.496 198.673 118.012 198.709C117.953 196.677 117.883 194.594 117.804 192.505L117.854 192.515ZM135.39 209.157C135.39 210.287 133.589 210.746 131.892 210.921V202.67L118.127 203.361C118.104 202.144 118.074 200.897 118.037 199.622C129.01 199.586 133.996 198.245 135.509 197.729C135.711 201.537 135.671 205.355 135.39 209.157ZM156.14 193.361L136.436 199.106C136.305 194.826 135.638 190.583 134.452 186.482L156.12 185.146L156.14 193.361ZM156.358 179.437H159.419V182.738H156.358V179.437ZM157.707 192.907V185.048L179.103 183.733L179.311 186.58L178.458 186.884L157.707 192.907Z" fill="#3F4249"/>
<path d="M151.447 164.605H137.294V167.926H151.447V164.605Z" fill="#F8BF1A"/>
<path opacity="0.2" d="M109.757 215.16C109.613 211.138 110.67 204.289 110.67 204.289L110.035 204.088C108.547 207.084 107.426 212.953 107.52 217.084C107.52 218.223 110.893 218.77 114.634 218.945C118.334 218.77 121.712 218.223 121.712 217.094C108.864 219.281 109.757 215.16 109.757 215.16Z" fill="black"/>
<path d="M80.4756 172.219C84.8429 172.219 88.3834 168.733 88.3834 164.433C88.3834 160.132 84.8429 156.646 80.4756 156.646C76.1082 156.646 72.5678 160.132 72.5678 164.433C72.5678 168.733 76.1082 172.219 80.4756 172.219Z" fill="#F8BF1A"/>
<path d="M76.0852 168.805V166.741H77.3075V162.025H76.0852V160.036H81.199C81.5483 160.036 81.8975 160.134 82.2218 160.257C82.8704 160.503 83.4442 160.871 83.8932 161.411C84.2923 161.878 84.5667 162.418 84.7164 163.032C84.9659 164.064 84.9659 165.12 84.6665 166.152C84.2674 167.503 83.4192 168.412 81.9724 168.731C81.7229 168.78 81.4485 168.805 81.199 168.829H76.2847C76.2099 168.805 76.16 168.805 76.0852 168.805ZM79.8021 166.741C80.0765 166.741 80.3509 166.766 80.6253 166.741C80.9745 166.717 81.2988 166.594 81.5233 166.299C81.7229 166.054 81.8975 165.783 81.9973 165.489C82.1969 164.825 82.122 164.162 81.9724 163.499C81.8975 163.106 81.698 162.738 81.4485 162.443C81.2988 162.271 81.0993 162.075 80.8748 162.05C80.5255 161.976 80.1513 162.025 79.8021 162.025V166.741Z" fill="white"/>
</svg>
