<svg width="721" height="233" viewBox="0 0 721 233" fill="none" xmlns="http://www.w3.org/2000/svg">
<path d="M0 16C0 7.16345 7.16344 0 16 0H705C713.837 0 721 7.16344 721 16V217C721 225.837 713.837 233 705 233H16C7.16345 233 0 225.837 0 217V16Z" fill="#61656D"/>
<path d="M225 23L226 207" stroke="black" stroke-width="3"/>
<path d="M329.858 62.9531H325.405V75H317.179V40.875H330.608C334.655 40.875 337.819 41.7734 340.101 43.5703C342.382 45.3672 343.522 47.9062 343.522 51.1875C343.522 53.5625 343.038 55.5312 342.069 57.0938C341.116 58.6562 339.616 59.9219 337.569 60.8906L344.694 74.6484V75H335.882L329.858 62.9531ZM325.405 56.6016H330.608C332.171 56.6016 333.343 56.1953 334.124 55.3828C334.921 54.5547 335.319 53.4062 335.319 51.9375C335.319 50.4688 334.921 49.3203 334.124 48.4922C333.327 47.6484 332.155 47.2266 330.608 47.2266H325.405V56.6016ZM356.364 75H348.442V49.6406H356.364V75ZM347.973 43.1016C347.973 41.9766 348.38 41.0547 349.192 40.3359C350.005 39.6172 351.059 39.2578 352.356 39.2578C353.653 39.2578 354.708 39.6172 355.52 40.3359C356.333 41.0547 356.739 41.9766 356.739 43.1016C356.739 44.2266 356.333 45.1484 355.52 45.8672C354.708 46.5859 353.653 46.9453 352.356 46.9453C351.059 46.9453 350.005 46.5859 349.192 45.8672C348.38 45.1484 347.973 44.2266 347.973 43.1016ZM360.229 62.1328C360.229 59.5703 360.651 57.3047 361.494 55.3359C362.338 53.3672 363.549 51.8516 365.127 50.7891C366.705 49.7109 368.541 49.1719 370.635 49.1719C373.276 49.1719 375.338 50.0625 376.823 51.8438L377.104 49.6406H384.276V74.0391C384.276 76.2734 383.752 78.2109 382.705 79.8516C381.674 81.5078 380.174 82.7734 378.205 83.6484C376.237 84.5391 373.955 84.9844 371.362 84.9844C369.502 84.9844 367.698 84.6328 365.948 83.9297C364.213 83.2266 362.885 82.3125 361.963 81.1875L365.268 76.5469C366.737 78.2812 368.674 79.1484 371.08 79.1484C374.58 79.1484 376.33 77.3516 376.33 73.7578V72.9609C374.815 74.6328 372.901 75.4688 370.588 75.4688C367.494 75.4688 364.994 74.2891 363.088 71.9297C361.182 69.5547 360.229 66.3828 360.229 62.4141V62.1328ZM368.151 62.625C368.151 64.7031 368.541 66.3516 369.323 67.5703C370.104 68.7734 371.198 69.375 372.604 69.375C374.307 69.375 375.549 68.8047 376.33 67.6641V57C375.565 55.8438 374.338 55.2656 372.651 55.2656C371.244 55.2656 370.143 55.8984 369.346 57.1641C368.549 58.4141 368.151 60.2344 368.151 62.625ZM396.391 52.3594C398.078 50.2344 400.234 49.1719 402.859 49.1719C405.656 49.1719 407.766 50 409.188 51.6562C410.609 53.3125 411.336 55.7578 411.367 58.9922V75H403.445V59.1797C403.445 57.8359 403.172 56.8516 402.625 56.2266C402.078 55.5859 401.148 55.2656 399.836 55.2656C398.211 55.2656 397.063 55.7812 396.391 56.8125V75H388.492V39H396.391V52.3594ZM424.865 43.3359V49.6406H429.037V55.125H424.865V66.7266C424.865 67.6797 425.037 68.3438 425.381 68.7188C425.724 69.0938 426.404 69.2812 427.42 69.2812C428.201 69.2812 428.857 69.2344 429.388 69.1406V74.7891C427.967 75.2422 426.482 75.4688 424.935 75.4688C422.217 75.4688 420.209 74.8281 418.912 73.5469C417.615 72.2656 416.967 70.3203 416.967 67.7109V55.125H413.732V49.6406H416.967V43.3359H424.865ZM452.517 63.4219V75H444.29V40.875H457.907C460.517 40.875 462.821 41.3594 464.821 42.3281C466.837 43.2812 468.392 44.6484 469.486 46.4297C470.595 48.1953 471.15 50.2031 471.15 52.4531C471.15 55.7812 469.954 58.4453 467.564 60.4453C465.189 62.4297 461.923 63.4219 457.767 63.4219H452.517ZM452.517 57.0703H457.907C459.501 57.0703 460.712 56.6719 461.54 55.875C462.384 55.0781 462.806 53.9531 462.806 52.5C462.806 50.9062 462.376 49.6328 461.517 48.6797C460.657 47.7266 459.486 47.2422 458.001 47.2266H452.517V57.0703ZM483.429 75H475.507V39H483.429V75ZM502.504 75C502.223 74.4844 501.973 73.7266 501.754 72.7266C500.301 74.5547 498.27 75.4688 495.661 75.4688C493.27 75.4688 491.239 74.75 489.567 73.3125C487.895 71.8594 487.059 70.0391 487.059 67.8516C487.059 65.1016 488.075 63.0234 490.106 61.6172C492.137 60.2109 495.09 59.5078 498.965 59.5078H501.403V58.1719C501.403 55.8438 500.395 54.6797 498.379 54.6797C496.504 54.6797 495.567 55.6016 495.567 57.4453H487.668C487.668 54.9922 488.708 53 490.786 51.4688C492.879 49.9375 495.543 49.1719 498.778 49.1719C502.012 49.1719 504.567 49.9609 506.442 51.5391C508.317 53.1172 509.278 55.2812 509.325 58.0312V69.2578C509.356 71.5859 509.715 73.3672 510.403 74.6016V75H502.504ZM497.559 69.8438C498.543 69.8438 499.356 69.6328 499.997 69.2109C500.653 68.7891 501.122 68.3125 501.403 67.7812V63.7266H499.106C496.356 63.7266 494.981 64.9609 494.981 67.4297C494.981 68.1484 495.223 68.7344 495.708 69.1875C496.192 69.625 496.809 69.8438 497.559 69.8438ZM522.823 43.3359V49.6406H526.994V55.125H522.823V66.7266C522.823 67.6797 522.994 68.3438 523.338 68.7188C523.682 69.0938 524.362 69.2812 525.377 69.2812C526.158 69.2812 526.815 69.2344 527.346 69.1406V74.7891C525.924 75.2422 524.44 75.4688 522.893 75.4688C520.174 75.4688 518.166 74.8281 516.869 73.5469C515.573 72.2656 514.924 70.3203 514.924 67.7109V55.125H511.69V49.6406H514.924V43.3359H522.823ZM531.773 75V55.125H528.094V49.6406H531.773V47.625C531.773 44.7344 532.625 42.4922 534.328 40.8984C536.031 39.3047 538.422 38.5078 541.5 38.5078C542.625 38.5078 543.859 38.6719 545.203 39L545.227 44.8125C544.742 44.6719 544.094 44.6016 543.281 44.6016C540.891 44.6016 539.695 45.6328 539.695 47.6953V49.6406H544.641V55.125H539.695V75H531.773ZM546.326 62.0859C546.326 59.5547 546.818 57.3047 547.802 55.3359C548.787 53.3516 550.201 51.8281 552.045 50.7656C553.888 49.7031 556.052 49.1719 558.537 49.1719C562.334 49.1719 565.326 50.3516 567.513 52.7109C569.701 55.0547 570.795 58.25 570.795 62.2969V62.5781C570.795 66.5312 569.693 69.6719 567.49 72C565.302 74.3125 562.334 75.4688 558.584 75.4688C554.974 75.4688 552.076 74.3906 549.888 72.2344C547.701 70.0625 546.521 67.125 546.349 63.4219L546.326 62.0859ZM554.224 62.5781C554.224 64.9219 554.591 66.6406 555.326 67.7344C556.06 68.8281 557.146 69.375 558.584 69.375C561.396 69.375 562.834 67.2109 562.896 62.8828V62.0859C562.896 57.5391 561.443 55.2656 558.537 55.2656C555.896 55.2656 554.466 57.2266 554.248 61.1484L554.224 62.5781ZM589.519 56.7891L586.917 56.6016C584.433 56.6016 582.839 57.3828 582.136 58.9453V75H574.238V49.6406H581.644L581.902 52.8984C583.23 50.4141 585.081 49.1719 587.456 49.1719C588.3 49.1719 589.034 49.2656 589.659 49.4531L589.519 56.7891ZM599.735 49.6406L599.993 52.6172C601.79 50.3203 604.204 49.1719 607.235 49.1719C610.439 49.1719 612.603 50.4453 613.728 52.9922C615.446 50.4453 617.931 49.1719 621.181 49.1719C626.321 49.1719 628.962 52.2812 629.103 58.5V75H621.181V58.9922C621.181 57.6953 620.962 56.75 620.524 56.1562C620.087 55.5625 619.29 55.2656 618.134 55.2656C616.571 55.2656 615.407 55.9609 614.642 57.3516L614.665 57.6797V75H606.743V59.0391C606.743 57.7109 606.532 56.75 606.11 56.1562C605.689 55.5625 604.884 55.2656 603.696 55.2656C602.181 55.2656 601.024 55.9609 600.228 57.3516V75H592.329V49.6406H599.735Z" fill="black"/>
<path d="M598.863 200.953C598.863 199.719 598.558 198.75 597.949 198.047C597.339 197.344 596.269 196.68 594.738 196.055C593.207 195.43 591.792 194.797 590.496 194.156C589.199 193.516 588.082 192.773 587.144 191.93C586.207 191.086 585.488 190.109 584.988 189C584.488 187.891 584.238 186.547 584.238 184.969C584.238 182.328 585.128 180.156 586.91 178.453C588.691 176.734 591.066 175.734 594.035 175.453V170.508H597.761V175.547C600.621 175.969 602.863 177.148 604.488 179.086C606.128 181.008 606.949 183.453 606.949 186.422H599.027C599.027 184.797 598.714 183.547 598.089 182.672C597.464 181.797 596.574 181.359 595.417 181.359C594.386 181.359 593.582 181.688 593.003 182.344C592.441 182.984 592.16 183.875 592.16 185.016C592.16 186.172 592.488 187.094 593.144 187.781C593.8 188.453 594.855 189.102 596.308 189.727C597.761 190.336 599.128 190.977 600.41 191.648C601.707 192.305 602.824 193.055 603.761 193.898C604.699 194.742 605.433 195.727 605.964 196.852C606.496 197.977 606.761 199.328 606.761 200.906C606.761 203.578 605.91 205.758 604.207 207.445C602.519 209.133 600.214 210.117 597.292 210.398V215.109H593.566V210.375C590.16 210.016 587.542 208.852 585.714 206.883C583.902 204.898 582.996 202.289 582.996 199.055H590.894C590.894 200.836 591.285 202.195 592.066 203.133C592.863 204.055 593.988 204.516 595.441 204.516C596.503 204.516 597.339 204.203 597.949 203.578C598.558 202.938 598.863 202.062 598.863 200.953ZM611.306 193.312L613.392 175.875H633.337V182.016H619.814L619.04 188.789C619.603 188.461 620.337 188.172 621.243 187.922C622.165 187.672 623.064 187.547 623.939 187.547C627.329 187.547 629.931 188.555 631.743 190.57C633.571 192.57 634.486 195.383 634.486 199.008C634.486 201.195 633.993 203.18 633.009 204.961C632.04 206.727 630.673 208.086 628.907 209.039C627.142 209.992 625.056 210.469 622.65 210.469C620.509 210.469 618.501 210.031 616.626 209.156C614.751 208.266 613.282 207.055 612.22 205.523C611.157 203.977 610.634 202.234 610.65 200.297H618.571C618.65 201.547 619.048 202.539 619.767 203.273C620.486 204.008 621.431 204.375 622.603 204.375C625.259 204.375 626.587 202.406 626.587 198.469C626.587 194.828 624.962 193.008 621.712 193.008C619.868 193.008 618.493 193.602 617.587 194.789L611.306 193.312ZM662.233 196.055C662.233 200.664 661.194 204.219 659.116 206.719C657.054 209.219 654.139 210.469 650.374 210.469C646.577 210.469 643.639 209.211 641.561 206.695C639.483 204.18 638.444 200.633 638.444 196.055V189.82C638.444 185.211 639.475 181.656 641.538 179.156C643.616 176.656 646.546 175.406 650.327 175.406C654.108 175.406 657.038 176.664 659.116 179.18C661.194 181.695 662.233 185.25 662.233 189.844V196.055ZM654.335 188.812C654.335 186.359 654.014 184.531 653.374 183.328C652.733 182.109 651.718 181.5 650.327 181.5C648.968 181.5 647.975 182.062 647.35 183.188C646.741 184.312 646.413 186.016 646.366 188.297V197.016C646.366 199.562 646.686 201.43 647.327 202.617C647.968 203.789 648.983 204.375 650.374 204.375C651.718 204.375 652.71 203.805 653.35 202.664C653.991 201.508 654.319 199.703 654.335 197.25V188.812ZM689.934 196.055C689.934 200.664 688.895 204.219 686.817 206.719C684.754 209.219 681.84 210.469 678.075 210.469C674.278 210.469 671.34 209.211 669.262 206.695C667.184 204.18 666.145 200.633 666.145 196.055V189.82C666.145 185.211 667.176 181.656 669.239 179.156C671.317 176.656 674.247 175.406 678.028 175.406C681.809 175.406 684.739 176.664 686.817 179.18C688.895 181.695 689.934 185.25 689.934 189.844V196.055ZM682.036 188.812C682.036 186.359 681.715 184.531 681.075 183.328C680.434 182.109 679.419 181.5 678.028 181.5C676.669 181.5 675.676 182.062 675.051 183.188C674.442 184.312 674.114 186.016 674.067 188.297V197.016C674.067 199.562 674.387 201.43 675.028 202.617C675.669 203.789 676.684 204.375 678.075 204.375C679.419 204.375 680.411 203.805 681.051 202.664C681.692 201.508 682.02 199.703 682.036 197.25V188.812Z" fill="black"/>
<path d="M449 186C449 177.163 456.163 170 465 170H547C555.837 170 563 177.163 563 186V202C563 210.837 555.837 218 547 218H465C456.163 218 449 210.837 449 202V186Z" fill="#0E1A13"/>
<path d="M457.252 196.658V201H454.168V188.203H459.274C460.252 188.203 461.117 188.385 461.867 188.748C462.623 189.105 463.206 189.618 463.616 190.286C464.032 190.948 464.24 191.701 464.24 192.545C464.24 193.793 463.792 194.792 462.895 195.542C462.004 196.286 460.78 196.658 459.221 196.658H457.252ZM457.252 194.276H459.274C459.872 194.276 460.326 194.127 460.636 193.828C460.953 193.529 461.111 193.107 461.111 192.562C461.111 191.965 460.95 191.487 460.627 191.13C460.305 190.772 459.866 190.591 459.309 190.585H457.252V194.276ZM475.965 188.203V196.579C475.965 197.528 475.763 198.352 475.359 199.049C474.954 199.74 474.374 200.268 473.619 200.631C472.863 200.994 471.969 201.176 470.938 201.176C469.379 201.176 468.152 200.771 467.255 199.963C466.359 199.154 465.902 198.047 465.884 196.641V188.203H468.987V196.702C469.022 198.103 469.672 198.803 470.938 198.803C471.577 198.803 472.06 198.627 472.388 198.275C472.716 197.924 472.88 197.353 472.88 196.562V188.203H475.965ZM482.69 196.482H481.02V201H477.935V188.203H482.971C484.489 188.203 485.675 188.54 486.531 189.214C487.386 189.888 487.814 190.84 487.814 192.07C487.814 192.961 487.632 193.699 487.269 194.285C486.911 194.871 486.349 195.346 485.581 195.709L488.253 200.868V201H484.949L482.69 196.482ZM481.02 194.101H482.971C483.557 194.101 483.996 193.948 484.289 193.644C484.588 193.333 484.738 192.902 484.738 192.352C484.738 191.801 484.588 191.37 484.289 191.06C483.99 190.743 483.551 190.585 482.971 190.585H481.02V194.101ZM500.067 196.667C500.026 197.558 499.785 198.346 499.346 199.031C498.906 199.711 498.288 200.238 497.491 200.613C496.7 200.988 495.795 201.176 494.776 201.176C493.094 201.176 491.77 200.628 490.803 199.532C489.836 198.437 489.353 196.89 489.353 194.892V194.259C489.353 193.005 489.569 191.909 490.003 190.972C490.443 190.028 491.072 189.302 491.893 188.792C492.713 188.276 493.662 188.019 494.74 188.019C496.293 188.019 497.541 188.429 498.485 189.249C499.428 190.063 499.964 191.188 500.093 192.624H497.017C496.993 191.845 496.797 191.285 496.428 190.945C496.059 190.605 495.496 190.436 494.74 190.436C493.973 190.436 493.41 190.723 493.053 191.297C492.695 191.871 492.508 192.788 492.49 194.048V194.953C492.49 196.318 492.66 197.294 493 197.88C493.346 198.466 493.938 198.759 494.776 198.759C495.485 198.759 496.027 198.592 496.402 198.258C496.777 197.924 496.976 197.394 496.999 196.667H500.067ZM512.258 201H509.19V195.656H504.646V201H501.562V188.203H504.646V193.283H509.19V188.203H512.258V201ZM521.681 198.609H517.453L516.715 201H513.419L518.112 188.203H521.013L525.741 201H522.428L521.681 198.609ZM518.191 196.228H520.942L519.562 191.789L518.191 196.228ZM533.318 197.599C533.318 197.147 533.157 196.796 532.835 196.544C532.518 196.292 531.959 196.031 531.156 195.762C530.353 195.492 529.697 195.231 529.187 194.979C527.529 194.165 526.7 193.046 526.7 191.622C526.7 190.913 526.905 190.289 527.315 189.75C527.731 189.205 528.317 188.783 529.073 188.484C529.829 188.18 530.678 188.027 531.622 188.027C532.542 188.027 533.365 188.191 534.092 188.52C534.824 188.848 535.392 189.316 535.797 189.926C536.201 190.529 536.403 191.221 536.403 192H533.327C533.327 191.479 533.166 191.074 532.843 190.787C532.527 190.5 532.096 190.356 531.551 190.356C531.001 190.356 530.564 190.479 530.242 190.726C529.926 190.966 529.767 191.273 529.767 191.648C529.767 191.977 529.943 192.275 530.295 192.545C530.646 192.809 531.264 193.084 532.149 193.371C533.034 193.652 533.76 193.957 534.329 194.285C535.712 195.082 536.403 196.181 536.403 197.581C536.403 198.7 535.981 199.579 535.137 200.218C534.294 200.856 533.136 201.176 531.666 201.176C530.629 201.176 529.688 200.991 528.844 200.622C528.007 200.247 527.374 199.737 526.946 199.093C526.524 198.442 526.313 197.695 526.313 196.852H529.407C529.407 197.537 529.583 198.044 529.934 198.372C530.292 198.694 530.869 198.855 531.666 198.855C532.176 198.855 532.577 198.747 532.87 198.53C533.169 198.308 533.318 197.997 533.318 197.599ZM545.958 195.577H541.106V198.627H546.837V201H538.021V188.203H546.854V190.585H541.106V193.283H545.958V195.577ZM548.129 201V188.203H552.251C553.382 188.203 554.399 188.461 555.301 188.977C556.204 189.486 556.907 190.21 557.411 191.147C557.92 192.079 558.178 193.125 558.184 194.285V194.874C558.184 196.046 557.935 197.098 557.437 198.029C556.945 198.955 556.248 199.682 555.345 200.209C554.449 200.73 553.447 200.994 552.339 201H548.129ZM551.214 190.585V198.627H552.287C553.171 198.627 553.851 198.313 554.326 197.687C554.8 197.054 555.038 196.116 555.038 194.874V194.32C555.038 193.084 554.8 192.152 554.326 191.525C553.851 190.898 553.16 190.585 552.251 190.585H551.214Z" fill="white"/>
<path d="M125.28 214.266H121.698V15.3323H125.28V214.266Z" fill="#4760E9"/>
<path d="M142.244 214.266H141.464V15.3323H142.244V214.266Z" fill="#4760E9"/>
<path d="M131.215 214.266H130.437V15.3323H131.215V214.266Z" fill="#4760E9"/>
<path d="M143.922 214.266H143.144V15.3323H143.922V214.266Z" fill="#4760E9"/>
<path d="M153.197 43.7027V59.0766H150.58L134.458 42.5185V37.1038L150.58 20.5457H153.197V43.7027ZM149.446 62.8897H111.619V60.3259L128.034 43.7027H133.029L149.443 60.3259V62.8897H149.446ZM107.869 59.0766V20.5457H110.48L126.602 37.1038V42.5185L110.48 59.0766H107.869ZM111.619 16.7414H149.443V19.2993L133.029 35.9196H128.034L111.619 19.2993V16.7355V16.7414ZM134.453 14.8882H106.209V64.743H154.848V14.8793L134.453 14.8882Z" fill="#4760E9"/>
<path d="M153.197 93.5635V108.94H150.58L134.458 92.3823V86.9646L150.58 70.4065H153.197V93.5635ZM149.446 112.753H111.619V110.187L128.034 93.5635H133.029L149.441 110.187V112.751L149.446 112.753ZM107.869 108.94V70.4065H110.48L126.602 86.9646V92.3823L110.48 108.94H107.869ZM111.619 66.6052H149.443V69.169L133.029 85.7922H128.034L111.619 69.1572V66.5934V66.6052ZM134.453 64.7549H106.209V114.604H154.848V64.743L134.453 64.7549Z" fill="#4760E9"/>
<path d="M153.197 143.427V158.801H150.58L134.458 142.243V136.831L150.58 120.273H153.197V143.43V143.427ZM149.446 162.614H111.619V160.05L128.034 143.43H133.029L149.443 160.05V162.614H149.446ZM107.869 158.801V120.27H110.48L126.604 136.831V142.246L110.48 158.801H107.869ZM111.619 116.466H149.443V119.03L133.026 135.647H128.031L111.619 119.021V116.457V116.466ZM134.453 114.613H106.209V164.467H154.848V114.604L134.453 114.613Z" fill="#4760E9"/>
<path d="M154.549 29.2019H107.103V27.5736H154.549V29.2019Z" fill="#4760E9"/>
<path d="M154.848 12.6826H106.209V11.0543H154.848V12.6826Z" fill="#4760E9"/>
<path d="M154.848 9.38783H106.209V9H154.848V9.38783Z" fill="#4760E9"/>
<path d="M107.775 9H106.234V15.7263H107.775V9Z" fill="#4760E9"/>
<path d="M154.92 9H153.379V15.7263H154.92V9Z" fill="#4760E9"/>
<path d="M147.458 212.478H111.619V209.914L128.034 193.291H133.029L148.071 208.529L148.398 206.433L134.444 192.107V186.689L150.565 170.131H153.197V175.709L154.854 165.074V164.482H106.209V214.331H147.168L147.458 212.478ZM111.619 166.321H149.443V168.882L133.029 185.505H128.034L111.619 168.882V166.321ZM107.869 208.656V170.131H110.48L126.602 186.689V192.107L110.48 208.665L107.869 208.656Z" fill="#4760E9"/>
<path d="M96.4353 220.909H93.7242V33.8914H96.4353V220.909Z" fill="#B2B6BB"/>
<path d="M109.279 220.909H108.689V33.8914H109.279V220.909Z" fill="#B2B6BB"/>
<path d="M100.929 220.909H100.342V33.8914H100.929V220.909Z" fill="#B2B6BB"/>
<path d="M110.549 220.909H109.959V33.8914H110.549V220.909Z" fill="#B2B6BB"/>
<path d="M117.566 55.3673V67.0051H115.572L103.37 54.4703V50.3848L115.572 37.8501H117.566V55.3792V55.3673ZM114.718 69.8916H86.0922V67.9524L98.5198 55.3703H102.299L114.726 67.9524V69.8916H114.718ZM83.2444 67.0051V37.8382H85.2379L97.4405 50.3848V54.4703L85.235 67.0051H83.2444ZM86.0922 34.9517H114.726V36.8909L102.299 49.476H98.5198L86.0922 36.8909V34.9517ZM103.378 33.5485H82.0028V71.2948H118.824V33.5485H103.378Z" fill="#B2B6BB"/>
<path d="M117.566 93.1138V104.754H115.572L103.37 92.2197V88.1194L115.572 75.5847H117.566V93.1138ZM114.718 107.641H86.0922V105.699L98.5198 93.1168H102.299L114.726 105.699V107.641H114.718ZM83.2444 104.754V75.5847H85.2379L97.4433 88.1194V92.2197L85.2379 104.754H83.2444ZM86.0922 72.6982H114.726V74.6373L102.299 87.2224H98.5198L86.0922 74.6373V72.6982ZM103.378 71.2949H82.0028V109.041H118.824V71.2949H103.378Z" fill="#B2B6BB"/>
<path d="M117.566 130.86V142.501H115.572L103.37 129.966V125.878L115.572 113.343H117.566V130.872V130.86ZM114.718 145.387H86.0922V143.445L98.5198 130.863H102.299L114.726 143.445V145.387H114.718ZM83.2444 142.501V113.331H85.2379L97.4405 125.878V129.978L85.235 142.513L83.2444 142.501ZM86.0922 110.445H114.726V112.384L102.299 124.969H98.5198L86.0922 112.384V110.445ZM103.378 109.041H82.0028V146.788H118.824V109.041H103.378Z" fill="#B2B6BB"/>
<path d="M117.566 168.607V180.247H115.572L103.37 167.712V163.612L115.572 151.077H117.566V168.607ZM114.718 183.134H86.0922V181.192L98.5198 168.609H102.299L114.726 181.192V183.134H114.718ZM83.2444 180.247V151.077H85.2379L97.4433 163.612V167.712L85.2379 180.247H83.2444ZM86.0922 148.191H114.726V150.133L102.299 162.715H98.5198L86.0922 150.133V148.191ZM103.378 146.788H82.0028V184.537H118.824V146.788H103.378Z" fill="#B2B6BB"/>
<path d="M117.566 206.356V217.994H115.572L103.37 205.459V201.37L115.572 188.833H117.566V206.365V206.356ZM114.718 220.88H86.0922V218.941L98.5198 206.356H102.299L114.726 218.941V220.88H114.718ZM83.2444 217.994V188.824H85.2379L97.4405 201.37V205.468L85.235 218.003L83.2444 217.994ZM86.0922 185.937H114.726V187.879L102.299 200.462H98.5198L86.0922 187.879V185.937ZM103.378 184.537H82.0028V222.283H118.824V184.537H103.378Z" fill="#B2B6BB"/>
<path d="M91.1157 37.5327H89.7602V35.6706H91.1157V37.5327ZM91.1157 40.0995H89.7602V38.2462H91.1157V40.1084V40.0995ZM91.1157 42.6633H89.7602V40.8041H91.1157V42.6633ZM91.1157 45.23H89.7602V43.3679H91.1157V45.23ZM91.1157 47.7968H89.7602V45.9435H91.1157V47.8057V47.7968ZM91.1157 50.3606H89.7602V48.5014H91.1157V50.3606ZM91.1157 52.9273H89.7602V51.0652H91.1157V52.9273ZM91.1157 55.4941H89.7602V53.6408H91.1157V55.503V55.4941ZM91.1157 58.0579H89.7602V56.1987H91.1157V58.0579ZM91.1157 60.6246H89.7602V58.7625H91.1157V60.6246ZM91.1157 63.1914H89.7602V61.3381H91.1157V63.2003V63.1914ZM91.1157 65.7552H89.7602V63.896H91.1157V65.7552ZM91.1157 68.3219H89.7602V66.4598H91.1157V68.3219ZM91.1157 70.8887H89.7602V69.0354H91.1157V70.8976V70.8887ZM91.1157 73.4525H89.7602V71.5933H91.1157V73.4525ZM91.1157 76.0193H89.7602V74.1571H91.1157V76.0193ZM91.1157 78.586H89.7602V76.7327H91.1157V78.5949V78.586ZM91.1157 81.1498H89.7602V79.2906H91.1157V81.1498ZM91.1157 83.7166H89.7602V81.8544H91.1157V83.7166ZM91.1157 86.2833H89.7602V84.43H91.1157V86.2922V86.2833ZM91.1157 88.8471H89.7602V86.9879H91.1157V88.8471ZM91.1157 91.4139H89.7602V89.5517H91.1157V91.4139ZM91.1157 93.9806H89.7602V92.1274H91.1157V93.9895V93.9806ZM91.1157 96.5444H89.7602V94.6852H91.1157V96.5444ZM91.1157 99.1112H89.7602V97.249H91.1157V99.1112ZM91.1157 101.678H89.7602V99.8247H91.1157V101.687V101.678ZM91.1157 104.245H89.7602V102.383H91.1157V104.245ZM91.1157 106.808H89.7602V104.946H91.1157V106.808ZM91.1157 109.375H89.7602V107.522H91.1157V109.384V109.375ZM91.1157 111.939H89.7602V110.08H91.1157V111.939ZM91.1157 114.506H89.7602V112.644H91.1157V114.506ZM91.1157 117.073H89.7602V115.219H91.1157V117.081V117.073ZM91.1157 119.639H89.7602V117.777H91.1157V119.639ZM91.1157 122.203H89.7602V120.344H91.1157V122.203ZM91.1157 124.77H89.7602V122.917H91.1157V124.779V124.77ZM91.1157 127.337H89.7602V125.474H91.1157V127.337ZM91.1157 129.9H89.7602V128.038H91.1157V129.9ZM91.1157 132.467H89.7602V130.614H91.1157V132.476V132.467ZM91.1157 135.031H89.7602V133.172H91.1157V135.031ZM91.1157 137.598H89.7602V135.736H91.1157V137.598ZM91.1157 34.0364V34.966H89.7602V34.0364H89.0824V139.235H89.7602V138.311H91.1157V139.244H91.7935V34.0364H91.1157Z" fill="#B2B6BB"/>
<path d="M118.594 44.3895H82.6777V43.158H118.594V44.3895Z" fill="#B2B6BB"/>
<path d="M118.821 31.8844H82V30.6528H118.821V31.8844Z" fill="#B2B6BB"/>
<path d="M118.821 29.3887H82V29.0956H118.821V29.3887Z" fill="#B2B6BB"/>
<path d="M83.1875 29.0956H82.0199V34.1876H83.1875V29.0956Z" fill="#B2B6BB"/>
<path d="M118.876 29.0956H117.708V34.1876H118.876V29.0956Z" fill="#B2B6BB"/>
<path opacity="0.2" d="M84.6455 151.847C84.5885 151.852 84.5344 151.852 84.4774 151.847C84.3322 151.847 84.1926 151.847 84.036 151.847C84.2382 151.884 84.4433 151.884 84.6455 151.847Z" fill="#F4F4F4"/>
<path opacity="0.2" d="M127.382 142.568L127.444 142.489C127.422 142.512 127.399 142.539 127.382 142.568Z" fill="#F4F4F4"/>
<path opacity="0.2" d="M83.4467 172.206C83.6147 172.135 83.7884 172.07 83.9621 172.017C83.8795 172.061 83.646 172.115 83.4467 172.206Z" fill="#F4F4F4"/>
<path opacity="0.2" d="M83.9109 151.885C83.9537 151.881 83.9937 151.881 84.0366 151.885C83.9937 151.879 83.9537 151.879 83.9109 151.885Z" fill="#F4F4F4"/>
<path opacity="0.2" d="M84.6455 151.847C84.5885 151.852 84.5344 151.852 84.4774 151.847C84.3322 151.847 84.1926 151.847 84.036 151.847C84.2382 151.884 84.4433 151.884 84.6455 151.847Z" fill="black"/>
<path opacity="0.2" d="M127.382 142.568L127.444 142.489C127.422 142.512 127.399 142.539 127.382 142.568Z" fill="black"/>
<path opacity="0.2" d="M83.4467 172.206C83.6147 172.135 83.7884 172.07 83.9621 172.017C83.8795 172.061 83.646 172.115 83.4467 172.206Z" fill="black"/>
<path opacity="0.2" d="M83.9109 151.885C83.9537 151.881 83.9937 151.881 84.0366 151.885C83.9937 151.879 83.9537 151.879 83.9109 151.885Z" fill="black"/>
<path d="M127.382 142.569C127.311 142.647 127.242 142.729 127.182 142.815C127.242 142.847 127.296 142.693 127.382 142.569Z" fill="#F4F4F4"/>
</svg>
