<svg width="179" height="572" viewBox="0 0 179 572" fill="none" xmlns="http://www.w3.org/2000/svg">
<path d="M53.7229 571.342H43.7527V17.6597H53.7229V571.342Z" fill="#4760E9"/>
<path d="M100.946 571.342H98.7793V17.6597H100.946V571.342Z" fill="#4760E9"/>
<path d="M70.2449 571.342H68.0786V17.6597H70.2449V571.342Z" fill="#4760E9"/>
<path d="M105.618 571.342H103.451V17.6597H105.618V571.342Z" fill="#4760E9"/>
<path d="M131.417 96.6299V139.426H124.122L79.2501 93.3332V78.2606L124.122 32.1679H131.411V96.6095L131.417 96.6299ZM120.977 150.042H15.69V142.906L61.365 96.6367H75.2633L120.938 142.906V150.042H120.977ZM5.25002 139.426V32.1679H12.545L57.4239 78.2606V93.3332L12.545 139.426H5.25002ZM15.69 21.5519H120.977V28.688L75.3024 74.9571H61.4042L15.7292 28.688V21.5519H15.69ZM79.2501 16.3966H0.636841V155.197H136.031V16.3966H79.2501Z" fill="#4760E9"/>
<path d="M131.417 235.425V278.227H124.122L79.2501 232.101V217.048L124.122 170.969H131.411V235.411L131.417 235.425ZM120.977 288.843H15.69V281.707L61.365 235.438H75.2633L120.938 281.707V288.843H120.977ZM5.25002 278.227V170.969H12.545L57.4109 217.048V232.121L12.5319 278.248L5.25002 278.227ZM15.69 160.353H120.977V167.489L75.3024 213.759H61.4042L15.7292 167.489V160.353H15.69ZM79.2501 155.198H0.636841V293.999H136.031V155.198H79.2501Z" fill="#4760E9"/>
<path d="M131.417 374.224V417.027H124.122L79.2501 370.934V355.862L124.122 309.769H131.411V374.211L131.417 374.224ZM120.977 427.643H15.69V420.507L61.365 374.238H75.2633L120.938 420.507V427.643H120.977ZM5.25002 417.027V309.769H12.545L57.4239 355.862V370.934L12.545 417.027H5.25002ZM15.69 299.153H120.977V306.289L75.3024 352.558H61.4042L15.7292 306.289V299.126L15.69 299.153ZM79.2501 293.998H0.636841V432.798H136.031V293.998H79.2501Z" fill="#4760E9"/>
<path d="M131.417 513.026V555.828H124.122L79.2501 509.702V494.664L124.122 448.537H131.411V512.979L131.417 513.026ZM120.977 566.444H15.69V559.308L61.365 513.033H75.2633L120.938 559.308V566.444H120.977ZM5.25002 555.828V448.571H12.545L57.4239 494.698V509.77L12.545 555.896L5.25002 555.828ZM15.69 437.955H120.977V445.091L75.3024 491.36H61.4042L15.7292 445.091V437.955H15.69ZM79.2501 432.8H0.636841V571.6H136.031V432.8H79.2501Z" fill="#4760E9"/>
<path d="M34.1225 31.0494H29.1374V24.205H34.1225V31.0494ZM34.1225 40.485H29.1374V33.6406H34.1225V40.485ZM34.1225 49.9206H29.1374V43.0762H34.1225V49.9206ZM34.1225 59.3562H29.1374V52.5118H34.1225V59.3562ZM34.1225 68.7918H29.1374V61.9474H34.1225V68.7918ZM34.1225 78.2207H29.1374V71.3763H34.1225V78.2207ZM34.1225 87.6563H29.1374V80.8119H34.1225V87.6563ZM34.1225 97.0919H29.1374V90.2475H34.1225V97.0919ZM34.1225 106.528H29.1374V99.6967H34.1225V106.541V106.528ZM34.1225 115.963H29.1374V109.119H34.1225V115.977V115.963ZM34.1225 125.399H29.1374V118.554H34.1225V125.399ZM34.1225 134.834H29.1374V127.99H34.1225V134.834ZM34.1225 144.263H29.1374V137.426H34.1225V144.263ZM34.1225 153.699H29.1374V146.854H34.1225V153.699ZM34.1225 163.134H29.1374V156.29H34.1225V163.134ZM34.1225 172.57H29.1374V165.726H34.1225V172.57ZM34.1225 182.006H29.1374V175.161H34.1225V182.006ZM34.1225 191.441H29.1374V184.597H34.1225V191.441ZM34.1225 200.877H29.1374V194.033H34.1225V200.877ZM34.1225 210.313H29.1374V203.482H34.1225V210.326V210.313ZM34.1225 219.748H29.1374V212.904H34.1225V219.762V219.748ZM34.1225 229.177H29.1374V222.333H34.1225V229.177ZM34.1225 238.613H29.1374V231.768H34.1225V238.613ZM34.1225 248.048H29.1374V241.204H34.1225V248.048ZM34.1225 257.484H29.1374V250.639H34.1225V257.484ZM34.1225 266.919H29.1374V260.075H34.1225V266.919ZM34.1225 276.355H29.1374V269.511H34.1225V276.355ZM34.1225 285.791H29.1374V278.946H34.1225V285.791ZM34.1225 295.219H29.1374V288.382H34.1225V295.219ZM34.1225 304.655H29.1374V297.811H34.1225V304.655ZM34.1225 314.091H29.1374V307.267H34.1225V314.111V314.091ZM34.1225 323.526H29.1374V316.682H34.1225V323.547V323.526ZM34.1225 332.962H29.1374V326.118H34.1225V332.962ZM34.1225 342.398H29.1374V335.553H34.1225V342.398ZM34.1225 351.833H29.1374V344.989H34.1225V351.833ZM34.1225 361.269H29.1374V354.424H34.1225V361.269ZM34.1225 370.698H29.1374V363.853H34.1225V370.698ZM34.1225 380.133H29.1374V373.289H34.1225V380.133ZM34.1225 389.569H29.1374V382.725H34.1225V389.569ZM34.1225 399.005H29.1374V392.16H34.1225V399.005ZM34.1225 18.1949V21.5866H29.1374V18.1949H26.6449V405.021H29.1374V401.596H34.1225V405.021H36.6151V18.1949H34.1225Z" fill="#4760E9"/>
<path d="M135.201 56.2623H3.12231V51.7311H135.201V56.2623Z" fill="#4760E9"/>
<path d="M136.031 10.2788H0.636841V5.74756H136.031V10.2788Z" fill="#4760E9"/>
<path d="M136.031 1.10841H0.636841V0.0230713H136.031V1.10841Z" fill="#4760E9"/>
<path d="M4.99492 0.0291748H0.708008V18.7511H4.99492V0.0291748Z" fill="#4760E9"/>
<path d="M136.226 0.0291748H131.939V18.7511H136.226V0.0291748Z" fill="#4760E9"/>
<path d="M119.439 520.495H113.097V82.6101H119.439V520.495Z" fill="#B2B6BB"/>
<path d="M149.504 520.495H148.127V82.6101H149.504V520.495Z" fill="#B2B6BB"/>
<path d="M129.961 520.495H128.578V82.6101H129.961V520.495Z" fill="#B2B6BB"/>
<path d="M152.488 520.495H151.105V82.6101H152.488V520.495Z" fill="#B2B6BB"/>
<path d="M168.91 132.894V160.143H164.271L135.698 130.791V121.2L164.271 91.8483H168.91V132.894ZM162.261 166.906H95.2233V162.361L124.318 132.894H133.166L162.261 162.361V166.906ZM88.5743 160.123V91.8483H93.2136L121.787 121.2V130.791L93.2136 160.143L88.5743 160.123ZM95.2233 85.065H162.261V89.6098L133.166 119.097H124.318L95.2233 89.6302V85.0853V85.065ZM135.678 81.7819H85.625V170.169H171.846V81.8022L135.678 81.7819Z" fill="#B2B6BB"/>
<path d="M168.91 221.275V248.524H164.271L135.698 219.179V209.587L164.271 180.236H168.91V221.282V221.275ZM162.261 255.287H95.2233V250.742L124.318 221.275H133.166L162.261 250.742V255.287ZM88.5743 248.503V180.229H93.2136L121.787 209.587V219.186L93.2136 248.524L88.5743 248.503ZM95.2233 173.453H162.261V177.991L133.166 207.457H124.318L95.2233 177.991V173.453ZM135.678 170.169H85.625V258.57H171.846V170.19L135.678 170.169Z" fill="#B2B6BB"/>
<path d="M168.91 309.654V336.91H164.271L135.698 307.558V297.96L164.271 268.602H168.91V309.648V309.654ZM162.261 343.666H95.2233V339.148L124.318 309.688H133.166L162.261 339.148V343.693V343.666ZM88.5743 336.883V268.602H93.2136L121.787 297.953V307.552L93.2136 336.91L88.5743 336.883ZM95.2233 261.825H162.261V266.37L133.166 295.83H124.318L95.2233 266.37V261.825ZM135.678 258.542H85.625V346.949H171.846V258.569L135.678 258.542Z" fill="#B2B6BB"/>
<path d="M168.91 398.034V425.297H164.271L135.698 395.945V386.34L164.271 356.989H168.91V398.034ZM162.261 432.08H95.2233V427.535L124.318 398.075H133.166L162.261 427.535V432.08ZM88.5743 425.297V356.989H93.2136L121.787 386.34V395.938L93.2136 425.297H88.5743ZM95.2233 350.239H162.261V354.75L133.166 384.21H124.318L95.2233 354.75V350.205V350.239ZM135.678 346.956H85.625V435.329H171.846V346.949L135.678 346.956Z" fill="#B2B6BB"/>
<path d="M168.91 486.414V513.67H164.271L135.698 484.312V474.72L164.271 445.375H168.91V486.414ZM162.261 520.426H95.2233V515.888L124.318 486.421H133.166L162.261 515.888V520.426ZM88.5743 513.643V445.375H93.2136L121.787 474.72V484.312L93.2136 513.663L88.5743 513.643ZM95.2233 438.585H162.261V443.13L133.166 472.597H124.318L95.2233 443.13V438.585ZM135.678 435.302H85.625V523.689H171.846V435.329L135.678 435.302Z" fill="#B2B6BB"/>
<path d="M171.324 107.192H87.223V104.302H171.324V107.192Z" fill="#B2B6BB"/>
<path d="M171.846 77.9093H85.6381V75.0264H171.846V77.9093Z" fill="#B2B6BB"/>
<path d="M171.846 72.0681H85.6381V71.3831H171.846V72.0681Z" fill="#B2B6BB"/>
<path d="M88.4177 71.3831H85.6837V83.3081H88.4177V71.3831Z" fill="#B2B6BB"/>
<path d="M171.976 71.3831H169.242V83.3081H171.976V71.3831Z" fill="#B2B6BB"/>
<path opacity="0.2" d="M105.695 315.8L105.793 315.637C105.715 315.691 105.689 315.752 105.695 315.8Z" fill="#F4F4F4"/>
<path opacity="0.2" d="M84.0016 302.647C84.0407 302.789 84.2756 302.918 84.5497 303.04C84.3866 302.898 84.0342 302.769 84.0016 302.647Z" fill="#F4F4F4"/>
<path opacity="0.2" d="M106.89 314.85C107.086 314.669 107.306 314.519 107.542 314.403C107.301 314.511 107.081 314.663 106.89 314.85Z" fill="#F4F4F4"/>
<path opacity="0.2" d="M64.5232 325.249C64.548 325.31 64.5805 325.367 64.6209 325.418L64.5232 325.249Z" fill="#F4F4F4"/>
<path opacity="0.2" d="M177.973 419.388L177.712 418.961C177.803 419.097 177.881 419.246 177.973 419.388Z" fill="#F4F4F4"/>
<path opacity="0.2" d="M14.0261 359.499L14.3328 359.438C14.4111 359.438 14.4829 359.384 14.5547 359.37L14.0261 359.499Z" fill="#F4F4F4"/>
<path opacity="0.2" d="M25.3933 352.715C25.4558 352.637 25.5105 352.553 25.5561 352.465C25.504 352.58 25.4519 352.661 25.3933 352.715Z" fill="#F4F4F4"/>
<path opacity="0.2" d="M177.712 418.96C177.682 418.914 177.653 418.867 177.627 418.818C177.653 418.867 177.682 418.915 177.712 418.96Z" fill="#F4F4F4"/>
<path opacity="0.2" d="M103.777 311.215C103.558 310.766 103.314 310.331 103.046 309.912C103.144 309.831 103.438 310.407 103.777 311.215Z" fill="#F4F4F4"/>
<path opacity="0.2" d="M105.695 315.8L105.793 315.637C105.715 315.691 105.689 315.752 105.695 315.8Z" fill="black"/>
<path opacity="0.2" d="M84.0016 302.647C84.0407 302.789 84.2756 302.918 84.5497 303.04C84.3866 302.898 84.0342 302.769 84.0016 302.647Z" fill="black"/>
<path opacity="0.2" d="M106.89 314.85C107.086 314.669 107.306 314.519 107.542 314.403C107.301 314.511 107.081 314.663 106.89 314.85Z" fill="black"/>
<path opacity="0.2" d="M64.5232 325.249C64.548 325.31 64.5805 325.367 64.6209 325.418L64.5232 325.249Z" fill="black"/>
<path opacity="0.2" d="M177.973 419.388L177.712 418.961C177.803 419.097 177.881 419.246 177.973 419.388Z" fill="black"/>
<path opacity="0.2" d="M14.0261 359.499L14.3328 359.438C14.4111 359.438 14.4829 359.384 14.5547 359.37L14.0261 359.499Z" fill="black"/>
<path opacity="0.2" d="M25.3933 352.715C25.4558 352.637 25.5105 352.553 25.5561 352.465C25.504 352.58 25.4519 352.661 25.3933 352.715Z" fill="black"/>
<path opacity="0.2" d="M177.712 418.96C177.682 418.914 177.653 418.867 177.627 418.818C177.653 418.867 177.682 418.915 177.712 418.96Z" fill="black"/>
<path d="M178.32 420.012C178.209 419.788 178.085 419.578 177.974 419.388C178.098 419.591 178.209 419.801 178.32 420.012Z" fill="#F4F4F4"/>
</svg>
