<svg width="721" height="233" viewBox="0 0 721 233" fill="none" xmlns="http://www.w3.org/2000/svg">
<path d="M0 16C0 7.16345 7.16344 0 16 0H705C713.837 0 721 7.16344 721 16V217C721 225.837 713.837 233 705 233H16C7.16345 233 0 225.837 0 217V16Z" fill="#FFEECA"/>
<path d="M122.917 170.686C122.89 170.693 122.863 170.701 122.836 170.712C122.86 170.695 122.888 170.686 122.917 170.686Z" fill="white"/>
<path d="M121.392 157.307H136.285L138.971 168.656C141.864 180.763 141.068 193.505 136.692 205.121C134.322 211.375 131.53 216.632 128.839 216.632C126.147 216.632 123.358 211.375 120.988 205.121C116.613 193.505 115.815 180.763 118.706 168.656L121.392 157.316V157.307Z" fill="#FB5521"/>
<path opacity="0.2" d="M121.393 157.378H136.286L138.971 168.717C141.866 180.826 141.07 193.571 136.693 205.189C134.322 211.443 131.53 216.696 128.839 216.696C126.148 216.696 123.359 211.443 120.988 205.189C116.613 193.572 115.816 180.83 118.707 168.723L121.393 157.384V157.378Z" fill="black"/>
<path opacity="0.2" d="M122.812 157.307H134.868L137.044 166.49C139.385 176.292 138.739 186.607 135.197 196.011C133.279 201.077 131.014 205.33 128.839 205.33C126.663 205.33 124.401 201.077 122.483 196.011C118.939 186.608 118.294 176.291 120.636 166.49L122.812 157.307Z" fill="white"/>
<path opacity="0.2" d="M124.228 157.307H133.451L135.124 164.33C136.914 171.832 136.417 179.726 133.702 186.922C132.232 190.795 130.506 194.051 128.838 194.051C127.17 194.051 125.444 190.795 123.977 186.922C121.267 179.729 120.774 171.838 122.566 164.341L124.239 157.319L124.228 157.307Z" fill="white"/>
<path d="M125.645 157.307H132.032L133.184 162.173C134.424 167.365 134.083 172.83 132.208 177.812C131.19 180.494 129.993 182.741 128.839 182.741C127.684 182.741 126.487 180.488 125.472 177.812C123.594 172.831 123.252 167.365 124.493 162.173L125.645 157.307Z" fill="white"/>
<path d="M122.547 150.326V149.21H119.948L122.533 138.955H135.638L138.224 149.21H135.624V150.326H135.128L136.955 157.566H121.217L123.043 150.326H122.547Z" fill="#B2B6BB"/>
<path opacity="0.2" d="M129.957 149.987H135.574V149.21H129.957V149.987Z" fill="black"/>
<path opacity="0.2" d="M135.83 139.048L138.251 149.08H130.213V139.048H135.83Z" fill="black"/>
<path opacity="0.2" d="M135.153 150.326L137.08 157.618H129.937V150.326H135.153Z" fill="black"/>
<path d="M135.641 138.954H122.458V33.1762H123.665V31.2134H122.458V29.1548L127.843 15H130.286L135.641 29.1867V31.2452H134.651V33.1762H135.641V138.954Z" fill="#B2B6BB"/>
<path d="M135.641 140.119H122.458V34.3413H123.665V32.3784H122.458V30.3198L127.843 16.165H130.286L135.641 30.3517V32.4103H134.651V34.3413H135.641V140.119Z" fill="#B2B6BB"/>
<path opacity="0.2" d="M135.574 103.721H129.84V85.8899H135.574V103.721Z" fill="black"/>
<path opacity="0.2" d="M135.574 121.333H129.84V103.409H135.574V121.333Z" fill="black"/>
<path opacity="0.2" d="M135.574 128.534H129.84V121.034H135.574V128.534Z" fill="black"/>
<path opacity="0.2" d="M135.574 133.072H129.84V127.722H135.574V133.072Z" fill="black"/>
<path opacity="0.2" d="M135.574 138.407H129.84V133.02H135.574V138.407Z" fill="black"/>
<path opacity="0.3" d="M123.414 147.537H134.963L134.924 147.377L132.799 138.92L132.559 138.986L134.645 147.279H123.724L125.578 138.983L125.338 138.925L123.414 147.537Z" fill="black"/>
<path opacity="0.2" d="M135.574 68.2358H129.84V50.8018H135.574V68.2358Z" fill="black"/>
<path opacity="0.2" d="M135.574 85.8464H129.84V68.5168H135.574V85.8464Z" fill="black"/>
<path opacity="0.2" d="M130.459 15L135.574 29.2012V31.2453H134.554V33.1762H135.574V50.7059H129.84V33.1762V31.2453V31.1322V29.2012V15.0174L130.459 15Z" fill="black"/>
<path opacity="0.3" d="M132.557 138.824H125.584V37.6789H132.557V138.824ZM125.336 139.082H132.805V37.4209H125.336V139.082Z" fill="black"/>
<path d="M122.499 121.55H135.641V121.034H122.499V121.55Z" fill="#61656D"/>
<path d="M122.192 129.233H135.945V127.676H122.192V129.233Z" fill="#61656D"/>
<path d="M122.192 134.577H135.945V133.02H122.192V134.577Z" fill="#61656D"/>
<path d="M122.192 139.92H135.945V138.363H122.192V139.92Z" fill="#61656D"/>
<path d="M122.499 103.922H135.641V103.409H122.499V103.922Z" fill="#61656D"/>
<path d="M119.884 149.468H138.288V148.952H119.884V149.468Z" fill="#61656D"/>
<path opacity="0.3" d="M124.112 155.989H134.166L132.799 150.294L132.559 150.358L133.848 155.731H124.421L125.581 150.355L125.339 150.297L124.112 155.989Z" fill="black"/>
<path opacity="0.3" d="M129.263 146.081H125.012V143.591H129.263V146.081ZM124.764 146.337H129.505V143.333H124.764V146.331V146.337Z" fill="black"/>
<path opacity="0.3" d="M124.889 145.704H129.385V145.446H124.889V145.704Z" fill="black"/>
<path d="M122.46 50.5352H135.641V51.0686H122.46V50.5352Z" fill="#61656D"/>
<path d="M122.46 68.146H135.641V68.6795H122.46V68.146Z" fill="#61656D"/>
<path d="M122.46 85.7539H135.641V86.2874H122.46V85.7539Z" fill="#61656D"/>
<path d="M123.665 32.379H122.458V30.3204L122.51 30.1813H135.577L135.641 30.3523V32.4109H134.651L123.665 32.379Z" fill="#61656D"/>
<path d="M122.46 36.049H135.641V40.0501H122.46V36.049Z" fill="#61656D"/>
<path d="M135.382 33.5505H135.878V32.9648H122.263V33.5505H122.759H135.382Z" fill="#61656D"/>
<path d="M122.449 149.88H135.794V150.413H122.449V149.88Z" fill="#61656D"/>
<path d="M121.091 157.74H137.08V157.224H121.091V157.74Z" fill="#61656D"/>
<path d="M120.753 51.541H122.547V40.1957H120.753V51.541Z" fill="#868A91"/>
<path d="M241 26L242 210" stroke="black" stroke-width="3"/>
<path d="M356.653 71.6719H370.973V78H348.426V43.875H356.653V71.6719ZM386.252 78.4688C382.362 78.4688 379.213 77.3125 376.807 75C374.401 72.6719 373.198 69.6484 373.198 65.9297V65.2734C373.198 62.6797 373.674 60.3906 374.627 58.4062C375.596 56.4219 377.002 54.8906 378.846 53.8125C380.69 52.7188 382.877 52.1719 385.409 52.1719C388.971 52.1719 391.784 53.2812 393.846 55.5C395.909 57.7031 396.94 60.7812 396.94 64.7344V67.8047H381.237C381.518 69.2266 382.135 70.3438 383.088 71.1562C384.041 71.9688 385.276 72.375 386.791 72.375C389.291 72.375 391.245 71.5 392.651 69.75L396.26 74.0156C395.276 75.375 393.877 76.4609 392.065 77.2734C390.268 78.0703 388.33 78.4688 386.252 78.4688ZM385.362 58.2656C383.049 58.2656 381.674 59.7969 381.237 62.8594H389.205V62.25C389.237 60.9844 388.916 60.0078 388.245 59.3203C387.573 58.6172 386.612 58.2656 385.362 58.2656ZM401.789 78V58.125H398.109V52.6406H401.789V50.625C401.789 47.7344 402.641 45.4922 404.344 43.8984C406.047 42.3047 408.438 41.5078 411.516 41.5078C412.641 41.5078 413.875 41.6719 415.219 42L415.242 47.8125C414.758 47.6719 414.109 47.6016 413.297 47.6016C410.906 47.6016 409.711 48.6328 409.711 50.6953V52.6406H414.656V58.125H409.711V78H401.789ZM426.537 46.3359V52.6406H430.709V58.125H426.537V69.7266C426.537 70.6797 426.709 71.3438 427.052 71.7188C427.396 72.0938 428.076 72.2812 429.092 72.2812C429.873 72.2812 430.529 72.2344 431.06 72.1406V77.7891C429.638 78.2422 428.154 78.4688 426.607 78.4688C423.888 78.4688 421.881 77.8281 420.584 76.5469C419.287 75.2656 418.638 73.3203 418.638 70.7109V58.125H415.404V52.6406H418.638V46.3359H426.537ZM445.962 78V43.875H458.22C462.611 43.875 465.946 44.6797 468.228 46.2891C470.525 47.8984 471.673 50.2344 471.673 53.2969C471.673 55.0625 471.267 56.5703 470.454 57.8203C469.642 59.0703 468.446 59.9922 466.868 60.5859C468.65 61.0547 470.017 61.9297 470.97 63.2109C471.923 64.4922 472.4 66.0547 472.4 67.8984C472.4 71.2422 471.337 73.7578 469.212 75.4453C467.103 77.1172 463.97 77.9688 459.814 78H445.962ZM454.189 63.4922V71.6719H459.579C461.064 71.6719 462.204 71.3359 463.001 70.6641C463.798 69.9766 464.196 69.0156 464.196 67.7812C464.196 64.9375 462.782 63.5078 459.954 63.4922H454.189ZM454.189 58.1016H458.478C460.275 58.0859 461.556 57.7578 462.321 57.1172C463.087 56.4766 463.47 55.5312 463.47 54.2812C463.47 52.8438 463.056 51.8125 462.228 51.1875C461.4 50.5469 460.064 50.2266 458.22 50.2266H454.189V58.1016ZM475.491 65.0859C475.491 62.5547 475.983 60.3047 476.968 58.3359C477.952 56.3516 479.366 54.8281 481.21 53.7656C483.054 52.7031 485.218 52.1719 487.702 52.1719C491.499 52.1719 494.491 53.3516 496.679 55.7109C498.866 58.0547 499.96 61.25 499.96 65.2969V65.5781C499.96 69.5312 498.858 72.6719 496.655 75C494.468 77.3125 491.499 78.4688 487.749 78.4688C484.139 78.4688 481.241 77.3906 479.054 75.2344C476.866 73.0625 475.686 70.125 475.514 66.4219L475.491 65.0859ZM483.389 65.5781C483.389 67.9219 483.757 69.6406 484.491 70.7344C485.225 71.8281 486.311 72.375 487.749 72.375C490.561 72.375 491.999 70.2109 492.061 65.8828V65.0859C492.061 60.5391 490.608 58.2656 487.702 58.2656C485.061 58.2656 483.632 60.2266 483.413 64.1484L483.389 65.5781ZM502.348 65.0859C502.348 62.5547 502.84 60.3047 503.825 58.3359C504.809 56.3516 506.223 54.8281 508.067 53.7656C509.911 52.7031 512.075 52.1719 514.559 52.1719C518.356 52.1719 521.348 53.3516 523.536 55.7109C525.723 58.0547 526.817 61.25 526.817 65.2969V65.5781C526.817 69.5312 525.715 72.6719 523.512 75C521.325 77.3125 518.356 78.4688 514.606 78.4688C510.997 78.4688 508.098 77.3906 505.911 75.2344C503.723 73.0625 502.544 70.125 502.372 66.4219L502.348 65.0859ZM510.247 65.5781C510.247 67.9219 510.614 69.6406 511.348 70.7344C512.083 71.8281 513.169 72.375 514.606 72.375C517.419 72.375 518.856 70.2109 518.919 65.8828V65.0859C518.919 60.5391 517.465 58.2656 514.559 58.2656C511.919 58.2656 510.489 60.2266 510.27 64.1484L510.247 65.5781ZM543.479 70.875C543.479 70.2031 543.127 69.6641 542.424 69.2578C541.721 68.8516 540.385 68.4297 538.416 67.9922C536.448 67.5547 534.823 66.9844 533.541 66.2812C532.26 65.5625 531.283 64.6953 530.612 63.6797C529.94 62.6641 529.604 61.5 529.604 60.1875C529.604 57.8594 530.565 55.9453 532.487 54.4453C534.408 52.9297 536.924 52.1719 540.033 52.1719C543.377 52.1719 546.065 52.9297 548.096 54.4453C550.127 55.9609 551.143 57.9531 551.143 60.4219H543.221C543.221 58.3906 542.151 57.375 540.01 57.375C539.182 57.375 538.487 57.6094 537.924 58.0781C537.362 58.5312 537.08 59.1016 537.08 59.7891C537.08 60.4922 537.424 61.0625 538.112 61.5C538.799 61.9375 539.893 62.2969 541.393 62.5781C542.908 62.8594 544.237 63.1953 545.377 63.5859C549.19 64.8984 551.096 67.25 551.096 70.6406C551.096 72.9531 550.065 74.8359 548.002 76.2891C545.955 77.7422 543.299 78.4688 540.033 78.4688C537.862 78.4688 535.924 78.0781 534.221 77.2969C532.518 76.5156 531.19 75.4531 530.237 74.1094C529.283 72.7656 528.807 71.3516 528.807 69.8672H536.19C536.221 71.0391 536.612 71.8984 537.362 72.4453C538.112 72.9766 539.073 73.2422 540.244 73.2422C541.323 73.2422 542.127 73.0234 542.658 72.5859C543.205 72.1484 543.479 71.5781 543.479 70.875ZM563.914 46.3359V52.6406H568.086V58.125H563.914V69.7266C563.914 70.6797 564.086 71.3438 564.43 71.7188C564.773 72.0938 565.453 72.2812 566.469 72.2812C567.25 72.2812 567.906 72.2344 568.437 72.1406V77.7891C567.016 78.2422 565.531 78.4688 563.984 78.4688C561.266 78.4688 559.258 77.8281 557.961 76.5469C556.664 75.2656 556.016 73.3203 556.016 70.7109V58.125H552.781V52.6406H556.016V46.3359H563.914ZM583.388 78.4688C579.498 78.4688 576.349 77.3125 573.943 75C571.537 72.6719 570.334 69.6484 570.334 65.9297V65.2734C570.334 62.6797 570.81 60.3906 571.763 58.4062C572.732 56.4219 574.138 54.8906 575.982 53.8125C577.826 52.7188 580.013 52.1719 582.545 52.1719C586.107 52.1719 588.92 53.2812 590.982 55.5C593.045 57.7031 594.076 60.7812 594.076 64.7344V67.8047H578.373C578.654 69.2266 579.271 70.3438 580.224 71.1562C581.177 71.9688 582.412 72.375 583.927 72.375C586.427 72.375 588.38 71.5 589.787 69.75L593.396 74.0156C592.412 75.375 591.013 76.4609 589.201 77.2734C587.404 78.0703 585.466 78.4688 583.388 78.4688ZM582.498 58.2656C580.185 58.2656 578.81 59.7969 578.373 62.8594H586.341V62.25C586.373 60.9844 586.052 60.0078 585.38 59.3203C584.709 58.6172 583.748 58.2656 582.498 58.2656ZM612.519 59.7891L609.917 59.6016C607.433 59.6016 605.839 60.3828 605.136 61.9453V78H597.238V52.6406H604.644L604.902 55.8984C606.23 53.4141 608.081 52.1719 610.456 52.1719C611.3 52.1719 612.034 52.2656 612.659 52.4531L612.519 59.7891Z" fill="black"/>
<path d="M598.863 200.953C598.863 199.719 598.558 198.75 597.949 198.047C597.339 197.344 596.269 196.68 594.738 196.055C593.207 195.43 591.792 194.797 590.496 194.156C589.199 193.516 588.082 192.773 587.144 191.93C586.207 191.086 585.488 190.109 584.988 189C584.488 187.891 584.238 186.547 584.238 184.969C584.238 182.328 585.128 180.156 586.91 178.453C588.691 176.734 591.066 175.734 594.035 175.453V170.508H597.761V175.547C600.621 175.969 602.863 177.148 604.488 179.086C606.128 181.008 606.949 183.453 606.949 186.422H599.027C599.027 184.797 598.714 183.547 598.089 182.672C597.464 181.797 596.574 181.359 595.417 181.359C594.386 181.359 593.582 181.688 593.003 182.344C592.441 182.984 592.16 183.875 592.16 185.016C592.16 186.172 592.488 187.094 593.144 187.781C593.8 188.453 594.855 189.102 596.308 189.727C597.761 190.336 599.128 190.977 600.41 191.648C601.707 192.305 602.824 193.055 603.761 193.898C604.699 194.742 605.433 195.727 605.964 196.852C606.496 197.977 606.761 199.328 606.761 200.906C606.761 203.578 605.91 205.758 604.207 207.445C602.519 209.133 600.214 210.117 597.292 210.398V215.109H593.566V210.375C590.16 210.016 587.542 208.852 585.714 206.883C583.902 204.898 582.996 202.289 582.996 199.055H590.894C590.894 200.836 591.285 202.195 592.066 203.133C592.863 204.055 593.988 204.516 595.441 204.516C596.503 204.516 597.339 204.203 597.949 203.578C598.558 202.938 598.863 202.062 598.863 200.953ZM634.556 180.094L621.806 210H613.462L626.236 181.969H609.97V175.875H634.556V180.094ZM662.233 196.055C662.233 200.664 661.194 204.219 659.116 206.719C657.054 209.219 654.139 210.469 650.374 210.469C646.577 210.469 643.639 209.211 641.561 206.695C639.483 204.18 638.444 200.633 638.444 196.055V189.82C638.444 185.211 639.475 181.656 641.538 179.156C643.616 176.656 646.546 175.406 650.327 175.406C654.108 175.406 657.038 176.664 659.116 179.18C661.194 181.695 662.233 185.25 662.233 189.844V196.055ZM654.335 188.812C654.335 186.359 654.014 184.531 653.374 183.328C652.733 182.109 651.718 181.5 650.327 181.5C648.968 181.5 647.975 182.062 647.35 183.188C646.741 184.312 646.413 186.016 646.366 188.297V197.016C646.366 199.562 646.686 201.43 647.327 202.617C647.968 203.789 648.983 204.375 650.374 204.375C651.718 204.375 652.71 203.805 653.35 202.664C653.991 201.508 654.319 199.703 654.335 197.25V188.812ZM689.934 196.055C689.934 200.664 688.895 204.219 686.817 206.719C684.754 209.219 681.84 210.469 678.075 210.469C674.278 210.469 671.34 209.211 669.262 206.695C667.184 204.18 666.145 200.633 666.145 196.055V189.82C666.145 185.211 667.176 181.656 669.239 179.156C671.317 176.656 674.247 175.406 678.028 175.406C681.809 175.406 684.739 176.664 686.817 179.18C688.895 181.695 689.934 185.25 689.934 189.844V196.055ZM682.036 188.812C682.036 186.359 681.715 184.531 681.075 183.328C680.434 182.109 679.419 181.5 678.028 181.5C676.669 181.5 675.676 182.062 675.051 183.188C674.442 184.312 674.114 186.016 674.067 188.297V197.016C674.067 199.562 674.387 201.43 675.028 202.617C675.669 203.789 676.684 204.375 678.075 204.375C679.419 204.375 680.411 203.805 681.051 202.664C681.692 201.508 682.02 199.703 682.036 197.25V188.812Z" fill="black"/>
<rect x="441" y="170" width="114" height="48" rx="16" fill="#37A360"/>
<path d="M455.089 196.658V201H452.004V188.203H457.11C458.089 188.203 458.953 188.385 459.703 188.748C460.459 189.105 461.042 189.618 461.452 190.286C461.868 190.948 462.076 191.701 462.076 192.545C462.076 193.793 461.628 194.792 460.731 195.542C459.841 196.286 458.616 196.658 457.058 196.658H455.089ZM455.089 194.276H457.11C457.708 194.276 458.162 194.127 458.473 193.828C458.789 193.529 458.947 193.107 458.947 192.562C458.947 191.965 458.786 191.487 458.464 191.13C458.142 190.772 457.702 190.591 457.145 190.585H455.089V194.276ZM473.802 188.203V196.579C473.802 197.528 473.599 198.352 473.195 199.049C472.791 199.74 472.211 200.268 471.455 200.631C470.699 200.994 469.806 201.176 468.774 201.176C467.216 201.176 465.988 200.771 465.092 199.963C464.195 199.154 463.738 198.047 463.721 196.641V188.203H466.823V196.702C466.858 198.103 467.509 198.803 468.774 198.803C469.413 198.803 469.896 198.627 470.224 198.275C470.553 197.924 470.717 197.353 470.717 196.562V188.203H473.802ZM480.526 196.482H478.856V201H475.771V188.203H480.807C482.325 188.203 483.511 188.54 484.367 189.214C485.222 189.888 485.65 190.84 485.65 192.07C485.65 192.961 485.468 193.699 485.105 194.285C484.748 194.871 484.185 195.346 483.418 195.709L486.09 200.868V201H482.785L480.526 196.482ZM478.856 194.101H480.807C481.393 194.101 481.833 193.948 482.126 193.644C482.425 193.333 482.574 192.902 482.574 192.352C482.574 191.801 482.425 191.37 482.126 191.06C481.827 190.743 481.387 190.585 480.807 190.585H478.856V194.101ZM497.903 196.667C497.862 197.558 497.622 198.346 497.182 199.031C496.743 199.711 496.125 200.238 495.328 200.613C494.537 200.988 493.631 201.176 492.612 201.176C490.93 201.176 489.606 200.628 488.639 199.532C487.672 198.437 487.189 196.89 487.189 194.892V194.259C487.189 193.005 487.406 191.909 487.839 190.972C488.279 190.028 488.909 189.302 489.729 188.792C490.549 188.276 491.499 188.019 492.577 188.019C494.129 188.019 495.378 188.429 496.321 189.249C497.264 190.063 497.8 191.188 497.929 192.624H494.853C494.83 191.845 494.633 191.285 494.264 190.945C493.895 190.605 493.333 190.436 492.577 190.436C491.809 190.436 491.247 190.723 490.889 191.297C490.532 191.871 490.344 192.788 490.327 194.048V194.953C490.327 196.318 490.497 197.294 490.836 197.88C491.182 198.466 491.774 198.759 492.612 198.759C493.321 198.759 493.863 198.592 494.238 198.258C494.613 197.924 494.812 197.394 494.836 196.667H497.903ZM510.094 201H507.027V195.656H502.483V201H499.398V188.203H502.483V193.283H507.027V188.203H510.094V201ZM519.517 198.609H515.289L514.551 201H511.255L515.949 188.203H518.849L523.577 201H520.264L519.517 198.609ZM516.028 196.228H518.779L517.399 191.789L516.028 196.228ZM531.154 197.599C531.154 197.147 530.993 196.796 530.671 196.544C530.355 196.292 529.795 196.031 528.992 195.762C528.19 195.492 527.533 195.231 527.024 194.979C525.365 194.165 524.536 193.046 524.536 191.622C524.536 190.913 524.741 190.289 525.152 189.75C525.568 189.205 526.153 188.783 526.909 188.484C527.665 188.18 528.515 188.027 529.458 188.027C530.378 188.027 531.201 188.191 531.928 188.52C532.66 188.848 533.229 189.316 533.633 189.926C534.037 190.529 534.239 191.221 534.239 192H531.163C531.163 191.479 531.002 191.074 530.68 190.787C530.363 190.5 529.933 190.356 529.388 190.356C528.837 190.356 528.401 190.479 528.078 190.726C527.762 190.966 527.604 191.273 527.604 191.648C527.604 191.977 527.779 192.275 528.131 192.545C528.483 192.809 529.101 193.084 529.986 193.371C530.87 193.652 531.597 193.957 532.165 194.285C533.548 195.082 534.239 196.181 534.239 197.581C534.239 198.7 533.818 199.579 532.974 200.218C532.13 200.856 530.973 201.176 529.502 201.176C528.465 201.176 527.525 200.991 526.681 200.622C525.843 200.247 525.21 199.737 524.782 199.093C524.361 198.442 524.15 197.695 524.15 196.852H527.243C527.243 197.537 527.419 198.044 527.771 198.372C528.128 198.694 528.705 198.855 529.502 198.855C530.012 198.855 530.413 198.747 530.706 198.53C531.005 198.308 531.154 197.997 531.154 197.599ZM543.794 195.577H538.942V198.627H544.673V201H535.857V188.203H544.69V190.585H538.942V193.283H543.794V195.577Z" fill="white"/>
</svg>
