<svg width="721" height="233" viewBox="0 0 721 233" fill="none" xmlns="http://www.w3.org/2000/svg">
<path d="M0 16C0 7.16345 7.16344 0 16 0H705C713.837 0 721 7.16344 721 16V217C721 225.837 713.837 233 705 233H16C7.16345 233 0 225.837 0 217V16Z" fill="#FFEECA"/>
<path d="M340.193 75.6719H354.514V82H331.967V47.875H340.193V75.6719ZM369.793 82.4688C365.902 82.4688 362.753 81.3125 360.347 79C357.941 76.6719 356.738 73.6484 356.738 69.9297V69.2734C356.738 66.6797 357.214 64.3906 358.168 62.4062C359.136 60.4219 360.543 58.8906 362.386 57.8125C364.23 56.7188 366.418 56.1719 368.949 56.1719C372.511 56.1719 375.324 57.2812 377.386 59.5C379.449 61.7031 380.48 64.7812 380.48 68.7344V71.8047H364.777C365.058 73.2266 365.675 74.3438 366.628 75.1562C367.582 75.9688 368.816 76.375 370.332 76.375C372.832 76.375 374.785 75.5 376.191 73.75L379.8 78.0156C378.816 79.375 377.418 80.4609 375.605 81.2734C373.808 82.0703 371.871 82.4688 369.793 82.4688ZM368.902 62.2656C366.589 62.2656 365.214 63.7969 364.777 66.8594H372.746V66.25C372.777 64.9844 372.457 64.0078 371.785 63.3203C371.113 62.6172 370.152 62.2656 368.902 62.2656ZM385.329 82V62.125H381.65V56.6406H385.329V54.625C385.329 51.7344 386.181 49.4922 387.884 47.8984C389.587 46.3047 391.978 45.5078 395.056 45.5078C396.181 45.5078 397.415 45.6719 398.759 46L398.782 51.8125C398.298 51.6719 397.65 51.6016 396.837 51.6016C394.447 51.6016 393.251 52.6328 393.251 54.6953V56.6406H398.197V62.125H393.251V82H385.329ZM410.077 50.3359V56.6406H414.249V62.125H410.077V73.7266C410.077 74.6797 410.249 75.3438 410.593 75.7188C410.936 76.0938 411.616 76.2812 412.632 76.2812C413.413 76.2812 414.069 76.2344 414.6 76.1406V81.7891C413.179 82.2422 411.694 82.4688 410.147 82.4688C407.429 82.4688 405.421 81.8281 404.124 80.5469C402.827 79.2656 402.179 77.3203 402.179 74.7109V62.125H398.944V56.6406H402.179V50.3359H410.077ZM437.729 70.4219V82H429.502V47.875H443.119C445.729 47.875 448.034 48.3594 450.034 49.3281C452.049 50.2812 453.604 51.6484 454.698 53.4297C455.807 55.1953 456.362 57.2031 456.362 59.4531C456.362 62.7812 455.166 65.4453 452.776 67.4453C450.401 69.4297 447.135 70.4219 442.979 70.4219H437.729ZM437.729 64.0703H443.119C444.713 64.0703 445.924 63.6719 446.752 62.875C447.596 62.0781 448.018 60.9531 448.018 59.5C448.018 57.9062 447.588 56.6328 446.729 55.6797C445.869 54.7266 444.698 54.2422 443.213 54.2266H437.729V64.0703ZM468.641 82H460.719V46H468.641V82ZM487.717 82C487.435 81.4844 487.185 80.7266 486.967 79.7266C485.513 81.5547 483.482 82.4688 480.873 82.4688C478.482 82.4688 476.451 81.75 474.779 80.3125C473.107 78.8594 472.271 77.0391 472.271 74.8516C472.271 72.1016 473.287 70.0234 475.318 68.6172C477.349 67.2109 480.302 66.5078 484.177 66.5078H486.615V65.1719C486.615 62.8438 485.607 61.6797 483.592 61.6797C481.717 61.6797 480.779 62.6016 480.779 64.4453H472.881C472.881 61.9922 473.92 60 475.998 58.4688C478.092 56.9375 480.756 56.1719 483.99 56.1719C487.224 56.1719 489.779 56.9609 491.654 58.5391C493.529 60.1172 494.49 62.2812 494.537 65.0312V76.2578C494.568 78.5859 494.927 80.3672 495.615 81.6016V82H487.717ZM482.771 76.8438C483.756 76.8438 484.568 76.6328 485.209 76.2109C485.865 75.7891 486.334 75.3125 486.615 74.7812V70.7266H484.318C481.568 70.7266 480.193 71.9609 480.193 74.4297C480.193 75.1484 480.435 75.7344 480.92 76.1875C481.404 76.625 482.021 76.8438 482.771 76.8438ZM508.035 50.3359V56.6406H512.206V62.125H508.035V73.7266C508.035 74.6797 508.206 75.3438 508.55 75.7188C508.894 76.0938 509.574 76.2812 510.589 76.2812C511.37 76.2812 512.027 76.2344 512.558 76.1406V81.7891C511.136 82.2422 509.652 82.4688 508.105 82.4688C505.386 82.4688 503.378 81.8281 502.081 80.5469C500.785 79.2656 500.136 77.3203 500.136 74.7109V62.125H496.902V56.6406H500.136V50.3359H508.035ZM516.985 82V62.125H513.306V56.6406H516.985V54.625C516.985 51.7344 517.837 49.4922 519.54 47.8984C521.243 46.3047 523.634 45.5078 526.712 45.5078C527.837 45.5078 529.071 45.6719 530.415 46L530.439 51.8125C529.954 51.6719 529.306 51.6016 528.493 51.6016C526.103 51.6016 524.907 52.6328 524.907 54.6953V56.6406H529.853V62.125H524.907V82H516.985ZM531.538 69.0859C531.538 66.5547 532.03 64.3047 533.014 62.3359C533.999 60.3516 535.413 58.8281 537.257 57.7656C539.1 56.7031 541.264 56.1719 543.749 56.1719C547.546 56.1719 550.538 57.3516 552.725 59.7109C554.913 62.0547 556.007 65.25 556.007 69.2969V69.5781C556.007 73.5312 554.905 76.6719 552.702 79C550.514 81.3125 547.546 82.4688 543.796 82.4688C540.186 82.4688 537.288 81.3906 535.1 79.2344C532.913 77.0625 531.733 74.125 531.561 70.4219L531.538 69.0859ZM539.436 69.5781C539.436 71.9219 539.803 73.6406 540.538 74.7344C541.272 75.8281 542.358 76.375 543.796 76.375C546.608 76.375 548.046 74.2109 548.108 69.8828V69.0859C548.108 64.5391 546.655 62.2656 543.749 62.2656C541.108 62.2656 539.678 64.2266 539.46 68.1484L539.436 69.5781ZM574.731 63.7891L572.129 63.6016C569.645 63.6016 568.051 64.3828 567.348 65.9453V82H559.45V56.6406H566.856L567.114 59.8984C568.442 57.4141 570.293 56.1719 572.668 56.1719C573.512 56.1719 574.247 56.2656 574.872 56.4531L574.731 63.7891ZM584.947 56.6406L585.205 59.6172C587.002 57.3203 589.416 56.1719 592.447 56.1719C595.651 56.1719 597.815 57.4453 598.94 59.9922C600.658 57.4453 603.143 56.1719 606.393 56.1719C611.533 56.1719 614.174 59.2812 614.315 65.5V82H606.393V65.9922C606.393 64.6953 606.174 63.75 605.737 63.1562C605.299 62.5625 604.502 62.2656 603.346 62.2656C601.783 62.2656 600.619 62.9609 599.854 64.3516L599.877 64.6797V82H591.955V66.0391C591.955 64.7109 591.744 63.75 591.322 63.1562C590.901 62.5625 590.096 62.2656 588.908 62.2656C587.393 62.2656 586.237 62.9609 585.44 64.3516V82H577.541V56.6406H584.947Z" fill="black"/>
<path d="M598.863 200.953C598.863 199.719 598.558 198.75 597.949 198.047C597.339 197.344 596.269 196.68 594.738 196.055C593.207 195.43 591.792 194.797 590.496 194.156C589.199 193.516 588.082 192.773 587.144 191.93C586.207 191.086 585.488 190.109 584.988 189C584.488 187.891 584.238 186.547 584.238 184.969C584.238 182.328 585.128 180.156 586.91 178.453C588.691 176.734 591.066 175.734 594.035 175.453V170.508H597.761V175.547C600.621 175.969 602.863 177.148 604.488 179.086C606.128 181.008 606.949 183.453 606.949 186.422H599.027C599.027 184.797 598.714 183.547 598.089 182.672C597.464 181.797 596.574 181.359 595.417 181.359C594.386 181.359 593.582 181.688 593.003 182.344C592.441 182.984 592.16 183.875 592.16 185.016C592.16 186.172 592.488 187.094 593.144 187.781C593.8 188.453 594.855 189.102 596.308 189.727C597.761 190.336 599.128 190.977 600.41 191.648C601.707 192.305 602.824 193.055 603.761 193.898C604.699 194.742 605.433 195.727 605.964 196.852C606.496 197.977 606.761 199.328 606.761 200.906C606.761 203.578 605.91 205.758 604.207 207.445C602.519 209.133 600.214 210.117 597.292 210.398V215.109H593.566V210.375C590.16 210.016 587.542 208.852 585.714 206.883C583.902 204.898 582.996 202.289 582.996 199.055H590.894C590.894 200.836 591.285 202.195 592.066 203.133C592.863 204.055 593.988 204.516 595.441 204.516C596.503 204.516 597.339 204.203 597.949 203.578C598.558 202.938 598.863 202.062 598.863 200.953ZM611.306 193.312L613.392 175.875H633.337V182.016H619.814L619.04 188.789C619.603 188.461 620.337 188.172 621.243 187.922C622.165 187.672 623.064 187.547 623.939 187.547C627.329 187.547 629.931 188.555 631.743 190.57C633.571 192.57 634.486 195.383 634.486 199.008C634.486 201.195 633.993 203.18 633.009 204.961C632.04 206.727 630.673 208.086 628.907 209.039C627.142 209.992 625.056 210.469 622.65 210.469C620.509 210.469 618.501 210.031 616.626 209.156C614.751 208.266 613.282 207.055 612.22 205.523C611.157 203.977 610.634 202.234 610.65 200.297H618.571C618.65 201.547 619.048 202.539 619.767 203.273C620.486 204.008 621.431 204.375 622.603 204.375C625.259 204.375 626.587 202.406 626.587 198.469C626.587 194.828 624.962 193.008 621.712 193.008C619.868 193.008 618.493 193.602 617.587 194.789L611.306 193.312ZM662.233 196.055C662.233 200.664 661.194 204.219 659.116 206.719C657.054 209.219 654.139 210.469 650.374 210.469C646.577 210.469 643.639 209.211 641.561 206.695C639.483 204.18 638.444 200.633 638.444 196.055V189.82C638.444 185.211 639.475 181.656 641.538 179.156C643.616 176.656 646.546 175.406 650.327 175.406C654.108 175.406 657.038 176.664 659.116 179.18C661.194 181.695 662.233 185.25 662.233 189.844V196.055ZM654.335 188.812C654.335 186.359 654.014 184.531 653.374 183.328C652.733 182.109 651.718 181.5 650.327 181.5C648.968 181.5 647.975 182.062 647.35 183.188C646.741 184.312 646.413 186.016 646.366 188.297V197.016C646.366 199.562 646.686 201.43 647.327 202.617C647.968 203.789 648.983 204.375 650.374 204.375C651.718 204.375 652.71 203.805 653.35 202.664C653.991 201.508 654.319 199.703 654.335 197.25V188.812ZM689.934 196.055C689.934 200.664 688.895 204.219 686.817 206.719C684.754 209.219 681.84 210.469 678.075 210.469C674.278 210.469 671.34 209.211 669.262 206.695C667.184 204.18 666.145 200.633 666.145 196.055V189.82C666.145 185.211 667.176 181.656 669.239 179.156C671.317 176.656 674.247 175.406 678.028 175.406C681.809 175.406 684.739 176.664 686.817 179.18C688.895 181.695 689.934 185.25 689.934 189.844V196.055ZM682.036 188.812C682.036 186.359 681.715 184.531 681.075 183.328C680.434 182.109 679.419 181.5 678.028 181.5C676.669 181.5 675.676 182.062 675.051 183.188C674.442 184.312 674.114 186.016 674.067 188.297V197.016C674.067 199.562 674.387 201.43 675.028 202.617C675.669 203.789 676.684 204.375 678.075 204.375C679.419 204.375 680.411 203.805 681.051 202.664C681.692 201.508 682.02 199.703 682.036 197.25V188.812Z" fill="black"/>
<path d="M224 28L225 212" stroke="black" stroke-width="3"/>
<rect x="449" y="168" width="114" height="48" rx="16" fill="#37A360"/>
<path d="M463.089 194.658V199H460.004V186.203H465.11C466.089 186.203 466.953 186.385 467.703 186.748C468.459 187.105 469.042 187.618 469.452 188.286C469.868 188.948 470.076 189.701 470.076 190.545C470.076 191.793 469.628 192.792 468.731 193.542C467.841 194.286 466.616 194.658 465.058 194.658H463.089ZM463.089 192.276H465.11C465.708 192.276 466.162 192.127 466.473 191.828C466.789 191.529 466.947 191.107 466.947 190.562C466.947 189.965 466.786 189.487 466.464 189.13C466.142 188.772 465.702 188.591 465.145 188.585H463.089V192.276ZM481.802 186.203V194.579C481.802 195.528 481.599 196.352 481.195 197.049C480.791 197.74 480.211 198.268 479.455 198.631C478.699 198.994 477.806 199.176 476.774 199.176C475.216 199.176 473.988 198.771 473.092 197.963C472.195 197.154 471.738 196.047 471.721 194.641V186.203H474.823V194.702C474.858 196.103 475.509 196.803 476.774 196.803C477.413 196.803 477.896 196.627 478.224 196.275C478.553 195.924 478.717 195.353 478.717 194.562V186.203H481.802ZM488.526 194.482H486.856V199H483.771V186.203H488.807C490.325 186.203 491.511 186.54 492.367 187.214C493.222 187.888 493.65 188.84 493.65 190.07C493.65 190.961 493.468 191.699 493.105 192.285C492.748 192.871 492.185 193.346 491.418 193.709L494.09 198.868V199H490.785L488.526 194.482ZM486.856 192.101H488.807C489.393 192.101 489.833 191.948 490.126 191.644C490.425 191.333 490.574 190.902 490.574 190.352C490.574 189.801 490.425 189.37 490.126 189.06C489.827 188.743 489.387 188.585 488.807 188.585H486.856V192.101ZM505.903 194.667C505.862 195.558 505.622 196.346 505.182 197.031C504.743 197.711 504.125 198.238 503.328 198.613C502.537 198.988 501.631 199.176 500.612 199.176C498.93 199.176 497.606 198.628 496.639 197.532C495.672 196.437 495.189 194.89 495.189 192.892V192.259C495.189 191.005 495.406 189.909 495.839 188.972C496.279 188.028 496.909 187.302 497.729 186.792C498.549 186.276 499.499 186.019 500.577 186.019C502.129 186.019 503.378 186.429 504.321 187.249C505.264 188.063 505.8 189.188 505.929 190.624H502.853C502.83 189.845 502.633 189.285 502.264 188.945C501.895 188.605 501.333 188.436 500.577 188.436C499.809 188.436 499.247 188.723 498.889 189.297C498.532 189.871 498.344 190.788 498.327 192.048V192.953C498.327 194.318 498.497 195.294 498.836 195.88C499.182 196.466 499.774 196.759 500.612 196.759C501.321 196.759 501.863 196.592 502.238 196.258C502.613 195.924 502.812 195.394 502.836 194.667H505.903ZM518.094 199H515.027V193.656H510.483V199H507.398V186.203H510.483V191.283H515.027V186.203H518.094V199ZM527.517 196.609H523.289L522.551 199H519.255L523.949 186.203H526.849L531.577 199H528.264L527.517 196.609ZM524.028 194.228H526.779L525.399 189.789L524.028 194.228ZM539.154 195.599C539.154 195.147 538.993 194.796 538.671 194.544C538.355 194.292 537.795 194.031 536.992 193.762C536.19 193.492 535.533 193.231 535.024 192.979C533.365 192.165 532.536 191.046 532.536 189.622C532.536 188.913 532.741 188.289 533.152 187.75C533.568 187.205 534.153 186.783 534.909 186.484C535.665 186.18 536.515 186.027 537.458 186.027C538.378 186.027 539.201 186.191 539.928 186.52C540.66 186.848 541.229 187.316 541.633 187.926C542.037 188.529 542.239 189.221 542.239 190H539.163C539.163 189.479 539.002 189.074 538.68 188.787C538.363 188.5 537.933 188.356 537.388 188.356C536.837 188.356 536.401 188.479 536.078 188.726C535.762 188.966 535.604 189.273 535.604 189.648C535.604 189.977 535.779 190.275 536.131 190.545C536.483 190.809 537.101 191.084 537.986 191.371C538.87 191.652 539.597 191.957 540.165 192.285C541.548 193.082 542.239 194.181 542.239 195.581C542.239 196.7 541.818 197.579 540.974 198.218C540.13 198.856 538.973 199.176 537.502 199.176C536.465 199.176 535.525 198.991 534.681 198.622C533.843 198.247 533.21 197.737 532.782 197.093C532.361 196.442 532.15 195.695 532.15 194.852H535.243C535.243 195.537 535.419 196.044 535.771 196.372C536.128 196.694 536.705 196.855 537.502 196.855C538.012 196.855 538.413 196.747 538.706 196.53C539.005 196.308 539.154 195.997 539.154 195.599ZM551.794 193.577H546.942V196.627H552.673V199H543.857V186.203H552.69V188.585H546.942V191.283H551.794V193.577Z" fill="white"/>
<path d="M104.465 220.482H100.809V17.4667H104.465V220.482Z" fill="#4760E9"/>
<path d="M121.78 220.482H120.985V17.4667H121.78V220.482Z" fill="#4760E9"/>
<path d="M110.523 220.482H109.729V17.4667H110.523V220.482Z" fill="#4760E9"/>
<path d="M123.493 220.482H122.698V17.4667H123.493V220.482Z" fill="#4760E9"/>
<path d="M132.953 46.4222V62.114H130.278L113.825 45.2134V39.6868L130.278 22.7863H132.95V46.4147L132.953 46.4222ZM129.125 66.0064H90.5195V63.3899L107.267 46.4247H112.363L129.11 63.3899V66.0064H129.125ZM86.6915 62.114V22.7863H89.3663L105.822 39.6868V45.2134L89.3663 62.114H86.6915ZM90.5195 18.8938H129.125V21.5104L112.377 38.4756H107.281L90.5338 21.5104V18.8938H90.5195ZM113.825 17.0035H85V67.8967H134.644V17.0035H113.825Z" fill="#4760E9"/>
<path d="M132.953 97.3133V113.008H130.278L113.825 96.0945V90.5754L130.278 73.6798H132.95V97.3083L132.953 97.3133ZM129.125 116.9H90.5195V114.283L107.267 97.3182H112.363L129.11 114.283V116.9H129.125ZM86.6915 113.008V73.6798H89.3663L105.817 90.5754V96.102L89.3615 113.015L86.6915 113.008ZM90.5195 69.7874H129.125V72.4039L112.377 89.3691H107.281L90.5338 72.4039V69.7874H90.5195ZM113.825 67.8971H85V118.79H134.644V67.8971H113.825Z" fill="#4760E9"/>
<path d="M132.953 148.206V163.9H130.278L113.825 147V141.473L130.278 124.573H132.95V148.201L132.953 148.206ZM129.125 167.793H90.5195V165.176L107.267 148.211H112.363L129.11 165.176V167.793H129.125ZM86.6915 163.9V124.573H89.3663L105.822 141.473V147L89.3663 163.9H86.6915ZM90.5195 120.68H129.125V123.297L112.377 140.262H107.281L90.5338 123.297V120.67L90.5195 120.68ZM113.825 118.79H85V169.683H134.644V118.79H113.825Z" fill="#4760E9"/>
<path d="M132.953 199.1V214.794H130.278L113.825 197.881V192.367L130.278 175.454H132.95V199.082L132.953 199.1ZM129.125 218.686H90.5195V216.07L107.267 199.102H112.363L129.11 216.07V218.686H129.125ZM86.6915 214.794V175.466H89.3663L105.822 192.379V197.906L89.3663 214.819L86.6915 214.794ZM90.5195 171.574H129.125V174.19L112.377 191.156H107.281L90.5338 174.19V171.574H90.5195ZM113.825 169.684H85V220.577H134.644V169.684H113.825Z" fill="#4760E9"/>
<path d="M97.278 22.3762H95.4502V19.8666H97.278V22.3762ZM97.278 25.8359H95.4502V23.3263H97.278V25.8359ZM97.278 29.2956H95.4502V26.786H97.278V29.2956ZM97.278 32.7553H95.4502V30.2457H97.278V32.7553ZM97.278 36.215H95.4502V33.7054H97.278V36.215ZM97.278 39.6722H95.4502V37.1626H97.278V39.6722ZM97.278 43.1319H95.4502V40.6223H97.278V43.1319ZM97.278 46.5916H95.4502V44.082H97.278V46.5916ZM97.278 50.0513H95.4502V47.5467H97.278V50.0563V50.0513ZM97.278 53.511H95.4502V51.0014H97.278V53.516V53.511ZM97.278 56.9707H95.4502V54.4611H97.278V56.9707ZM97.278 60.4304H95.4502V57.9208H97.278V60.4304ZM97.278 63.8877H95.4502V61.3806H97.278V63.8877ZM97.278 67.3474H95.4502V64.8378H97.278V67.3474ZM97.278 70.8071H95.4502V68.2975H97.278V70.8071ZM97.278 74.2668H95.4502V71.7572H97.278V74.2668ZM97.278 77.7265H95.4502V75.2169H97.278V77.7265ZM97.278 81.1862H95.4502V78.6766H97.278V81.1862ZM97.278 84.6459H95.4502V82.1363H97.278V84.6459ZM97.278 88.1056H95.4502V85.6009H97.278V88.1105V88.1056ZM97.278 91.5653H95.4502V89.0557H97.278V91.5702V91.5653ZM97.278 95.0225H95.4502V92.5129H97.278V95.0225ZM97.278 98.4822H95.4502V95.9726H97.278V98.4822ZM97.278 101.942H95.4502V99.4323H97.278V101.942ZM97.278 105.402H95.4502V102.892H97.278V105.402ZM97.278 108.861H95.4502V106.352H97.278V108.861ZM97.278 112.321H95.4502V109.811H97.278V112.321ZM97.278 115.781H95.4502V113.271H97.278V115.781ZM97.278 119.238H95.4502V116.731H97.278V119.238ZM97.278 122.698H95.4502V120.188H97.278V122.698ZM97.278 126.157H95.4502V123.655H97.278V126.165V126.157ZM97.278 129.617H95.4502V127.107H97.278V129.624V129.617ZM97.278 133.077H95.4502V130.567H97.278V133.077ZM97.278 136.536H95.4502V134.027H97.278V136.536ZM97.278 139.996H95.4502V137.487H97.278V139.996ZM97.278 143.456H95.4502V140.946H97.278V143.456ZM97.278 146.913H95.4502V144.403H97.278V146.913ZM97.278 150.373H95.4502V147.863H97.278V150.373ZM97.278 153.832H95.4502V151.323H97.278V153.832ZM97.278 157.292H95.4502V154.783H97.278V157.292ZM97.278 17.663V18.9066H95.4502V17.663H94.5363V159.498H95.4502V158.242H97.278V159.498H98.192V17.663H97.278Z" fill="#4760E9"/>
<path d="M134.34 31.6209H85.9113V29.9595H134.34V31.6209Z" fill="#4760E9"/>
<path d="M134.644 14.7604H85V13.099H134.644V14.7604Z" fill="#4760E9"/>
<path d="M134.644 11.398H85V11H134.644V11.398Z" fill="#4760E9"/>
<path d="M86.5971 11.0022H85.0253V17.8669H86.5971V11.0022Z" fill="#4760E9"/>
<path d="M134.716 11.0022H133.144V17.8669H134.716V11.0022Z" fill="#4760E9"/>
<path d="M128.56 201.838H126.235V41.2817H128.56V201.838Z" fill="#B2B6BB"/>
<path d="M139.584 201.838H139.079V41.2817H139.584V201.838Z" fill="#B2B6BB"/>
<path d="M132.419 201.838H131.911V41.2817H132.419V201.838Z" fill="#B2B6BB"/>
<path d="M140.678 201.838H140.171V41.2817H140.678V201.838Z" fill="#B2B6BB"/>
<path d="M146.7 59.7191V69.7102H144.999L134.522 58.9481V55.4312L144.999 44.669H146.7V59.7191ZM144.262 72.1899H119.681V70.5235L130.35 59.7191H133.594L144.262 70.5235V72.1899ZM117.244 69.7027V44.669H118.945L129.421 55.4312V58.9481L118.945 69.7102L117.244 69.7027ZM119.681 42.1818H144.262V43.8483L133.594 54.6601H130.35L119.681 43.8557V42.1893V42.1818ZM134.515 40.978H116.162V73.3863H147.776V40.9855L134.515 40.978Z" fill="#B2B6BB"/>
<path d="M146.7 92.1252V102.116H144.999L134.522 91.3566V87.8397L144.999 77.0776H146.7V92.1277V92.1252ZM144.262 104.596H119.681V102.93L130.35 92.1252H133.594L144.262 102.93V104.596ZM117.244 102.109V77.0751H118.945L129.421 87.8397V91.3591L118.945 102.116L117.244 102.109ZM119.681 74.5904H144.262V76.2543L133.594 87.0588H130.35L119.681 76.2543V74.5904ZM134.515 73.3866H116.162V105.8H147.776V73.3941L134.515 73.3866Z" fill="#B2B6BB"/>
<path d="M146.7 124.531V134.524H144.999L134.522 123.762V120.243L144.999 109.478H146.7V124.528V124.531ZM144.262 137.001H119.681V135.345L130.35 124.543H133.594L144.262 135.345V137.011V137.001ZM117.244 134.514V109.478H118.945L129.421 120.24V123.76L118.945 134.524L117.244 134.514ZM119.681 106.993H144.262V108.66L133.594 119.462H130.35L119.681 108.66V106.993ZM134.515 105.79H116.162V138.205H147.776V105.8L134.515 105.79Z" fill="#B2B6BB"/>
<path d="M146.7 156.936V166.933H144.999L134.522 156.17V152.649L144.999 141.886H146.7V156.936ZM144.262 169.42H119.681V167.753L130.35 156.951H133.594L144.262 167.753V169.42ZM117.244 166.933V141.886H118.945L129.421 152.649V156.168L118.945 166.933H117.244ZM119.681 139.412H144.262V141.066L133.594 151.868H130.35L119.681 141.066V139.399V139.412ZM134.515 138.208H116.162V170.611H147.776V138.205L134.515 138.208Z" fill="#B2B6BB"/>
<path d="M146.7 189.342V199.336H144.999L134.522 188.571V185.054L144.999 174.295H146.7V189.342ZM144.262 201.813H119.681V200.149L130.35 189.345H133.594L144.262 200.149V201.813ZM117.244 199.326V174.295H118.945L129.421 185.054V188.571L118.945 199.333L117.244 199.326ZM119.681 171.805H144.262V173.471L133.594 184.276H130.35L119.681 173.471V171.805ZM134.515 170.601H116.162V203.009H147.776V170.611L134.515 170.601Z" fill="#B2B6BB"/>
<path d="M147.585 50.2948H116.748V49.2352H147.585V50.2948Z" fill="#B2B6BB"/>
<path d="M147.776 39.558H116.167V38.501H147.776V39.558Z" fill="#B2B6BB"/>
<path d="M147.776 37.4164H116.167V37.1652H147.776V37.4164Z" fill="#B2B6BB"/>
<path d="M117.186 37.1652H116.184V41.5377H117.186V37.1652Z" fill="#B2B6BB"/>
<path d="M147.824 37.1652H146.821V41.5377H147.824V37.1652Z" fill="#B2B6BB"/>
<path opacity="0.2" d="M123.521 126.784L123.557 126.724C123.528 126.744 123.519 126.767 123.521 126.784Z" fill="#F4F4F4"/>
<path opacity="0.2" d="M115.567 121.961C115.581 122.013 115.667 122.061 115.768 122.105C115.708 122.053 115.579 122.006 115.567 121.961Z" fill="#F4F4F4"/>
<path opacity="0.2" d="M123.959 126.436C124.031 126.369 124.112 126.314 124.198 126.272C124.11 126.311 124.029 126.367 123.959 126.436Z" fill="#F4F4F4"/>
<path opacity="0.2" d="M108.425 130.249C108.434 130.271 108.446 130.292 108.461 130.311L108.425 130.249Z" fill="#F4F4F4"/>
<path opacity="0.2" d="M150.023 164.766L149.927 164.609C149.96 164.659 149.989 164.714 150.023 164.766Z" fill="#F4F4F4"/>
<path opacity="0.2" d="M89.9094 142.807L90.0219 142.785C90.0506 142.785 90.0769 142.765 90.1032 142.76L89.9094 142.807Z" fill="#F4F4F4"/>
<path opacity="0.2" d="M94.0774 140.319C94.1003 140.291 94.1204 140.26 94.1371 140.228C94.118 140.27 94.0989 140.3 94.0774 140.319Z" fill="#F4F4F4"/>
<path opacity="0.2" d="M149.927 164.609C149.916 164.592 149.906 164.575 149.896 164.557C149.905 164.575 149.916 164.593 149.927 164.609Z" fill="#F4F4F4"/>
<path opacity="0.2" d="M122.818 125.103C122.737 124.938 122.648 124.779 122.55 124.625C122.586 124.595 122.693 124.807 122.818 125.103Z" fill="#F4F4F4"/>
<path opacity="0.2" d="M123.521 126.784L123.557 126.724C123.528 126.744 123.519 126.767 123.521 126.784Z" fill="black"/>
<path opacity="0.2" d="M115.567 121.961C115.581 122.013 115.667 122.061 115.768 122.105C115.708 122.053 115.579 122.006 115.567 121.961Z" fill="black"/>
<path opacity="0.2" d="M123.959 126.436C124.031 126.369 124.112 126.314 124.198 126.272C124.11 126.311 124.029 126.367 123.959 126.436Z" fill="black"/>
<path opacity="0.2" d="M108.425 130.249C108.434 130.271 108.446 130.292 108.461 130.311L108.425 130.249Z" fill="black"/>
<path opacity="0.2" d="M150.023 164.766L149.927 164.609C149.96 164.659 149.989 164.714 150.023 164.766Z" fill="black"/>
<path opacity="0.2" d="M89.9094 142.807L90.0219 142.785C90.0506 142.785 90.0769 142.765 90.1032 142.76L89.9094 142.807Z" fill="black"/>
<path opacity="0.2" d="M94.0774 140.319C94.1003 140.291 94.1204 140.26 94.1371 140.228C94.118 140.27 94.0989 140.3 94.0774 140.319Z" fill="black"/>
<path opacity="0.2" d="M149.927 164.609C149.916 164.592 149.906 164.575 149.896 164.557C149.905 164.575 149.916 164.593 149.927 164.609Z" fill="black"/>
<path d="M150.15 164.995C150.109 164.913 150.064 164.836 150.023 164.766C150.069 164.84 150.109 164.918 150.15 164.995Z" fill="#F4F4F4"/>
</svg>
