<svg width="168" height="490" viewBox="0 0 168 490" fill="none" xmlns="http://www.w3.org/2000/svg">
<path d="M99.3279 470.937H91.1194V15.1237H99.3279V470.937Z" fill="#4760E9"/>
<path d="M138.197 470.937H136.41V15.1237H138.197V470.937Z" fill="#4760E9"/>
<path d="M112.926 470.937H111.145V15.1237H112.926V470.937Z" fill="#4760E9"/>
<path d="M142.041 470.937H140.259V15.1237H142.041V470.937Z" fill="#4760E9"/>
<path d="M163.292 80.1283V115.354H157.296L120.358 77.415V65.0083L157.296 27.0691H163.292V80.1283ZM154.699 124.091H68.0275V118.217L105.638 80.1283H117.082L154.693 118.217V124.091H154.699ZM59.4341 115.354V27.0691H65.4175L102.356 65.0083V77.415L65.4175 115.354H59.4341ZM68.0275 18.3525H154.693V24.2133L117.082 62.295H105.638L68.0275 24.2133V18.339V18.3525ZM120.345 14.1062H55.63V128.337H167.077V14.0858L120.345 14.1062Z" fill="#4760E9"/>
<path d="M163.292 194.373V229.606H157.296L120.358 191.667V179.253L157.296 141.314H163.292V194.373ZM154.699 238.343H68.0275V232.462L105.638 194.373H117.082L154.686 232.462V238.336L154.699 238.343ZM59.4341 229.606V141.314H65.4175L102.356 179.253V191.667L65.4175 229.606H59.4341ZM68.0275 132.604H154.693V138.479L117.082 176.567H105.638L68.0275 138.451V132.577V132.604ZM120.345 128.365H55.63V242.582H167.077V128.338L120.345 128.365Z" fill="#4760E9"/>
<path d="M163.292 308.625V343.851H157.296L120.358 305.912V293.512L157.296 255.573H163.292V308.632V308.625ZM154.699 352.588H68.0275V346.713L105.638 308.632H117.082L154.693 346.713V352.588H154.699ZM59.4341 343.851V255.566H65.4175L102.362 293.512V305.918L65.4175 343.851H59.4341ZM68.0275 246.849H154.693V252.723L117.076 290.798H105.631L68.0275 252.703V246.829V246.849ZM120.345 242.603H55.63V356.834H167.077V242.582L120.345 242.603Z" fill="#4760E9"/>
<path d="M166.392 46.903H57.6788V43.1721H166.392V46.903Z" fill="#4760E9"/>
<path d="M167.077 9.05261H55.63V5.32178H167.077V9.05261Z" fill="#4760E9"/>
<path d="M167.077 1.50337H55.63V0.614746H167.077V1.50337Z" fill="#4760E9"/>
<path d="M59.2188 0.614746H55.6887V16.0265H59.2188V0.614746Z" fill="#4760E9"/>
<path d="M167.24 0.614746H163.71V16.0265H167.24V0.614746Z" fill="#4760E9"/>
<path d="M150.145 466.839H68.0275V460.965L105.638 422.877H117.082L151.548 457.79L152.298 452.988L120.325 420.163V407.75L157.263 369.81H163.293V382.59L167.09 358.225V356.868H55.63V471.086H149.479L150.145 466.839ZM68.0275 361.08H154.693V366.948L117.082 405.036H105.638L68.0275 366.948V361.08ZM59.4341 458.082V369.81H65.4175L102.356 407.75V420.163L65.4175 458.102L59.4341 458.082Z" fill="#4760E9"/>
<path d="M33.2362 486.158H27.0244V57.6477H33.2362V486.158Z" fill="#B2B6BB"/>
<path d="M62.6639 486.158H61.3132V57.6477H62.6639V486.158Z" fill="#B2B6BB"/>
<path d="M43.5327 486.158H42.1886V57.6477H43.5327V486.158Z" fill="#B2B6BB"/>
<path d="M65.5742 486.158H64.2235V57.6477H65.5742V486.158Z" fill="#B2B6BB"/>
<path d="M81.6516 106.855V133.521H77.0841L49.1245 104.8V95.439L77.0841 66.7184H81.6516V106.882V106.855ZM75.1266 140.134H9.53736V135.691L38.0125 106.862H46.6711L75.1462 135.691V140.134H75.1266ZM3.01237 133.521V66.6912H7.57987L35.5395 95.439V104.8L7.57333 133.521H3.01237ZM9.53736 60.0775H75.1462V64.5205L46.6711 93.3565H38.0125L9.53736 64.5205V60.0775ZM49.1441 56.8622H0.16748V143.35H84.5357V56.8622H49.1441Z" fill="#B2B6BB"/>
<path d="M81.6516 193.343V220.015H77.0841L49.1245 191.294V181.899L77.0841 153.179H81.6516V193.343ZM75.1266 226.629H9.53736V222.179L38.0125 193.35H46.6711L75.1462 222.179V226.629H75.1266ZM3.01237 220.015V153.179H7.57987L35.546 181.899V191.294L7.57987 220.015H3.01237ZM9.53736 146.565H75.1462V151.008L46.6711 179.844H38.0125L9.53736 151.008V146.565ZM49.1441 143.35H0.16748V229.837H84.5357V143.35H49.1441Z" fill="#B2B6BB"/>
<path d="M81.6516 279.83V306.502H77.0841L49.1245 277.782V268.414L77.0841 239.693H81.6516V279.857V279.83ZM75.1266 313.116H9.53736V308.666L38.0125 279.837H46.6711L75.1462 308.666V313.116H75.1266ZM3.01237 306.502V239.666H7.57987L35.5395 268.414V277.809L7.57333 306.529L3.01237 306.502ZM9.53736 233.052H75.1462V237.496L46.6711 266.332H38.0125L9.53736 237.496V233.052ZM49.1441 229.837H0.16748V316.325H84.5357V229.837H49.1441Z" fill="#B2B6BB"/>
<path d="M81.6516 366.318V392.99H77.0841L49.1245 364.269V354.874L77.0841 326.154H81.6516V366.318ZM75.1266 399.604H9.53736V395.154L38.0125 366.325H46.6711L75.1462 395.154V399.604H75.1266ZM3.01237 392.99V326.154H7.57987L35.546 354.874V364.269L7.57987 392.99H3.01237ZM9.53736 319.54H75.1462V323.99L46.6711 352.819H38.0125L9.53736 323.99V319.54ZM49.1441 316.325H0.16748V402.819H84.5357V316.325H49.1441Z" fill="#B2B6BB"/>
<path d="M81.6516 452.812V479.477H77.0841L49.1245 450.757V441.389L77.0841 412.662H81.6516V452.833V452.812ZM75.1266 486.091H9.53736V481.648L38.0125 452.812H46.6711L75.1462 481.648V486.091H75.1266ZM3.01237 479.477V412.641H7.57987L35.5395 441.389V450.777L7.57333 479.498L3.01237 479.477ZM9.53736 406.027H75.1462V410.477L46.6711 439.307H38.0125L9.53736 410.477V406.027ZM49.1441 402.819H0.16748V489.307H84.5357V402.819H49.1441Z" fill="#B2B6BB"/>
<path d="M21.0476 65.9912H17.9416V61.7245H21.0476V65.9912ZM21.0476 71.8724H17.9416V67.626H21.0476V71.8927V71.8724ZM21.0476 77.7467H17.9416V73.4868H21.0476V77.7467ZM21.0476 83.6279H17.9416V79.3612H21.0476V83.6279ZM21.0476 89.509H17.9416V85.2627H21.0476V89.5294V89.509ZM21.0476 95.3834H17.9416V91.1235H21.0476V95.3834ZM21.0476 101.265H17.9416V96.9979H21.0476V101.265ZM21.0476 107.146H17.9416V102.899H21.0476V107.166V107.146ZM21.0476 113.02H17.9416V108.76H21.0476V113.02ZM21.0476 118.901H17.9416V114.635H21.0476V118.901ZM21.0476 124.782H17.9416V120.536H21.0476V124.803V124.782ZM21.0476 130.657H17.9416V126.397H21.0476V130.657ZM21.0476 136.538H17.9416V132.271H21.0476V136.538ZM21.0476 142.419H17.9416V138.173H21.0476V142.439V142.419ZM21.0476 148.293H17.9416V144.033H21.0476V148.293ZM21.0476 154.175H17.9416V149.908H21.0476V154.175ZM21.0476 160.056H17.9416V155.809H21.0476V160.076V160.056ZM21.0476 165.93H17.9416V161.67H21.0476V165.93ZM21.0476 171.811H17.9416V167.545H21.0476V171.811ZM21.0476 177.692H17.9416V173.446H21.0476V177.713V177.692ZM21.0476 183.567H17.9416V179.307H21.0476V183.567ZM21.0476 189.448H17.9416V185.181H21.0476V189.448ZM21.0476 195.329H17.9416V191.083H21.0476V195.349V195.329ZM21.0476 201.203H17.9416V196.943H21.0476V201.203ZM21.0476 207.085H17.9416V202.818H21.0476V207.085ZM21.0476 212.966H17.9416V208.719H21.0476V212.986V212.966ZM21.0476 218.847H17.9416V214.58H21.0476V218.847ZM21.0476 224.721H17.9416V220.455H21.0476V224.721ZM21.0476 230.602H17.9416V226.356H21.0476V230.623V230.602ZM21.0476 236.477H17.9416V232.217H21.0476V236.477ZM21.0476 242.358H17.9416V238.091H21.0476V242.358ZM21.0476 248.239H17.9416V243.993H21.0476V248.259V248.239ZM21.0476 254.12H17.9416V249.853H21.0476V254.12ZM21.0476 259.995H17.9416V255.735H21.0476V259.995ZM21.0476 265.876H17.9416V261.629H21.0476V265.896V265.876ZM21.0476 271.757H17.9416V267.49H21.0476V271.757ZM21.0476 277.631H17.9416V273.365H21.0476V277.631ZM21.0476 283.512H17.9416V279.266H21.0476V283.533V283.512ZM21.0476 289.387H17.9416V285.127H21.0476V289.387ZM21.0476 295.268H17.9416V291.001H21.0476V295.268ZM21.0476 57.9801V60.1101H17.9416V57.9801H16.3887V299.019H17.9416V296.903H21.0476V299.039H22.6005V57.9801H21.0476Z" fill="#B2B6BB"/>
<path d="M84.0071 81.7021H1.71387V78.8802H84.0071V81.7021Z" fill="#B2B6BB"/>
<path d="M84.5292 53.0493H0.161011V50.2274H84.5292V53.0493Z" fill="#B2B6BB"/>
<path d="M84.5292 47.3309H0.161011V46.6594H84.5292V47.3309Z" fill="#B2B6BB"/>
<path d="M2.88196 46.6594H0.206665V58.3268H2.88196V46.6594Z" fill="#B2B6BB"/>
<path d="M84.6533 46.6594H81.978V58.3268H84.6533V46.6594Z" fill="#B2B6BB"/>
<path opacity="0.2" d="M6.2226 327.917C6.09209 327.93 5.96805 327.93 5.83755 327.917C5.50476 327.917 5.18506 327.917 4.82617 327.917C5.28947 328.001 5.7593 328.001 6.2226 327.917Z" fill="#F4F4F4"/>
<path opacity="0.2" d="M104.143 306.657L104.287 306.474C104.234 306.529 104.182 306.59 104.143 306.657Z" fill="#F4F4F4"/>
<path opacity="0.2" d="M3.47571 374.566C3.86069 374.403 4.25876 374.254 4.6568 374.132C4.46757 374.233 3.93247 374.355 3.47571 374.566Z" fill="#F4F4F4"/>
<path opacity="0.2" d="M4.53931 328.005C4.637 327.995 4.72823 327.995 4.82593 328.005C4.72823 327.991 4.637 327.991 4.53931 328.005Z" fill="#F4F4F4"/>
<path opacity="0.2" d="M6.2226 327.917C6.09209 327.93 5.96805 327.93 5.83755 327.917C5.50476 327.917 5.18506 327.917 4.82617 327.917C5.28947 328.001 5.7593 328.001 6.2226 327.917Z" fill="black"/>
<path opacity="0.2" d="M104.143 306.657L104.287 306.474C104.234 306.529 104.182 306.59 104.143 306.657Z" fill="black"/>
<path opacity="0.2" d="M3.47571 374.566C3.86069 374.403 4.25876 374.254 4.6568 374.132C4.46757 374.233 3.93247 374.355 3.47571 374.566Z" fill="black"/>
<path opacity="0.2" d="M4.53931 328.005C4.637 327.995 4.72823 327.995 4.82593 328.005C4.72823 327.991 4.637 327.991 4.53931 328.005Z" fill="black"/>
<path d="M104.143 306.658C103.98 306.836 103.824 307.024 103.687 307.222C103.824 307.296 103.948 306.943 104.143 306.658Z" fill="#F4F4F4"/>
</svg>
