<svg width="721" height="233" viewBox="0 0 721 233" fill="none" xmlns="http://www.w3.org/2000/svg">
<path d="M0 16C0 7.16345 7.16344 0 16 0H705C713.837 0 721 7.16344 721 16V217C721 225.837 713.837 233 705 233H16C7.16345 233 0 225.837 0 217V16Z" fill="#FFEECA"/>
<path d="M329.858 69.9531H325.405V82H317.179V47.875H330.608C334.655 47.875 337.819 48.7734 340.101 50.5703C342.382 52.3672 343.522 54.9062 343.522 58.1875C343.522 60.5625 343.038 62.5312 342.069 64.0938C341.116 65.6562 339.616 66.9219 337.569 67.8906L344.694 81.6484V82H335.882L329.858 69.9531ZM325.405 63.6016H330.608C332.171 63.6016 333.343 63.1953 334.124 62.3828C334.921 61.5547 335.319 60.4062 335.319 58.9375C335.319 57.4688 334.921 56.3203 334.124 55.4922C333.327 54.6484 332.155 54.2266 330.608 54.2266H325.405V63.6016ZM356.364 82H348.442V56.6406H356.364V82ZM347.973 50.1016C347.973 48.9766 348.38 48.0547 349.192 47.3359C350.005 46.6172 351.059 46.2578 352.356 46.2578C353.653 46.2578 354.708 46.6172 355.52 47.3359C356.333 48.0547 356.739 48.9766 356.739 50.1016C356.739 51.2266 356.333 52.1484 355.52 52.8672C354.708 53.5859 353.653 53.9453 352.356 53.9453C351.059 53.9453 350.005 53.5859 349.192 52.8672C348.38 52.1484 347.973 51.2266 347.973 50.1016ZM360.229 69.1328C360.229 66.5703 360.651 64.3047 361.494 62.3359C362.338 60.3672 363.549 58.8516 365.127 57.7891C366.705 56.7109 368.541 56.1719 370.635 56.1719C373.276 56.1719 375.338 57.0625 376.823 58.8438L377.104 56.6406H384.276V81.0391C384.276 83.2734 383.752 85.2109 382.705 86.8516C381.674 88.5078 380.174 89.7734 378.205 90.6484C376.237 91.5391 373.955 91.9844 371.362 91.9844C369.502 91.9844 367.698 91.6328 365.948 90.9297C364.213 90.2266 362.885 89.3125 361.963 88.1875L365.268 83.5469C366.737 85.2812 368.674 86.1484 371.08 86.1484C374.58 86.1484 376.33 84.3516 376.33 80.7578V79.9609C374.815 81.6328 372.901 82.4688 370.588 82.4688C367.494 82.4688 364.994 81.2891 363.088 78.9297C361.182 76.5547 360.229 73.3828 360.229 69.4141V69.1328ZM368.151 69.625C368.151 71.7031 368.541 73.3516 369.323 74.5703C370.104 75.7734 371.198 76.375 372.604 76.375C374.307 76.375 375.549 75.8047 376.33 74.6641V64C375.565 62.8438 374.338 62.2656 372.651 62.2656C371.244 62.2656 370.143 62.8984 369.346 64.1641C368.549 65.4141 368.151 67.2344 368.151 69.625ZM396.391 59.3594C398.078 57.2344 400.234 56.1719 402.859 56.1719C405.656 56.1719 407.766 57 409.188 58.6562C410.609 60.3125 411.336 62.7578 411.367 65.9922V82H403.445V66.1797C403.445 64.8359 403.172 63.8516 402.625 63.2266C402.078 62.5859 401.148 62.2656 399.836 62.2656C398.211 62.2656 397.063 62.7812 396.391 63.8125V82H388.492V46H396.391V59.3594ZM424.865 50.3359V56.6406H429.037V62.125H424.865V73.7266C424.865 74.6797 425.037 75.3438 425.381 75.7188C425.724 76.0938 426.404 76.2812 427.42 76.2812C428.201 76.2812 428.857 76.2344 429.388 76.1406V81.7891C427.967 82.2422 426.482 82.4688 424.935 82.4688C422.217 82.4688 420.209 81.8281 418.912 80.5469C417.615 79.2656 416.967 77.3203 416.967 74.7109V62.125H413.732V56.6406H416.967V50.3359H424.865ZM452.517 70.4219V82H444.29V47.875H457.907C460.517 47.875 462.821 48.3594 464.821 49.3281C466.837 50.2812 468.392 51.6484 469.486 53.4297C470.595 55.1953 471.15 57.2031 471.15 59.4531C471.15 62.7812 469.954 65.4453 467.564 67.4453C465.189 69.4297 461.923 70.4219 457.767 70.4219H452.517ZM452.517 64.0703H457.907C459.501 64.0703 460.712 63.6719 461.54 62.875C462.384 62.0781 462.806 60.9531 462.806 59.5C462.806 57.9062 462.376 56.6328 461.517 55.6797C460.657 54.7266 459.486 54.2422 458.001 54.2266H452.517V64.0703ZM483.429 82H475.507V46H483.429V82ZM502.504 82C502.223 81.4844 501.973 80.7266 501.754 79.7266C500.301 81.5547 498.27 82.4688 495.661 82.4688C493.27 82.4688 491.239 81.75 489.567 80.3125C487.895 78.8594 487.059 77.0391 487.059 74.8516C487.059 72.1016 488.075 70.0234 490.106 68.6172C492.137 67.2109 495.09 66.5078 498.965 66.5078H501.403V65.1719C501.403 62.8438 500.395 61.6797 498.379 61.6797C496.504 61.6797 495.567 62.6016 495.567 64.4453H487.668C487.668 61.9922 488.708 60 490.786 58.4688C492.879 56.9375 495.543 56.1719 498.778 56.1719C502.012 56.1719 504.567 56.9609 506.442 58.5391C508.317 60.1172 509.278 62.2812 509.325 65.0312V76.2578C509.356 78.5859 509.715 80.3672 510.403 81.6016V82H502.504ZM497.559 76.8438C498.543 76.8438 499.356 76.6328 499.997 76.2109C500.653 75.7891 501.122 75.3125 501.403 74.7812V70.7266H499.106C496.356 70.7266 494.981 71.9609 494.981 74.4297C494.981 75.1484 495.223 75.7344 495.708 76.1875C496.192 76.625 496.809 76.8438 497.559 76.8438ZM522.823 50.3359V56.6406H526.994V62.125H522.823V73.7266C522.823 74.6797 522.994 75.3438 523.338 75.7188C523.682 76.0938 524.362 76.2812 525.377 76.2812C526.158 76.2812 526.815 76.2344 527.346 76.1406V81.7891C525.924 82.2422 524.44 82.4688 522.893 82.4688C520.174 82.4688 518.166 81.8281 516.869 80.5469C515.573 79.2656 514.924 77.3203 514.924 74.7109V62.125H511.69V56.6406H514.924V50.3359H522.823ZM531.773 82V62.125H528.094V56.6406H531.773V54.625C531.773 51.7344 532.625 49.4922 534.328 47.8984C536.031 46.3047 538.422 45.5078 541.5 45.5078C542.625 45.5078 543.859 45.6719 545.203 46L545.227 51.8125C544.742 51.6719 544.094 51.6016 543.281 51.6016C540.891 51.6016 539.695 52.6328 539.695 54.6953V56.6406H544.641V62.125H539.695V82H531.773ZM546.326 69.0859C546.326 66.5547 546.818 64.3047 547.802 62.3359C548.787 60.3516 550.201 58.8281 552.045 57.7656C553.888 56.7031 556.052 56.1719 558.537 56.1719C562.334 56.1719 565.326 57.3516 567.513 59.7109C569.701 62.0547 570.795 65.25 570.795 69.2969V69.5781C570.795 73.5312 569.693 76.6719 567.49 79C565.302 81.3125 562.334 82.4688 558.584 82.4688C554.974 82.4688 552.076 81.3906 549.888 79.2344C547.701 77.0625 546.521 74.125 546.349 70.4219L546.326 69.0859ZM554.224 69.5781C554.224 71.9219 554.591 73.6406 555.326 74.7344C556.06 75.8281 557.146 76.375 558.584 76.375C561.396 76.375 562.834 74.2109 562.896 69.8828V69.0859C562.896 64.5391 561.443 62.2656 558.537 62.2656C555.896 62.2656 554.466 64.2266 554.248 68.1484L554.224 69.5781ZM589.519 63.7891L586.917 63.6016C584.433 63.6016 582.839 64.3828 582.136 65.9453V82H574.238V56.6406H581.644L581.902 59.8984C583.23 57.4141 585.081 56.1719 587.456 56.1719C588.3 56.1719 589.034 56.2656 589.659 56.4531L589.519 63.7891ZM599.735 56.6406L599.993 59.6172C601.79 57.3203 604.204 56.1719 607.235 56.1719C610.439 56.1719 612.603 57.4453 613.728 59.9922C615.446 57.4453 617.931 56.1719 621.181 56.1719C626.321 56.1719 628.962 59.2812 629.103 65.5V82H621.181V65.9922C621.181 64.6953 620.962 63.75 620.524 63.1562C620.087 62.5625 619.29 62.2656 618.134 62.2656C616.571 62.2656 615.407 62.9609 614.642 64.3516L614.665 64.6797V82H606.743V66.0391C606.743 64.7109 606.532 63.75 606.11 63.1562C605.689 62.5625 604.884 62.2656 603.696 62.2656C602.181 62.2656 601.024 62.9609 600.228 64.3516V82H592.329V56.6406H599.735Z" fill="black"/>
<path d="M598.863 200.953C598.863 199.719 598.558 198.75 597.949 198.047C597.339 197.344 596.269 196.68 594.738 196.055C593.207 195.43 591.792 194.797 590.496 194.156C589.199 193.516 588.082 192.773 587.144 191.93C586.207 191.086 585.488 190.109 584.988 189C584.488 187.891 584.238 186.547 584.238 184.969C584.238 182.328 585.128 180.156 586.91 178.453C588.691 176.734 591.066 175.734 594.035 175.453V170.508H597.761V175.547C600.621 175.969 602.863 177.148 604.488 179.086C606.128 181.008 606.949 183.453 606.949 186.422H599.027C599.027 184.797 598.714 183.547 598.089 182.672C597.464 181.797 596.574 181.359 595.417 181.359C594.386 181.359 593.582 181.688 593.003 182.344C592.441 182.984 592.16 183.875 592.16 185.016C592.16 186.172 592.488 187.094 593.144 187.781C593.8 188.453 594.855 189.102 596.308 189.727C597.761 190.336 599.128 190.977 600.41 191.648C601.707 192.305 602.824 193.055 603.761 193.898C604.699 194.742 605.433 195.727 605.964 196.852C606.496 197.977 606.761 199.328 606.761 200.906C606.761 203.578 605.91 205.758 604.207 207.445C602.519 209.133 600.214 210.117 597.292 210.398V215.109H593.566V210.375C590.16 210.016 587.542 208.852 585.714 206.883C583.902 204.898 582.996 202.289 582.996 199.055H590.894C590.894 200.836 591.285 202.195 592.066 203.133C592.863 204.055 593.988 204.516 595.441 204.516C596.503 204.516 597.339 204.203 597.949 203.578C598.558 202.938 598.863 202.062 598.863 200.953ZM611.306 193.312L613.392 175.875H633.337V182.016H619.814L619.04 188.789C619.603 188.461 620.337 188.172 621.243 187.922C622.165 187.672 623.064 187.547 623.939 187.547C627.329 187.547 629.931 188.555 631.743 190.57C633.571 192.57 634.486 195.383 634.486 199.008C634.486 201.195 633.993 203.18 633.009 204.961C632.04 206.727 630.673 208.086 628.907 209.039C627.142 209.992 625.056 210.469 622.65 210.469C620.509 210.469 618.501 210.031 616.626 209.156C614.751 208.266 613.282 207.055 612.22 205.523C611.157 203.977 610.634 202.234 610.65 200.297H618.571C618.65 201.547 619.048 202.539 619.767 203.273C620.486 204.008 621.431 204.375 622.603 204.375C625.259 204.375 626.587 202.406 626.587 198.469C626.587 194.828 624.962 193.008 621.712 193.008C619.868 193.008 618.493 193.602 617.587 194.789L611.306 193.312ZM662.233 196.055C662.233 200.664 661.194 204.219 659.116 206.719C657.054 209.219 654.14 210.469 650.374 210.469C646.577 210.469 643.64 209.211 641.561 206.695C639.483 204.18 638.444 200.633 638.444 196.055V189.82C638.444 185.211 639.475 181.656 641.538 179.156C643.616 176.656 646.546 175.406 650.327 175.406C654.108 175.406 657.038 176.664 659.116 179.18C661.194 181.695 662.233 185.25 662.233 189.844V196.055ZM654.335 188.812C654.335 186.359 654.015 184.531 653.374 183.328C652.733 182.109 651.718 181.5 650.327 181.5C648.968 181.5 647.975 182.062 647.35 183.188C646.741 184.312 646.413 186.016 646.366 188.297V197.016C646.366 199.562 646.686 201.43 647.327 202.617C647.968 203.789 648.983 204.375 650.374 204.375C651.718 204.375 652.71 203.805 653.35 202.664C653.991 201.508 654.319 199.703 654.335 197.25V188.812ZM689.934 196.055C689.934 200.664 688.895 204.219 686.817 206.719C684.755 209.219 681.84 210.469 678.075 210.469C674.278 210.469 671.34 209.211 669.262 206.695C667.184 204.18 666.145 200.633 666.145 196.055V189.82C666.145 185.211 667.176 181.656 669.239 179.156C671.317 176.656 674.247 175.406 678.028 175.406C681.809 175.406 684.739 176.664 686.817 179.18C688.895 181.695 689.934 185.25 689.934 189.844V196.055ZM682.036 188.812C682.036 186.359 681.715 184.531 681.075 183.328C680.434 182.109 679.419 181.5 678.028 181.5C676.669 181.5 675.676 182.062 675.051 183.188C674.442 184.312 674.114 186.016 674.067 188.297V197.016C674.067 199.562 674.387 201.43 675.028 202.617C675.669 203.789 676.684 204.375 678.075 204.375C679.419 204.375 680.411 203.805 681.051 202.664C681.692 201.508 682.02 199.703 682.036 197.25V188.812Z" fill="black"/>
<path d="M224 28L225 212" stroke="black" stroke-width="3"/>
<rect x="449" y="168" width="114" height="48" rx="16" fill="#37A360"/>
<path d="M463.089 194.658V199H460.004V186.203H465.11C466.089 186.203 466.953 186.385 467.703 186.748C468.459 187.105 469.042 187.618 469.452 188.286C469.868 188.948 470.076 189.701 470.076 190.545C470.076 191.793 469.628 192.792 468.731 193.542C467.841 194.286 466.616 194.658 465.058 194.658H463.089ZM463.089 192.276H465.11C465.708 192.276 466.162 192.127 466.473 191.828C466.789 191.529 466.947 191.107 466.947 190.562C466.947 189.965 466.786 189.487 466.464 189.13C466.142 188.772 465.702 188.591 465.145 188.585H463.089V192.276ZM481.802 186.203V194.579C481.802 195.528 481.599 196.352 481.195 197.049C480.791 197.74 480.211 198.268 479.455 198.631C478.699 198.994 477.806 199.176 476.774 199.176C475.216 199.176 473.988 198.771 473.092 197.963C472.195 197.154 471.738 196.047 471.721 194.641V186.203H474.823V194.702C474.858 196.103 475.509 196.803 476.774 196.803C477.413 196.803 477.896 196.627 478.224 196.275C478.553 195.924 478.717 195.353 478.717 194.562V186.203H481.802ZM488.526 194.482H486.856V199H483.771V186.203H488.807C490.325 186.203 491.511 186.54 492.367 187.214C493.222 187.888 493.65 188.84 493.65 190.07C493.65 190.961 493.468 191.699 493.105 192.285C492.748 192.871 492.185 193.346 491.418 193.709L494.09 198.868V199H490.785L488.526 194.482ZM486.856 192.101H488.807C489.393 192.101 489.833 191.948 490.126 191.644C490.425 191.333 490.574 190.902 490.574 190.352C490.574 189.801 490.425 189.37 490.126 189.06C489.827 188.743 489.387 188.585 488.807 188.585H486.856V192.101ZM505.903 194.667C505.862 195.558 505.622 196.346 505.182 197.031C504.743 197.711 504.125 198.238 503.328 198.613C502.537 198.988 501.631 199.176 500.612 199.176C498.93 199.176 497.606 198.628 496.639 197.532C495.672 196.437 495.189 194.89 495.189 192.892V192.259C495.189 191.005 495.406 189.909 495.839 188.972C496.279 188.028 496.909 187.302 497.729 186.792C498.549 186.276 499.499 186.019 500.577 186.019C502.129 186.019 503.378 186.429 504.321 187.249C505.264 188.063 505.8 189.188 505.929 190.624H502.853C502.83 189.845 502.633 189.285 502.264 188.945C501.895 188.605 501.333 188.436 500.577 188.436C499.809 188.436 499.247 188.723 498.889 189.297C498.532 189.871 498.344 190.788 498.327 192.048V192.953C498.327 194.318 498.497 195.294 498.836 195.88C499.182 196.466 499.774 196.759 500.612 196.759C501.321 196.759 501.863 196.592 502.238 196.258C502.613 195.924 502.812 195.394 502.836 194.667H505.903ZM518.094 199H515.027V193.656H510.483V199H507.398V186.203H510.483V191.283H515.027V186.203H518.094V199ZM527.517 196.609H523.289L522.551 199H519.255L523.949 186.203H526.849L531.577 199H528.264L527.517 196.609ZM524.028 194.228H526.779L525.399 189.789L524.028 194.228ZM539.154 195.599C539.154 195.147 538.993 194.796 538.671 194.544C538.355 194.292 537.795 194.031 536.992 193.762C536.19 193.492 535.533 193.231 535.024 192.979C533.365 192.165 532.536 191.046 532.536 189.622C532.536 188.913 532.741 188.289 533.152 187.75C533.568 187.205 534.153 186.783 534.909 186.484C535.665 186.18 536.515 186.027 537.458 186.027C538.378 186.027 539.201 186.191 539.928 186.52C540.66 186.848 541.229 187.316 541.633 187.926C542.037 188.529 542.239 189.221 542.239 190H539.163C539.163 189.479 539.002 189.074 538.68 188.787C538.363 188.5 537.933 188.356 537.388 188.356C536.837 188.356 536.401 188.479 536.078 188.726C535.762 188.966 535.604 189.273 535.604 189.648C535.604 189.977 535.779 190.275 536.131 190.545C536.483 190.809 537.101 191.084 537.986 191.371C538.87 191.652 539.597 191.957 540.165 192.285C541.548 193.082 542.239 194.181 542.239 195.581C542.239 196.7 541.818 197.579 540.974 198.218C540.13 198.856 538.973 199.176 537.502 199.176C536.465 199.176 535.525 198.991 534.681 198.622C533.843 198.247 533.21 197.737 532.782 197.093C532.361 196.442 532.15 195.695 532.15 194.852H535.243C535.243 195.537 535.419 196.044 535.771 196.372C536.128 196.694 536.705 196.855 537.502 196.855C538.012 196.855 538.413 196.747 538.706 196.53C539.005 196.308 539.154 195.997 539.154 195.599ZM551.794 193.577H546.942V196.627H552.673V199H543.857V186.203H552.69V188.585H546.942V191.283H551.794V193.577Z" fill="white"/>
<path d="M124.28 218.266H120.698V19.3323H124.28V218.266Z" fill="#4760E9"/>
<path d="M141.244 218.266H140.464V19.3323H141.244V218.266Z" fill="#4760E9"/>
<path d="M130.215 218.266H129.437V19.3323H130.215V218.266Z" fill="#4760E9"/>
<path d="M142.922 218.266H142.144V19.3323H142.922V218.266Z" fill="#4760E9"/>
<path d="M152.197 47.7027V63.0766H149.58L133.458 46.5185V41.1038L149.58 24.5457H152.197V47.7027ZM148.446 66.8897H110.619V64.3259L127.034 47.7027H132.029L148.443 64.3259V66.8897H148.446ZM106.869 63.0766V24.5457H109.48L125.602 41.1038V46.5185L109.48 63.0766H106.869ZM110.619 20.7414H148.443V23.2993L132.029 39.9196H127.034L110.619 23.2993V20.7355V20.7414ZM133.453 18.8882H105.209V68.743H153.848V18.8793L133.453 18.8882Z" fill="#4760E9"/>
<path d="M152.197 97.5635V112.94H149.58L133.458 96.3823V90.9646L149.58 74.4065H152.197V97.5635ZM148.446 116.753H110.619V114.187L127.034 97.5635H132.029L148.441 114.187V116.751L148.446 116.753ZM106.869 112.94V74.4065H109.48L125.602 90.9646V96.3823L109.48 112.94H106.869ZM110.619 70.6052H148.443V73.169L132.029 89.7922H127.034L110.619 73.1572V70.5934V70.6052ZM133.453 68.7549H105.209V118.604H153.848V68.743L133.453 68.7549Z" fill="#4760E9"/>
<path d="M152.197 147.427V162.801H149.58L133.458 146.243V140.831L149.58 124.273H152.197V147.43V147.427ZM148.446 166.614H110.619V164.05L127.034 147.43H132.029L148.443 164.05V166.614H148.446ZM106.869 162.801V124.27H109.48L125.604 140.831V146.246L109.48 162.801H106.869ZM110.619 120.466H148.443V123.03L132.026 139.647H127.031L110.619 123.021V120.457V120.466ZM133.453 118.613H105.209V168.467H153.848V118.604L133.453 118.613Z" fill="#4760E9"/>
<path d="M153.549 33.2019H106.103V31.5736H153.549V33.2019Z" fill="#4760E9"/>
<path d="M153.848 16.6826H105.209V15.0543H153.848V16.6826Z" fill="#4760E9"/>
<path d="M153.848 13.3878H105.209V13H153.848V13.3878Z" fill="#4760E9"/>
<path d="M106.775 13H105.234V19.7263H106.775V13Z" fill="#4760E9"/>
<path d="M153.92 13H152.379V19.7263H153.92V13Z" fill="#4760E9"/>
<path d="M146.458 216.478H110.619V213.914L127.034 197.291H132.029L147.071 212.529L147.398 210.433L133.444 196.107V190.689L149.565 174.131H152.197V179.709L153.854 169.074V168.482H105.209V218.331H146.168L146.458 216.478ZM110.619 170.321H148.443V172.882L132.029 189.505H127.034L110.619 172.882V170.321ZM106.869 212.656V174.131H109.48L125.602 190.689V196.107L109.48 212.665L106.869 212.656Z" fill="#4760E9"/>
<path d="M95.4352 224.909H92.7242V37.8914H95.4352V224.909Z" fill="#B2B6BB"/>
<path d="M108.279 224.909H107.689V37.8914H108.279V224.909Z" fill="#B2B6BB"/>
<path d="M99.929 224.909H99.3424V37.8914H99.929V224.909Z" fill="#B2B6BB"/>
<path d="M109.549 224.909H108.959V37.8914H109.549V224.909Z" fill="#B2B6BB"/>
<path d="M116.566 59.3673V71.0051H114.572L102.37 58.4703V54.3848L114.572 41.8501H116.566V59.3792V59.3673ZM113.718 73.8916H85.0922V71.9524L97.5198 59.3703H101.299L113.726 71.9524V73.8916H113.718ZM82.2444 71.0051V41.8382H84.2379L96.4405 54.3848V58.4703L84.235 71.0051H82.2444ZM85.0922 38.9517H113.726V40.8909L101.299 53.476H97.5198L85.0922 40.8909V38.9517ZM102.378 37.5485H81.0028V75.2948H117.824V37.5485H102.378Z" fill="#B2B6BB"/>
<path d="M116.566 97.1138V108.754H114.572L102.37 96.2197V92.1194L114.572 79.5847H116.566V97.1138ZM113.718 111.641H85.0922V109.699L97.5198 97.1168H101.299L113.726 109.699V111.641H113.718ZM82.2444 108.754V79.5847H84.2379L96.4433 92.1194V96.2197L84.2379 108.754H82.2444ZM85.0922 76.6982H113.726V78.6373L101.299 91.2224H97.5198L85.0922 78.6373V76.6982ZM102.378 75.2949H81.0028V113.041H117.824V75.2949H102.378Z" fill="#B2B6BB"/>
<path d="M116.566 134.86V146.501H114.572L102.37 133.966V129.878L114.572 117.343H116.566V134.872V134.86ZM113.718 149.387H85.0922V147.445L97.5198 134.863H101.299L113.726 147.445V149.387H113.718ZM82.2444 146.501V117.331H84.2379L96.4405 129.878V133.978L84.235 146.513L82.2444 146.501ZM85.0922 114.445H113.726V116.384L101.299 128.969H97.5198L85.0922 116.384V114.445ZM102.378 113.041H81.0028V150.788H117.824V113.041H102.378Z" fill="#B2B6BB"/>
<path d="M116.566 172.607V184.247H114.572L102.37 171.712V167.612L114.572 155.077H116.566V172.607ZM113.718 187.134H85.0922V185.192L97.5198 172.609H101.299L113.726 185.192V187.134H113.718ZM82.2444 184.247V155.077H84.2379L96.4433 167.612V171.712L84.2379 184.247H82.2444ZM85.0922 152.191H113.726V154.133L101.299 166.715H97.5198L85.0922 154.133V152.191ZM102.378 150.788H81.0028V188.537H117.824V150.788H102.378Z" fill="#B2B6BB"/>
<path d="M116.566 210.356V221.994H114.572L102.37 209.459V205.37L114.572 192.833H116.566V210.365V210.356ZM113.718 224.88H85.0922V222.941L97.5198 210.356H101.299L113.726 222.941V224.88H113.718ZM82.2444 221.994V192.824H84.2379L96.4405 205.37V209.468L84.235 222.003L82.2444 221.994ZM85.0922 189.937H113.726V191.879L101.299 204.462H97.5198L85.0922 191.879V189.937ZM102.378 188.537H81.0028V226.283H117.824V188.537H102.378Z" fill="#B2B6BB"/>
<path d="M90.1157 41.5327H88.7601V39.6706H90.1157V41.5327ZM90.1157 44.0995H88.7601V42.2462H90.1157V44.1084V44.0995ZM90.1157 46.6633H88.7601V44.8041H90.1157V46.6633ZM90.1157 49.23H88.7601V47.3679H90.1157V49.23ZM90.1157 51.7968H88.7601V49.9435H90.1157V51.8057V51.7968ZM90.1157 54.3606H88.7601V52.5014H90.1157V54.3606ZM90.1157 56.9273H88.7601V55.0652H90.1157V56.9273ZM90.1157 59.4941H88.7601V57.6408H90.1157V59.503V59.4941ZM90.1157 62.0579H88.7601V60.1987H90.1157V62.0579ZM90.1157 64.6246H88.7601V62.7625H90.1157V64.6246ZM90.1157 67.1914H88.7601V65.3381H90.1157V67.2003V67.1914ZM90.1157 69.7552H88.7601V67.896H90.1157V69.7552ZM90.1157 72.3219H88.7601V70.4598H90.1157V72.3219ZM90.1157 74.8887H88.7601V73.0354H90.1157V74.8976V74.8887ZM90.1157 77.4525H88.7601V75.5933H90.1157V77.4525ZM90.1157 80.0193H88.7601V78.1571H90.1157V80.0193ZM90.1157 82.586H88.7601V80.7327H90.1157V82.5949V82.586ZM90.1157 85.1498H88.7601V83.2906H90.1157V85.1498ZM90.1157 87.7166H88.7601V85.8544H90.1157V87.7166ZM90.1157 90.2833H88.7601V88.43H90.1157V90.2922V90.2833ZM90.1157 92.8471H88.7601V90.9879H90.1157V92.8471ZM90.1157 95.4139H88.7601V93.5517H90.1157V95.4139ZM90.1157 97.9806H88.7601V96.1274H90.1157V97.9895V97.9806ZM90.1157 100.544H88.7601V98.6852H90.1157V100.544ZM90.1157 103.111H88.7601V101.249H90.1157V103.111ZM90.1157 105.678H88.7601V103.825H90.1157V105.687V105.678ZM90.1157 108.245H88.7601V106.383H90.1157V108.245ZM90.1157 110.808H88.7601V108.946H90.1157V110.808ZM90.1157 113.375H88.7601V111.522H90.1157V113.384V113.375ZM90.1157 115.939H88.7601V114.08H90.1157V115.939ZM90.1157 118.506H88.7601V116.644H90.1157V118.506ZM90.1157 121.073H88.7601V119.219H90.1157V121.081V121.073ZM90.1157 123.639H88.7601V121.777H90.1157V123.639ZM90.1157 126.203H88.7601V124.344H90.1157V126.203ZM90.1157 128.77H88.7601V126.917H90.1157V128.779V128.77ZM90.1157 131.337H88.7601V129.474H90.1157V131.337ZM90.1157 133.9H88.7601V132.038H90.1157V133.9ZM90.1157 136.467H88.7601V134.614H90.1157V136.476V136.467ZM90.1157 139.031H88.7601V137.172H90.1157V139.031ZM90.1157 141.598H88.7601V139.736H90.1157V141.598ZM90.1157 38.0364V38.966H88.7601V38.0364H88.0823V143.235H88.7601V142.311H90.1157V143.244H90.7934V38.0364H90.1157Z" fill="#B2B6BB"/>
<path d="M117.594 48.3895H81.6777V47.158H117.594V48.3895Z" fill="#B2B6BB"/>
<path d="M117.821 35.8844H81V34.6528H117.821V35.8844Z" fill="#B2B6BB"/>
<path d="M117.821 33.3887H81V33.0956H117.821V33.3887Z" fill="#B2B6BB"/>
<path d="M82.1875 33.0956H81.0199V38.1876H82.1875V33.0956Z" fill="#B2B6BB"/>
<path d="M117.876 33.0956H116.708V38.1876H117.876V33.0956Z" fill="#B2B6BB"/>
<path opacity="0.2" d="M83.6455 155.847C83.5886 155.852 83.5344 155.852 83.4775 155.847C83.3322 155.847 83.1927 155.847 83.0361 155.847C83.2383 155.884 83.4433 155.884 83.6455 155.847Z" fill="#F4F4F4"/>
<path opacity="0.2" d="M126.382 146.568L126.444 146.489C126.422 146.512 126.399 146.539 126.382 146.568Z" fill="#F4F4F4"/>
<path opacity="0.2" d="M82.4467 176.206C82.6147 176.135 82.7884 176.07 82.9621 176.017C82.8795 176.061 82.646 176.115 82.4467 176.206Z" fill="#F4F4F4"/>
<path opacity="0.2" d="M82.9108 155.885C82.9537 155.881 82.9937 155.881 83.0365 155.885C82.9937 155.879 82.9537 155.879 82.9108 155.885Z" fill="#F4F4F4"/>
<path opacity="0.2" d="M83.6455 155.847C83.5886 155.852 83.5344 155.852 83.4775 155.847C83.3322 155.847 83.1927 155.847 83.0361 155.847C83.2383 155.884 83.4433 155.884 83.6455 155.847Z" fill="black"/>
<path opacity="0.2" d="M126.382 146.568L126.444 146.489C126.422 146.512 126.399 146.539 126.382 146.568Z" fill="black"/>
<path opacity="0.2" d="M82.4467 176.206C82.6147 176.135 82.7884 176.07 82.9621 176.017C82.8795 176.061 82.646 176.115 82.4467 176.206Z" fill="black"/>
<path opacity="0.2" d="M82.9108 155.885C82.9537 155.881 82.9937 155.881 83.0365 155.885C82.9937 155.879 82.9537 155.879 82.9108 155.885Z" fill="black"/>
<path d="M126.382 146.569C126.311 146.647 126.242 146.729 126.183 146.815C126.242 146.847 126.296 146.693 126.382 146.569Z" fill="#F4F4F4"/>
</svg>
