<svg width="721" height="233" viewBox="0 0 721 233" fill="none" xmlns="http://www.w3.org/2000/svg">
<path d="M0 15.9998C0 7.16321 7.16344 -0.000244141 16 -0.000244141H705C713.837 -0.000244141 721 7.1632 721 15.9998V217C721 225.836 713.837 233 705 233H16C7.16345 233 0 225.836 0 217V15.9998Z" fill="#FFEECA"/>
<path d="M339.818 69.9529H335.365V81.9998H327.139V47.8748H340.568C344.615 47.8748 347.779 48.7732 350.06 50.5701C352.342 52.3669 353.482 54.906 353.482 58.1873C353.482 60.5623 352.998 62.531 352.029 64.0935C351.076 65.656 349.576 66.9216 347.529 67.8904L354.654 81.6482V81.9998H345.842L339.818 69.9529ZM335.365 63.6013H340.568C342.131 63.6013 343.303 63.1951 344.084 62.3826C344.881 61.5544 345.279 60.406 345.279 58.9373C345.279 57.4685 344.881 56.3201 344.084 55.4919C343.287 54.6482 342.115 54.2263 340.568 54.2263H335.365V63.6013ZM366.324 81.9998H358.402V56.6404H366.324V81.9998ZM357.933 50.1013C357.933 48.9763 358.339 48.0544 359.152 47.3357C359.964 46.6169 361.019 46.2576 362.316 46.2576C363.613 46.2576 364.668 46.6169 365.48 47.3357C366.293 48.0544 366.699 48.9763 366.699 50.1013C366.699 51.2263 366.293 52.1482 365.48 52.8669C364.668 53.5857 363.613 53.9451 362.316 53.9451C361.019 53.9451 359.964 53.5857 359.152 52.8669C358.339 52.1482 357.933 51.2263 357.933 50.1013ZM370.189 69.1326C370.189 66.5701 370.611 64.3044 371.454 62.3357C372.298 60.3669 373.509 58.8513 375.087 57.7888C376.665 56.7107 378.501 56.1716 380.595 56.1716C383.236 56.1716 385.298 57.0623 386.782 58.8435L387.064 56.6404H394.236V81.0388C394.236 83.2732 393.712 85.2107 392.665 86.8513C391.634 88.5076 390.134 89.7732 388.165 90.6482C386.197 91.5388 383.915 91.9841 381.322 91.9841C379.462 91.9841 377.657 91.6326 375.907 90.9294C374.173 90.2263 372.845 89.3123 371.923 88.1873L375.228 83.5466C376.697 85.281 378.634 86.1482 381.04 86.1482C384.54 86.1482 386.29 84.3513 386.29 80.7576V79.9607C384.775 81.6326 382.861 82.4685 380.548 82.4685C377.454 82.4685 374.954 81.2888 373.048 78.9294C371.142 76.5544 370.189 73.3826 370.189 69.4138V69.1326ZM378.111 69.6248C378.111 71.7029 378.501 73.3513 379.282 74.5701C380.064 75.7732 381.157 76.3748 382.564 76.3748C384.267 76.3748 385.509 75.8044 386.29 74.6638V63.9998C385.525 62.8435 384.298 62.2654 382.611 62.2654C381.204 62.2654 380.103 62.8982 379.306 64.1638C378.509 65.4138 378.111 67.2341 378.111 69.6248ZM406.35 59.3591C408.038 57.2341 410.194 56.1716 412.819 56.1716C415.616 56.1716 417.725 56.9998 419.147 58.656C420.569 60.3123 421.296 62.7576 421.327 65.9919V81.9998H413.405V66.1794C413.405 64.8357 413.132 63.8513 412.585 63.2263C412.038 62.5857 411.108 62.2654 409.796 62.2654C408.171 62.2654 407.022 62.781 406.35 63.8123V81.9998H398.452V45.9998H406.35V59.3591ZM434.825 50.3357V56.6404H438.997V62.1248H434.825V73.7263C434.825 74.6794 434.997 75.3435 435.34 75.7185C435.684 76.0935 436.364 76.281 437.38 76.281C438.161 76.281 438.817 76.2341 439.348 76.1404V81.7888C437.926 82.2419 436.442 82.4685 434.895 82.4685C432.176 82.4685 430.169 81.8279 428.872 80.5466C427.575 79.2654 426.926 77.3201 426.926 74.7107V62.1248H423.692V56.6404H426.926V50.3357H434.825ZM454.25 81.9998V47.8748H466.508C470.898 47.8748 474.234 48.6794 476.516 50.2888C478.812 51.8982 479.961 54.2341 479.961 57.2966C479.961 59.0623 479.555 60.5701 478.742 61.8201C477.93 63.0701 476.734 63.9919 475.156 64.5857C476.938 65.0544 478.305 65.9294 479.258 67.2107C480.211 68.4919 480.688 70.0544 480.688 71.8982C480.688 75.2419 479.625 77.7576 477.5 79.4451C475.391 81.1169 472.258 81.9685 468.102 81.9998H454.25ZM462.477 67.4919V75.6716H467.867C469.352 75.6716 470.492 75.3357 471.289 74.6638C472.086 73.9763 472.484 73.0154 472.484 71.781C472.484 68.9373 471.07 67.5076 468.242 67.4919H462.477ZM462.477 62.1013H466.766C468.562 62.0857 469.844 61.7576 470.609 61.1169C471.375 60.4763 471.758 59.531 471.758 58.281C471.758 56.8435 471.344 55.8123 470.516 55.1873C469.688 54.5466 468.352 54.2263 466.508 54.2263H462.477V62.1013ZM483.779 69.0857C483.779 66.5544 484.271 64.3044 485.256 62.3357C486.24 60.3513 487.654 58.8279 489.498 57.7654C491.341 56.7029 493.506 56.1716 495.99 56.1716C499.787 56.1716 502.779 57.3513 504.966 59.7107C507.154 62.0544 508.248 65.2498 508.248 69.2966V69.5779C508.248 73.531 507.146 76.6716 504.943 78.9998C502.756 81.3123 499.787 82.4685 496.037 82.4685C492.427 82.4685 489.529 81.3904 487.341 79.2341C485.154 77.0623 483.974 74.1248 483.802 70.4216L483.779 69.0857ZM491.677 69.5779C491.677 71.9216 492.045 73.6404 492.779 74.7341C493.513 75.8279 494.599 76.3748 496.037 76.3748C498.849 76.3748 500.287 74.2107 500.349 69.8826V69.0857C500.349 64.5388 498.896 62.2654 495.99 62.2654C493.349 62.2654 491.92 64.2263 491.701 68.1482L491.677 69.5779ZM510.636 69.0857C510.636 66.5544 511.128 64.3044 512.113 62.3357C513.097 60.3513 514.511 58.8279 516.355 57.7654C518.199 56.7029 520.363 56.1716 522.847 56.1716C526.644 56.1716 529.636 57.3513 531.824 59.7107C534.011 62.0544 535.105 65.2498 535.105 69.2966V69.5779C535.105 73.531 534.003 76.6716 531.8 78.9998C529.613 81.3123 526.644 82.4685 522.894 82.4685C519.285 82.4685 516.386 81.3904 514.199 79.2341C512.011 77.0623 510.831 74.1248 510.66 70.4216L510.636 69.0857ZM518.535 69.5779C518.535 71.9216 518.902 73.6404 519.636 74.7341C520.37 75.8279 521.456 76.3748 522.894 76.3748C525.706 76.3748 527.144 74.2107 527.206 69.8826V69.0857C527.206 64.5388 525.753 62.2654 522.847 62.2654C520.206 62.2654 518.777 64.2263 518.558 68.1482L518.535 69.5779ZM551.767 74.8748C551.767 74.2029 551.415 73.6638 550.712 73.2576C550.009 72.8513 548.673 72.4294 546.704 71.9919C544.735 71.5544 543.11 70.9841 541.829 70.281C540.548 69.5623 539.571 68.6951 538.9 67.6794C538.228 66.6638 537.892 65.4998 537.892 64.1873C537.892 61.8591 538.853 59.9451 540.775 58.4451C542.696 56.9294 545.212 56.1716 548.321 56.1716C551.665 56.1716 554.353 56.9294 556.384 58.4451C558.415 59.9607 559.431 61.9529 559.431 64.4216H551.509C551.509 62.3904 550.439 61.3748 548.298 61.3748C547.47 61.3748 546.775 61.6091 546.212 62.0779C545.65 62.531 545.368 63.1013 545.368 63.7888C545.368 64.4919 545.712 65.0623 546.4 65.4998C547.087 65.9373 548.181 66.2966 549.681 66.5779C551.196 66.8591 552.525 67.1951 553.665 67.5857C557.478 68.8982 559.384 71.2498 559.384 74.6404C559.384 76.9529 558.353 78.8357 556.29 80.2888C554.243 81.7419 551.587 82.4685 548.321 82.4685C546.15 82.4685 544.212 82.0779 542.509 81.2966C540.806 80.5154 539.478 79.4529 538.525 78.1091C537.571 76.7654 537.095 75.3513 537.095 73.8669H544.478C544.509 75.0388 544.9 75.8982 545.65 76.4451C546.4 76.9763 547.36 77.2419 548.532 77.2419C549.61 77.2419 550.415 77.0232 550.946 76.5857C551.493 76.1482 551.767 75.5779 551.767 74.8748ZM572.202 50.3357V56.6404H576.374V62.1248H572.202V73.7263C572.202 74.6794 572.374 75.3435 572.718 75.7185C573.061 76.0935 573.741 76.281 574.757 76.281C575.538 76.281 576.194 76.2341 576.725 76.1404V81.7888C575.303 82.2419 573.819 82.4685 572.272 82.4685C569.553 82.4685 567.546 81.8279 566.249 80.5466C564.952 79.2654 564.303 77.3201 564.303 74.7107V62.1248H561.069V56.6404H564.303V50.3357H572.202ZM591.676 82.4685C587.786 82.4685 584.637 81.3123 582.231 78.9998C579.825 76.6716 578.622 73.6482 578.622 69.9294V69.2732C578.622 66.6794 579.098 64.3904 580.051 62.406C581.02 60.4216 582.426 58.8904 584.27 57.8123C586.114 56.7185 588.301 56.1716 590.833 56.1716C594.395 56.1716 597.208 57.281 599.27 59.4998C601.333 61.7029 602.364 64.781 602.364 68.7341V71.8044H586.661C586.942 73.2263 587.559 74.3435 588.512 75.156C589.465 75.9685 590.7 76.3748 592.215 76.3748C594.715 76.3748 596.668 75.4998 598.075 73.7498L601.684 78.0154C600.7 79.3748 599.301 80.4607 597.489 81.2732C595.692 82.0701 593.754 82.4685 591.676 82.4685ZM590.786 62.2654C588.473 62.2654 587.098 63.7966 586.661 66.8591H594.629V66.2498C594.661 64.9841 594.34 64.0076 593.668 63.3201C592.997 62.6169 592.036 62.2654 590.786 62.2654ZM620.807 63.7888L618.205 63.6013C615.721 63.6013 614.127 64.3826 613.424 65.9451V81.9998H605.526V56.6404H612.932L613.19 59.8982C614.518 57.4138 616.369 56.1716 618.744 56.1716C619.588 56.1716 620.322 56.2654 620.947 56.4529L620.807 63.7888Z" fill="black"/>
<path d="M598.863 200.953C598.863 199.719 598.558 198.75 597.949 198.047C597.339 197.344 596.269 196.679 594.738 196.054C593.207 195.429 591.792 194.797 590.496 194.156C589.199 193.515 588.082 192.773 587.144 191.929C586.207 191.086 585.488 190.109 584.988 189C584.488 187.89 584.238 186.547 584.238 184.969C584.238 182.328 585.128 180.156 586.91 178.453C588.691 176.734 591.066 175.734 594.035 175.453V170.508H597.761V175.547C600.621 175.969 602.863 177.148 604.488 179.086C606.128 181.008 606.949 183.453 606.949 186.422H599.027C599.027 184.797 598.714 183.547 598.089 182.672C597.464 181.797 596.574 181.359 595.417 181.359C594.386 181.359 593.582 181.687 593.003 182.344C592.441 182.984 592.16 183.875 592.16 185.015C592.16 186.172 592.488 187.094 593.144 187.781C593.8 188.453 594.855 189.101 596.308 189.726C597.761 190.336 599.128 190.976 600.41 191.648C601.707 192.304 602.824 193.054 603.761 193.898C604.699 194.742 605.433 195.726 605.964 196.851C606.496 197.976 606.761 199.328 606.761 200.906C606.761 203.578 605.91 205.758 604.207 207.445C602.519 209.133 600.214 210.117 597.292 210.398V215.109H593.566V210.375C590.16 210.015 587.542 208.851 585.714 206.883C583.902 204.898 582.996 202.289 582.996 199.054H590.894C590.894 200.836 591.285 202.195 592.066 203.133C592.863 204.054 593.988 204.515 595.441 204.515C596.503 204.515 597.339 204.203 597.949 203.578C598.558 202.937 598.863 202.062 598.863 200.953ZM611.306 193.312L613.392 175.875H633.337V182.015H619.814L619.04 188.789C619.603 188.461 620.337 188.172 621.243 187.922C622.165 187.672 623.064 187.547 623.939 187.547C627.329 187.547 629.931 188.554 631.743 190.57C633.571 192.57 634.486 195.383 634.486 199.008C634.486 201.195 633.993 203.179 633.009 204.961C632.04 206.726 630.673 208.086 628.907 209.039C627.142 209.992 625.056 210.469 622.65 210.469C620.509 210.469 618.501 210.031 616.626 209.156C614.751 208.265 613.282 207.054 612.22 205.523C611.157 203.976 610.634 202.234 610.65 200.297H618.571C618.65 201.547 619.048 202.539 619.767 203.273C620.486 204.008 621.431 204.375 622.603 204.375C625.259 204.375 626.587 202.406 626.587 198.469C626.587 194.828 624.962 193.008 621.712 193.008C619.868 193.008 618.493 193.601 617.587 194.789L611.306 193.312ZM662.233 196.054C662.233 200.664 661.194 204.219 659.116 206.719C657.054 209.219 654.139 210.469 650.374 210.469C646.577 210.469 643.639 209.211 641.561 206.695C639.483 204.179 638.444 200.633 638.444 196.054V189.82C638.444 185.211 639.475 181.656 641.538 179.156C643.616 176.656 646.546 175.406 650.327 175.406C654.108 175.406 657.038 176.664 659.116 179.179C661.194 181.695 662.233 185.25 662.233 189.844V196.054ZM654.335 188.812C654.335 186.359 654.014 184.531 653.374 183.328C652.733 182.109 651.718 181.5 650.327 181.5C648.968 181.5 647.975 182.062 647.35 183.187C646.741 184.312 646.413 186.015 646.366 188.297V197.015C646.366 199.562 646.686 201.429 647.327 202.617C647.968 203.789 648.983 204.375 650.374 204.375C651.718 204.375 652.71 203.804 653.35 202.664C653.991 201.508 654.319 199.703 654.335 197.25V188.812ZM689.934 196.054C689.934 200.664 688.895 204.219 686.817 206.719C684.754 209.219 681.84 210.469 678.075 210.469C674.278 210.469 671.34 209.211 669.262 206.695C667.184 204.179 666.145 200.633 666.145 196.054V189.82C666.145 185.211 667.176 181.656 669.239 179.156C671.317 176.656 674.247 175.406 678.028 175.406C681.809 175.406 684.739 176.664 686.817 179.179C688.895 181.695 689.934 185.25 689.934 189.844V196.054ZM682.036 188.812C682.036 186.359 681.715 184.531 681.075 183.328C680.434 182.109 679.419 181.5 678.028 181.5C676.669 181.5 675.676 182.062 675.051 183.187C674.442 184.312 674.114 186.015 674.067 188.297V197.015C674.067 199.562 674.387 201.429 675.028 202.617C675.669 203.789 676.684 204.375 678.075 204.375C679.419 204.375 680.411 203.804 681.051 202.664C681.692 201.508 682.02 199.703 682.036 197.25V188.812Z" fill="black"/>
<path d="M224 27.9998L225 212" stroke="black" stroke-width="3"/>
<rect x="449" y="168" width="114" height="48" rx="16" fill="#37A360"/>
<path d="M463.089 194.658V199H460.004V186.203H465.11C466.089 186.203 466.953 186.385 467.703 186.748C468.459 187.105 469.042 187.618 469.452 188.286C469.868 188.948 470.076 189.701 470.076 190.545C470.076 191.793 469.628 192.792 468.731 193.542C467.841 194.286 466.616 194.658 465.058 194.658H463.089ZM463.089 192.276H465.11C465.708 192.276 466.162 192.127 466.473 191.828C466.789 191.529 466.947 191.107 466.947 190.562C466.947 189.965 466.786 189.487 466.464 189.13C466.142 188.772 465.702 188.591 465.145 188.585H463.089V192.276ZM481.802 186.203V194.579C481.802 195.528 481.599 196.351 481.195 197.049C480.791 197.74 480.211 198.267 479.455 198.631C478.699 198.994 477.806 199.176 476.774 199.176C475.216 199.176 473.988 198.771 473.092 197.963C472.195 197.154 471.738 196.047 471.721 194.64V186.203H474.823V194.702C474.858 196.102 475.509 196.802 476.774 196.802C477.413 196.802 477.896 196.627 478.224 196.275C478.553 195.924 478.717 195.352 478.717 194.561V186.203H481.802ZM488.526 194.482H486.856V199H483.771V186.203H488.807C490.325 186.203 491.511 186.54 492.367 187.214C493.222 187.887 493.65 188.84 493.65 190.07C493.65 190.961 493.468 191.699 493.105 192.285C492.748 192.871 492.185 193.345 491.418 193.709L494.09 198.868V199H490.785L488.526 194.482ZM486.856 192.1H488.807C489.393 192.1 489.833 191.948 490.126 191.643C490.425 191.333 490.574 190.902 490.574 190.351C490.574 189.801 490.425 189.37 490.126 189.059C489.827 188.743 489.387 188.585 488.807 188.585H486.856V192.1ZM505.903 194.667C505.862 195.557 505.622 196.345 505.182 197.031C504.743 197.711 504.125 198.238 503.328 198.613C502.537 198.988 501.631 199.176 500.612 199.176C498.93 199.176 497.606 198.628 496.639 197.532C495.672 196.436 495.189 194.889 495.189 192.891V192.259C495.189 191.005 495.406 189.909 495.839 188.971C496.279 188.028 496.909 187.302 497.729 186.792C498.549 186.276 499.499 186.018 500.577 186.018C502.129 186.018 503.378 186.428 504.321 187.249C505.264 188.063 505.8 189.188 505.929 190.624H502.853C502.83 189.844 502.633 189.285 502.264 188.945C501.895 188.605 501.333 188.435 500.577 188.435C499.809 188.435 499.247 188.722 498.889 189.297C498.532 189.871 498.344 190.788 498.327 192.048V192.953C498.327 194.318 498.497 195.294 498.836 195.88C499.182 196.466 499.774 196.759 500.612 196.759C501.321 196.759 501.863 196.592 502.238 196.258C502.613 195.924 502.812 195.393 502.836 194.667H505.903ZM518.094 199H515.027V193.656H510.483V199H507.398V186.203H510.483V191.283H515.027V186.203H518.094V199ZM527.517 196.609H523.289L522.551 199H519.255L523.949 186.203H526.849L531.577 199H528.264L527.517 196.609ZM524.028 194.227H526.779L525.399 189.789L524.028 194.227ZM539.154 195.598C539.154 195.147 538.993 194.796 538.671 194.544C538.355 194.292 537.795 194.031 536.992 193.761C536.19 193.492 535.533 193.231 535.024 192.979C533.365 192.165 532.536 191.046 532.536 189.622C532.536 188.913 532.741 188.289 533.152 187.75C533.568 187.205 534.153 186.783 534.909 186.484C535.665 186.179 536.515 186.027 537.458 186.027C538.378 186.027 539.201 186.191 539.928 186.519C540.66 186.847 541.229 187.316 541.633 187.926C542.037 188.529 542.239 189.22 542.239 190H539.163C539.163 189.478 539.002 189.074 538.68 188.787C538.363 188.5 537.933 188.356 537.388 188.356C536.837 188.356 536.401 188.479 536.078 188.725C535.762 188.966 535.604 189.273 535.604 189.648C535.604 189.976 535.779 190.275 536.131 190.545C536.483 190.808 537.101 191.084 537.986 191.371C538.87 191.652 539.597 191.957 540.165 192.285C541.548 193.082 542.239 194.18 542.239 195.581C542.239 196.7 541.818 197.579 540.974 198.218C540.13 198.856 538.973 199.176 537.502 199.176C536.465 199.176 535.525 198.991 534.681 198.622C533.843 198.247 533.21 197.737 532.782 197.093C532.361 196.442 532.15 195.695 532.15 194.851H535.243C535.243 195.537 535.419 196.044 535.771 196.372C536.128 196.694 536.705 196.855 537.502 196.855C538.012 196.855 538.413 196.747 538.706 196.53C539.005 196.307 539.154 195.997 539.154 195.598ZM551.794 193.577H546.942V196.627H552.673V199H543.857V186.203H552.69V188.585H546.942V191.283H551.794V193.577Z" fill="white"/>
<path opacity="0.2" d="M108.219 198.546C108.27 198.546 108.317 198.514 108.363 198.505L108.219 198.546Z" fill="#F4F4F4"/>
<path d="M120.549 161.695H105.455L102.733 173.196C99.8008 185.466 100.608 198.38 105.043 210.153C107.445 216.491 110.274 221.819 113.002 221.819C115.73 221.819 118.556 216.491 120.959 210.153C125.393 198.38 126.201 185.467 123.271 173.196L120.549 161.704V161.695Z" fill="#FB5521"/>
<path opacity="0.2" d="M120.548 161.766H105.454L102.732 173.258C99.7988 185.53 100.606 198.446 105.041 210.221C107.444 216.559 110.273 221.883 113.001 221.883C115.728 221.883 118.555 216.559 120.958 210.221C125.391 198.448 126.2 185.534 123.27 173.264L120.548 161.772V161.766Z" fill="black"/>
<path opacity="0.2" d="M119.11 161.695H106.891L104.686 171.001C102.314 180.935 102.967 191.389 106.557 200.92C108.502 206.054 110.797 210.364 113.002 210.364C115.206 210.364 117.499 206.054 119.446 200.92C123.035 191.389 123.688 180.935 121.314 171.001L119.11 161.695Z" fill="white"/>
<path opacity="0.2" d="M117.673 161.695H108.326L106.63 168.812C104.816 176.415 105.32 184.416 108.071 191.708C109.561 195.634 111.311 198.934 113.001 198.934C114.691 198.934 116.441 195.634 117.928 191.708C120.674 184.419 121.175 176.422 119.361 168.824L117.665 161.707L117.673 161.695Z" fill="white"/>
<path d="M116.238 161.695H109.765L108.598 166.626C107.341 171.888 107.686 177.427 109.587 182.476C110.619 185.194 111.831 187.471 113.001 187.471C114.172 187.471 115.384 185.188 116.413 182.476C118.316 177.427 118.663 171.888 117.405 166.626L116.238 161.695Z" fill="white"/>
<path d="M119.378 154.62V153.489H122.012L119.392 143.096H106.11L103.49 153.489H106.124V154.62H106.627L104.779 161.957H120.726L118.875 154.62H119.378Z" fill="#B2B6BB"/>
<path opacity="0.2" d="M111.867 154.276H106.175V153.489H111.867V154.276Z" fill="black"/>
<path opacity="0.2" d="M105.916 143.19L103.462 153.357H111.608V143.19H105.916Z" fill="black"/>
<path opacity="0.2" d="M106.602 154.62L104.649 162.01H111.888V154.62H106.602Z" fill="black"/>
<path d="M106.108 143.095H119.468V35.8925H118.245V33.9032H119.468V31.8169L114.01 17.4716H111.534L106.108 31.8493V33.9355H107.114V35.8925H106.108V143.095Z" fill="#B2B6BB"/>
<path d="M106.108 143.095H119.468V35.8925H118.245V33.9032H119.468V31.8169L114.01 17.4716H111.534L106.108 31.8493V33.9355H107.114V35.8925H106.108V143.095Z" fill="#B2B6BB"/>
<path opacity="0.2" d="M106.175 107.387H111.986V89.316H106.175V107.387Z" fill="black"/>
<path opacity="0.2" d="M106.175 124.836H111.986V107.611H106.175V124.836Z" fill="black"/>
<path opacity="0.2" d="M106.175 132.535H111.986V124.933H106.175V132.535Z" fill="black"/>
<path opacity="0.2" d="M106.175 137.133H111.986V131.712H106.175V137.133Z" fill="black"/>
<path opacity="0.2" d="M106.175 142.54H111.986V137.08H106.175V142.54Z" fill="black"/>
<path opacity="0.3" d="M118.499 151.793H106.794L106.834 151.631L108.988 143.06L109.231 143.127L107.117 151.531H118.185L116.306 143.124L116.549 143.066L118.499 151.793Z" fill="black"/>
<path opacity="0.2" d="M106.175 71.4242H111.986V53.7555H106.175V71.4242Z" fill="black"/>
<path opacity="0.2" d="M106.175 89.2718H111.986V71.7089H106.175V89.2718Z" fill="black"/>
<path opacity="0.2" d="M111.359 17.4716L106.175 31.864V33.9355H107.21V35.8925H106.175V53.6583H111.986V35.8925V33.9355V33.8209V31.864V17.4892L111.359 17.4716Z" fill="black"/>
<path opacity="0.3" d="M109.233 142.963H116.3V40.4559H109.233V142.963ZM116.551 143.224H108.982V40.1943H116.551V143.224Z" fill="black"/>
<path d="M119.426 125.456H106.108V124.933H119.426V125.456Z" fill="#61656D"/>
<path d="M119.737 133.243H105.8V131.665H119.737V133.243Z" fill="#61656D"/>
<path d="M119.737 138.658H105.8V137.08H119.737V138.658Z" fill="#61656D"/>
<path d="M119.737 144.074H105.8V142.496H119.737V144.074Z" fill="#61656D"/>
<path d="M119.426 107.591H106.108V107.071H119.426V107.591Z" fill="#61656D"/>
<path d="M122.077 153.75H103.425V153.227H122.077V153.75Z" fill="#61656D"/>
<path opacity="0.3" d="M117.795 160.359H107.603L108.988 154.588L109.231 154.652L107.925 160.097H117.478L116.303 154.649L116.548 154.59L117.795 160.359Z" fill="black"/>
<path opacity="0.3" d="M112.572 150.318H116.879V147.794H112.572V150.318ZM117.131 150.577H112.326V147.532H117.131V150.571V150.577Z" fill="black"/>
<path opacity="0.3" d="M117.004 149.936H112.448V149.674H117.004V149.936Z" fill="black"/>
<path d="M119.466 53.4852H106.108V54.0259H119.466V53.4852Z" fill="#61656D"/>
<path d="M119.466 71.3331H106.108V71.8738H119.466V71.3331Z" fill="#61656D"/>
<path d="M119.466 89.1782H106.108V89.7189H119.466V89.1782Z" fill="#61656D"/>
<path d="M118.245 33.9038H119.468V31.8176L119.415 31.6765H106.175L106.108 31.8499V33.9362H107.114L118.245 33.9038Z" fill="#61656D"/>
<path d="M119.466 37.6233H106.108V41.6783H119.466V37.6233Z" fill="#61656D"/>
<path d="M106.37 36.2719H105.867V35.6783H119.666V36.2719H119.163H106.37Z" fill="#61656D"/>
<path d="M119.477 154.167H105.952V154.708H119.477V154.167Z" fill="#61656D"/>
<path d="M120.853 162.133H104.651V161.61H120.853V162.133Z" fill="#61656D"/>
<path d="M106.071 54.5044H104.392V43.0063H106.071V54.5044Z" fill="#868A91"/>
</svg>
