<svg width="721" height="233" viewBox="0 0 721 233" fill="none" xmlns="http://www.w3.org/2000/svg">
<path d="M0 16C0 7.16345 7.16344 0 16 0H705C713.837 0 721 7.16344 721 16V217C721 225.837 713.837 233 705 233H16C7.16345 233 0 225.837 0 217V16Z" fill="#FFEECA"/>
<rect x="441" y="170" width="114" height="48" rx="16" fill="#37A360"/>
<path d="M455.089 196.658V201H452.004V188.203H457.11C458.089 188.203 458.953 188.385 459.703 188.748C460.459 189.105 461.042 189.618 461.452 190.286C461.868 190.948 462.076 191.701 462.076 192.545C462.076 193.793 461.628 194.792 460.731 195.542C459.841 196.286 458.616 196.658 457.058 196.658H455.089ZM455.089 194.276H457.11C457.708 194.276 458.162 194.127 458.473 193.828C458.789 193.529 458.947 193.107 458.947 192.562C458.947 191.965 458.786 191.487 458.464 191.13C458.142 190.772 457.702 190.591 457.145 190.585H455.089V194.276ZM473.802 188.203V196.579C473.802 197.528 473.599 198.352 473.195 199.049C472.791 199.74 472.211 200.268 471.455 200.631C470.699 200.994 469.806 201.176 468.774 201.176C467.216 201.176 465.988 200.771 465.092 199.963C464.195 199.154 463.738 198.047 463.721 196.641V188.203H466.823V196.702C466.858 198.103 467.509 198.803 468.774 198.803C469.413 198.803 469.896 198.627 470.224 198.275C470.553 197.924 470.717 197.353 470.717 196.562V188.203H473.802ZM480.526 196.482H478.856V201H475.771V188.203H480.807C482.325 188.203 483.511 188.54 484.367 189.214C485.222 189.888 485.65 190.84 485.65 192.07C485.65 192.961 485.468 193.699 485.105 194.285C484.748 194.871 484.185 195.346 483.418 195.709L486.09 200.868V201H482.785L480.526 196.482ZM478.856 194.101H480.807C481.393 194.101 481.833 193.948 482.126 193.644C482.425 193.333 482.574 192.902 482.574 192.352C482.574 191.801 482.425 191.37 482.126 191.06C481.827 190.743 481.387 190.585 480.807 190.585H478.856V194.101ZM497.903 196.667C497.862 197.558 497.622 198.346 497.182 199.031C496.743 199.711 496.125 200.238 495.328 200.613C494.537 200.988 493.631 201.176 492.612 201.176C490.93 201.176 489.606 200.628 488.639 199.532C487.672 198.437 487.189 196.89 487.189 194.892V194.259C487.189 193.005 487.406 191.909 487.839 190.972C488.279 190.028 488.909 189.302 489.729 188.792C490.549 188.276 491.499 188.019 492.577 188.019C494.129 188.019 495.378 188.429 496.321 189.249C497.264 190.063 497.8 191.188 497.929 192.624H494.853C494.83 191.845 494.633 191.285 494.264 190.945C493.895 190.605 493.333 190.436 492.577 190.436C491.809 190.436 491.247 190.723 490.889 191.297C490.532 191.871 490.344 192.788 490.327 194.048V194.953C490.327 196.318 490.497 197.294 490.836 197.88C491.182 198.466 491.774 198.759 492.612 198.759C493.321 198.759 493.863 198.592 494.238 198.258C494.613 197.924 494.812 197.394 494.836 196.667H497.903ZM510.094 201H507.027V195.656H502.483V201H499.398V188.203H502.483V193.283H507.027V188.203H510.094V201ZM519.517 198.609H515.289L514.551 201H511.255L515.949 188.203H518.849L523.577 201H520.264L519.517 198.609ZM516.028 196.228H518.779L517.399 191.789L516.028 196.228ZM531.154 197.599C531.154 197.147 530.993 196.796 530.671 196.544C530.355 196.292 529.795 196.031 528.992 195.762C528.19 195.492 527.533 195.231 527.024 194.979C525.365 194.165 524.536 193.046 524.536 191.622C524.536 190.913 524.741 190.289 525.152 189.75C525.568 189.205 526.153 188.783 526.909 188.484C527.665 188.18 528.515 188.027 529.458 188.027C530.378 188.027 531.201 188.191 531.928 188.52C532.66 188.848 533.229 189.316 533.633 189.926C534.037 190.529 534.239 191.221 534.239 192H531.163C531.163 191.479 531.002 191.074 530.68 190.787C530.363 190.5 529.933 190.356 529.388 190.356C528.837 190.356 528.401 190.479 528.078 190.726C527.762 190.966 527.604 191.273 527.604 191.648C527.604 191.977 527.779 192.275 528.131 192.545C528.483 192.809 529.101 193.084 529.986 193.371C530.87 193.652 531.597 193.957 532.165 194.285C533.548 195.082 534.239 196.181 534.239 197.581C534.239 198.7 533.818 199.579 532.974 200.218C532.13 200.856 530.973 201.176 529.502 201.176C528.465 201.176 527.525 200.991 526.681 200.622C525.843 200.247 525.21 199.737 524.782 199.093C524.361 198.442 524.15 197.695 524.15 196.852H527.243C527.243 197.537 527.419 198.044 527.771 198.372C528.128 198.694 528.705 198.855 529.502 198.855C530.012 198.855 530.413 198.747 530.706 198.53C531.005 198.308 531.154 197.997 531.154 197.599ZM543.794 195.577H538.942V198.627H544.673V201H535.857V188.203H544.69V190.585H538.942V193.283H543.794V195.577Z" fill="white"/>
<path d="M225 23L226 207" stroke="black" stroke-width="3"/>
<path d="M180.244 186.214L178.726 165.869C178.578 163.884 177.771 162.014 176.444 160.578L147.97 129.997C147.324 129.308 146.887 128.436 146.715 127.49C145.876 122.983 142.915 107.167 139.874 92.763C135.017 69.7626 133.271 65.8484 132.433 65.1831V64.817C132.433 36.3037 123.038 15 114.639 15C106.241 15 96.8454 36.3037 96.8454 64.817V65.1831C95.9822 65.8484 94.2361 69.7574 89.3796 92.763C86.3437 107.167 83.3772 122.983 82.5438 127.49C82.3677 128.436 81.9302 129.307 81.2838 129.997L52.8098 160.578C51.4808 162.014 50.6712 163.883 50.518 165.869L49 186.203L92.5941 201.824C92.5941 203.846 92.6754 205.958 92.8372 208.162C92.8372 210.297 95.8136 210.74 97.2472 210.854C97.2075 211.045 97.1579 211.236 97.1232 211.432C97.0815 211.664 97.0914 211.904 97.1524 212.132C97.2135 212.36 97.3241 212.57 97.4754 212.747C98.904 214.649 104.495 216.279 108.225 216.387C109.817 217.202 112.342 217.615 114.674 217.718C116.961 217.615 119.481 217.202 121.068 216.387C124.799 216.279 130.379 214.649 131.808 212.747C131.96 212.572 132.071 212.364 132.132 212.138C132.193 211.911 132.203 211.673 132.16 211.442C132.125 211.236 132.076 211.045 132.031 210.838C133.519 210.694 136.307 210.235 136.307 208.193C136.46 205.996 136.54 203.889 136.55 201.87L180.283 186.203L180.244 186.214Z" fill="#DADDDF"/>
<path opacity="0.2" d="M110.695 20.3122C105.63 23.6333 104.32 44.1429 103.69 49.4856H106.88C106.061 52.9923 106.577 58.9539 109.549 58.9539H111.677V168.799C106.394 170.532 102.018 173.162 98.541 177.72V63.3373C99.0024 41.8531 104.598 23.2878 110.695 20.3122Z" fill="black"/>
<path opacity="0.2" d="M97.1118 79.2314V179.639L95.9014 182.661C95.3002 184.129 94.8577 185.661 94.5819 187.23C94.1751 189.669 93.441 191.732 93.2971 195.316C93.1532 198.9 92.93 199.514 92.93 199.514L56.0923 188.071V182.372H54.6041V177.885L56.3552 170.33C56.698 168.858 57.4099 167.505 58.4189 166.411L83.4502 139.264C84.6964 137.925 85.5555 136.249 85.9306 134.427L97.1118 79.2469V79.2314Z" fill="black"/>
<path opacity="0.2" d="M113.246 169.531C113.246 169.531 112.412 178.112 112.194 186.008C111.976 193.903 111.534 202.773 111.534 202.773L97.5553 201.86V210.323L94.326 209.565C94.326 209.565 92.8675 192.031 97.2626 182.047C102.07 171.135 113.246 169.531 113.246 169.531Z" fill="black"/>
<path d="M110.701 44.0557L109.634 40.7449L108.35 40.6263L106.003 43.1996L107.928 46.1237L110.701 44.0557Z" fill="#61656D"/>
<path d="M107.57 46.4228L106.072 44.1434L104.242 45.4688L103.691 49.4861H106.886L107.57 46.4228Z" fill="#61656D"/>
<path d="M114.614 44.6174H117.942L119.679 39.2179L114.614 38.2742L109.549 39.2179L111.285 44.6174H114.614Z" fill="#61656D"/>
<path d="M118.534 44.0557L121.302 46.1237L123.227 43.1996L120.881 40.6263L119.596 40.7449L118.534 44.0557Z" fill="#61656D"/>
<path d="M121.658 46.4228L122.348 49.4861H125.537L124.987 45.4688L123.156 44.1434L121.658 46.4228Z" fill="#61656D"/>
<path opacity="0.3" d="M109.549 58.9539H113.805V54.5292H109.549V58.9539Z" fill="black"/>
<path opacity="0.3" d="M115.422 58.9539H119.679V54.5292H115.422V58.9539Z" fill="black"/>
<path opacity="0.3" d="M130.244 157.896H114.832V135.051H130.244V157.896ZM98.9924 135.051H114.405V157.896H98.9825V135.051H98.9924ZM98.9924 111.741H114.405V134.592H98.9825V111.72L98.9924 111.741ZM98.9924 88.4362H114.405V111.287H98.9825V88.4362H98.9924ZM98.9924 65.1315H114.405V87.9978H98.9825V65.1522L98.9924 65.1315ZM130.244 87.9772H114.832V65.1315H130.244V87.9978V87.9772ZM114.832 111.287V88.4362H130.244V111.287H114.832ZM130.244 111.741V134.592H114.832V111.72L130.244 111.741ZM130.686 134.819V64.6829H98.541V158.355H130.686V134.819Z" fill="black"/>
<path d="M121.052 216.713C121.253 216.452 121.364 216.129 121.369 215.795C121.464 211.819 120.318 205.996 118.889 203.093L128.627 202.521C130.418 204.583 131.886 208.993 132.506 212.319C132.506 212.386 132.556 212.551 132.337 212.835C131.41 214.072 127.258 216.295 121.057 216.728L121.052 216.713Z" fill="#F8BF1A"/>
<path opacity="0.2" d="M121.95 216.713C128.151 216.28 131.375 214.057 132.318 212.819C132.536 212.536 132.501 212.371 132.487 212.304C132.472 212.237 132.452 212.133 132.437 212.051C123.939 216.842 123.587 212.485 123.587 212.485C123.198 209.287 122.345 206.169 121.057 203.238L120.601 202.99L119.782 203.093C121.216 205.976 122.362 211.819 122.263 215.795C122.259 216.129 122.149 216.451 121.95 216.713Z" fill="black"/>
<path d="M107.982 216.713C107.778 216.454 107.664 216.13 107.66 215.795C107.57 211.819 108.711 205.996 110.14 203.093L100.402 202.521C98.6109 204.583 97.1425 208.993 96.5274 212.319C96.5274 212.386 96.4733 212.551 96.6916 212.835C97.6193 214.072 101.771 216.295 107.977 216.728L107.982 216.713Z" fill="#F8BF1A"/>
<path opacity="0.2" d="M100.323 213.433C97.5796 211.061 102.307 203.335 102.307 203.335L102.625 202.649L100.392 202.521C98.6015 204.583 97.1332 208.993 96.518 212.319C96.518 212.386 96.4634 212.551 96.6817 212.835C97.6094 214.072 100.764 215.821 107.154 216.769C107 216.592 106.874 216.39 106.782 216.171L106.593 216.099C101.935 215.408 100.323 213.433 100.323 213.433Z" fill="black"/>
<path d="M107.52 216.084C107.425 211.892 108.601 205.899 110.099 202.949L111.334 203.016C111.3 205.156 111.28 207.188 111.28 209.04C111.28 211.402 112.153 214.161 114.613 214.161C117.074 214.161 117.952 211.402 117.952 209.04C117.952 207.188 117.927 205.151 117.892 203.011L119.123 202.944C120.611 205.899 121.806 211.886 121.712 216.095C121.712 217.224 118.334 217.771 114.633 217.946C110.893 217.771 107.515 217.224 107.52 216.084Z" fill="#F8BF1A"/>
<path opacity="0.2" d="M107.52 216.084C107.425 211.892 108.601 205.899 110.099 202.949L111.334 203.016C111.3 205.156 111.28 207.188 111.28 209.04C111.28 211.402 112.153 214.161 114.613 214.161C117.074 214.161 117.952 211.402 117.952 209.04C117.952 207.188 117.927 205.151 117.892 203.011L119.123 202.944C120.611 205.899 121.806 211.886 121.712 216.095C121.712 217.224 118.334 217.771 114.633 217.946C110.893 217.771 107.515 217.224 107.52 216.084Z" fill="black"/>
<path opacity="0.2" d="M114.614 162.399V214.16L112.63 213.314C112.025 200.752 113.156 182.166 114.614 162.399Z" fill="black"/>
<path opacity="0.3" d="M57.5715 177.73L57.135 177.679L57.6906 172.388C57.9203 170.235 58.8147 168.217 60.2403 166.637L85.242 139.016C86.2336 137.916 86.9192 136.555 87.2262 135.082L97.0384 87.8895L97.47 87.9875L87.6578 135.18C87.3279 136.726 86.6032 138.151 85.5595 139.305L60.5578 166.937C59.1986 168.445 58.3444 170.37 58.1222 172.424L57.5715 177.73Z" fill="black"/>
<path opacity="0.3" d="M171.78 177.731L171.225 172.44C171.006 170.386 170.153 168.461 168.794 166.953L143.777 139.327C142.732 138.174 142.007 136.748 141.679 135.201L131.872 87.9989L132.304 87.9009L142.116 135.093C142.42 136.568 143.106 137.928 144.1 139.028L169.102 166.654C170.527 168.234 171.422 170.251 171.651 172.404L172.207 177.695L171.77 177.747L171.78 177.731Z" fill="black"/>
<path opacity="0.3" d="M142.353 109.705H132.095V109.432H142.353V109.705Z" fill="black"/>
<path opacity="0.3" d="M97.2571 109.705H87.0034V109.432H97.2571V109.705Z" fill="black"/>
<path d="M131.842 167.149H124.059V152.317H127.194V61.6H132.299V61.8733H127.462V152.591H124.322V166.876H131.842V167.149Z" fill="#3F4249"/>
<path opacity="0.3" d="M128.147 165.87H130.553V161.92H128.147V165.87ZM130.815 166.143H127.904V161.646H130.835V166.143H130.815Z" fill="black"/>
<path d="M105.04 167.149H97.2572V166.876H104.777V152.591H101.637V61.8733H96.8008V61.6H101.905V152.317H105.04V167.149Z" fill="#3F4249"/>
<path opacity="0.3" d="M98.546 165.87H100.952V161.92H98.546V165.87ZM101.215 166.143H98.2831V161.646H101.215V166.143Z" fill="black"/>
<path opacity="0.3" d="M134.485 175.622H138.623V169.665H134.485V175.622ZM138.89 175.895H134.222V169.392H138.89V175.895Z" fill="black"/>
<path opacity="0.3" d="M90.7531 175.622H94.8903V169.665H90.7531V175.622ZM95.1532 175.895H90.4852V169.392H95.1631V175.895H95.1532Z" fill="black"/>
<path opacity="0.3" d="M92.8029 195.162L56.8928 185.653L56.9722 182.228L57.4137 182.239L57.3443 185.297L92.912 194.719L92.8029 195.162Z" fill="black"/>
<path opacity="0.3" d="M135.989 195.162L135.885 194.719L172.291 185.297L172.222 182.239L172.658 182.228L172.738 185.653L135.989 195.162Z" fill="black"/>
<path opacity="0.3" d="M124.064 32.7613L123.127 28.9193H105.913L105.035 32.7613L104.782 32.6942L105.705 28.6408H123.33L124.317 32.6942L124.064 32.7613Z" fill="black"/>
<path opacity="0.3" d="M101.215 49.6248H97.8662V49.3515H100.952V42.2244L102.172 40.9558V32.7303H102.44V41.0692L101.215 42.3379V49.6248Z" fill="black"/>
<path opacity="0.3" d="M131.202 49.6248H127.854V42.3379L126.629 41.0692V32.7303H126.896V40.9558L128.122 42.2244V49.3515H131.202V49.6248Z" fill="black"/>
<path opacity="0.3" d="M107.382 42.0703H107.119V36.6812L114.55 34.8195L114.58 34.8247L121.793 36.6864V41.7712H121.53V36.8978L114.55 35.1032L107.382 36.8978V42.0703Z" fill="black"/>
<path opacity="0.3" d="M104.375 202.382C103.825 189.959 105.01 181.852 108.23 176.081L108.463 176.215C105.268 181.919 104.087 189.979 104.638 202.346H104.375V202.382Z" fill="black"/>
<path opacity="0.3" d="M97.2908 202.382C96.5765 189.953 98.1142 181.841 102.276 176.081L102.49 176.246C99.7116 180.083 96.6459 186.519 97.5537 202.361H97.2908V202.382Z" fill="black"/>
<path opacity="0.3" d="M124.723 202.381H124.46C125.011 190.004 123.83 181.954 120.641 176.25L120.869 176.116C124.088 181.866 125.274 189.968 124.723 202.417V202.381Z" fill="black"/>
<path opacity="0.3" d="M131.807 202.381H131.545C132.254 190.004 130.731 181.965 126.584 176.266L126.797 176.101C130.959 181.856 132.497 189.968 131.758 202.402L131.807 202.381Z" fill="black"/>
<path d="M124.963 25.2584C121.853 18.776 118.147 15.0114 114.615 15.0114C111.083 15.0114 107.377 18.776 104.267 25.2584H109.277L110.984 26.8055V27.8369H118.246V26.8055L119.953 25.2584H124.963Z" fill="#3F4249"/>
<path d="M126.995 33.3343H128.081C127.982 33.0248 127.888 32.7206 127.788 32.4163H120.486V30.3999H108.745V32.4163H101.438C101.338 32.7154 101.249 33.0248 101.155 33.3343H126.995Z" fill="#3F4249"/>
<path d="M178.726 165.87C178.578 163.884 177.771 162.014 176.444 160.578L147.97 129.997C147.324 129.308 146.887 128.437 146.715 127.491C145.876 122.984 142.915 107.167 139.874 92.7634C135.017 69.763 133.271 65.8489 132.433 65.1836H131.555V178.726C128.202 173.156 123.122 169.65 116.336 168.139C115.641 161.842 115.046 161.832 114.639 161.832C114.232 161.832 113.647 161.832 112.948 168.103C106.166 169.577 101.102 173.022 97.7234 178.494V65.132H96.8454V65.1939C95.9822 65.8592 94.2361 69.7682 89.3796 92.7737C86.3437 107.177 83.3772 122.994 82.5438 127.501C82.3677 128.446 81.9302 129.318 81.2838 130.008L52.8098 160.589C51.4828 162.022 50.6732 163.887 50.518 165.87L49 186.204L92.5941 201.824C92.5941 203.846 92.6754 205.959 92.8372 208.162C92.8372 210.297 95.8135 210.741 97.2472 210.854C97.2472 210.854 98.3633 205.868 100.72 202.763L101.935 202.825L108.805 203.17L109.773 203.217L111.102 203.284C111.063 205.507 111.043 207.616 111.043 209.534C111.043 211.984 111.98 214.846 114.629 214.846C117.278 214.846 118.216 211.984 118.216 209.534C118.216 207.611 118.216 205.501 118.156 203.279H118.623L119.461 203.237L120.453 203.191L127.319 202.846L128.455 202.789C128.455 202.789 130.806 204.965 132.001 210.865C133.49 210.72 136.277 210.261 136.277 208.219C136.43 206.022 136.511 203.915 136.521 201.897L180.254 186.23L178.726 165.87ZM177.356 178.437H178.78L179.028 181.738H177.356V178.437ZM176.915 178.437V181.738H173.859V178.437H176.915ZM132.408 71.8052L141.794 113.881L140.39 117.574L140.415 117.708C141.685 124.232 142.692 129.616 143.178 132.246C143.386 133.365 143.902 134.398 144.666 135.216L173.14 165.797C174.321 167.08 175.04 168.747 175.179 170.516L175.675 177.53H132.408V71.8052ZM173.418 178.448V181.748H170.357V178.448H173.418ZM169.916 178.448V181.748H166.855V178.448H169.916ZM166.418 178.448V181.748H163.358V178.448H166.418ZM162.916 178.448V181.748H159.86V178.448H162.916ZM155.917 178.448V181.748H152.856V178.448H155.917ZM152.419 178.448V181.748H149.359V178.448H152.419ZM148.917 178.448V181.748H145.856V178.448H148.917ZM145.42 178.448V181.748H142.359V178.448H145.42ZM141.918 178.448V181.748H138.857V178.448H141.918ZM138.445 178.448V181.748H135.345V178.448H138.445ZM132.433 180.185V178.448H134.943V181.748H133.127C132.889 181.232 132.631 180.717 132.373 180.201L132.433 180.185ZM127.686 175.028C126.361 175.333 122.998 175.921 117.01 175.952C116.812 173.141 116.623 170.882 116.44 169.077C120.999 170.16 124.744 172.125 127.661 175.049L127.686 175.028ZM112.843 169.046C112.66 170.856 112.466 173.12 112.273 175.952C106.186 175.952 102.788 175.333 101.449 175.028C104.376 172.094 108.166 170.119 112.819 169.067L112.843 169.046ZM54.0599 170.511C54.1913 168.738 54.9121 167.068 56.0987 165.787L84.5727 135.206C85.3352 134.386 85.8521 133.354 86.0609 132.235C86.557 129.657 87.5491 124.299 88.824 117.698V117.564L87.4201 113.871L96.7958 71.7949V177.514H53.5737L54.0599 170.511ZM96.8206 178.437V180.02C96.5279 180.577 96.2501 181.145 95.9872 181.738H94.3105V178.437H96.8206ZM93.8442 178.437V181.738H90.7884V178.437H93.8442ZM90.3717 178.437V181.738H87.311V178.437H90.3717ZM86.8695 178.437V181.738H83.8138V178.437H86.8695ZM83.3971 178.437V181.738H80.3364V178.437H83.3971ZM79.8949 178.437V181.738H76.8093V178.437H79.8949ZM76.4224 178.437V181.738H73.3369V178.437H76.4224ZM69.423 178.437V181.738H66.3622V178.437H69.423ZM65.9208 178.437V181.738H62.86V178.437H65.9208ZM62.4235 178.437V181.738H59.3628V178.437H62.4235ZM58.9213 178.437V181.738H55.8655V178.437H58.9213ZM52.3633 178.437H55.424V181.738H52.3633V178.437ZM50.4981 178.437H51.9218V181.738H50.2501L50.4981 178.437ZM71.5709 191.907L50.8206 185.874L49.9673 185.569L50.1757 182.723L71.5709 184.038V191.907ZM72.9202 181.738H69.8148V178.437H72.8706L72.9202 181.738ZM92.6983 198.055L73.1434 192.382V184.131L94.6131 185.466C93.4384 189.56 92.7781 193.795 92.6487 198.065L92.6983 198.055ZM111.152 202.366L97.2621 201.665V209.916C95.5655 209.735 93.7648 209.276 93.7648 208.116C93.4831 204.322 93.4433 200.513 93.6457 196.714C95.1637 197.229 100.179 198.586 111.256 198.606C111.157 199.906 111.127 201.154 111.102 202.376L111.152 202.366ZM111.266 197.725C99.6878 197.725 94.7569 196.177 93.6904 195.796C93.8377 193.676 94.1111 191.568 94.5089 189.484C95.9971 190.102 100.601 191.51 111.474 191.515C111.345 193.594 111.276 195.677 111.216 197.714L111.266 197.725ZM111.514 190.598C100.338 190.598 95.878 189.076 94.7024 188.571C95.1483 186.469 95.7863 184.415 96.6073 182.439C98.0954 182.955 102.367 184.105 111.807 184.131C111.648 186.245 111.534 188.416 111.464 190.587L111.514 190.598ZM96.9843 181.599C97.2075 181.119 97.4406 180.65 97.6887 180.196H97.7482V180.077C98.5781 178.542 99.5772 177.112 100.725 175.817C101.583 176.06 105.025 176.849 112.208 176.9C112.149 177.772 112.094 178.685 112.03 179.659C111.96 180.821 111.894 182.006 111.831 183.213C102.605 183.182 98.3832 182.088 96.9346 181.588L96.9843 181.599ZM114.664 213.949C112.089 213.949 111.955 210.282 111.955 209.55C111.955 193.135 113.369 166.746 114.664 163.059C115.959 166.746 117.372 193.135 117.372 209.55C117.323 210.272 117.189 213.938 114.614 213.938L114.664 213.949ZM117.273 179.659C117.214 178.685 117.154 177.772 117.095 176.9C124.178 176.859 127.581 176.06 128.44 175.817C129.969 177.536 131.238 179.485 132.205 181.599C130.756 182.114 126.57 183.182 117.472 183.213C117.376 181.999 117.293 180.811 117.224 179.649L117.273 179.659ZM117.521 184.125C126.862 184.095 131.094 182.975 132.577 182.439C133.385 184.413 134.008 186.463 134.437 188.561C133.261 189.076 128.827 190.577 117.769 190.587C117.68 188.416 117.581 186.245 117.487 184.115L117.521 184.125ZM117.854 191.515C128.618 191.515 133.187 190.102 134.675 189.484C135.058 191.564 135.317 193.667 135.449 195.78C134.378 196.167 129.496 197.673 118.012 197.709C117.953 195.677 117.883 193.594 117.804 191.505L117.854 191.515ZM135.39 208.157C135.39 209.287 133.589 209.746 131.892 209.921V201.67L118.127 202.361C118.104 201.144 118.074 199.897 118.037 198.622C129.01 198.586 133.996 197.245 135.509 196.729C135.711 200.537 135.671 204.355 135.39 208.157ZM156.14 192.361L136.436 198.106C136.305 193.826 135.638 189.583 134.452 185.482L156.12 184.146L156.14 192.361ZM156.358 178.437H159.419V181.738H156.358V178.437ZM157.707 191.907V184.048L179.103 182.733L179.311 185.58L178.458 185.884L157.707 191.907Z" fill="#3F4249"/>
<path d="M124.963 25.2584C121.853 18.776 118.147 15.0114 114.615 15.0114C111.083 15.0114 107.377 18.776 104.267 25.2584H109.277L110.984 26.8055V27.8369H118.246V26.8055L119.953 25.2584H124.963Z" fill="#3F4249"/>
<path d="M178.726 165.87C178.578 163.884 177.771 162.014 176.444 160.578L147.97 129.997C147.324 129.308 146.887 128.437 146.715 127.491C145.876 122.984 142.915 107.167 139.874 92.7634C135.017 69.763 133.271 65.8489 132.433 65.1836H131.555V178.726C128.202 173.156 123.122 169.65 116.336 168.139C115.641 161.842 115.046 161.832 114.639 161.832C114.232 161.832 113.647 161.832 112.948 168.103C106.166 169.577 101.102 173.022 97.7234 178.494V65.132H96.8454V65.1939C95.9822 65.8592 94.2361 69.7682 89.3796 92.7737C86.3437 107.177 83.3772 122.994 82.5438 127.501C82.3677 128.446 81.9302 129.318 81.2838 130.008L52.8098 160.589C51.4828 162.022 50.6732 163.887 50.518 165.87L49 186.204L92.5941 201.824C92.5941 203.846 92.6754 205.959 92.8372 208.162C92.8372 210.297 95.8135 210.741 97.2472 210.854C97.2472 210.854 98.3633 205.868 100.72 202.763L101.935 202.825L108.805 203.17L109.773 203.217L111.102 203.284C111.063 205.507 111.043 207.616 111.043 209.534C111.043 211.984 111.98 214.846 114.629 214.846C117.278 214.846 118.216 211.984 118.216 209.534C118.216 207.611 118.216 205.501 118.156 203.279H118.623L119.461 203.237L120.453 203.191L127.319 202.846L128.455 202.789C128.455 202.789 130.806 204.965 132.001 210.865C133.49 210.72 136.277 210.261 136.277 208.219C136.43 206.022 136.511 203.915 136.521 201.897L180.254 186.23L178.726 165.87ZM177.356 178.437H178.78L179.028 181.738H177.356V178.437ZM176.915 178.437V181.738H173.859V178.437H176.915ZM132.408 71.8052L141.794 113.881L140.39 117.574L140.415 117.708C141.685 124.232 142.692 129.616 143.178 132.246C143.386 133.365 143.902 134.398 144.666 135.216L173.14 165.797C174.321 167.08 175.04 168.747 175.179 170.516L175.675 177.53H132.408V71.8052ZM173.418 178.448V181.748H170.357V178.448H173.418ZM169.916 178.448V181.748H166.855V178.448H169.916ZM166.418 178.448V181.748H163.358V178.448H166.418ZM162.916 178.448V181.748H159.86V178.448H162.916ZM155.917 178.448V181.748H152.856V178.448H155.917ZM152.419 178.448V181.748H149.359V178.448H152.419ZM148.917 178.448V181.748H145.856V178.448H148.917ZM145.42 178.448V181.748H142.359V178.448H145.42ZM141.918 178.448V181.748H138.857V178.448H141.918ZM138.445 178.448V181.748H135.345V178.448H138.445ZM132.433 180.185V178.448H134.943V181.748H133.127C132.889 181.232 132.631 180.717 132.373 180.201L132.433 180.185ZM127.686 175.028C126.361 175.333 122.998 175.921 117.01 175.952C116.812 173.141 116.623 170.882 116.44 169.077C120.999 170.16 124.744 172.125 127.661 175.049L127.686 175.028ZM112.843 169.046C112.66 170.856 112.466 173.12 112.273 175.952C106.186 175.952 102.788 175.333 101.449 175.028C104.376 172.094 108.166 170.119 112.819 169.067L112.843 169.046ZM54.0599 170.511C54.1913 168.738 54.9121 167.068 56.0987 165.787L84.5727 135.206C85.3352 134.386 85.8521 133.354 86.0609 132.235C86.557 129.657 87.5491 124.299 88.824 117.698V117.564L87.4201 113.871L96.7958 71.7949V177.514H53.5737L54.0599 170.511ZM96.8206 178.437V180.02C96.5279 180.577 96.2501 181.145 95.9872 181.738H94.3105V178.437H96.8206ZM93.8442 178.437V181.738H90.7884V178.437H93.8442ZM90.3717 178.437V181.738H87.311V178.437H90.3717ZM86.8695 178.437V181.738H83.8138V178.437H86.8695ZM83.3971 178.437V181.738H80.3364V178.437H83.3971ZM79.8949 178.437V181.738H76.8093V178.437H79.8949ZM76.4224 178.437V181.738H73.3369V178.437H76.4224ZM69.423 178.437V181.738H66.3622V178.437H69.423ZM65.9208 178.437V181.738H62.86V178.437H65.9208ZM62.4235 178.437V181.738H59.3628V178.437H62.4235ZM58.9213 178.437V181.738H55.8655V178.437H58.9213ZM52.3633 178.437H55.424V181.738H52.3633V178.437ZM50.4981 178.437H51.9218V181.738H50.2501L50.4981 178.437ZM71.5709 191.907L50.8206 185.874L49.9673 185.569L50.1757 182.723L71.5709 184.038V191.907ZM72.9202 181.738H69.8148V178.437H72.8706L72.9202 181.738ZM92.6983 198.055L73.1434 192.382V184.131L94.6131 185.466C93.4384 189.56 92.7781 193.795 92.6487 198.065L92.6983 198.055ZM111.152 202.366L97.2621 201.665V209.916C95.5655 209.735 93.7648 209.276 93.7648 208.116C93.4831 204.322 93.4433 200.513 93.6457 196.714C95.1637 197.229 100.179 198.586 111.256 198.606C111.157 199.906 111.127 201.154 111.102 202.376L111.152 202.366ZM111.266 197.725C99.6878 197.725 94.7569 196.177 93.6904 195.796C93.8377 193.676 94.1111 191.568 94.5089 189.484C95.9971 190.102 100.601 191.51 111.474 191.515C111.345 193.594 111.276 195.677 111.216 197.714L111.266 197.725ZM111.514 190.598C100.338 190.598 95.878 189.076 94.7024 188.571C95.1483 186.469 95.7863 184.415 96.6073 182.439C98.0954 182.955 102.367 184.105 111.807 184.131C111.648 186.245 111.534 188.416 111.464 190.587L111.514 190.598ZM96.9843 181.599C97.2075 181.119 97.4406 180.65 97.6887 180.196H97.7482V180.077C98.5781 178.542 99.5772 177.112 100.725 175.817C101.583 176.06 105.025 176.849 112.208 176.9C112.149 177.772 112.094 178.685 112.03 179.659C111.96 180.821 111.894 182.006 111.831 183.213C102.605 183.182 98.3832 182.088 96.9346 181.588L96.9843 181.599ZM114.664 213.949C112.089 213.949 111.955 210.282 111.955 209.55C111.955 193.135 113.369 166.746 114.664 163.059C115.959 166.746 117.372 193.135 117.372 209.55C117.323 210.272 117.189 213.938 114.614 213.938L114.664 213.949ZM117.273 179.659C117.214 178.685 117.154 177.772 117.095 176.9C124.178 176.859 127.581 176.06 128.44 175.817C129.969 177.536 131.238 179.485 132.205 181.599C130.756 182.114 126.57 183.182 117.472 183.213C117.376 181.999 117.293 180.811 117.224 179.649L117.273 179.659ZM117.521 184.125C126.862 184.095 131.094 182.975 132.577 182.439C133.385 184.413 134.008 186.463 134.437 188.561C133.261 189.076 128.827 190.577 117.769 190.587C117.68 188.416 117.581 186.245 117.487 184.115L117.521 184.125ZM117.854 191.515C128.618 191.515 133.187 190.102 134.675 189.484C135.058 191.564 135.317 193.667 135.449 195.78C134.378 196.167 129.496 197.673 118.012 197.709C117.953 195.677 117.883 193.594 117.804 191.505L117.854 191.515ZM135.39 208.157C135.39 209.287 133.589 209.746 131.892 209.921V201.67L118.127 202.361C118.104 201.144 118.074 199.897 118.037 198.622C129.01 198.586 133.996 197.245 135.509 196.729C135.711 200.537 135.671 204.355 135.39 208.157ZM156.14 192.361L136.436 198.106C136.305 193.826 135.638 189.583 134.452 185.482L156.12 184.146L156.14 192.361ZM156.358 178.437H159.419V181.738H156.358V178.437ZM157.707 191.907V184.048L179.103 182.733L179.311 185.58L178.458 185.884L157.707 191.907Z" fill="#3F4249"/>
<path d="M151.447 163.605H137.294V166.926H151.447V163.605Z" fill="#F8BF1A"/>
<path opacity="0.2" d="M109.757 214.16C109.613 210.138 110.67 203.289 110.67 203.289L110.035 203.088C108.547 206.084 107.426 211.953 107.52 216.084C107.52 217.223 110.893 217.77 114.634 217.945C118.334 217.77 121.712 217.223 121.712 216.094C108.864 218.281 109.757 214.16 109.757 214.16Z" fill="black"/>
<path d="M80.4755 171.219C84.8429 171.219 88.3833 167.733 88.3833 163.433C88.3833 159.132 84.8429 155.646 80.4755 155.646C76.1082 155.646 72.5677 159.132 72.5677 163.433C72.5677 167.733 76.1082 171.219 80.4755 171.219Z" fill="#F8BF1A"/>
<path d="M76.0852 167.805V165.741H77.3075V161.025H76.0852V159.036H81.1991C81.5483 159.036 81.8976 159.134 82.2219 159.257C82.8704 159.503 83.4442 159.871 83.8932 160.411C84.2924 160.878 84.5668 161.418 84.7164 162.032C84.9659 163.064 84.9659 164.12 84.6665 165.152C84.2674 166.503 83.4193 167.412 81.9724 167.731C81.7229 167.78 81.4485 167.805 81.1991 167.829H76.2848C76.2099 167.805 76.16 167.805 76.0852 167.805ZM79.8021 165.741C80.0765 165.741 80.3509 165.766 80.6253 165.741C80.9746 165.717 81.2989 165.594 81.5234 165.299C81.7229 165.054 81.8976 164.783 81.9973 164.489C82.1969 163.825 82.1221 163.162 81.9724 162.499C81.8976 162.106 81.698 161.738 81.4485 161.443C81.2989 161.271 81.0993 161.075 80.8748 161.05C80.5255 160.976 80.1514 161.025 79.8021 161.025V165.741Z" fill="white"/>
<path d="M428.046 55.6406C428.046 58.9688 427.429 61.9141 426.194 64.4766C424.96 67.0391 423.202 69.0156 420.921 70.4062C418.655 71.7812 416.069 72.4688 413.163 72.4688C410.257 72.4688 407.679 71.8047 405.429 70.4766C403.179 69.1328 401.421 67.2188 400.155 64.7344C398.905 62.25 398.249 59.3984 398.186 56.1797V54.2578C398.186 50.9141 398.796 47.9688 400.015 45.4219C401.249 42.8594 403.007 40.8828 405.288 39.4922C407.585 38.1016 410.194 37.4062 413.116 37.4062C416.007 37.4062 418.585 38.0938 420.85 39.4688C423.116 40.8438 424.874 42.8047 426.124 45.3516C427.39 47.8828 428.03 50.7891 428.046 54.0703V55.6406ZM419.679 54.2109C419.679 50.8203 419.108 48.25 417.968 46.5C416.843 44.7344 415.225 43.8516 413.116 43.8516C408.991 43.8516 406.811 46.9453 406.577 53.1328L406.554 55.6406C406.554 58.9844 407.108 61.5547 408.218 63.3516C409.327 65.1484 410.975 66.0469 413.163 66.0469C415.241 66.0469 416.843 65.1641 417.968 63.3984C419.093 61.6328 419.663 59.0938 419.679 55.7812V54.2109ZM447.169 53.7891L444.567 53.6016C442.083 53.6016 440.489 54.3828 439.786 55.9453V72H431.887V46.6406H439.294L439.551 49.8984C440.879 47.4141 442.731 46.1719 445.106 46.1719C445.95 46.1719 446.684 46.2656 447.309 46.4531L447.169 53.7891ZM473.463 59.5312C473.463 63.6875 472.604 66.8828 470.885 69.1172C469.166 71.3516 466.744 72.4688 463.619 72.4688C461.041 72.4688 458.963 71.4453 457.385 69.3984L457.057 72H449.979V36H457.877V48.6797C459.346 47.0078 461.244 46.1719 463.573 46.1719C466.729 46.1719 469.166 47.3047 470.885 49.5703C472.604 51.8359 473.463 55.0234 473.463 59.1328V59.5312ZM465.541 59.0391C465.541 56.6016 465.213 54.8672 464.557 53.8359C463.916 52.7891 462.924 52.2656 461.58 52.2656C459.799 52.2656 458.565 52.9453 457.877 54.3047V64.3828C458.549 65.7266 459.799 66.3984 461.627 66.3984C463.487 66.3984 464.666 65.4922 465.166 63.6797C465.416 62.7891 465.541 61.2422 465.541 59.0391ZM485.203 72H477.281V46.6406H485.203V72ZM476.812 40.1016C476.812 38.9766 477.219 38.0547 478.031 37.3359C478.844 36.6172 479.898 36.2578 481.195 36.2578C482.492 36.2578 483.547 36.6172 484.359 37.3359C485.172 38.0547 485.578 38.9766 485.578 40.1016C485.578 41.2266 485.172 42.1484 484.359 42.8672C483.547 43.5859 482.492 43.9453 481.195 43.9453C479.898 43.9453 478.844 43.5859 478.031 42.8672C477.219 42.1484 476.812 41.2266 476.812 40.1016ZM499.193 40.3359V46.6406H503.365V52.125H499.193V63.7266C499.193 64.6797 499.365 65.3438 499.709 65.7188C500.052 66.0938 500.732 66.2812 501.748 66.2812C502.529 66.2812 503.185 66.2344 503.716 66.1406V71.7891C502.295 72.2422 500.81 72.4688 499.263 72.4688C496.545 72.4688 494.537 71.8281 493.24 70.5469C491.943 69.2656 491.295 67.3203 491.295 64.7109V52.125H488.06V46.6406H491.295V40.3359H499.193ZM518.667 72.4688C514.777 72.4688 511.628 71.3125 509.222 69C506.816 66.6719 505.613 63.6484 505.613 59.9297V59.2734C505.613 56.6797 506.089 54.3906 507.042 52.4062C508.011 50.4219 509.417 48.8906 511.261 47.8125C513.105 46.7188 515.292 46.1719 517.824 46.1719C521.386 46.1719 524.199 47.2812 526.261 49.5C528.324 51.7031 529.355 54.7812 529.355 58.7344V61.8047H513.652C513.933 63.2266 514.55 64.3438 515.503 65.1562C516.456 65.9688 517.691 66.375 519.206 66.375C521.706 66.375 523.66 65.5 525.066 63.75L528.675 68.0156C527.691 69.375 526.292 70.4609 524.48 71.2734C522.683 72.0703 520.745 72.4688 518.667 72.4688ZM517.777 52.2656C515.464 52.2656 514.089 53.7969 513.652 56.8594H521.62V56.25C521.652 54.9844 521.331 54.0078 520.66 53.3203C519.988 52.6172 519.027 52.2656 517.777 52.2656ZM547.798 53.7891L545.196 53.6016C542.712 53.6016 541.118 54.3828 540.415 55.9453V72H532.517V46.6406H539.923L540.181 49.8984C541.509 47.4141 543.36 46.1719 545.735 46.1719C546.579 46.1719 547.314 46.2656 547.939 46.4531L547.798 53.7891Z" fill="black"/>
<path d="M585.012 200.953C585.012 199.719 584.708 198.75 584.098 198.047C583.489 197.344 582.419 196.68 580.887 196.055C579.356 195.43 577.942 194.797 576.645 194.156C575.348 193.516 574.231 192.773 573.294 191.93C572.356 191.086 571.637 190.109 571.137 189C570.637 187.891 570.387 186.547 570.387 184.969C570.387 182.328 571.278 180.156 573.059 178.453C574.84 176.734 577.215 175.734 580.184 175.453V170.508H583.911V175.547C586.77 175.969 589.012 177.148 590.637 179.086C592.278 181.008 593.098 183.453 593.098 186.422H585.176C585.176 184.797 584.864 183.547 584.239 182.672C583.614 181.797 582.723 181.359 581.567 181.359C580.536 181.359 579.731 181.688 579.153 182.344C578.59 182.984 578.309 183.875 578.309 185.016C578.309 186.172 578.637 187.094 579.294 187.781C579.95 188.453 581.005 189.102 582.458 189.727C583.911 190.336 585.278 190.977 586.559 191.648C587.856 192.305 588.973 193.055 589.911 193.898C590.848 194.742 591.583 195.727 592.114 196.852C592.645 197.977 592.911 199.328 592.911 200.906C592.911 203.578 592.059 205.758 590.356 207.445C588.669 209.133 586.364 210.117 583.442 210.398V215.109H579.715V210.375C576.309 210.016 573.692 208.852 571.864 206.883C570.051 204.898 569.145 202.289 569.145 199.055H577.044C577.044 200.836 577.434 202.195 578.215 203.133C579.012 204.055 580.137 204.516 581.59 204.516C582.653 204.516 583.489 204.203 584.098 203.578C584.708 202.938 585.012 202.062 585.012 200.953ZM614.494 210H606.573V184.781L598.791 187.055V181.055L613.768 175.875H614.494V210ZM648.383 196.055C648.383 200.664 647.344 204.219 645.266 206.719C643.203 209.219 640.289 210.469 636.523 210.469C632.727 210.469 629.789 209.211 627.711 206.695C625.633 204.18 624.594 200.633 624.594 196.055V189.82C624.594 185.211 625.625 181.656 627.688 179.156C629.766 176.656 632.695 175.406 636.477 175.406C640.258 175.406 643.188 176.664 645.266 179.18C647.344 181.695 648.383 185.25 648.383 189.844V196.055ZM640.484 188.812C640.484 186.359 640.164 184.531 639.523 183.328C638.883 182.109 637.867 181.5 636.477 181.5C635.117 181.5 634.125 182.062 633.5 183.188C632.891 184.312 632.562 186.016 632.516 188.297V197.016C632.516 199.562 632.836 201.43 633.477 202.617C634.117 203.789 635.133 204.375 636.523 204.375C637.867 204.375 638.859 203.805 639.5 202.664C640.141 201.508 640.469 199.703 640.484 197.25V188.812ZM676.084 196.055C676.084 200.664 675.045 204.219 672.966 206.719C670.904 209.219 667.99 210.469 664.224 210.469C660.427 210.469 657.49 209.211 655.412 206.695C653.334 204.18 652.295 200.633 652.295 196.055V189.82C652.295 185.211 653.326 181.656 655.388 179.156C657.466 176.656 660.396 175.406 664.177 175.406C667.959 175.406 670.888 176.664 672.966 179.18C675.045 181.695 676.084 185.25 676.084 189.844V196.055ZM668.185 188.812C668.185 186.359 667.865 184.531 667.224 183.328C666.584 182.109 665.568 181.5 664.177 181.5C662.818 181.5 661.826 182.062 661.201 183.188C660.591 184.312 660.263 186.016 660.216 188.297V197.016C660.216 199.562 660.537 201.43 661.177 202.617C661.818 203.789 662.834 204.375 664.224 204.375C665.568 204.375 666.56 203.805 667.201 202.664C667.841 201.508 668.17 199.703 668.185 197.25V188.812ZM703.785 196.055C703.785 200.664 702.745 204.219 700.667 206.719C698.605 209.219 695.691 210.469 691.925 210.469C688.128 210.469 685.191 209.211 683.113 206.695C681.035 204.18 679.995 200.633 679.995 196.055V189.82C679.995 185.211 681.027 181.656 683.089 179.156C685.167 176.656 688.097 175.406 691.878 175.406C695.66 175.406 698.589 176.664 700.667 179.18C702.745 181.695 703.785 185.25 703.785 189.844V196.055ZM695.886 188.812C695.886 186.359 695.566 184.531 694.925 183.328C694.285 182.109 693.269 181.5 691.878 181.5C690.519 181.5 689.527 182.062 688.902 183.188C688.292 184.312 687.964 186.016 687.917 188.297V197.016C687.917 199.562 688.238 201.43 688.878 202.617C689.519 203.789 690.535 204.375 691.925 204.375C693.269 204.375 694.261 203.805 694.902 202.664C695.542 201.508 695.87 199.703 695.886 197.25V188.812Z" fill="black"/>
</svg>
