<svg width="173" height="532" viewBox="0 0 173 532" fill="none" xmlns="http://www.w3.org/2000/svg">
<path opacity="0.2" d="M127.344 478.01C127.461 478.01 127.572 477.936 127.676 477.916L127.344 478.01Z" fill="#F4F4F4"/>
<path d="M153.104 376.607V373.995H159.185L153.137 350.002H122.475L116.427 373.995H122.509V376.607H123.67L119.403 393.545H156.217L151.943 376.607H153.104Z" fill="#B2B6BB"/>
<path opacity="0.2" d="M135.767 375.812H122.626V373.994H135.767V375.812Z" fill="black"/>
<path opacity="0.2" d="M122.027 350.219L116.364 373.69H135.169V350.219H122.027Z" fill="black"/>
<path opacity="0.2" d="M123.612 376.605L119.103 393.665H135.814V376.605H123.612Z" fill="black"/>
<path d="M122.47 350.001H153.314V102.525H150.489V97.9324H153.314V93.1162L140.714 60H134.998L122.47 93.1908V98.007H124.793V102.525H122.47V350.001Z" fill="#B2B6BB"/>
<path d="M122.47 350.001H153.314V102.525H150.489V97.9324H153.314V93.1162L140.714 60H134.998L122.47 93.1908V98.007H124.793V102.525H122.47V350.001Z" fill="#B2B6BB"/>
<path opacity="0.2" d="M122.626 267.57H136.042V225.852H122.626V267.57Z" fill="black"/>
<path opacity="0.2" d="M122.626 307.851H136.042V268.087H122.626V307.851Z" fill="black"/>
<path opacity="0.2" d="M122.626 325.622H136.042V308.074H122.626V325.622Z" fill="black"/>
<path opacity="0.2" d="M122.626 336.238H136.042V323.723H122.626V336.238Z" fill="black"/>
<path opacity="0.2" d="M122.626 348.72H136.042V336.116H122.626V348.72Z" fill="black"/>
<path opacity="0.3" d="M151.076 370.08H124.056L124.147 369.707L129.119 349.92L129.68 350.076L124.8 369.476H150.351L146.012 350.069L146.573 349.933L151.076 370.08Z" fill="black"/>
<path opacity="0.2" d="M122.626 184.549H136.042V143.761H122.626V184.549Z" fill="black"/>
<path opacity="0.2" d="M122.626 225.751H136.042V185.207H122.626V225.751Z" fill="black"/>
<path opacity="0.2" d="M134.592 60L122.626 93.2248V98.007H125.014V102.525H122.626V143.537H136.042V102.525V98.007V97.7425V93.2248V60.0407L134.592 60Z" fill="black"/>
<path opacity="0.3" d="M129.686 349.696H145.998V113.059H129.686V349.696ZM146.579 350.299H129.105V112.455H146.579V350.299Z" fill="black"/>
<path d="M153.216 309.281H122.47V308.074H153.216V309.281Z" fill="#61656D"/>
<path d="M153.934 327.257H121.759V323.615H153.934V327.257Z" fill="#61656D"/>
<path d="M153.934 339.759H121.759V336.116H153.934V339.759Z" fill="#61656D"/>
<path d="M153.934 352.261H121.759V348.618H153.934V352.261Z" fill="#61656D"/>
<path d="M153.216 268.039H122.47V266.839H153.216V268.039Z" fill="#61656D"/>
<path d="M159.335 374.597H116.277V373.39H159.335V374.597Z" fill="#61656D"/>
<path opacity="0.3" d="M149.451 389.854H125.921L129.119 376.531L129.68 376.681L126.665 389.25H148.72L146.005 376.674L146.573 376.538L149.451 389.854Z" fill="black"/>
<path opacity="0.3" d="M137.393 366.675H147.337V360.848H137.393V366.675ZM147.918 367.272H136.825V360.245H147.918V367.258V367.272Z" fill="black"/>
<path opacity="0.3" d="M147.624 365.793H137.106V365.189H147.624V365.793Z" fill="black"/>
<path d="M153.307 143.137H122.47V144.385H153.307V143.137Z" fill="#61656D"/>
<path d="M153.307 184.339H122.47V185.587H153.307V184.339Z" fill="#61656D"/>
<path d="M153.307 225.534H122.47V226.782H153.307V225.534Z" fill="#61656D"/>
<path d="M150.489 97.9337H153.314V93.1176L153.19 92.792H122.627L122.47 93.1922V98.0084H124.793L150.489 97.9337Z" fill="#61656D"/>
<path d="M153.307 106.52H122.47V115.881H153.307V106.52Z" fill="#61656D"/>
<path d="M123.077 103.4H121.915V102.03H153.77V103.4H152.608H123.077Z" fill="#61656D"/>
<path d="M153.334 375.561H122.111V376.809H153.334V375.561Z" fill="#61656D"/>
<path d="M156.51 393.951H119.109V392.743H156.51V393.951Z" fill="#61656D"/>
<path d="M122.385 145.49H118.51V118.947H122.385V145.49Z" fill="#868A91"/>
<path d="M46.5583 424.239C46.6228 424.255 46.686 424.275 46.7473 424.299C46.6912 424.261 46.6261 424.24 46.5583 424.239Z" fill="white"/>
<path d="M47.4248 376.607V373.995H53.5061L47.4574 350.002H16.7965L10.7478 373.995H16.8291V376.607H17.9905L13.7167 393.545H50.5372L46.2634 376.607H47.4248Z" fill="#B2B6BB"/>
<path opacity="0.2" d="M30.0879 375.812H16.9465V373.994H30.0879V375.812Z" fill="black"/>
<path opacity="0.2" d="M16.3478 350.219L10.6841 373.69H29.4891V350.219H16.3478Z" fill="black"/>
<path opacity="0.2" d="M17.9326 376.605L13.4238 393.665H30.1344V376.605H17.9326Z" fill="black"/>
<path d="M16.7905 350.001H47.6342V102.525H44.8089V97.9324H47.6342V93.1162L35.0344 60H29.3185L16.7905 93.1908V98.007H19.1069V102.525H16.7905V350.001Z" fill="#B2B6BB"/>
<path d="M16.7905 352.727H47.6342V105.25H44.8089V100.658H47.6342V95.8419L35.0344 62.7257H29.3185L16.7905 95.9166V100.733H19.1069V105.25H16.7905V352.727Z" fill="#B2B6BB"/>
<path opacity="0.2" d="M16.9465 267.57H30.362V225.852H16.9465V267.57Z" fill="black"/>
<path opacity="0.2" d="M16.9465 308.773H30.362V266.839H16.9465V308.773Z" fill="black"/>
<path opacity="0.2" d="M16.9465 325.622H30.362V308.074H16.9465V325.622Z" fill="black"/>
<path opacity="0.2" d="M16.9465 336.238H30.362V323.723H16.9465V336.238Z" fill="black"/>
<path opacity="0.2" d="M16.9465 348.72H30.362V336.116H16.9465V348.72Z" fill="black"/>
<path opacity="0.3" d="M45.3962 370.08H18.3762L18.4676 369.707L23.4396 349.92L24.0008 350.076L19.1201 369.476H44.6719L40.3328 350.069L40.894 349.933L45.3962 370.08Z" fill="black"/>
<path opacity="0.2" d="M16.9465 184.549H30.362V143.761H16.9465V184.549Z" fill="black"/>
<path opacity="0.2" d="M16.9465 225.751H30.362V185.207H16.9465V225.751Z" fill="black"/>
<path opacity="0.2" d="M28.9134 60L16.9465 93.2248V98.007H19.3347V102.525H16.9465V143.537H30.362V102.525V98.007V97.7425V93.2248V60.0407L28.9134 60Z" fill="black"/>
<path opacity="0.3" d="M24.006 349.696H40.3185V113.059H24.006V349.696ZM40.8993 350.299H23.4253V112.455H40.8993V350.299Z" fill="black"/>
<path d="M47.5363 309.281H16.7905V308.074H47.5363V309.281Z" fill="#61656D"/>
<path d="M48.2544 327.257H16.0796V323.615H48.2544V327.257Z" fill="#61656D"/>
<path d="M48.2544 339.759H16.0796V336.116H48.2544V339.759Z" fill="#61656D"/>
<path d="M48.2544 352.261H16.0796V348.618H48.2544V352.261Z" fill="#61656D"/>
<path d="M47.5363 268.039H16.7905V266.839H47.5363V268.039Z" fill="#61656D"/>
<path d="M53.6557 374.597H10.5972V373.39H53.6557V374.597Z" fill="#61656D"/>
<path opacity="0.3" d="M43.7643 389.854H20.2417L23.4389 376.531L24.0001 376.681L20.9856 389.25H43.0401L40.3257 376.674L40.8933 376.538L43.7643 389.854Z" fill="black"/>
<path opacity="0.3" d="M31.7132 366.675H41.6573V360.848H31.7132V366.675ZM42.238 367.272H31.1455V360.245H42.238V367.258V367.272Z" fill="black"/>
<path opacity="0.3" d="M41.9445 365.793H31.4263V365.189H41.9445V365.793Z" fill="black"/>
<path d="M47.6277 143.137H16.7905V144.385H47.6277V143.137Z" fill="#61656D"/>
<path d="M47.6277 184.339H16.7905V185.587H47.6277V184.339Z" fill="#61656D"/>
<path d="M47.6277 225.534H16.7905V226.782H47.6277V225.534Z" fill="#61656D"/>
<path d="M44.8089 100.659H47.6342V95.8433L47.5102 95.5177H16.9406L16.7905 95.9179V100.734H19.1069L44.8089 100.659Z" fill="#61656D"/>
<path d="M47.6277 109.246H16.7905V118.607H47.6277V109.246Z" fill="#61656D"/>
<path d="M17.3968 103.4H16.2354V102.03H48.0904V103.4H46.929H17.3968Z" fill="#61656D"/>
<path d="M47.654 375.561H16.4319V376.809H47.654V375.561Z" fill="#61656D"/>
<path d="M50.8317 393.951H13.4238V392.743H50.8317V393.951Z" fill="#61656D"/>
<path d="M51.6211 145.49H47.4255V118.947H51.6211V145.49Z" fill="#868A91"/>
<path d="M52 304V98.9818C54.1728 55.5687 65.8917 22.9438 86.0735 0C106.125 22.4337 117.655 54.0167 119.86 95.6064V303.989L52 304Z" fill="#F8BF1A"/>
<path opacity="0.3" d="M65.1089 35.7723H107.025V35.8374H107.776C107.515 35.1753 107.267 34.5024 106.999 33.8404H65.1089C64.8479 34.5024 64.5933 35.1753 64.3389 35.8374H65.0827C65.0938 35.8178 65.1023 35.7961 65.1089 35.7723Z" fill="black"/>
<path opacity="0.3" d="M119.868 118.941L118.961 118.93H52.6148L52.0667 118.941V120.732H119.868V118.941Z" fill="black"/>
<path opacity="0.3" d="M119.86 122.934H52V213.114H119.86V122.934ZM55.1124 211.203H53.1549V124.833H55.1124V211.203ZM59.7713 211.203H56.2478V124.833H59.7713V211.203ZM64.4301 211.203H60.9066V124.833H64.4301V211.203ZM69.089 211.203H65.5655V124.833H69.089V211.203ZM73.7478 211.203H70.27V124.833H73.787L73.7478 211.203ZM78.4067 211.203H74.8832V124.833H78.4067V211.203ZM83.0655 211.203H79.5485V124.833H83.0655V211.203ZM87.7244 211.203H84.2074V124.833H87.7244V211.203ZM92.3832 211.203H88.8663V124.833H92.3832V211.203ZM97.0486 211.203H93.5251V124.833H97.0486V211.203ZM101.707 211.203H98.184V124.833H101.707V211.203ZM106.366 211.203H102.843V124.833H106.366V211.203ZM111.025 211.203H107.502V124.833H111.025V211.203ZM115.684 211.203H112.161V124.833H115.684V211.203ZM116.826 211.203V124.833H118.96V211.203H116.826Z" fill="black"/>
<path opacity="0.3" d="M53.1688 217.108H118.967H119.867V215.219H52.0334V217.108H53.1688Z" fill="black"/>
<path opacity="0.2" d="M55.7598 304V98.9818C57.7173 55.5687 68.0594 22.9438 85.9248 0C85.9248 48.8397 85.7943 304 85.7943 304H55.7598Z" fill="black"/>
<path d="M172.632 322.207L170.635 295.446C170.441 292.835 169.38 290.375 167.634 288.487L130.18 248.262C129.331 247.355 128.757 246.209 128.53 244.965C127.427 239.036 123.531 218.232 119.532 199.286C113.144 169.032 110.847 163.884 109.744 163.009V162.527C109.744 125.022 97.3857 97 86.3388 97C75.292 97 62.9336 125.022 62.9336 162.527V163.009C61.7983 163.884 59.5015 169.025 53.1135 199.286C49.1202 218.232 45.2183 239.036 44.1221 244.965C43.8904 246.208 43.3149 247.354 42.4647 248.262L5.0112 288.487C3.26315 290.375 2.19827 292.834 1.99665 295.446L0 322.193L57.3417 342.74C57.3417 345.399 57.4487 348.178 57.6614 351.077C57.6614 353.885 61.5764 354.468 63.4622 354.617C63.41 354.868 63.3447 355.119 63.299 355.377C63.2442 355.683 63.2573 355.999 63.3376 356.298C63.4178 356.598 63.5633 356.875 63.7623 357.107C65.6415 359.61 72.9952 361.753 77.902 361.896C79.9965 362.968 83.3178 363.51 86.3845 363.646C89.3925 363.51 92.7072 362.968 94.7952 361.896C99.702 361.753 107.043 359.61 108.922 357.107C109.122 356.878 109.268 356.604 109.349 356.306C109.429 356.008 109.441 355.695 109.385 355.391C109.339 355.119 109.274 354.868 109.215 354.597C111.173 354.407 114.84 353.803 114.84 351.117C115.04 348.228 115.147 345.456 115.16 342.801L172.684 322.193L172.632 322.207Z" fill="#DADDDF"/>
<path opacity="0.2" d="M81.1503 103.987C74.4883 108.356 72.7657 135.333 71.937 142.361H76.1326C75.0559 146.973 75.7345 154.815 79.643 154.815H82.4422V299.3C75.4931 301.579 69.7381 305.039 65.1641 311.035V160.581C65.7709 132.321 73.1311 107.901 81.1503 103.987Z" fill="black"/>
<path opacity="0.2" d="M63.2841 181.487V313.559L61.692 317.534C60.9011 319.464 60.3191 321.479 59.9563 323.544C59.4213 326.752 58.4556 329.465 58.2663 334.18C58.0771 338.894 57.7835 339.702 57.7835 339.702L9.32884 324.649V317.154H7.37134V311.252L9.67468 301.315C10.1256 299.377 11.0619 297.598 12.3891 296.159L45.3142 260.452C46.9533 258.69 48.0834 256.486 48.5767 254.089L63.2841 181.507V181.487Z" fill="black"/>
<path opacity="0.2" d="M84.5061 300.263C84.5061 300.263 83.4098 311.551 83.1227 321.936C82.8356 332.321 82.2549 343.989 82.2549 343.989L63.8675 342.788V353.919L59.6197 352.922C59.6197 352.922 57.7014 329.859 63.4825 316.726C69.8052 302.373 84.5061 300.263 84.5061 300.263Z" fill="black"/>
<path d="M81.1587 135.219L79.7558 130.864L78.0658 130.708L74.9795 134.093L77.5112 137.939L81.1587 135.219Z" fill="#61656D"/>
<path d="M77.0408 138.332L75.0703 135.334L72.6625 137.077L71.9382 142.361H76.1403L77.0408 138.332Z" fill="#61656D"/>
<path d="M86.3056 135.957H90.6838L92.9676 128.855L86.3056 127.614L79.6436 128.855L81.9273 135.957H86.3056Z" fill="#61656D"/>
<path d="M91.4624 135.219L95.1034 137.939L97.6351 134.093L94.5488 130.708L92.8588 130.864L91.4624 135.219Z" fill="#61656D"/>
<path d="M95.5713 138.332L96.4783 142.361H100.674L99.9495 137.077L97.5418 135.334L95.5713 138.332Z" fill="#61656D"/>
<path opacity="0.3" d="M79.6436 154.815H85.242V148.995H79.6436V154.815Z" fill="black"/>
<path opacity="0.3" d="M87.3691 154.815H92.9676V148.995H87.3691V154.815Z" fill="black"/>
<path opacity="0.3" d="M106.865 284.959H86.5921V254.909H106.865V284.959ZM65.7578 254.909H86.031V284.959H65.7448V254.909H65.7578ZM65.7578 224.248H86.031V254.305H65.7448V224.221L65.7578 224.248ZM65.7578 193.595H86.031V223.652H65.7448V193.595H65.7578ZM65.7578 162.941H86.031V193.018H65.7448V162.968L65.7578 162.941ZM106.865 192.991H86.5921V162.941H106.865V193.018V192.991ZM86.5921 223.652V193.595H106.865V223.652H86.5921ZM106.865 224.248V254.305H86.5921V224.221L106.865 224.248ZM107.446 254.604V162.351H65.1641V285.563H107.446V254.604Z" fill="black"/>
<path d="M94.7736 362.324C95.0379 361.981 95.1847 361.556 95.1912 361.116C95.3152 355.886 93.8079 348.228 91.9287 344.409L104.737 343.656C107.093 346.369 109.024 352.169 109.84 356.544C109.84 356.633 109.905 356.85 109.618 357.223C108.398 358.851 102.936 361.774 94.7801 362.344L94.7736 362.324Z" fill="#F8BF1A"/>
<path opacity="0.2" d="M95.9554 362.325C104.112 361.755 108.353 358.831 109.593 357.203C109.88 356.83 109.834 356.612 109.814 356.524C109.795 356.436 109.769 356.3 109.749 356.192C98.5719 362.494 98.1086 356.762 98.1086 356.762C97.5964 352.557 96.4748 348.455 94.7809 344.6L94.1806 344.274L93.104 344.409C94.9897 348.201 96.497 355.887 96.3665 361.117C96.3619 361.555 96.2171 361.98 95.9554 362.325Z" fill="black"/>
<path d="M77.5823 362.324C77.3135 361.983 77.1634 361.557 77.1582 361.116C77.0407 355.886 78.5415 348.228 80.4207 344.409L67.6114 343.656C65.2559 346.369 63.3245 352.169 62.5154 356.544C62.5154 356.633 62.4442 356.85 62.7314 357.223C63.9515 358.851 69.413 361.774 77.5758 362.344L77.5823 362.324Z" fill="#F8BF1A"/>
<path opacity="0.2" d="M67.5078 358.01C63.8995 354.889 70.1178 344.728 70.1178 344.728L70.5354 343.826L67.5992 343.656C65.2436 346.369 63.3122 352.169 62.5031 356.544C62.5031 356.633 62.4313 356.85 62.7184 357.223C63.9386 358.851 68.0886 361.15 76.4928 362.399C76.2906 362.165 76.1248 361.9 76.0034 361.612L75.7555 361.517C69.6285 360.608 67.5078 358.01 67.5078 358.01Z" fill="black"/>
<path d="M76.9743 361.497C76.8503 355.982 78.3967 348.1 80.3673 344.22L81.992 344.308C81.9463 347.123 81.9202 349.796 81.9202 352.231C81.9202 355.338 83.0686 358.967 86.305 358.967C89.5414 358.967 90.6963 355.338 90.6963 352.231C90.6963 349.796 90.6637 347.116 90.618 344.301L92.2362 344.213C94.1937 348.1 95.7662 355.975 95.6422 361.511C95.6422 362.996 91.1988 363.715 86.3311 363.946C81.4113 363.715 76.9677 362.996 76.9743 361.497Z" fill="#F8BF1A"/>
<path opacity="0.2" d="M76.9743 361.497C76.8503 355.982 78.3967 348.1 80.3673 344.22L81.992 344.308C81.9463 347.123 81.9202 349.796 81.9202 352.231C81.9202 355.338 83.0686 358.967 86.305 358.967C89.5414 358.967 90.6963 355.338 90.6963 352.231C90.6963 349.796 90.6637 347.116 90.618 344.301L92.2362 344.213C94.1937 348.1 95.7662 355.975 95.6422 361.511C95.6422 362.996 91.1988 363.715 86.3311 363.946C81.4113 363.715 76.9677 362.996 76.9743 361.497Z" fill="black"/>
<path opacity="0.2" d="M86.3062 290.882V358.966L83.6962 357.854C82.9001 341.33 84.3878 316.882 86.3062 290.882Z" fill="black"/>
<path opacity="0.3" d="M11.2746 311.048L10.7004 310.98L11.4312 304.021C11.7333 301.189 12.9098 298.535 14.7851 296.457L47.6711 260.126C48.9754 258.678 49.8772 256.889 50.2811 254.95L63.1875 192.876L63.7552 193.004L50.8488 255.079C50.4148 257.113 49.4615 258.987 48.0887 260.505L15.2027 296.851C13.4148 298.835 12.2912 301.366 11.9989 304.068L11.2746 311.048Z" fill="black"/>
<path opacity="0.3" d="M161.5 311.049L160.769 304.09C160.481 301.388 159.36 298.855 157.572 296.872L124.666 260.534C123.291 259.017 122.337 257.142 121.906 255.107L109.006 193.019L109.574 192.891L122.48 254.965C122.88 256.905 123.783 258.694 125.09 260.14L157.976 296.479C159.851 298.557 161.028 301.21 161.33 304.042L162.061 311.002L161.487 311.07L161.5 311.049Z" fill="black"/>
<path opacity="0.3" d="M122.793 221.57H109.299V221.211H122.793V221.57Z" fill="black"/>
<path opacity="0.3" d="M63.4752 221.57H49.988V221.211H63.4752V221.57Z" fill="black"/>
<path d="M108.967 297.13H98.7292V277.621H102.853V158.296H109.567V158.655H103.205V277.981H99.0751V296.771H108.967V297.13Z" fill="#3F4249"/>
<path opacity="0.3" d="M104.106 295.448H107.27V290.252H104.106V295.448ZM107.616 295.807H103.786V289.892H107.642V295.807H107.616Z" fill="black"/>
<path d="M73.713 297.13H63.4753V296.771H73.3672V277.981H69.2369V158.655H62.875V158.296H69.5892V277.621H73.713V297.13Z" fill="#3F4249"/>
<path opacity="0.3" d="M65.1705 295.448H68.3351V290.252H65.1705V295.448ZM68.6809 295.807H64.8247V289.892H68.6809V295.807Z" fill="black"/>
<path opacity="0.3" d="M112.444 308.274H117.885V300.44H112.444V308.274ZM118.238 308.634H112.098V300.08H118.238V308.634Z" fill="black"/>
<path opacity="0.3" d="M54.9202 308.274H60.3621V300.44H54.9202V308.274ZM60.7079 308.634H54.5679V300.08H60.7209V308.634H60.7079Z" fill="black"/>
<path opacity="0.3" d="M57.6163 333.977L10.3818 321.469L10.4863 316.964L11.067 316.978L10.9756 321.001L57.7599 333.394L57.6163 333.977Z" fill="black"/>
<path opacity="0.3" d="M114.422 333.977L114.285 333.394L162.172 321.001L162.08 316.978L162.654 316.964L162.759 321.469L114.422 333.977Z" fill="black"/>
<path opacity="0.3" d="M98.7362 120.362L97.503 115.309H74.8613L73.7063 120.362L73.3735 120.274L74.5872 114.943H97.7706L99.069 120.274L98.7362 120.362Z" fill="black"/>
<path opacity="0.3" d="M68.6808 142.544H64.2764V142.184H68.335V132.81L69.9401 131.141V120.322H70.2925V131.29L68.6808 132.959V142.544Z" fill="black"/>
<path opacity="0.3" d="M108.125 142.544H103.721V132.959L102.109 131.29V120.322H102.461V131.141L104.073 132.81V142.184H108.125V142.544Z" fill="black"/>
<path opacity="0.3" d="M76.7934 132.607H76.4475V125.518L86.2219 123.07L86.2611 123.076L95.7485 125.525V132.214H95.4026V125.803L86.2219 123.443L76.7934 125.803V132.607Z" fill="black"/>
<path opacity="0.3" d="M72.838 343.474C72.1137 327.133 73.6732 316.469 77.9079 308.879L78.2146 309.055C74.0125 316.557 72.4595 327.16 73.1838 343.426H72.838V343.474Z" fill="black"/>
<path opacity="0.3" d="M63.5195 343.474C62.5799 327.126 64.6026 316.456 70.0771 308.879L70.3576 309.096C66.7036 314.143 62.6712 322.608 63.8653 343.447H63.5195V343.474Z" fill="black"/>
<path opacity="0.3" d="M99.603 343.472H99.2572C99.9815 327.192 98.4285 316.604 94.2329 309.101L94.533 308.925C98.7678 316.488 100.327 327.145 99.603 343.52V343.472Z" fill="black"/>
<path opacity="0.3" d="M108.921 343.473H108.575C109.508 327.193 107.505 316.618 102.05 309.122L102.331 308.905C107.805 316.475 109.828 327.146 108.856 343.5L108.921 343.473Z" fill="black"/>
<path d="M99.9182 110.493C95.827 101.967 90.9528 97.0149 86.307 97.0149C81.6612 97.0149 76.787 101.967 72.6958 110.493H79.2861L81.5307 112.528V113.885H91.0833V112.528L93.3279 110.493H99.9182Z" fill="#3F4249"/>
<path d="M102.591 121.116H104.02C103.889 120.709 103.765 120.309 103.635 119.909H94.0299V117.256H78.5853V119.909H68.974C68.8435 120.302 68.726 120.709 68.6021 121.116H102.591Z" fill="#3F4249"/>
<path d="M170.635 295.447C170.441 292.835 169.38 290.376 167.634 288.487L130.18 248.262C129.331 247.356 128.757 246.21 128.529 244.965C127.427 239.037 123.531 218.232 119.531 199.286C113.144 169.033 110.847 163.884 109.744 163.009H108.589V312.358C104.178 305.032 97.4966 300.419 88.5704 298.432C87.6569 290.149 86.8739 290.136 86.3388 290.136C85.8038 290.136 85.0338 290.136 84.1138 298.384C75.1941 300.324 68.5321 304.855 64.0886 312.053V162.941H62.9336V163.023C61.7983 163.898 59.5015 169.04 53.1135 199.3C49.1202 218.246 45.2182 239.05 44.122 244.979C43.8904 246.222 43.3149 247.368 42.4647 248.276L5.0112 288.501C3.26576 290.386 2.20088 292.84 1.99665 295.447L0 322.194L57.3417 342.74C57.3417 345.399 57.4487 348.179 57.6614 351.077C57.6614 353.885 61.5764 354.469 63.4622 354.618C63.4622 354.618 64.9303 348.059 68.0297 343.975L69.6283 344.056L78.6654 344.511L79.9378 344.572L81.6865 344.66C81.6343 347.584 81.6082 350.358 81.6082 352.882C81.6082 356.104 82.8414 359.868 86.3258 359.868C89.8101 359.868 91.0433 356.104 91.0433 352.882C91.0433 350.351 91.0434 347.577 90.965 344.653H91.5784L92.6811 344.599L93.9861 344.538L103.017 344.084L104.511 344.009C104.511 344.009 107.604 346.871 109.176 354.632C111.134 354.442 114.801 353.838 114.801 351.152C115.001 348.262 115.108 345.49 115.121 342.835L172.645 322.228L170.635 295.447ZM168.834 311.978H170.707L171.033 316.319H168.834V311.978ZM168.254 311.978V316.319H164.234V311.978H168.254ZM109.711 171.719L122.057 227.064L120.21 231.921L120.243 232.097C121.913 240.678 123.238 247.76 123.877 251.22C124.151 252.692 124.83 254.05 125.835 255.127L163.288 295.352C164.841 297.04 165.788 299.231 165.97 301.559L166.622 310.784H109.711V171.719ZM163.654 311.992V316.333H159.628V311.992H163.654ZM159.047 311.992V316.333H155.021V311.992H159.047ZM154.447 311.992V316.333H150.421V311.992H154.447ZM149.84 311.992V316.333H145.821V311.992H149.84ZM140.633 311.992V316.333H136.607V311.992H140.633ZM136.033 311.992V316.333H132.007V311.992H136.033ZM131.427 311.992V316.333H127.401V311.992H131.427ZM126.826 311.992V316.333H122.801V311.992H126.826ZM122.22 311.992V316.333H118.194V311.992H122.22ZM117.652 311.992V316.333H113.574V311.992H117.652ZM109.744 314.278V311.992H113.046V316.333H110.657C110.344 315.655 110.005 314.976 109.666 314.298L109.744 314.278ZM103.5 307.494C101.757 307.894 97.3335 308.668 89.4578 308.708C89.1968 305.012 88.9488 302.04 88.7074 299.666C94.7039 301.091 99.6302 303.675 103.467 307.521L103.5 307.494ZM83.9768 299.626C83.7353 302.007 83.4809 304.984 83.2264 308.708C75.2202 308.708 70.7506 307.894 68.9889 307.494C72.8386 303.635 77.8237 301.037 83.9441 299.653L83.9768 299.626ZM6.65551 301.552C6.82842 299.22 7.77649 297.023 9.33727 295.339L46.7908 255.113C47.7937 254.035 48.4736 252.678 48.7483 251.206C49.4008 247.814 50.7058 240.767 52.3827 232.084V231.908L50.5361 227.051L62.8684 171.705V310.764H6.01607L6.65551 301.552ZM62.901 311.978V314.061C62.516 314.793 62.1506 315.539 61.8048 316.319H59.5994V311.978H62.901ZM58.986 311.978V316.319H54.9666V311.978H58.986ZM54.4185 311.978V316.319H50.3926V311.978H54.4185ZM49.8119 311.978V316.319H45.7924V311.978H49.8119ZM45.2444 311.978V316.319H41.2185V311.978H45.2444ZM40.6377 311.978V316.319H36.5792V311.978H40.6377ZM36.0702 311.978V316.319H32.0117V311.978H36.0702ZM26.8635 311.978V316.319H22.8375V311.978H26.8635ZM22.2568 311.978V316.319H18.2309V311.978H22.2568ZM17.6566 311.978V316.319H13.6307V311.978H17.6566ZM13.05 311.978V316.319H9.03062V311.978H13.05ZM4.42397 311.978H8.44988V316.319H4.42397V311.978ZM1.97056 311.978H3.84323V316.319H1.64431L1.97056 311.978ZM29.6887 329.696L2.3947 321.76L1.27238 321.359L1.54642 317.615L29.6887 319.345V329.696ZM31.4636 316.319H27.3789V311.978H31.3983L31.4636 316.319ZM57.4787 337.782L31.7572 330.32V319.467L59.9974 321.224C58.4523 326.609 57.5838 332.179 57.4135 337.795L57.4787 337.782ZM81.7518 343.453L63.4818 342.53V353.383C61.2502 353.146 58.8816 352.542 58.8816 351.016C58.511 346.026 58.4588 341.015 58.725 336.018C60.7216 336.696 67.3184 338.48 81.8887 338.508C81.7582 340.217 81.7191 341.859 81.6865 343.466L81.7518 343.453ZM81.9018 337.348C66.6725 337.348 60.1866 335.313 58.7837 334.811C58.9775 332.023 59.3371 329.25 59.8604 326.508C61.8179 327.322 67.873 329.174 82.1758 329.181C82.0062 331.914 81.9149 334.655 81.8366 337.334L81.9018 337.348ZM82.2281 327.973C67.5272 327.973 61.6613 325.972 60.1148 325.307C60.7014 322.542 61.5406 319.841 62.6204 317.242C64.5779 317.92 70.196 319.433 82.6131 319.467C82.4043 322.248 82.2542 325.104 82.1628 327.96L82.2281 327.973ZM63.1164 316.136C63.41 315.505 63.7166 314.888 64.0429 314.291H64.1212V314.135C65.2128 312.116 66.527 310.235 68.0362 308.532C69.165 308.851 73.6934 309.889 83.1416 309.957C83.0633 311.103 82.9915 312.304 82.9066 313.586C82.8153 315.114 82.7285 316.672 82.6457 318.259C70.5092 318.219 64.9564 316.781 63.0511 316.123L63.1164 316.136ZM86.3714 358.688C82.9849 358.688 82.8088 353.865 82.8088 352.902C82.8088 331.311 84.6684 296.6 86.3714 291.75C88.0744 296.6 89.9341 331.311 89.9341 352.902C89.8688 353.852 89.6927 358.674 86.3062 358.674L86.3714 358.688ZM89.8036 313.586C89.7253 312.304 89.647 311.103 89.5687 309.957C98.8864 309.902 103.363 308.851 104.491 308.532C106.502 310.792 108.172 313.356 109.444 316.136C107.539 316.815 102.031 318.219 90.0646 318.259C89.9387 316.663 89.8297 315.1 89.7383 313.572L89.8036 313.586ZM90.1298 319.46C102.416 319.419 107.982 317.947 109.933 317.242C110.996 319.838 111.816 322.534 112.38 325.294C110.834 325.972 105 327.946 90.4561 327.96C90.3386 325.104 90.2081 322.248 90.0842 319.446L90.1298 319.46ZM90.567 329.181C104.726 329.181 110.736 327.322 112.693 326.508C113.197 329.244 113.537 332.011 113.711 334.79C112.302 335.299 105.881 337.28 90.7758 337.327C90.6975 334.655 90.6062 331.914 90.5018 329.167L90.567 329.181ZM113.633 351.07C113.633 352.556 111.264 353.16 109.033 353.39V342.537L90.9259 343.446C90.8959 341.845 90.8567 340.206 90.8085 338.528C105.242 338.48 111.799 336.717 113.789 336.039C114.056 341.047 114.004 346.069 113.633 351.07ZM140.927 330.293L115.01 337.85C114.837 332.22 113.96 326.638 112.4 321.244L140.901 319.487L140.927 330.293ZM141.214 311.978H145.24V316.319H141.214V311.978ZM142.989 329.696V319.358L171.131 317.629L171.405 321.373L170.283 321.773L142.989 329.696Z" fill="#3F4249"/>
<path d="M99.9182 110.493C95.827 101.967 90.9528 97.0149 86.307 97.0149C81.6612 97.0149 76.787 101.967 72.6958 110.493H79.2861L81.5307 112.528V113.885H91.0833V112.528L93.3279 110.493H99.9182Z" fill="#3F4249"/>
<path d="M170.635 295.447C170.441 292.835 169.38 290.376 167.634 288.487L130.18 248.262C129.331 247.356 128.757 246.21 128.529 244.965C127.427 239.037 123.531 218.232 119.531 199.286C113.144 169.033 110.847 163.884 109.744 163.009H108.589V312.358C104.178 305.032 97.4966 300.419 88.5704 298.432C87.6569 290.149 86.8739 290.136 86.3388 290.136C85.8038 290.136 85.0338 290.136 84.1138 298.384C75.1941 300.324 68.5321 304.855 64.0886 312.053V162.941H62.9336V163.023C61.7983 163.898 59.5015 169.04 53.1135 199.3C49.1202 218.246 45.2182 239.05 44.122 244.979C43.8904 246.222 43.3149 247.368 42.4647 248.276L5.0112 288.501C3.26576 290.386 2.20088 292.84 1.99665 295.447L0 322.194L57.3417 342.74C57.3417 345.399 57.4487 348.179 57.6614 351.077C57.6614 353.885 61.5764 354.469 63.4622 354.618C63.4622 354.618 64.9303 348.059 68.0297 343.975L69.6283 344.056L78.6654 344.511L79.9378 344.572L81.6865 344.66C81.6343 347.584 81.6082 350.358 81.6082 352.882C81.6082 356.104 82.8414 359.868 86.3258 359.868C89.8101 359.868 91.0433 356.104 91.0433 352.882C91.0433 350.351 91.0434 347.577 90.965 344.653H91.5784L92.6811 344.599L93.9861 344.538L103.017 344.084L104.511 344.009C104.511 344.009 107.604 346.871 109.176 354.632C111.134 354.442 114.801 353.838 114.801 351.152C115.001 348.262 115.108 345.49 115.121 342.835L172.645 322.228L170.635 295.447ZM168.834 311.978H170.707L171.033 316.319H168.834V311.978ZM168.254 311.978V316.319H164.234V311.978H168.254ZM109.711 171.719L122.057 227.064L120.21 231.921L120.243 232.097C121.913 240.678 123.238 247.76 123.877 251.22C124.151 252.692 124.83 254.05 125.835 255.127L163.288 295.352C164.841 297.04 165.788 299.231 165.97 301.559L166.622 310.784H109.711V171.719ZM163.654 311.992V316.333H159.628V311.992H163.654ZM159.047 311.992V316.333H155.021V311.992H159.047ZM154.447 311.992V316.333H150.421V311.992H154.447ZM149.84 311.992V316.333H145.821V311.992H149.84ZM140.633 311.992V316.333H136.607V311.992H140.633ZM136.033 311.992V316.333H132.007V311.992H136.033ZM131.427 311.992V316.333H127.401V311.992H131.427ZM126.826 311.992V316.333H122.801V311.992H126.826ZM122.22 311.992V316.333H118.194V311.992H122.22ZM117.652 311.992V316.333H113.574V311.992H117.652ZM109.744 314.278V311.992H113.046V316.333H110.657C110.344 315.655 110.005 314.976 109.666 314.298L109.744 314.278ZM103.5 307.494C101.757 307.894 97.3335 308.668 89.4578 308.708C89.1968 305.012 88.9488 302.04 88.7074 299.666C94.7039 301.091 99.6302 303.675 103.467 307.521L103.5 307.494ZM83.9768 299.626C83.7353 302.007 83.4809 304.984 83.2264 308.708C75.2202 308.708 70.7506 307.894 68.9889 307.494C72.8386 303.635 77.8237 301.037 83.9441 299.653L83.9768 299.626ZM6.65551 301.552C6.82842 299.22 7.77649 297.023 9.33727 295.339L46.7908 255.113C47.7937 254.035 48.4736 252.678 48.7483 251.206C49.4008 247.814 50.7058 240.767 52.3827 232.084V231.908L50.5361 227.051L62.8684 171.705V310.764H6.01607L6.65551 301.552ZM62.901 311.978V314.061C62.516 314.793 62.1506 315.539 61.8048 316.319H59.5994V311.978H62.901ZM58.986 311.978V316.319H54.9666V311.978H58.986ZM54.4185 311.978V316.319H50.3926V311.978H54.4185ZM49.8119 311.978V316.319H45.7924V311.978H49.8119ZM45.2444 311.978V316.319H41.2185V311.978H45.2444ZM40.6377 311.978V316.319H36.5792V311.978H40.6377ZM36.0702 311.978V316.319H32.0117V311.978H36.0702ZM26.8635 311.978V316.319H22.8375V311.978H26.8635ZM22.2568 311.978V316.319H18.2309V311.978H22.2568ZM17.6566 311.978V316.319H13.6307V311.978H17.6566ZM13.05 311.978V316.319H9.03062V311.978H13.05ZM4.42397 311.978H8.44988V316.319H4.42397V311.978ZM1.97056 311.978H3.84323V316.319H1.64431L1.97056 311.978ZM29.6887 329.696L2.3947 321.76L1.27238 321.359L1.54642 317.615L29.6887 319.345V329.696ZM31.4636 316.319H27.3789V311.978H31.3983L31.4636 316.319ZM57.4787 337.782L31.7572 330.32V319.467L59.9974 321.224C58.4523 326.609 57.5838 332.179 57.4135 337.795L57.4787 337.782ZM81.7518 343.453L63.4818 342.53V353.383C61.2502 353.146 58.8816 352.542 58.8816 351.016C58.511 346.026 58.4588 341.015 58.725 336.018C60.7216 336.696 67.3184 338.48 81.8887 338.508C81.7582 340.217 81.7191 341.859 81.6865 343.466L81.7518 343.453ZM81.9018 337.348C66.6725 337.348 60.1866 335.313 58.7837 334.811C58.9775 332.023 59.3371 329.25 59.8604 326.508C61.8179 327.322 67.873 329.174 82.1758 329.181C82.0062 331.914 81.9149 334.655 81.8366 337.334L81.9018 337.348ZM82.2281 327.973C67.5272 327.973 61.6613 325.972 60.1148 325.307C60.7014 322.542 61.5406 319.841 62.6204 317.242C64.5779 317.92 70.196 319.433 82.6131 319.467C82.4043 322.248 82.2542 325.104 82.1628 327.96L82.2281 327.973ZM63.1164 316.136C63.41 315.505 63.7166 314.888 64.0429 314.291H64.1212V314.135C65.2128 312.116 66.527 310.235 68.0362 308.532C69.165 308.851 73.6934 309.889 83.1416 309.957C83.0633 311.103 82.9915 312.304 82.9066 313.586C82.8153 315.114 82.7285 316.672 82.6457 318.259C70.5092 318.219 64.9564 316.781 63.0511 316.123L63.1164 316.136ZM86.3714 358.688C82.9849 358.688 82.8088 353.865 82.8088 352.902C82.8088 331.311 84.6684 296.6 86.3714 291.75C88.0744 296.6 89.9341 331.311 89.9341 352.902C89.8688 353.852 89.6927 358.674 86.3062 358.674L86.3714 358.688ZM89.8036 313.586C89.7253 312.304 89.647 311.103 89.5687 309.957C98.8864 309.902 103.363 308.851 104.491 308.532C106.502 310.792 108.172 313.356 109.444 316.136C107.539 316.815 102.031 318.219 90.0646 318.259C89.9387 316.663 89.8297 315.1 89.7383 313.572L89.8036 313.586ZM90.1298 319.46C102.416 319.419 107.982 317.947 109.933 317.242C110.996 319.838 111.816 322.534 112.38 325.294C110.834 325.972 105 327.946 90.4561 327.96C90.3386 325.104 90.2081 322.248 90.0842 319.446L90.1298 319.46ZM90.567 329.181C104.726 329.181 110.736 327.322 112.693 326.508C113.197 329.244 113.537 332.011 113.711 334.79C112.302 335.299 105.881 337.28 90.7758 337.327C90.6975 334.655 90.6062 331.914 90.5018 329.167L90.567 329.181ZM113.633 351.07C113.633 352.556 111.264 353.16 109.033 353.39V342.537L90.9259 343.446C90.8959 341.845 90.8567 340.206 90.8085 338.528C105.242 338.48 111.799 336.717 113.789 336.039C114.056 341.047 114.004 346.069 113.633 351.07ZM140.927 330.293L115.01 337.85C114.837 332.22 113.96 326.638 112.4 321.244L140.901 319.487L140.927 330.293ZM141.214 311.978H145.24V316.319H141.214V311.978ZM142.989 329.696V319.358L171.131 317.629L171.405 321.373L170.283 321.773L142.989 329.696Z" fill="#3F4249"/>
<path d="M134.754 292.469H116.138V296.837H134.754V292.469Z" fill="#F8BF1A"/>
<path opacity="0.2" d="M79.9174 358.966C79.7281 353.675 81.118 344.667 81.118 344.667L80.2828 344.402C78.3252 348.343 76.8506 356.063 76.9746 361.496C76.9746 362.995 81.4116 363.714 86.3315 363.945C91.1991 363.714 95.6427 362.995 95.6427 361.51C78.7429 364.386 79.9174 358.966 79.9174 358.966Z" fill="black"/>
<path d="M41.4016 302.483C47.1462 302.483 51.8031 297.898 51.8031 292.242C51.8031 286.585 47.1462 282 41.4016 282C35.6569 282 31 286.585 31 292.242C31 297.898 35.6569 302.483 41.4016 302.483Z" fill="#F8BF1A"/>
<path d="M35.6265 297.992V295.278H37.2343V289.075H35.6265V286.458H42.353C42.8124 286.458 43.2718 286.588 43.6983 286.749C44.5515 287.072 45.3062 287.557 45.8968 288.268C46.4218 288.881 46.7827 289.592 46.9796 290.4C47.3077 291.757 47.3077 293.146 46.914 294.503C46.389 296.28 45.2733 297.475 43.3702 297.895C43.0421 297.96 42.6812 297.992 42.353 298.025H35.889C35.7905 297.992 35.7249 297.992 35.6265 297.992ZM40.5155 295.278C40.8765 295.278 41.2374 295.311 41.5983 295.278C42.0577 295.246 42.4843 295.085 42.7796 294.697C43.0421 294.374 43.2718 294.018 43.403 293.631C43.6655 292.758 43.5671 291.886 43.3702 291.014C43.2718 290.497 43.0093 290.012 42.6812 289.625C42.4843 289.398 42.2218 289.14 41.9265 289.108C41.4671 289.011 40.9749 289.075 40.5155 289.075V295.278Z" fill="white"/>
</svg>
