<svg width="1920" height="1079" viewBox="0 0 1920 1079" fill="none" xmlns="http://www.w3.org/2000/svg">
<path d="M971.355 27.0129C971.668 25.74 970.846 24.4647 969.519 24.1646C968.192 23.8638 966.863 24.6522 966.549 25.9251C966.236 27.198 967.058 28.4733 968.385 28.7741C969.712 29.0742 971.042 28.2858 971.355 27.0129Z" fill="white"/>
<path d="M924.592 120.728C925.032 118.938 923.877 117.145 922.011 116.722C920.145 116.3 918.275 117.408 917.835 119.198C917.394 120.988 918.55 122.782 920.416 123.204C922.282 123.627 924.152 122.518 924.592 120.728Z" fill="white"/>
<path d="M1135.11 201.741C1135.55 199.952 1134.39 198.158 1132.52 197.736C1130.66 197.313 1128.79 198.422 1128.35 200.212C1127.91 202.002 1129.06 203.795 1130.93 204.218C1132.8 204.64 1134.66 203.532 1135.11 201.741Z" fill="white"/>
<path d="M942.267 325.997C943.968 325.148 944.629 323.137 943.744 321.506C942.859 319.874 940.763 319.24 939.062 320.089C937.362 320.938 936.7 322.949 937.585 324.58C938.47 326.211 940.566 326.846 942.267 325.997Z" fill="white"/>
<path d="M1168.14 147.126C1168.58 145.336 1167.42 143.542 1165.56 143.12C1163.69 142.697 1161.82 143.806 1161.38 145.596C1160.94 147.386 1162.09 149.179 1163.96 149.602C1165.83 150.024 1167.7 148.916 1168.14 147.126Z" fill="white"/>
<path d="M1151.96 256.376C1152.4 254.586 1151.24 252.792 1149.37 252.37C1147.51 251.947 1145.64 253.056 1145.2 254.846C1144.76 256.636 1145.91 258.429 1147.78 258.852C1149.65 259.274 1151.52 258.166 1151.96 256.376Z" fill="white"/>
<path d="M764.633 185.986C764.869 185.027 764.25 184.066 763.25 183.84C762.251 183.614 761.249 184.207 761.013 185.166C760.777 186.125 761.397 187.086 762.396 187.312C763.395 187.538 764.397 186.944 764.633 185.986Z" fill="white"/>
<path d="M866.849 78.5821C867.085 77.6233 866.466 76.6627 865.466 76.4369C864.466 76.2104 863.465 76.804 863.229 77.7627C862.993 78.7215 863.612 79.6822 864.612 79.9086C865.611 80.1351 866.613 79.5409 866.849 78.5821Z" fill="white"/>
<path d="M923.381 249.734C924.292 249.28 924.646 248.203 924.172 247.328C923.698 246.455 922.576 246.115 921.664 246.569C920.753 247.024 920.399 248.102 920.873 248.975C921.347 249.849 922.47 250.189 923.381 249.734Z" fill="white"/>
<path d="M1065.21 35.5958C1065.45 34.637 1064.83 33.6764 1063.83 33.4499C1062.83 33.2241 1061.83 33.8176 1061.59 34.7764C1061.36 35.7352 1061.98 36.6959 1062.98 36.9223C1063.98 37.1482 1064.98 36.5546 1065.21 35.5958Z" fill="white"/>
<path d="M784.354 292.876C784.59 291.918 783.971 290.957 782.971 290.73C781.972 290.505 780.97 291.098 780.734 292.057C780.498 293.016 781.118 293.976 782.117 294.203C783.117 294.429 784.118 293.835 784.354 292.876Z" fill="white"/>
<path d="M1239.44 94.3734C1239.67 93.4146 1239.06 92.454 1238.05 92.2275C1237.06 92.001 1236.06 92.5952 1235.82 93.554C1235.58 94.5128 1236.2 95.4734 1237.2 95.6992C1238.2 95.9257 1239.2 95.3322 1239.44 94.3734Z" fill="white"/>
<path d="M1116.09 2.19383C1116.32 1.23504 1115.7 0.27441 1114.71 0.0479511C1113.71 -0.177899 1112.7 0.415643 1112.47 1.37444C1112.23 2.33324 1112.85 3.29386 1113.85 3.52032C1114.85 3.74617 1115.85 3.15263 1116.09 2.19383Z" fill="white"/>
<path d="M1290.22 280.774C1290.46 279.815 1289.84 278.854 1288.84 278.628C1287.84 278.402 1286.84 278.995 1286.61 279.954C1286.37 280.913 1286.99 281.874 1287.99 282.1C1288.99 282.326 1289.99 281.732 1290.22 280.774Z" fill="white"/>
<path d="M1294.87 217.143C1295.1 216.184 1294.48 215.224 1293.48 214.997C1292.48 214.771 1291.48 215.365 1291.24 216.324C1291.01 217.283 1291.63 218.243 1292.63 218.469C1293.63 218.695 1294.63 218.102 1294.87 217.143Z" fill="white"/>
<path d="M1332.03 316.033C1332.26 315.074 1331.64 314.114 1330.64 313.887C1329.64 313.661 1328.64 314.255 1328.4 315.214C1328.17 316.172 1328.79 317.133 1329.79 317.36C1330.79 317.585 1331.79 316.992 1332.03 316.033Z" fill="white"/>
<path d="M957.73 78.3794C958.188 76.5209 956.988 74.6587 955.05 74.2203C953.112 73.7814 951.171 74.9326 950.713 76.7911C950.256 78.6497 951.456 80.5119 953.394 80.9508C955.332 81.3891 957.273 80.2385 957.73 78.3794Z" fill="white"/>
<path d="M1085.67 156.357C1085.91 155.398 1085.29 154.438 1084.29 154.211C1083.29 153.986 1082.29 154.579 1082.05 155.538C1081.82 156.497 1082.44 157.457 1083.44 157.684C1084.44 157.91 1085.44 157.316 1085.67 156.357Z" fill="white"/>
<path d="M1183.3 292.601C1183.54 291.642 1182.92 290.681 1181.92 290.455C1180.92 290.228 1179.92 290.823 1179.69 291.781C1179.45 292.74 1180.07 293.701 1181.07 293.927C1182.07 294.153 1183.07 293.559 1183.3 292.601Z" fill="white"/>
<path d="M1137.15 355.277C1137.38 354.318 1136.76 353.357 1135.76 353.131C1134.76 352.904 1133.76 353.498 1133.53 354.457C1133.29 355.416 1133.91 356.377 1134.91 356.603C1135.91 356.829 1136.91 356.235 1137.15 355.277Z" fill="white"/>
<path d="M895.416 148.86C895.651 147.901 895.032 146.94 894.033 146.714C893.033 146.487 892.032 147.082 891.796 148.04C891.56 148.999 892.179 149.96 893.179 150.186C894.178 150.412 895.18 149.819 895.416 148.86Z" fill="white"/>
<path d="M741.962 258.108C742.197 257.15 741.578 256.189 740.579 255.962C739.579 255.736 738.578 256.33 738.342 257.289C738.106 258.248 738.725 259.208 739.725 259.434C740.724 259.661 741.726 259.067 741.962 258.108Z" fill="white"/>
<path d="M1307.5 172.573C1307.74 171.614 1307.12 170.653 1306.12 170.427C1305.12 170.201 1304.12 170.795 1303.89 171.753C1303.65 172.712 1304.27 173.673 1305.27 173.899C1306.27 174.125 1307.27 173.532 1307.5 172.573Z" fill="white"/>
<path d="M1183.94 197.43C1184.18 196.471 1183.56 195.51 1182.56 195.284C1181.56 195.058 1180.56 195.651 1180.32 196.61C1180.09 197.569 1180.71 198.53 1181.7 198.756C1182.7 198.982 1183.7 198.388 1183.94 197.43Z" fill="white"/>
<path d="M1314.63 360.146C1314.86 359.187 1314.24 358.226 1313.24 358C1312.25 357.774 1311.24 358.367 1311.01 359.326C1310.77 360.285 1311.39 361.246 1312.38 361.472C1313.39 361.698 1314.39 361.104 1314.63 360.146Z" fill="white"/>
<path d="M801.74 216.536C801.976 215.577 801.357 214.616 800.357 214.39C799.357 214.163 798.356 214.757 798.121 215.716C797.884 216.675 798.503 217.636 799.503 217.861C800.502 218.088 801.504 217.494 801.74 216.536Z" fill="white"/>
<path d="M986.507 154.759C986.821 153.486 985.999 152.21 984.672 151.91C983.345 151.61 982.015 152.398 981.701 153.671C981.389 154.944 982.21 156.219 983.537 156.519C984.865 156.82 986.194 156.032 986.507 154.759Z" fill="white"/>
<path d="M1206.28 248.774C1206.59 247.501 1205.77 246.226 1204.44 245.925C1203.12 245.625 1201.78 246.413 1201.47 247.686C1201.16 248.959 1201.98 250.234 1203.31 250.535C1204.63 250.835 1205.97 250.047 1206.28 248.774Z" fill="white"/>
<path d="M1155.12 61.9101C1155.43 60.6372 1154.61 59.3618 1153.28 59.0611C1151.96 58.761 1150.63 59.5487 1150.32 60.8216C1150 62.0945 1150.82 63.3699 1152.15 63.6706C1153.48 63.9708 1154.81 63.183 1155.12 61.9101Z" fill="white"/>
<path d="M950.904 210.285C951.218 209.013 950.396 207.737 949.069 207.436C947.742 207.136 946.412 207.925 946.099 209.198C945.786 210.471 946.608 211.746 947.935 212.046C949.262 212.347 950.592 211.558 950.904 210.285Z" fill="white"/>
<path d="M716.848 372.747C717.161 371.474 716.339 370.199 715.012 369.898C713.685 369.598 712.355 370.386 712.042 371.659C711.729 372.932 712.551 374.207 713.878 374.507C715.205 374.808 716.534 374.02 716.848 372.747Z" fill="white"/>
<path d="M1249.4 184.94C1249.71 183.667 1248.89 182.391 1247.56 182.091C1246.24 181.791 1244.9 182.579 1244.59 183.852C1244.28 185.125 1245.1 186.4 1246.43 186.701C1247.75 187.001 1249.08 186.213 1249.4 184.94Z" fill="white"/>
<path d="M1266.16 118.535C1266.47 117.262 1265.65 115.987 1264.32 115.687C1263 115.386 1261.67 116.174 1261.35 117.447C1261.04 118.72 1261.86 119.995 1263.19 120.296C1264.52 120.596 1265.85 119.808 1266.16 118.535Z" fill="white"/>
<path d="M1039.5 411.279C1039.81 410.007 1038.99 408.731 1037.66 408.431C1036.34 408.13 1035.01 408.919 1034.69 410.192C1034.38 411.465 1035.2 412.74 1036.53 413.04C1037.86 413.341 1039.19 412.552 1039.5 411.279Z" fill="white"/>
<path d="M1063.77 223.234C1064.09 221.962 1063.26 220.686 1061.94 220.386C1060.61 220.085 1059.28 220.874 1058.97 222.147C1058.65 223.419 1059.48 224.695 1060.8 224.996C1062.13 225.296 1063.46 224.507 1063.77 223.234Z" fill="white"/>
<path d="M1090.68 107.347C1090.99 106.074 1090.17 104.798 1088.85 104.498C1087.52 104.198 1086.19 104.986 1085.88 106.259C1085.56 107.532 1086.38 108.807 1087.71 109.108C1089.04 109.408 1090.37 108.62 1090.68 107.347Z" fill="white"/>
<path d="M259.379 692.909C259.693 691.636 258.871 690.361 257.544 690.061C256.217 689.76 254.887 690.548 254.574 691.821C254.261 693.094 255.082 694.369 256.41 694.67C257.737 694.97 259.066 694.182 259.379 692.909Z" fill="white"/>
<path d="M212.616 786.624C213.057 784.834 211.901 783.041 210.035 782.618C208.169 782.196 206.299 783.304 205.859 785.094C205.419 786.884 206.574 788.678 208.44 789.1C210.306 789.523 212.176 788.414 212.616 786.624Z" fill="white"/>
<path d="M423.13 867.638C423.57 865.848 422.414 864.054 420.548 863.632C418.682 863.209 416.812 864.318 416.372 866.108C415.931 867.898 417.087 869.692 418.953 870.114C420.82 870.536 422.689 869.428 423.13 867.638Z" fill="white"/>
<path d="M230.291 991.893C231.992 991.044 232.653 989.033 231.769 987.402C230.883 985.77 228.787 985.136 227.086 985.985C225.386 986.834 224.725 988.845 225.609 990.476C226.494 992.107 228.59 992.742 230.291 991.893Z" fill="white"/>
<path d="M456.16 813.022C456.604 811.232 455.449 809.438 453.583 809.016C451.717 808.593 449.845 809.702 449.407 811.492C448.963 813.282 450.118 815.075 451.984 815.498C453.849 815.92 455.722 814.812 456.16 813.022Z" fill="white"/>
<path d="M439.98 922.272C440.42 920.482 439.264 918.688 437.399 918.266C435.533 917.843 433.663 918.952 433.223 920.742C432.782 922.532 433.938 924.325 435.804 924.748C437.67 925.17 439.54 924.062 439.98 922.272Z" fill="white"/>
<path d="M52.6569 851.882C52.893 850.923 52.2742 849.962 51.2746 849.736C50.2751 849.51 49.2736 850.103 49.0375 851.062C48.8014 852.021 49.4208 852.982 50.4204 853.208C51.4193 853.434 52.4214 852.84 52.6569 851.882Z" fill="white"/>
<path d="M154.873 744.478C155.109 743.519 154.49 742.559 153.49 742.333C152.491 742.106 151.489 742.7 151.254 743.659C151.018 744.618 151.636 745.578 152.636 745.805C153.636 746.031 154.637 745.437 154.873 744.478Z" fill="white"/>
<path d="M211.405 915.63C212.316 915.176 212.671 914.099 212.197 913.224C211.722 912.351 210.6 912.011 209.688 912.465C208.778 912.92 208.423 913.998 208.897 914.871C209.371 915.745 210.494 916.085 211.405 915.63Z" fill="white"/>
<path d="M353.238 701.492C353.474 700.533 352.856 699.572 351.856 699.346C350.856 699.12 349.855 699.714 349.619 700.672C349.383 701.631 350.002 702.592 351.002 702.818C352.001 703.044 353.003 702.451 353.238 701.492Z" fill="white"/>
<path d="M72.3781 958.772C72.6142 957.814 71.9954 956.853 70.9958 956.627C69.9962 956.401 68.9948 956.994 68.7587 957.953C68.5226 958.912 69.142 959.872 70.1416 960.099C71.1411 960.325 72.1426 959.731 72.3781 958.772Z" fill="white"/>
<path d="M527.462 760.269C527.697 759.311 527.082 758.35 526.079 758.124C525.082 757.897 524.08 758.491 523.845 759.45C523.604 760.409 524.226 761.369 525.228 761.595C526.225 761.822 527.228 761.228 527.462 760.269Z" fill="white"/>
<path d="M404.112 668.09C404.348 667.131 403.729 666.17 402.729 665.944C401.73 665.718 400.728 666.312 400.492 667.27C400.257 668.229 400.876 669.19 401.875 669.416C402.875 669.642 403.876 669.049 404.112 668.09Z" fill="white"/>
<path d="M578.247 946.67C578.488 945.711 577.867 944.75 576.864 944.524C575.867 944.298 574.865 944.891 574.63 945.85C574.395 946.809 575.011 947.77 576.013 947.996C577.01 948.222 578.012 947.628 578.247 946.67Z" fill="white"/>
<path d="M582.893 883.039C583.128 882.08 582.506 881.12 581.509 880.893C580.507 880.667 579.504 881.261 579.269 882.22C579.034 883.179 579.656 884.139 580.653 884.365C581.655 884.591 582.652 883.998 582.893 883.039Z" fill="white"/>
<path d="M620.052 981.929C620.286 980.97 619.664 980.01 618.668 979.783C617.665 979.557 616.669 980.151 616.428 981.11C616.193 982.068 616.815 983.029 617.811 983.256C618.814 983.481 619.81 982.888 620.052 981.929Z" fill="white"/>
<path d="M245.754 744.275C246.212 742.417 245.012 740.555 243.074 740.116C241.137 739.677 239.195 740.829 238.738 742.687C238.28 744.546 239.48 746.408 241.418 746.847C243.356 747.285 245.297 746.135 245.754 744.275Z" fill="white"/>
<path d="M373.699 822.253C373.934 821.295 373.315 820.334 372.316 820.107C371.316 819.882 370.315 820.475 370.079 821.434C369.843 822.393 370.462 823.353 371.462 823.58C372.461 823.806 373.463 823.212 373.699 822.253Z" fill="white"/>
<path d="M471.328 958.497C471.562 957.538 470.947 956.577 469.944 956.351C468.948 956.124 467.945 956.719 467.71 957.677C467.475 958.636 468.091 959.597 469.094 959.823C470.09 960.049 471.093 959.455 471.328 958.497Z" fill="white"/>
<path d="M425.169 1021.17C425.405 1020.21 424.787 1019.25 423.787 1019.03C422.788 1018.8 421.786 1019.39 421.55 1020.35C421.314 1021.31 421.933 1022.27 422.933 1022.5C423.932 1022.73 424.934 1022.13 425.169 1021.17Z" fill="white"/>
<path d="M183.44 814.756C183.675 813.797 183.057 812.836 182.057 812.61C181.057 812.384 180.056 812.978 179.82 813.936C179.584 814.895 180.203 815.856 181.203 816.082C182.202 816.308 183.204 815.715 183.44 814.756Z" fill="white"/>
<path d="M29.9859 924.004C30.2214 923.046 29.6026 922.085 28.6031 921.858C27.6035 921.632 26.602 922.226 26.3659 923.185C26.1305 924.144 26.7492 925.104 27.7488 925.33C28.7484 925.557 29.7499 924.963 29.9859 924.004Z" fill="white"/>
<path d="M595.529 838.469C595.763 837.51 595.148 836.549 594.145 836.323C593.149 836.097 592.146 836.691 591.911 837.649C591.67 838.608 592.292 839.569 593.295 839.795C594.291 840.021 595.294 839.428 595.529 838.469Z" fill="white"/>
<path d="M471.962 863.326C472.203 862.367 471.581 861.406 470.585 861.18C469.582 860.954 468.58 861.547 468.345 862.506C468.11 863.465 468.732 864.426 469.728 864.652C470.725 864.878 471.727 864.284 471.962 863.326Z" fill="white"/>
<path d="M602.649 1026.04C602.884 1025.08 602.269 1024.12 601.266 1023.9C600.27 1023.67 599.267 1024.26 599.032 1025.22C598.791 1026.18 599.413 1027.14 600.409 1027.37C601.412 1027.59 602.415 1027 602.649 1026.04Z" fill="white"/>
<path d="M89.7643 882.432C90.0003 881.473 89.3809 880.512 88.3814 880.286C87.3818 880.059 86.3803 880.653 86.1448 881.612C85.9087 882.571 86.5275 883.532 87.5271 883.758C88.5267 883.984 89.5282 883.39 89.7643 882.432Z" fill="white"/>
<path d="M274.531 820.655C274.845 819.382 274.023 818.106 272.696 817.806C271.369 817.506 270.039 818.294 269.726 819.567C269.413 820.84 270.235 822.115 271.562 822.415C272.889 822.716 274.219 821.928 274.531 820.655Z" fill="white"/>
<path d="M494.302 914.67C494.613 913.397 493.794 912.122 492.468 911.821C491.141 911.521 489.809 912.309 489.498 913.582C489.18 914.855 490.005 916.13 491.332 916.431C492.658 916.731 493.991 915.943 494.302 914.67Z" fill="white"/>
<path d="M443.145 727.806C443.458 726.533 442.636 725.258 441.309 724.957C439.982 724.657 438.653 725.445 438.34 726.718C438.026 727.991 438.848 729.266 440.175 729.567C441.502 729.867 442.832 729.079 443.145 727.806Z" fill="white"/>
<path d="M238.929 876.181C239.242 874.909 238.42 873.633 237.093 873.332C235.766 873.032 234.437 873.821 234.123 875.094C233.81 876.367 234.632 877.642 235.959 877.942C237.286 878.243 238.616 877.454 238.929 876.181Z" fill="white"/>
<path d="M4.87224 1038.64C5.18512 1037.37 4.36325 1036.09 3.0362 1035.79C1.70915 1035.49 0.379572 1036.28 0.0666908 1037.56C-0.246825 1038.83 0.575042 1040.1 1.90209 1040.4C3.22914 1040.7 4.55872 1039.92 4.87224 1038.64Z" fill="white"/>
<path d="M537.42 850.836C537.731 849.563 536.912 848.287 535.586 847.987C534.26 847.687 532.927 848.475 532.616 849.748C532.305 851.021 533.124 852.296 534.45 852.597C535.776 852.897 537.109 852.109 537.42 850.836Z" fill="white"/>
<path d="M554.181 784.431C554.499 783.158 553.674 781.883 552.347 781.583C551.021 781.282 549.694 782.07 549.377 783.343C549.066 784.616 549.885 785.891 551.217 786.192C552.544 786.492 553.87 785.704 554.181 784.431Z" fill="white"/>
<path d="M327.525 1077.18C327.838 1075.9 327.016 1074.63 325.689 1074.33C324.362 1074.03 323.033 1074.81 322.719 1076.09C322.406 1077.36 323.228 1078.64 324.555 1078.94C325.882 1079.24 327.212 1078.45 327.525 1077.18Z" fill="white"/>
<path d="M351.797 889.13C352.111 887.858 351.289 886.582 349.962 886.282C348.635 885.981 347.305 886.77 346.992 888.043C346.679 889.315 347.501 890.591 348.828 890.892C350.155 891.192 351.485 890.403 351.797 889.13Z" fill="white"/>
<path d="M378.706 773.243C379.019 771.97 378.197 770.694 376.87 770.394C375.543 770.094 374.213 770.882 373.9 772.155C373.587 773.428 374.409 774.703 375.736 775.004C377.063 775.304 378.393 774.516 378.706 773.243Z" fill="white"/>
<path d="M1678.97 733.635C1679.18 732.785 1678.63 731.933 1677.74 731.732C1676.86 731.531 1675.97 732.058 1675.76 732.908C1675.55 733.759 1676.1 734.611 1676.98 734.812C1677.87 735.013 1678.76 734.486 1678.97 733.635Z" fill="white"/>
<path d="M1647.72 796.255C1648.02 795.059 1647.24 793.861 1646 793.578C1644.75 793.296 1643.5 794.037 1643.21 795.233C1642.91 796.429 1643.68 797.627 1644.93 797.91C1646.18 798.192 1647.43 797.451 1647.72 796.255Z" fill="white"/>
<path d="M1788.39 850.388C1788.68 849.192 1787.91 847.993 1786.66 847.711C1785.41 847.429 1784.16 848.169 1783.87 849.365C1783.58 850.562 1784.35 851.76 1785.59 852.042C1786.84 852.325 1788.09 851.584 1788.39 850.388Z" fill="white"/>
<path d="M1659.53 933.414C1660.67 932.847 1661.11 931.503 1660.52 930.413C1659.93 929.323 1658.53 928.899 1657.39 929.466C1656.25 930.034 1655.81 931.377 1656.4 932.467C1656.99 933.557 1658.4 933.981 1659.53 933.414Z" fill="white"/>
<path d="M1810.46 813.894C1810.75 812.698 1809.98 811.499 1808.73 811.217C1807.49 810.935 1806.24 811.675 1805.94 812.872C1805.65 814.068 1806.42 815.266 1807.67 815.548C1808.91 815.831 1810.16 815.09 1810.46 813.894Z" fill="white"/>
<path d="M1799.64 886.894C1799.94 885.698 1799.17 884.499 1797.92 884.217C1796.67 883.935 1795.42 884.675 1795.13 885.872C1794.83 887.067 1795.61 888.266 1796.85 888.548C1798.1 888.83 1799.35 888.09 1799.64 886.894Z" fill="white"/>
<path d="M1540.84 839.86C1541 839.219 1540.58 838.577 1539.91 838.426C1539.25 838.275 1538.58 838.671 1538.42 839.312C1538.26 839.953 1538.68 840.595 1539.34 840.746C1540.01 840.897 1540.68 840.5 1540.84 839.86Z" fill="white"/>
<path d="M1609.14 768.093C1609.3 767.453 1608.88 766.811 1608.21 766.66C1607.55 766.509 1606.88 766.905 1606.72 767.546C1606.56 768.187 1606.98 768.829 1607.64 768.98C1608.31 769.131 1608.98 768.734 1609.14 768.093Z" fill="white"/>
<path d="M1646.91 882.456C1647.52 882.152 1647.76 881.432 1647.44 880.848C1647.12 880.265 1646.37 880.037 1645.77 880.341C1645.16 880.645 1644.92 881.365 1645.24 881.949C1645.55 882.532 1646.3 882.76 1646.91 882.456Z" fill="white"/>
<path d="M1741.68 739.37C1741.84 738.73 1741.43 738.088 1740.76 737.937C1740.09 737.786 1739.42 738.182 1739.27 738.823C1739.11 739.464 1739.52 740.105 1740.19 740.257C1740.86 740.408 1741.53 740.011 1741.68 739.37Z" fill="white"/>
<path d="M1554.02 911.283C1554.17 910.642 1553.76 910.001 1553.09 909.849C1552.42 909.698 1551.76 910.095 1551.6 910.736C1551.44 911.376 1551.85 912.018 1552.52 912.17C1553.19 912.32 1553.86 911.924 1554.02 911.283Z" fill="white"/>
<path d="M1858.1 778.645C1858.26 778.004 1857.85 777.363 1857.18 777.211C1856.51 777.06 1855.84 777.457 1855.68 778.098C1855.52 778.738 1855.94 779.38 1856.61 779.531C1857.27 779.682 1857.94 779.286 1858.1 778.645Z" fill="white"/>
<path d="M1775.68 717.051C1775.84 716.411 1775.42 715.769 1774.75 715.618C1774.09 715.467 1773.42 715.863 1773.26 716.504C1773.1 717.145 1773.52 717.787 1774.18 717.938C1774.85 718.089 1775.52 717.692 1775.68 717.051Z" fill="white"/>
<path d="M1892.03 903.196C1892.19 902.556 1891.78 901.914 1891.11 901.762C1890.44 901.611 1889.77 902.008 1889.62 902.649C1889.46 903.289 1889.87 903.931 1890.54 904.083C1891.21 904.233 1891.88 903.837 1892.03 903.196Z" fill="white"/>
<path d="M1895.14 860.679C1895.29 860.038 1894.88 859.396 1894.21 859.245C1893.54 859.094 1892.87 859.491 1892.72 860.131C1892.56 860.772 1892.98 861.414 1893.64 861.565C1894.31 861.716 1894.98 861.319 1895.14 860.679Z" fill="white"/>
<path d="M1919.97 926.756C1920.12 926.116 1919.71 925.474 1919.04 925.322C1918.37 925.171 1917.71 925.568 1917.55 926.209C1917.39 926.849 1917.8 927.491 1918.47 927.643C1919.14 927.794 1919.81 927.397 1919.97 926.756Z" fill="white"/>
<path d="M1669.86 767.958C1670.17 766.716 1669.37 765.472 1668.07 765.179C1666.78 764.886 1665.48 765.655 1665.18 766.897C1664.87 768.139 1665.67 769.383 1666.97 769.676C1668.26 769.969 1669.56 769.2 1669.86 767.958Z" fill="white"/>
<path d="M1755.36 820.062C1755.51 819.422 1755.1 818.78 1754.43 818.628C1753.76 818.477 1753.09 818.874 1752.94 819.515C1752.78 820.155 1753.19 820.797 1753.86 820.949C1754.53 821.099 1755.2 820.703 1755.36 820.062Z" fill="white"/>
<path d="M1820.59 911.099C1820.75 910.458 1820.34 909.816 1819.67 909.665C1819 909.514 1818.33 909.911 1818.17 910.551C1818.02 911.192 1818.43 911.834 1819.1 911.985C1819.76 912.136 1820.43 911.74 1820.59 911.099Z" fill="white"/>
<path d="M1789.75 952.979C1789.91 952.338 1789.49 951.696 1788.82 951.545C1788.16 951.393 1787.49 951.79 1787.33 952.431C1787.17 953.072 1787.59 953.714 1788.25 953.864C1788.92 954.016 1789.59 953.619 1789.75 952.979Z" fill="white"/>
<path d="M1628.23 815.052C1628.38 814.412 1627.97 813.77 1627.3 813.619C1626.63 813.467 1625.97 813.864 1625.81 814.505C1625.65 815.146 1626.06 815.787 1626.73 815.938C1627.4 816.09 1628.07 815.693 1628.23 815.052Z" fill="white"/>
<path d="M1525.69 888.051C1525.85 887.411 1525.43 886.769 1524.77 886.618C1524.1 886.466 1523.43 886.863 1523.27 887.504C1523.11 888.145 1523.53 888.786 1524.19 888.937C1524.86 889.089 1525.53 888.692 1525.69 888.051Z" fill="white"/>
<path d="M1903.58 830.897C1903.74 830.257 1903.33 829.615 1902.66 829.463C1901.99 829.312 1901.32 829.709 1901.16 830.35C1901 830.99 1901.42 831.632 1902.09 831.783C1902.75 831.935 1903.42 831.538 1903.58 830.897Z" fill="white"/>
<path d="M1821.01 847.506C1821.18 846.866 1820.76 846.224 1820.09 846.073C1819.42 845.922 1818.75 846.318 1818.6 846.959C1818.44 847.6 1818.86 848.241 1819.52 848.393C1820.19 848.544 1820.86 848.147 1821.01 847.506Z" fill="white"/>
<path d="M1908.34 956.232C1908.5 955.591 1908.08 954.949 1907.41 954.798C1906.75 954.647 1906.08 955.044 1905.92 955.684C1905.76 956.325 1906.18 956.967 1906.84 957.118C1907.51 957.269 1908.18 956.872 1908.34 956.232Z" fill="white"/>
<path d="M1565.63 860.273C1565.79 859.632 1565.38 858.99 1564.71 858.839C1564.04 858.688 1563.37 859.085 1563.21 859.725C1563.06 860.366 1563.47 861.008 1564.14 861.159C1564.81 861.31 1565.48 860.914 1565.63 860.273Z" fill="white"/>
<path d="M1689.09 818.994C1689.3 818.143 1688.75 817.291 1687.87 817.091C1686.98 816.89 1686.09 817.417 1685.88 818.267C1685.67 819.118 1686.22 819.97 1687.11 820.17C1688 820.371 1688.88 819.845 1689.09 818.994Z" fill="white"/>
<path d="M1835.94 881.814C1836.15 880.964 1835.6 880.112 1834.72 879.911C1833.83 879.71 1832.94 880.237 1832.73 881.087C1832.52 881.938 1833.07 882.79 1833.96 882.991C1834.84 883.191 1835.73 882.665 1835.94 881.814Z" fill="white"/>
<path d="M1801.76 756.953C1801.97 756.103 1801.42 755.251 1800.53 755.05C1799.65 754.849 1798.76 755.375 1798.55 756.226C1798.34 757.077 1798.89 757.929 1799.77 758.13C1800.66 758.33 1801.55 757.804 1801.76 756.953Z" fill="white"/>
<path d="M1665.3 856.097C1665.51 855.246 1664.96 854.394 1664.08 854.193C1663.19 853.992 1662.3 854.519 1662.09 855.37C1661.88 856.22 1662.43 857.072 1663.32 857.273C1664.21 857.474 1665.09 856.947 1665.3 856.097Z" fill="white"/>
<path d="M1508.91 964.652C1509.12 963.801 1508.57 962.949 1507.68 962.748C1506.8 962.548 1505.91 963.075 1505.7 963.925C1505.49 964.776 1506.04 965.628 1506.92 965.828C1507.81 966.029 1508.7 965.503 1508.91 964.652Z" fill="white"/>
<path d="M1864.75 839.161C1864.96 838.31 1864.41 837.458 1863.53 837.257C1862.64 837.057 1861.75 837.583 1861.54 838.434C1861.34 839.284 1861.88 840.137 1862.77 840.338C1863.65 840.538 1864.55 840.011 1864.75 839.161Z" fill="white"/>
<path d="M1875.95 794.79C1876.16 793.939 1875.61 793.087 1874.73 792.886C1873.84 792.685 1872.95 793.212 1872.74 794.063C1872.53 794.913 1873.08 795.766 1873.97 795.966C1874.86 796.167 1875.75 795.64 1875.95 794.79Z" fill="white"/>
<path d="M1724.5 990.399C1724.71 989.549 1724.16 988.696 1723.28 988.496C1722.39 988.295 1721.5 988.822 1721.29 989.672C1721.08 990.523 1721.63 991.375 1722.52 991.576C1723.4 991.776 1724.29 991.25 1724.5 990.399Z" fill="white"/>
<path d="M1740.72 864.749C1740.93 863.899 1740.38 863.046 1739.5 862.846C1738.61 862.645 1737.72 863.171 1737.51 864.022C1737.3 864.873 1737.85 865.725 1738.74 865.926C1739.62 866.126 1740.51 865.599 1740.72 864.749Z" fill="white"/>
<path d="M1758.7 787.314C1758.91 786.463 1758.36 785.611 1757.47 785.41C1756.59 785.209 1755.7 785.736 1755.49 786.587C1755.28 787.437 1755.83 788.29 1756.72 788.49C1757.6 788.691 1758.49 788.164 1758.7 787.314Z" fill="white"/>
<path d="M311.902 329.448C312.215 328.175 311.393 326.9 310.066 326.6C308.739 326.299 307.41 327.087 307.096 328.36C306.783 329.633 307.605 330.909 308.932 331.209C310.259 331.509 311.589 330.721 311.902 329.448Z" fill="white"/>
<path d="M265.139 423.163C265.579 421.373 264.424 419.58 262.558 419.157C260.692 418.735 258.822 419.843 258.382 421.633C257.941 423.424 259.097 425.217 260.963 425.639C262.829 426.062 264.699 424.953 265.139 423.163Z" fill="white"/>
<path d="M475.652 504.177C476.093 502.387 474.937 500.594 473.071 500.171C471.205 499.749 469.335 500.857 468.895 502.647C468.454 504.437 469.61 506.231 471.476 506.653C473.342 507.076 475.212 505.967 475.652 504.177Z" fill="white"/>
<path d="M282.814 628.432C284.515 627.583 285.176 625.573 284.291 623.941C283.406 622.31 281.31 621.675 279.609 622.524C277.909 623.373 277.247 625.384 278.132 627.015C279.017 628.647 281.113 629.281 282.814 628.432Z" fill="white"/>
<path d="M508.682 449.561C509.126 447.771 507.971 445.978 506.106 445.555C504.24 445.133 502.367 446.241 501.93 448.031C501.485 449.821 502.64 451.615 504.506 452.037C506.372 452.46 508.244 451.351 508.682 449.561Z" fill="white"/>
<path d="M492.503 558.811C492.943 557.021 491.787 555.227 489.921 554.805C488.055 554.382 486.186 555.491 485.745 557.281C485.305 559.071 486.461 560.864 488.326 561.287C490.192 561.709 492.063 560.601 492.503 558.811Z" fill="white"/>
<path d="M105.18 488.421C105.416 487.462 104.797 486.501 103.797 486.275C102.798 486.049 101.796 486.643 101.56 487.601C101.324 488.56 101.944 489.521 102.943 489.747C103.942 489.973 104.944 489.38 105.18 488.421Z" fill="white"/>
<path d="M207.396 381.017C207.632 380.059 207.013 379.098 206.013 378.872C205.013 378.646 204.012 379.239 203.777 380.198C203.54 381.157 204.159 382.117 205.159 382.344C206.158 382.57 207.16 381.976 207.396 381.017Z" fill="white"/>
<path d="M263.928 552.169C264.839 551.715 265.193 550.638 264.719 549.764C264.245 548.89 263.123 548.55 262.211 549.005C261.301 549.459 260.946 550.537 261.42 551.41C261.894 552.284 263.017 552.624 263.928 552.169Z" fill="white"/>
<path d="M405.761 338.031C405.997 337.072 405.378 336.112 404.379 335.885C403.379 335.659 402.378 336.253 402.141 337.212C401.905 338.17 402.525 339.131 403.524 339.358C404.524 339.583 405.525 338.99 405.761 338.031Z" fill="white"/>
<path d="M124.901 595.312C125.137 594.353 124.518 593.392 123.519 593.166C122.519 592.94 121.517 593.533 121.281 594.492C121.045 595.451 121.665 596.412 122.664 596.638C123.664 596.864 124.665 596.27 124.901 595.312Z" fill="white"/>
<path d="M579.985 396.809C580.22 395.85 579.604 394.889 578.602 394.663C577.605 394.436 576.603 395.03 576.368 395.989C576.127 396.948 576.749 397.909 577.751 398.135C578.748 398.361 579.75 397.767 579.985 396.809Z" fill="white"/>
<path d="M456.635 304.629C456.871 303.67 456.252 302.71 455.252 302.483C454.253 302.257 453.251 302.851 453.015 303.81C452.78 304.768 453.398 305.729 454.398 305.956C455.398 306.181 456.399 305.588 456.635 304.629Z" fill="white"/>
<path d="M630.77 583.209C631.011 582.25 630.389 581.289 629.386 581.063C628.39 580.837 627.387 581.431 627.152 582.39C626.918 583.348 627.533 584.309 628.536 584.535C629.532 584.761 630.535 584.168 630.77 583.209Z" fill="white"/>
<path d="M635.416 519.578C635.65 518.62 635.028 517.659 634.032 517.432C633.029 517.206 632.027 517.8 631.792 518.759C631.557 519.718 632.179 520.678 633.175 520.904C634.178 521.131 635.174 520.537 635.416 519.578Z" fill="white"/>
<path d="M672.574 618.468C672.809 617.509 672.187 616.549 671.191 616.322C670.188 616.097 669.192 616.69 668.95 617.649C668.716 618.608 669.338 619.568 670.334 619.795C671.337 620.021 672.333 619.427 672.574 618.468Z" fill="white"/>
<path d="M298.277 380.815C298.735 378.956 297.535 377.094 295.597 376.656C293.659 376.217 291.718 377.368 291.261 379.226C290.803 381.085 292.003 382.947 293.941 383.386C295.879 383.824 297.82 382.674 298.277 380.815Z" fill="white"/>
<path d="M426.221 458.793C426.457 457.834 425.838 456.873 424.839 456.647C423.839 456.421 422.838 457.014 422.602 457.973C422.366 458.932 422.985 459.893 423.984 460.119C424.984 460.345 425.985 459.751 426.221 458.793Z" fill="white"/>
<path d="M523.85 595.036C524.085 594.077 523.47 593.116 522.467 592.89C521.47 592.664 520.468 593.258 520.233 594.217C519.998 595.175 520.614 596.136 521.616 596.362C522.613 596.588 523.616 595.995 523.85 595.036Z" fill="white"/>
<path d="M477.692 657.712C477.928 656.753 477.31 655.793 476.31 655.566C475.31 655.34 474.309 655.934 474.073 656.893C473.837 657.851 474.456 658.812 475.456 659.038C476.455 659.264 477.457 658.671 477.692 657.712Z" fill="white"/>
<path d="M235.963 451.295C236.198 450.336 235.579 449.376 234.58 449.149C233.58 448.923 232.579 449.517 232.343 450.476C232.107 451.434 232.726 452.395 233.726 452.621C234.725 452.847 235.727 452.254 235.963 451.295Z" fill="white"/>
<path d="M82.5088 560.544C82.7442 559.585 82.1255 558.624 81.1259 558.398C80.1263 558.171 79.1248 558.765 78.8887 559.724C78.6533 560.683 79.2721 561.644 80.2716 561.869C81.2712 562.096 82.2727 561.502 82.5088 560.544Z" fill="white"/>
<path d="M648.051 475.008C648.286 474.049 647.671 473.089 646.668 472.862C645.672 472.636 644.669 473.23 644.434 474.189C644.193 475.147 644.815 476.108 645.818 476.334C646.814 476.56 647.817 475.967 648.051 475.008Z" fill="white"/>
<path d="M524.485 499.865C524.726 498.906 524.104 497.945 523.108 497.719C522.105 497.493 521.102 498.087 520.867 499.046C520.633 500.004 521.255 500.965 522.251 501.191C523.247 501.417 524.25 500.824 524.485 499.865Z" fill="white"/>
<path d="M655.172 662.581C655.407 661.622 654.791 660.661 653.789 660.435C652.792 660.209 651.79 660.803 651.555 661.761C651.314 662.72 651.936 663.681 652.932 663.907C653.935 664.133 654.937 663.54 655.172 662.581Z" fill="white"/>
<path d="M142.287 518.971C142.523 518.012 141.904 517.051 140.904 516.825C139.905 516.598 138.903 517.193 138.668 518.151C138.432 519.11 139.05 520.071 140.05 520.297C141.05 520.523 142.051 519.93 142.287 518.971Z" fill="white"/>
<path d="M327.054 457.194C327.368 455.921 326.546 454.646 325.219 454.346C323.892 454.045 322.562 454.833 322.249 456.106C321.936 457.379 322.758 458.654 324.085 458.954C325.412 459.255 326.741 458.467 327.054 457.194Z" fill="white"/>
<path d="M546.825 551.21C547.136 549.937 546.317 548.661 544.991 548.361C543.664 548.06 542.331 548.848 542.02 550.121C541.703 551.394 542.528 552.669 543.855 552.97C545.181 553.27 546.514 552.482 546.825 551.21Z" fill="white"/>
<path d="M495.668 364.345C495.981 363.072 495.159 361.797 493.832 361.496C492.505 361.196 491.175 361.984 490.863 363.257C490.549 364.53 491.371 365.805 492.698 366.106C494.025 366.406 495.355 365.618 495.668 364.345Z" fill="white"/>
<path d="M291.452 512.721C291.765 511.448 290.943 510.172 289.616 509.872C288.289 509.572 286.959 510.36 286.646 511.633C286.333 512.906 287.155 514.181 288.482 514.481C289.809 514.782 291.139 513.994 291.452 512.721Z" fill="white"/>
<path d="M57.3951 675.182C57.7079 673.909 56.8861 672.634 55.559 672.333C54.232 672.033 52.9024 672.821 52.5895 674.094C52.276 675.367 53.0979 676.643 54.4249 676.943C55.752 677.243 57.0815 676.455 57.3951 675.182Z" fill="white"/>
<path d="M589.943 487.375C590.254 486.102 589.435 484.827 588.109 484.527C586.782 484.226 585.45 485.014 585.139 486.287C584.828 487.56 585.646 488.835 586.973 489.136C588.299 489.436 589.632 488.648 589.943 487.375Z" fill="white"/>
<path d="M606.704 420.97C607.021 419.697 606.196 418.422 604.87 418.122C603.543 417.821 602.217 418.61 601.9 419.882C601.589 421.155 602.407 422.431 603.74 422.731C605.067 423.032 606.393 422.243 606.704 420.97Z" fill="white"/>
<path d="M380.048 713.715C380.361 712.442 379.539 711.167 378.212 710.866C376.885 710.566 375.556 711.354 375.242 712.627C374.929 713.9 375.751 715.175 377.078 715.475C378.404 715.776 379.735 714.988 380.048 713.715Z" fill="white"/>
<path d="M404.32 525.67C404.634 524.397 403.812 523.121 402.485 522.821C401.158 522.52 399.828 523.309 399.515 524.582C399.202 525.855 400.024 527.13 401.351 527.431C402.678 527.731 404.007 526.943 404.32 525.67Z" fill="white"/>
<path d="M431.229 409.782C431.542 408.509 430.72 407.234 429.393 406.934C428.066 406.633 426.736 407.421 426.423 408.694C426.11 409.967 426.932 411.242 428.259 411.543C429.586 411.843 430.915 411.055 431.229 409.782Z" fill="white"/>
<path d="M1550.08 341.115C1550.39 339.842 1549.57 338.567 1548.24 338.266C1546.92 337.966 1545.59 338.754 1545.27 340.027C1544.96 341.3 1545.78 342.575 1547.11 342.876C1548.44 343.176 1549.77 342.388 1550.08 341.115Z" fill="white"/>
<path d="M1503.32 434.83C1503.76 433.04 1502.6 431.247 1500.73 430.824C1498.87 430.402 1497 431.51 1496.56 433.3C1496.12 435.09 1497.27 436.884 1499.14 437.306C1501.01 437.729 1502.88 436.62 1503.32 434.83Z" fill="white"/>
<path d="M1713.83 515.843C1714.27 514.054 1713.11 512.26 1711.25 511.838C1709.38 511.415 1707.51 512.524 1707.07 514.314C1706.63 516.104 1707.79 517.897 1709.65 518.32C1711.52 518.742 1713.39 517.634 1713.83 515.843Z" fill="white"/>
<path d="M1520.99 640.098C1522.69 639.25 1523.35 637.239 1522.47 635.608C1521.58 633.976 1519.49 633.342 1517.79 634.191C1516.08 635.04 1515.42 637.05 1516.31 638.682C1517.19 640.313 1519.29 640.948 1520.99 640.098Z" fill="white"/>
<path d="M1746.86 461.228C1747.3 459.438 1746.15 457.644 1744.28 457.222C1742.42 456.799 1740.54 457.908 1740.11 459.698C1739.66 461.488 1740.82 463.281 1742.68 463.704C1744.55 464.126 1746.42 463.018 1746.86 461.228Z" fill="white"/>
<path d="M1730.68 570.478C1731.12 568.687 1729.96 566.894 1728.1 566.472C1726.23 566.049 1724.36 567.158 1723.92 568.948C1723.48 570.738 1724.64 572.531 1726.5 572.954C1728.37 573.376 1730.24 572.268 1730.68 570.478Z" fill="white"/>
<path d="M1343.36 500.087C1343.59 499.129 1342.97 498.168 1341.97 497.942C1340.97 497.716 1339.97 498.309 1339.74 499.268C1339.5 500.227 1340.12 501.188 1341.12 501.414C1342.12 501.64 1343.12 501.046 1343.36 500.087Z" fill="white"/>
<path d="M1445.57 392.684C1445.81 391.725 1445.19 390.765 1444.19 390.539C1443.19 390.312 1442.19 390.906 1441.95 391.865C1441.72 392.823 1442.34 393.784 1443.34 394.011C1444.33 394.237 1445.34 393.643 1445.57 392.684Z" fill="white"/>
<path d="M1502.1 563.836C1503.02 563.381 1503.37 562.304 1502.9 561.43C1502.42 560.557 1501.3 560.216 1500.39 560.671C1499.48 561.126 1499.12 562.203 1499.6 563.077C1500.07 563.951 1501.19 564.291 1502.1 563.836Z" fill="white"/>
<path d="M1643.94 349.698C1644.17 348.739 1643.55 347.778 1642.55 347.552C1641.56 347.326 1640.55 347.92 1640.32 348.878C1640.08 349.837 1640.7 350.798 1641.7 351.024C1642.7 351.25 1643.7 350.657 1643.94 349.698Z" fill="white"/>
<path d="M1363.08 606.978C1363.31 606.019 1362.69 605.059 1361.69 604.832C1360.7 604.607 1359.69 605.2 1359.46 606.159C1359.22 607.118 1359.84 608.078 1360.84 608.305C1361.84 608.531 1362.84 607.937 1363.08 606.978Z" fill="white"/>
<path d="M1818.16 408.475C1818.4 407.516 1817.78 406.556 1816.78 406.329C1815.78 406.103 1814.78 406.697 1814.54 407.656C1814.3 408.615 1814.92 409.575 1815.93 409.801C1816.92 410.028 1817.93 409.434 1818.16 408.475Z" fill="white"/>
<path d="M1694.81 316.296C1695.05 315.337 1694.43 314.376 1693.43 314.15C1692.43 313.924 1691.43 314.518 1691.19 315.476C1690.96 316.435 1691.57 317.396 1692.57 317.622C1693.57 317.848 1694.58 317.255 1694.81 316.296Z" fill="white"/>
<path d="M1868.95 594.876C1869.19 593.917 1868.57 592.956 1867.56 592.73C1866.57 592.504 1865.56 593.097 1865.33 594.056C1865.09 595.015 1865.71 595.976 1866.71 596.202C1867.71 596.428 1868.71 595.834 1868.95 594.876Z" fill="white"/>
<path d="M1873.59 531.245C1873.83 530.286 1873.2 529.326 1872.21 529.099C1871.21 528.873 1870.2 529.467 1869.97 530.426C1869.73 531.384 1870.36 532.345 1871.35 532.571C1872.35 532.797 1873.35 532.204 1873.59 531.245Z" fill="white"/>
<path d="M1910.75 630.135C1910.99 629.176 1910.36 628.215 1909.37 627.989C1908.36 627.763 1907.37 628.357 1907.13 629.315C1906.89 630.274 1907.51 631.235 1908.51 631.461C1909.51 631.687 1910.51 631.094 1910.75 630.135Z" fill="white"/>
<path d="M1536.45 392.481C1536.91 390.623 1535.71 388.761 1533.77 388.322C1531.84 387.883 1529.89 389.035 1529.44 390.893C1528.98 392.752 1530.18 394.614 1532.12 395.053C1534.06 395.491 1536 394.34 1536.45 392.481Z" fill="white"/>
<path d="M1664.4 470.459C1664.63 469.5 1664.01 468.54 1663.01 468.313C1662.02 468.087 1661.01 468.681 1660.78 469.64C1660.54 470.599 1661.16 471.559 1662.16 471.786C1663.16 472.011 1664.16 471.418 1664.4 470.459Z" fill="white"/>
<path d="M1762.03 606.703C1762.26 605.744 1761.65 604.783 1760.64 604.557C1759.65 604.33 1758.64 604.924 1758.41 605.883C1758.17 606.842 1758.79 607.803 1759.79 608.028C1760.79 608.255 1761.79 607.661 1762.03 606.703Z" fill="white"/>
<path d="M1715.87 669.379C1716.1 668.42 1715.49 667.459 1714.49 667.233C1713.49 667.006 1712.49 667.6 1712.25 668.559C1712.01 669.518 1712.63 670.479 1713.63 670.704C1714.63 670.931 1715.63 670.337 1715.87 669.379Z" fill="white"/>
<path d="M1474.14 462.962C1474.37 462.003 1473.76 461.042 1472.76 460.816C1471.76 460.589 1470.76 461.183 1470.52 462.142C1470.28 463.101 1470.9 464.062 1471.9 464.288C1472.9 464.514 1473.9 463.92 1474.14 462.962Z" fill="white"/>
<path d="M1320.69 572.21C1320.92 571.251 1320.3 570.291 1319.3 570.064C1318.3 569.838 1317.3 570.432 1317.07 571.391C1316.83 572.35 1317.45 573.31 1318.45 573.536C1319.45 573.763 1320.45 573.169 1320.69 572.21Z" fill="white"/>
<path d="M1886.23 486.675C1886.46 485.716 1885.85 484.755 1884.84 484.529C1883.85 484.302 1882.85 484.897 1882.61 485.855C1882.37 486.814 1882.99 487.775 1883.99 488.001C1884.99 488.227 1885.99 487.634 1886.23 486.675Z" fill="white"/>
<path d="M1762.66 511.532C1762.9 510.573 1762.28 509.612 1761.28 509.386C1760.28 509.16 1759.28 509.753 1759.04 510.712C1758.81 511.671 1759.43 512.632 1760.43 512.858C1761.42 513.084 1762.43 512.49 1762.66 511.532Z" fill="white"/>
<path d="M1893.35 674.247C1893.58 673.289 1892.97 672.328 1891.97 672.102C1890.97 671.876 1889.97 672.469 1889.73 673.428C1889.49 674.387 1890.11 675.347 1891.11 675.574C1892.11 675.8 1893.11 675.206 1893.35 674.247Z" fill="white"/>
<path d="M1380.46 530.637C1380.7 529.679 1380.08 528.718 1379.08 528.492C1378.08 528.265 1377.08 528.859 1376.84 529.818C1376.61 530.777 1377.23 531.737 1378.23 531.963C1379.23 532.19 1380.23 531.596 1380.46 530.637Z" fill="white"/>
<path d="M1565.23 468.861C1565.54 467.588 1564.72 466.312 1563.4 466.012C1562.07 465.711 1560.74 466.5 1560.42 467.773C1560.11 469.046 1560.93 470.321 1562.26 470.621C1563.59 470.922 1564.92 470.133 1565.23 468.861Z" fill="white"/>
<path d="M1785 562.876C1785.31 561.603 1784.49 560.328 1783.17 560.027C1781.84 559.727 1780.51 560.515 1780.2 561.788C1779.88 563.061 1780.7 564.336 1782.03 564.637C1783.36 564.937 1784.69 564.148 1785 562.876Z" fill="white"/>
<path d="M1733.84 376.012C1734.16 374.739 1733.34 373.464 1732.01 373.163C1730.68 372.863 1729.35 373.651 1729.04 374.924C1728.73 376.196 1729.55 377.472 1730.87 377.773C1732.2 378.073 1733.53 377.285 1733.84 376.012Z" fill="white"/>
<path d="M1529.63 524.387C1529.94 523.114 1529.12 521.839 1527.79 521.538C1526.47 521.238 1525.14 522.027 1524.82 523.299C1524.51 524.572 1525.33 525.848 1526.66 526.148C1527.99 526.449 1529.31 525.66 1529.63 524.387Z" fill="white"/>
<path d="M1295.57 686.849C1295.88 685.576 1295.06 684.301 1293.74 684C1292.41 683.7 1291.08 684.488 1290.77 685.761C1290.45 687.034 1291.27 688.309 1292.6 688.609C1293.93 688.91 1295.26 688.122 1295.57 686.849Z" fill="white"/>
<path d="M1828.12 499.042C1828.43 497.769 1827.61 496.493 1826.29 496.193C1824.96 495.893 1823.63 496.681 1823.32 497.954C1823 499.227 1823.82 500.502 1825.15 500.803C1826.48 501.103 1827.81 500.315 1828.12 499.042Z" fill="white"/>
<path d="M1844.88 432.637C1845.2 431.364 1844.37 430.089 1843.05 429.789C1841.72 429.488 1840.39 430.276 1840.08 431.549C1839.77 432.822 1840.58 434.097 1841.92 434.398C1843.24 434.698 1844.57 433.91 1844.88 432.637Z" fill="white"/>
<path d="M1618.22 725.381C1618.54 724.108 1617.72 722.833 1616.39 722.532C1615.06 722.232 1613.73 723.021 1613.42 724.294C1613.11 725.566 1613.93 726.842 1615.25 727.142C1616.58 727.443 1617.91 726.654 1618.22 725.381Z" fill="white"/>
<path d="M1642.5 537.336C1642.81 536.064 1641.99 534.788 1640.66 534.488C1639.33 534.187 1638 534.975 1637.69 536.248C1637.38 537.521 1638.2 538.797 1639.53 539.097C1640.85 539.398 1642.18 538.609 1642.5 537.336Z" fill="white"/>
<path d="M1669.41 421.449C1669.72 420.176 1668.9 418.9 1667.57 418.6C1666.24 418.299 1664.91 419.088 1664.6 420.361C1664.29 421.634 1665.11 422.909 1666.43 423.21C1667.76 423.51 1669.09 422.721 1669.41 421.449Z" fill="white"/>
<path d="M909.106 403.038C909.419 401.765 908.597 400.49 907.27 400.189C905.943 399.889 904.613 400.677 904.3 401.95C903.987 403.223 904.809 404.498 906.136 404.799C907.463 405.099 908.793 404.311 909.106 403.038Z" fill="white"/>
<path d="M862.343 496.753C862.783 494.963 861.627 493.169 859.761 492.747C857.896 492.325 856.026 493.433 855.585 495.223C855.145 497.013 856.301 498.807 858.167 499.229C860.032 499.652 861.903 498.543 862.343 496.753Z" fill="white"/>
<path d="M1072.86 577.766C1073.3 575.977 1072.14 574.183 1070.27 573.761C1068.41 573.338 1066.54 574.447 1066.1 576.237C1065.66 578.027 1066.81 579.82 1068.68 580.243C1070.55 580.665 1072.42 579.557 1072.86 577.766Z" fill="white"/>
<path d="M880.018 702.021C881.718 701.173 882.38 699.162 881.495 697.531C880.61 695.899 878.513 695.265 876.813 696.113C875.112 696.963 874.451 698.973 875.336 700.605C876.22 702.236 878.317 702.871 880.018 702.021Z" fill="white"/>
<path d="M1105.89 523.151C1106.33 521.361 1105.18 519.567 1103.31 519.145C1101.44 518.722 1099.57 519.831 1099.13 521.621C1098.69 523.411 1099.84 525.204 1101.71 525.627C1103.58 526.049 1105.45 524.941 1105.89 523.151Z" fill="white"/>
<path d="M1089.71 632.401C1090.15 630.61 1088.99 628.817 1087.12 628.394C1085.26 627.972 1083.39 629.081 1082.95 630.871C1082.51 632.661 1083.66 634.454 1085.53 634.877C1087.4 635.299 1089.27 634.19 1089.71 632.401Z" fill="white"/>
<path d="M702.383 562.01C702.619 561.052 702.001 560.091 701.001 559.865C700.001 559.639 699 560.232 698.764 561.191C698.528 562.15 699.147 563.11 700.147 563.337C701.146 563.563 702.148 562.969 702.383 562.01Z" fill="white"/>
<path d="M804.6 454.607C804.836 453.648 804.216 452.688 803.217 452.462C802.217 452.235 801.216 452.829 800.98 453.788C800.744 454.746 801.363 455.707 802.362 455.933C803.362 456.16 804.364 455.566 804.6 454.607Z" fill="white"/>
<path d="M861.132 625.759C862.042 625.304 862.397 624.227 861.923 623.353C861.449 622.48 860.326 622.139 859.415 622.594C858.504 623.049 858.15 624.126 858.624 625C859.098 625.874 860.221 626.214 861.132 625.759Z" fill="white"/>
<path d="M1002.96 411.621C1003.2 410.662 1002.58 409.701 1001.58 409.475C1000.58 409.249 999.581 409.842 999.345 410.801C999.109 411.76 999.729 412.721 1000.73 412.947C1001.73 413.173 1002.73 412.579 1002.96 411.621Z" fill="white"/>
<path d="M722.105 668.901C722.341 667.942 721.722 666.982 720.722 666.755C719.723 666.529 718.721 667.123 718.485 668.082C718.249 669.041 718.868 670.001 719.868 670.228C720.868 670.454 721.869 669.86 722.105 668.901Z" fill="white"/>
<path d="M1177.19 470.398C1177.42 469.439 1176.81 468.479 1175.81 468.252C1174.81 468.026 1173.81 468.62 1173.57 469.579C1173.33 470.538 1173.95 471.498 1174.95 471.724C1175.95 471.951 1176.95 471.357 1177.19 470.398Z" fill="white"/>
<path d="M1053.84 378.219C1054.07 377.26 1053.46 376.299 1052.46 376.073C1051.46 375.847 1050.45 376.44 1050.22 377.399C1049.98 378.358 1050.6 379.319 1051.6 379.545C1052.6 379.771 1053.6 379.177 1053.84 378.219Z" fill="white"/>
<path d="M1227.97 656.798C1228.21 655.84 1227.59 654.879 1226.59 654.653C1225.59 654.427 1224.59 655.02 1224.36 655.979C1224.12 656.938 1224.74 657.899 1225.74 658.125C1226.74 658.351 1227.74 657.757 1227.97 656.798Z" fill="white"/>
<path d="M1232.62 593.168C1232.85 592.209 1232.23 591.249 1231.24 591.022C1230.23 590.796 1229.23 591.39 1229 592.349C1228.76 593.307 1229.38 594.268 1230.38 594.494C1231.38 594.72 1232.38 594.127 1232.62 593.168Z" fill="white"/>
<path d="M1269.78 692.058C1270.01 691.099 1269.39 690.138 1268.39 689.912C1267.39 689.686 1266.4 690.28 1266.15 691.238C1265.92 692.197 1266.54 693.158 1267.54 693.384C1268.54 693.61 1269.54 693.017 1269.78 692.058Z" fill="white"/>
<path d="M895.481 454.404C895.938 452.546 894.738 450.684 892.801 450.245C890.863 449.806 888.922 450.957 888.464 452.816C888.007 454.675 889.207 456.537 891.144 456.976C893.082 457.414 895.024 456.263 895.481 454.404Z" fill="white"/>
<path d="M1023.43 532.382C1023.66 531.423 1023.04 530.463 1022.04 530.236C1021.04 530.01 1020.04 530.604 1019.81 531.563C1019.57 532.521 1020.19 533.482 1021.19 533.709C1022.19 533.934 1023.19 533.341 1023.43 532.382Z" fill="white"/>
<path d="M1121.05 668.625C1121.29 667.667 1120.67 666.706 1119.67 666.48C1118.67 666.253 1117.67 666.847 1117.44 667.806C1117.2 668.765 1117.82 669.726 1118.82 669.951C1119.82 670.178 1120.82 669.584 1121.05 668.625Z" fill="white"/>
<path d="M1074.9 731.302C1075.13 730.343 1074.51 729.382 1073.51 729.156C1072.51 728.929 1071.51 729.523 1071.28 730.482C1071.04 731.441 1071.66 732.402 1072.66 732.627C1073.66 732.854 1074.66 732.26 1074.9 731.302Z" fill="white"/>
<path d="M833.166 524.885C833.402 523.926 832.783 522.965 831.783 522.739C830.784 522.512 829.782 523.106 829.546 524.065C829.311 525.024 829.93 525.985 830.929 526.211C831.929 526.437 832.93 525.843 833.166 524.885Z" fill="white"/>
<path d="M679.712 634.133C679.948 633.174 679.329 632.214 678.329 631.987C677.33 631.761 676.328 632.355 676.092 633.314C675.857 634.273 676.476 635.233 677.475 635.459C678.475 635.686 679.476 635.092 679.712 634.133Z" fill="white"/>
<path d="M1245.26 548.598C1245.49 547.639 1244.87 546.678 1243.87 546.452C1242.88 546.225 1241.87 546.819 1241.64 547.778C1241.4 548.737 1242.02 549.698 1243.02 549.924C1244.02 550.15 1245.02 549.556 1245.26 548.598Z" fill="white"/>
<path d="M1121.69 573.454C1121.93 572.496 1121.31 571.535 1120.31 571.309C1119.31 571.083 1118.31 571.676 1118.07 572.635C1117.84 573.594 1118.46 574.555 1119.45 574.781C1120.45 575.007 1121.45 574.413 1121.69 573.454Z" fill="white"/>
<path d="M1252.38 736.17C1252.61 735.212 1252 734.251 1250.99 734.025C1250 733.799 1248.99 734.392 1248.76 735.351C1248.52 736.31 1249.14 737.27 1250.14 737.497C1251.14 737.723 1252.14 737.129 1252.38 736.17Z" fill="white"/>
<path d="M739.491 592.56C739.727 591.602 739.107 590.641 738.108 590.415C737.108 590.188 736.107 590.782 735.871 591.741C735.635 592.7 736.254 593.66 737.254 593.886C738.253 594.113 739.255 593.519 739.491 592.56Z" fill="white"/>
<path d="M924.258 530.783C924.571 529.511 923.75 528.235 922.422 527.935C921.095 527.634 919.766 528.423 919.452 529.696C919.139 530.969 919.961 532.244 921.288 532.544C922.615 532.845 923.945 532.056 924.258 530.783Z" fill="white"/>
<path d="M1144.03 624.799C1144.34 623.526 1143.52 622.251 1142.19 621.95C1140.87 621.65 1139.54 622.438 1139.22 623.711C1138.91 624.984 1139.73 626.259 1141.06 626.56C1142.38 626.86 1143.72 626.071 1144.03 624.799Z" fill="white"/>
<path d="M1092.87 437.935C1093.18 436.662 1092.36 435.387 1091.04 435.086C1089.71 434.786 1088.38 435.574 1088.07 436.846C1087.75 438.119 1088.57 439.395 1089.9 439.695C1091.23 439.996 1092.56 439.208 1092.87 437.935Z" fill="white"/>
<path d="M888.655 586.31C888.969 585.037 888.147 583.762 886.82 583.461C885.493 583.161 884.163 583.95 883.85 585.222C883.537 586.495 884.359 587.771 885.686 588.071C887.013 588.372 888.342 587.583 888.655 586.31Z" fill="white"/>
<path d="M654.599 748.772C654.912 747.499 654.09 746.223 652.763 745.923C651.436 745.623 650.106 746.411 649.793 747.684C649.48 748.957 650.301 750.232 651.629 750.532C652.956 750.833 654.285 750.045 654.599 748.772Z" fill="white"/>
<path d="M1187.15 560.965C1187.46 559.692 1186.64 558.416 1185.31 558.116C1183.99 557.815 1182.65 558.604 1182.34 559.877C1182.03 561.15 1182.85 562.425 1184.18 562.726C1185.5 563.026 1186.84 562.237 1187.15 560.965Z" fill="white"/>
<path d="M1203.91 494.56C1204.23 493.287 1203.4 492.012 1202.07 491.711C1200.75 491.411 1199.42 492.199 1199.1 493.472C1198.79 494.745 1199.61 496.02 1200.94 496.321C1202.27 496.621 1203.6 495.833 1203.91 494.56Z" fill="white"/>
<path d="M977.251 787.304C977.565 786.031 976.743 784.756 975.416 784.455C974.089 784.155 972.759 784.944 972.446 786.217C972.133 787.489 972.955 788.765 974.282 789.065C975.608 789.366 976.938 788.577 977.251 787.304Z" fill="white"/>
<path d="M1001.52 599.259C1001.84 597.987 1001.02 596.711 999.689 596.411C998.361 596.11 997.032 596.898 996.718 598.171C996.405 599.444 997.227 600.72 998.554 601.02C999.881 601.32 1001.21 600.532 1001.52 599.259Z" fill="white"/>
<path d="M1028.43 483.371C1028.75 482.099 1027.92 480.823 1026.6 480.523C1025.27 480.222 1023.94 481.011 1023.63 482.284C1023.31 483.557 1024.14 484.832 1025.46 485.133C1026.79 485.433 1028.12 484.644 1028.43 483.371Z" fill="white"/>
<path d="M1674.32 27.0498C1674.52 26.1992 1673.98 25.347 1673.09 25.1465C1672.2 24.9456 1671.31 25.4723 1671.1 26.3229C1670.89 27.1734 1671.44 28.0256 1672.33 28.2265C1673.22 28.4271 1674.11 27.9003 1674.32 27.0498Z" fill="white"/>
<path d="M1643.07 89.6693C1643.36 88.4734 1642.59 87.2751 1641.34 86.9928C1640.1 86.7105 1638.85 87.4512 1638.55 88.6471C1638.26 89.8434 1639.03 91.0417 1640.28 91.324C1641.52 91.6063 1642.77 90.8656 1643.07 89.6693Z" fill="white"/>
<path d="M1783.73 143.802C1784.03 142.606 1783.25 141.408 1782.01 141.125C1780.76 140.843 1779.51 141.584 1779.22 142.78C1778.92 143.976 1779.69 145.174 1780.94 145.457C1782.19 145.739 1783.44 144.998 1783.73 143.802Z" fill="white"/>
<path d="M1654.88 226.828C1656.02 226.261 1656.46 224.918 1655.87 223.828C1655.27 222.737 1653.87 222.314 1652.74 222.881C1651.6 223.448 1651.16 224.792 1651.75 225.882C1652.34 226.972 1653.74 227.396 1654.88 226.828Z" fill="white"/>
<path d="M1805.8 107.308C1806.1 106.112 1805.33 104.914 1804.08 104.631C1802.83 104.349 1801.58 105.09 1801.29 106.286C1800.99 107.482 1801.76 108.68 1803.01 108.963C1804.26 109.245 1805.51 108.504 1805.8 107.308Z" fill="white"/>
<path d="M1794.99 180.308C1795.29 179.112 1794.51 177.914 1793.27 177.631C1792.02 177.349 1790.77 178.09 1790.48 179.286C1790.18 180.482 1790.95 181.68 1792.2 181.963C1793.45 182.245 1794.7 181.504 1794.99 180.308Z" fill="white"/>
<path d="M1536.18 133.274C1536.34 132.633 1535.93 131.991 1535.26 131.84C1534.59 131.689 1533.92 132.086 1533.77 132.726C1533.61 133.367 1534.02 134.009 1534.69 134.16C1535.36 134.311 1536.03 133.915 1536.18 133.274Z" fill="white"/>
<path d="M1604.49 61.5079C1604.64 60.8672 1604.23 60.2254 1603.56 60.0745C1602.89 59.9231 1602.22 60.3197 1602.07 60.9604C1601.91 61.601 1602.32 62.2429 1602.99 62.3942C1603.66 62.5456 1604.33 62.1486 1604.49 61.5079Z" fill="white"/>
<path d="M1642.26 175.87C1642.87 175.566 1643.1 174.847 1642.79 174.263C1642.47 173.679 1641.72 173.452 1641.11 173.756C1640.5 174.059 1640.27 174.779 1640.58 175.363C1640.9 175.947 1641.65 176.174 1642.26 175.87Z" fill="white"/>
<path d="M1737.03 32.7848C1737.19 32.1441 1736.78 31.5022 1736.11 31.3509C1735.44 31.2 1734.77 31.5966 1734.61 32.2373C1734.45 32.8779 1734.87 33.5198 1735.54 33.6711C1736.2 33.822 1736.87 33.4254 1737.03 32.7848Z" fill="white"/>
<path d="M1549.36 204.698C1549.52 204.057 1549.11 203.415 1548.44 203.264C1547.77 203.113 1547.1 203.509 1546.94 204.15C1546.79 204.791 1547.2 205.433 1547.87 205.584C1548.54 205.735 1549.21 205.338 1549.36 204.698Z" fill="white"/>
<path d="M1853.45 72.0595C1853.6 71.4188 1853.19 70.7769 1852.52 70.6256C1851.86 70.4743 1851.19 70.8713 1851.03 71.512C1850.87 72.1526 1851.28 72.7945 1851.95 72.9454C1852.62 73.0967 1853.29 72.7001 1853.45 72.0595Z" fill="white"/>
<path d="M1771.02 10.4659C1771.18 9.82524 1770.77 9.18336 1770.1 9.03204C1769.43 8.88113 1768.76 9.27773 1768.61 9.91839C1768.45 10.5591 1768.86 11.2009 1769.53 11.3522C1770.2 11.5032 1770.87 11.1066 1771.02 10.4659Z" fill="white"/>
<path d="M1887.38 196.611C1887.54 195.97 1887.13 195.328 1886.46 195.177C1885.79 195.026 1885.12 195.422 1884.96 196.063C1884.81 196.704 1885.22 197.346 1885.89 197.497C1886.55 197.648 1887.22 197.251 1887.38 196.611Z" fill="white"/>
<path d="M1890.48 154.093C1890.64 153.453 1890.23 152.811 1889.56 152.659C1888.89 152.508 1888.22 152.905 1888.06 153.546C1887.91 154.186 1888.32 154.828 1888.99 154.979C1889.66 155.13 1890.32 154.734 1890.48 154.093Z" fill="white"/>
<path d="M1915.31 220.171C1915.47 219.53 1915.05 218.888 1914.39 218.737C1913.72 218.586 1913.05 218.982 1912.89 219.623C1912.74 220.264 1913.15 220.906 1913.82 221.057C1914.49 221.208 1915.15 220.811 1915.31 220.171Z" fill="white"/>
<path d="M1665.21 61.3724C1665.52 60.1306 1664.72 58.8863 1663.42 58.5934C1662.13 58.3001 1660.83 59.0693 1660.52 60.3112C1660.22 61.5531 1661.02 62.7974 1662.31 63.0906C1663.61 63.3835 1664.91 62.6147 1665.21 61.3724Z" fill="white"/>
<path d="M1750.7 113.477C1750.86 112.836 1750.45 112.194 1749.78 112.043C1749.11 111.892 1748.44 112.288 1748.28 112.929C1748.13 113.57 1748.54 114.212 1749.21 114.363C1749.88 114.514 1750.54 114.117 1750.7 113.477Z" fill="white"/>
<path d="M1815.94 204.513C1816.09 203.873 1815.68 203.231 1815.01 203.08C1814.35 202.928 1813.68 203.325 1813.52 203.966C1813.36 204.607 1813.77 205.248 1814.44 205.399C1815.11 205.551 1815.78 205.154 1815.94 204.513Z" fill="white"/>
<path d="M1785.09 246.393C1785.25 245.752 1784.84 245.11 1784.17 244.959C1783.5 244.808 1782.83 245.205 1782.68 245.845C1782.52 246.486 1782.93 247.128 1783.6 247.279C1784.27 247.43 1784.94 247.034 1785.09 246.393Z" fill="white"/>
<path d="M1623.57 108.467C1623.73 107.826 1623.32 107.184 1622.65 107.033C1621.98 106.882 1621.31 107.279 1621.15 107.919C1621 108.56 1621.41 109.202 1622.08 109.353C1622.75 109.504 1623.42 109.108 1623.57 108.467Z" fill="white"/>
<path d="M1521.04 181.466C1521.19 180.825 1520.78 180.183 1520.11 180.032C1519.44 179.881 1518.78 180.278 1518.62 180.918C1518.46 181.559 1518.87 182.201 1519.54 182.352C1520.21 182.503 1520.88 182.107 1521.04 181.466Z" fill="white"/>
<path d="M1898.93 124.312C1899.08 123.671 1898.67 123.029 1898 122.878C1897.34 122.727 1896.67 123.124 1896.51 123.764C1896.35 124.405 1896.76 125.047 1897.43 125.198C1898.1 125.349 1898.77 124.952 1898.93 124.312Z" fill="white"/>
<path d="M1816.36 140.921C1816.52 140.28 1816.11 139.638 1815.44 139.487C1814.77 139.336 1814.1 139.733 1813.94 140.373C1813.79 141.014 1814.2 141.656 1814.87 141.807C1815.53 141.958 1816.2 141.562 1816.36 140.921Z" fill="white"/>
<path d="M1903.69 249.646C1903.84 249.006 1903.43 248.364 1902.76 248.212C1902.1 248.062 1901.43 248.458 1901.27 249.099C1901.11 249.739 1901.52 250.381 1902.19 250.533C1902.86 250.684 1903.53 250.287 1903.69 249.646Z" fill="white"/>
<path d="M1560.98 153.687C1561.14 153.047 1560.72 152.405 1560.06 152.253C1559.39 152.102 1558.72 152.499 1558.56 153.14C1558.4 153.78 1558.82 154.422 1559.48 154.573C1560.15 154.725 1560.82 154.328 1560.98 153.687Z" fill="white"/>
<path d="M1684.44 112.408C1684.65 111.558 1684.1 110.706 1683.21 110.505C1682.33 110.304 1681.44 110.831 1681.23 111.682C1681.02 112.532 1681.57 113.384 1682.46 113.585C1683.34 113.786 1684.23 113.259 1684.44 112.408Z" fill="white"/>
<path d="M1831.29 175.229C1831.5 174.378 1830.95 173.526 1830.06 173.325C1829.18 173.125 1828.29 173.651 1828.08 174.502C1827.87 175.352 1828.42 176.204 1829.3 176.405C1830.19 176.606 1831.08 176.079 1831.29 175.229Z" fill="white"/>
<path d="M1797.11 50.3678C1797.32 49.5172 1796.77 48.665 1795.88 48.4641C1794.99 48.2636 1794.1 48.7899 1793.9 49.6405C1793.69 50.491 1794.23 51.3432 1795.12 51.5442C1796.01 51.7447 1796.9 51.2183 1797.11 50.3678Z" fill="white"/>
<path d="M1660.65 149.511C1660.86 148.66 1660.31 147.808 1659.42 147.607C1658.54 147.407 1657.65 147.934 1657.44 148.784C1657.23 149.635 1657.78 150.487 1658.67 150.687C1659.55 150.888 1660.44 150.362 1660.65 149.511Z" fill="white"/>
<path d="M1504.26 258.066C1504.46 257.216 1503.92 256.364 1503.03 256.163C1502.14 255.962 1501.25 256.489 1501.04 257.34C1500.84 258.19 1501.38 259.042 1502.27 259.243C1503.16 259.444 1504.05 258.917 1504.26 258.066Z" fill="white"/>
<path d="M1860.1 132.575C1860.31 131.725 1859.76 130.872 1858.87 130.672C1857.99 130.471 1857.1 130.998 1856.89 131.848C1856.68 132.699 1857.23 133.551 1858.12 133.752C1859 133.952 1859.89 133.426 1860.1 132.575Z" fill="white"/>
<path d="M1871.3 88.2041C1871.51 87.3536 1870.96 86.5014 1870.07 86.3009C1869.19 86.0999 1868.3 86.6267 1868.09 87.4772C1867.88 88.3278 1868.43 89.18 1869.32 89.3809C1870.21 89.5814 1871.09 89.0547 1871.3 88.2041Z" fill="white"/>
<path d="M1719.85 283.814C1720.06 282.963 1719.51 282.111 1718.62 281.91C1717.74 281.709 1716.85 282.236 1716.64 283.087C1716.43 283.937 1716.98 284.789 1717.87 284.99C1718.75 285.191 1719.64 284.664 1719.85 283.814Z" fill="white"/>
<path d="M1736.07 158.163C1736.28 157.313 1735.73 156.461 1734.84 156.26C1733.96 156.059 1733.07 156.586 1732.86 157.436C1732.65 158.287 1733.2 159.139 1734.08 159.34C1734.97 159.541 1735.86 159.014 1736.07 158.163Z" fill="white"/>
<path d="M1754.05 80.7281C1754.26 79.8776 1753.71 79.0254 1752.82 78.8248C1751.93 78.6239 1751.05 79.1507 1750.84 80.0012C1750.63 80.8518 1751.18 81.7039 1752.06 81.9049C1752.95 82.1054 1753.84 81.5787 1754.05 80.7281Z" fill="white"/>
<path d="M195.315 25.0498C195.524 24.1992 194.975 23.347 194.089 23.1465C193.202 22.9456 192.313 23.4723 192.104 24.3229C191.895 25.1734 192.444 26.0256 193.331 26.2265C194.218 26.4271 195.106 25.9003 195.315 25.0498Z" fill="white"/>
<path d="M164.068 87.6693C164.363 86.4734 163.59 85.2751 162.344 84.9928C161.097 84.7105 159.848 85.4512 159.553 86.6471C159.259 87.8434 160.031 89.0417 161.278 89.324C162.525 89.6063 163.774 88.8656 164.068 87.6693Z" fill="white"/>
<path d="M304.732 141.802C305.026 140.606 304.254 139.408 303.007 139.125C301.76 138.843 300.511 139.584 300.216 140.78C299.922 141.976 300.694 143.174 301.941 143.457C303.188 143.739 304.438 142.998 304.732 141.802Z" fill="white"/>
<path d="M175.879 224.828C177.015 224.261 177.457 222.918 176.866 221.828C176.274 220.737 174.874 220.314 173.737 220.881C172.601 221.448 172.159 222.792 172.75 223.882C173.341 224.972 174.742 225.396 175.879 224.828Z" fill="white"/>
<path d="M326.802 105.308C327.099 104.112 326.327 102.914 325.08 102.631C323.834 102.349 322.583 103.09 322.29 104.286C321.993 105.482 322.765 106.68 324.012 106.963C325.259 107.245 326.51 106.504 326.802 105.308Z" fill="white"/>
<path d="M315.991 178.308C316.285 177.112 315.513 175.914 314.266 175.631C313.02 175.349 311.77 176.09 311.476 177.286C311.182 178.482 311.954 179.68 313.201 179.963C314.447 180.245 315.697 179.504 315.991 178.308Z" fill="white"/>
<path d="M57.185 131.274C57.3428 130.633 56.9293 129.991 56.2614 129.84C55.5935 129.689 54.9243 130.086 54.7666 130.726C54.6088 131.367 55.0227 132.009 55.6906 132.16C56.3581 132.311 57.0277 131.915 57.185 131.274Z" fill="white"/>
<path d="M125.485 59.5079C125.643 58.8672 125.229 58.2254 124.561 58.0745C123.893 57.9231 123.224 58.3197 123.067 58.9604C122.909 59.601 123.322 60.2429 123.99 60.3942C124.658 60.5456 125.327 60.1486 125.485 59.5079Z" fill="white"/>
<path d="M163.259 173.87C163.868 173.566 164.105 172.847 163.788 172.263C163.471 171.679 162.721 171.452 162.112 171.756C161.504 172.059 161.267 172.779 161.583 173.363C161.9 173.947 162.651 174.174 163.259 173.87Z" fill="white"/>
<path d="M258.031 30.7848C258.189 30.1441 257.775 29.5022 257.107 29.3509C256.439 29.2 255.77 29.5966 255.612 30.2373C255.455 30.8779 255.869 31.5198 256.536 31.6711C257.204 31.822 257.874 31.4254 258.031 30.7848Z" fill="white"/>
<path d="M70.3625 202.698C70.5203 202.057 70.1068 201.415 69.4389 201.264C68.771 201.113 68.1018 201.509 67.9441 202.15C67.7863 202.791 68.2002 203.433 68.8681 203.584C69.536 203.735 70.2052 203.338 70.3625 202.698Z" fill="white"/>
<path d="M374.446 70.0595C374.603 69.4188 374.192 68.7769 373.522 68.6256C372.856 68.4743 372.186 68.8713 372.029 69.512C371.868 70.1526 372.283 70.7945 372.953 70.9454C373.619 71.0967 374.289 70.7001 374.446 70.0595Z" fill="white"/>
<path d="M292.025 8.4659C292.182 7.82524 291.768 7.18336 291.1 7.03204C290.433 6.88113 289.763 7.27773 289.606 7.91839C289.448 8.55905 289.862 9.20093 290.53 9.35225C291.198 9.50316 291.867 9.10656 292.025 8.4659Z" fill="white"/>
<path d="M408.38 194.611C408.541 193.97 408.126 193.328 407.456 193.177C406.79 193.026 406.12 193.422 405.963 194.063C405.806 194.704 406.218 195.346 406.888 195.497C407.553 195.648 408.223 195.251 408.38 194.611Z" fill="white"/>
<path d="M411.484 152.093C411.641 151.453 411.226 150.811 410.56 150.659C409.89 150.508 409.22 150.905 409.063 151.546C408.906 152.186 409.322 152.828 409.987 152.979C410.657 153.13 411.323 152.734 411.484 152.093Z" fill="white"/>
<path d="M436.313 218.171C436.47 217.53 436.055 216.888 435.389 216.737C434.719 216.586 434.053 216.982 433.892 217.623C433.735 218.264 434.151 218.906 434.816 219.057C435.487 219.208 436.152 218.811 436.313 218.171Z" fill="white"/>
<path d="M186.211 59.3724C186.517 58.1306 185.715 56.8863 184.42 56.5934C183.126 56.3001 181.828 57.0693 181.523 58.3112C181.217 59.5531 182.019 60.7974 183.314 61.0906C184.609 61.3835 185.906 60.6147 186.211 59.3724Z" fill="white"/>
<path d="M271.702 111.477C271.86 110.836 271.446 110.194 270.778 110.043C270.111 109.892 269.441 110.288 269.284 110.929C269.126 111.57 269.54 112.212 270.208 112.363C270.876 112.514 271.545 112.117 271.702 111.477Z" fill="white"/>
<path d="M336.937 202.513C337.094 201.873 336.683 201.231 336.013 201.08C335.347 200.928 334.677 201.325 334.52 201.966C334.363 202.607 334.775 203.248 335.445 203.399C336.11 203.551 336.78 203.154 336.937 202.513Z" fill="white"/>
<path d="M306.095 244.393C306.253 243.752 305.839 243.11 305.171 242.959C304.503 242.808 303.834 243.205 303.676 243.845C303.519 244.486 303.933 245.128 304.6 245.279C305.268 245.43 305.937 245.034 306.095 244.393Z" fill="white"/>
<path d="M144.573 106.467C144.73 105.826 144.317 105.184 143.649 105.033C142.981 104.882 142.312 105.279 142.154 105.919C141.997 106.56 142.41 107.202 143.078 107.353C143.746 107.504 144.415 107.108 144.573 106.467Z" fill="white"/>
<path d="M42.0364 179.466C42.1937 178.825 41.7803 178.183 41.1124 178.032C40.4444 177.881 39.7753 178.278 39.6175 178.918C39.4602 179.559 39.8736 180.201 40.5416 180.352C41.2095 180.503 41.8786 180.107 42.0364 179.466Z" fill="white"/>
<path d="M419.927 122.312C420.084 121.671 419.673 121.029 419.003 120.878C418.337 120.727 417.667 121.124 417.51 121.764C417.349 122.405 417.765 123.047 418.435 123.198C419.101 123.349 419.771 122.952 419.927 122.312Z" fill="white"/>
<path d="M337.361 138.921C337.523 138.28 337.107 137.638 336.441 137.487C335.771 137.336 335.101 137.733 334.944 138.373C334.787 139.014 335.203 139.656 335.869 139.807C336.534 139.958 337.205 139.562 337.361 138.921Z" fill="white"/>
<path d="M424.686 247.646C424.842 247.006 424.431 246.364 423.761 246.212C423.095 246.062 422.425 246.458 422.268 247.099C422.107 247.739 422.523 248.381 423.189 248.533C423.859 248.684 424.529 248.287 424.686 247.646Z" fill="white"/>
<path d="M81.9797 151.687C82.1375 151.047 81.7236 150.405 81.0557 150.253C80.3878 150.102 79.7186 150.499 79.5613 151.14C79.4035 151.78 79.817 152.422 80.4849 152.573C81.1528 152.725 81.822 152.328 81.9797 151.687Z" fill="white"/>
<path d="M205.44 110.408C205.649 109.558 205.1 108.706 204.213 108.505C203.327 108.304 202.438 108.831 202.229 109.682C202.02 110.532 202.569 111.384 203.456 111.585C204.342 111.786 205.231 111.259 205.44 110.408Z" fill="white"/>
<path d="M352.289 173.229C352.496 172.378 351.949 171.526 351.063 171.325C350.177 171.125 349.286 171.651 349.078 172.502C348.866 173.352 349.418 174.204 350.304 174.405C351.19 174.606 352.081 174.079 352.289 173.229Z" fill="white"/>
<path d="M318.106 48.3678C318.315 47.5172 317.766 46.665 316.879 46.4641C315.993 46.2636 315.104 46.7899 314.895 47.6405C314.686 48.491 315.235 49.3432 316.122 49.5442C317.008 49.7447 317.897 49.2183 318.106 48.3678Z" fill="white"/>
<path d="M181.65 147.511C181.86 146.66 181.311 145.808 180.424 145.607C179.537 145.407 178.649 145.934 178.439 146.784C178.23 147.635 178.779 148.487 179.666 148.687C180.553 148.888 181.441 148.362 181.65 147.511Z" fill="white"/>
<path d="M25.2556 256.066C25.4647 255.216 24.9155 254.364 24.0288 254.163C23.142 253.962 22.2536 254.489 22.0446 255.34C21.8351 256.19 22.3842 257.042 23.271 257.243C24.1577 257.444 25.0461 256.917 25.2556 256.066Z" fill="white"/>
<path d="M381.1 130.575C381.308 129.725 380.761 128.872 379.874 128.672C378.988 128.471 378.098 128.998 377.89 129.848C377.682 130.699 378.229 131.551 379.115 131.752C380.002 131.952 380.892 131.426 381.1 130.575Z" fill="white"/>
<path d="M392.299 86.2041C392.511 85.3536 391.96 84.5014 391.074 84.3009C390.188 84.0999 389.301 84.6267 389.089 85.4772C388.881 86.3278 389.428 87.18 390.319 87.3809C391.205 87.5814 392.092 87.0547 392.299 86.2041Z" fill="white"/>
<path d="M240.849 281.814C241.059 280.963 240.51 280.111 239.623 279.91C238.736 279.709 237.848 280.236 237.638 281.087C237.429 281.937 237.978 282.789 238.865 282.99C239.752 283.191 240.64 282.664 240.849 281.814Z" fill="white"/>
<path d="M257.068 156.163C257.278 155.313 256.729 154.461 255.842 154.26C254.955 154.059 254.067 154.586 253.857 155.436C253.648 156.287 254.197 157.139 255.084 157.34C255.971 157.541 256.859 157.014 257.068 156.163Z" fill="white"/>
<path d="M275.048 78.7281C275.257 77.8776 274.708 77.0254 273.822 76.8248C272.935 76.6239 272.046 77.1507 271.837 78.0012C271.628 78.8518 272.177 79.7039 273.064 79.9049C273.95 80.1054 274.839 79.5787 275.048 78.7281Z" fill="white"/>
<path d="M606.315 49.0498C606.524 48.1992 605.975 47.347 605.089 47.1465C604.202 46.9456 603.313 47.4723 603.104 48.3229C602.895 49.1734 603.444 50.0256 604.331 50.2265C605.218 50.4271 606.106 49.9003 606.315 49.0498Z" fill="white"/>
<path d="M575.068 111.669C575.363 110.473 574.59 109.275 573.344 108.993C572.097 108.71 570.848 109.451 570.553 110.647C570.259 111.843 571.031 113.042 572.278 113.324C573.525 113.606 574.774 112.866 575.068 111.669Z" fill="white"/>
<path d="M586.879 248.828C588.015 248.261 588.457 246.918 587.866 245.828C587.274 244.737 585.874 244.314 584.737 244.881C583.601 245.448 583.159 246.792 583.75 247.882C584.341 248.972 585.742 249.396 586.879 248.828Z" fill="white"/>
<path d="M737.802 129.308C738.099 128.112 737.327 126.914 736.08 126.631C734.834 126.349 733.583 127.09 733.29 128.286C732.993 129.482 733.765 130.68 735.012 130.963C736.259 131.245 737.51 130.504 737.802 129.308Z" fill="white"/>
<path d="M536.485 83.5079C536.643 82.8672 536.229 82.2254 535.561 82.0745C534.893 81.9231 534.224 82.3197 534.067 82.9604C533.909 83.601 534.322 84.2429 534.99 84.3942C535.658 84.5456 536.327 84.1486 536.485 83.5079Z" fill="white"/>
<path d="M669.031 54.7848C669.189 54.1441 668.775 53.5022 668.107 53.3509C667.439 53.2 666.77 53.5966 666.612 54.2373C666.455 54.8779 666.869 55.5198 667.536 55.6711C668.204 55.822 668.874 55.4254 669.031 54.7848Z" fill="white"/>
<path d="M481.363 226.698C481.52 226.057 481.107 225.415 480.439 225.264C479.771 225.113 479.102 225.509 478.944 226.15C478.786 226.791 479.2 227.433 479.868 227.584C480.536 227.735 481.205 227.338 481.363 226.698Z" fill="white"/>
<path d="M703.025 32.4659C703.182 31.8252 702.768 31.1834 702.1 31.032C701.433 30.8811 700.763 31.2777 700.606 31.9184C700.448 32.5591 700.862 33.2009 701.53 33.3522C702.198 33.5032 702.867 33.1066 703.025 32.4659Z" fill="white"/>
<path d="M819.38 218.611C819.541 217.97 819.126 217.328 818.456 217.177C817.79 217.026 817.12 217.422 816.963 218.063C816.806 218.704 817.218 219.346 817.888 219.497C818.553 219.648 819.223 219.251 819.38 218.611Z" fill="white"/>
<path d="M847.313 242.171C847.47 241.53 847.055 240.888 846.389 240.737C845.719 240.586 845.053 240.982 844.892 241.623C844.735 242.264 845.151 242.906 845.816 243.057C846.487 243.208 847.152 242.811 847.313 242.171Z" fill="white"/>
<path d="M682.702 135.477C682.86 134.836 682.446 134.194 681.778 134.043C681.111 133.892 680.441 134.288 680.284 134.929C680.126 135.57 680.54 136.212 681.208 136.363C681.876 136.514 682.545 136.117 682.702 135.477Z" fill="white"/>
<path d="M747.937 226.513C748.094 225.873 747.683 225.231 747.013 225.08C746.347 224.928 745.677 225.325 745.52 225.966C745.363 226.607 745.775 227.248 746.445 227.399C747.11 227.551 747.78 227.154 747.937 226.513Z" fill="white"/>
<path d="M717.095 268.393C717.253 267.752 716.839 267.11 716.171 266.959C715.503 266.808 714.834 267.205 714.676 267.845C714.519 268.486 714.933 269.128 715.6 269.279C716.268 269.43 716.937 269.034 717.095 268.393Z" fill="white"/>
<path d="M453.036 203.466C453.194 202.825 452.78 202.183 452.112 202.032C451.444 201.881 450.775 202.278 450.618 202.918C450.46 203.559 450.874 204.201 451.542 204.352C452.209 204.503 452.879 204.107 453.036 203.466Z" fill="white"/>
<path d="M830.927 146.312C831.084 145.671 830.673 145.029 830.003 144.878C829.337 144.727 828.667 145.124 828.51 145.764C828.349 146.405 828.765 147.047 829.435 147.198C830.101 147.349 830.771 146.952 830.927 146.312Z" fill="white"/>
<path d="M748.361 162.921C748.523 162.28 748.107 161.638 747.441 161.487C746.771 161.336 746.101 161.733 745.944 162.373C745.787 163.014 746.203 163.656 746.869 163.807C747.534 163.958 748.205 163.562 748.361 162.921Z" fill="white"/>
<path d="M492.98 175.687C493.137 175.047 492.724 174.405 492.056 174.253C491.388 174.102 490.719 174.499 490.561 175.14C490.404 175.78 490.817 176.422 491.485 176.573C492.153 176.725 492.822 176.328 492.98 175.687Z" fill="white"/>
<path d="M616.44 134.408C616.649 133.558 616.1 132.706 615.213 132.505C614.327 132.304 613.438 132.831 613.229 133.682C613.02 134.532 613.569 135.384 614.456 135.585C615.342 135.786 616.231 135.259 616.44 134.408Z" fill="white"/>
<path d="M763.289 197.229C763.496 196.378 762.949 195.526 762.063 195.325C761.177 195.125 760.286 195.651 760.078 196.502C759.866 197.352 760.418 198.204 761.304 198.405C762.19 198.606 763.081 198.079 763.289 197.229Z" fill="white"/>
<path d="M729.106 72.3678C729.315 71.5172 728.766 70.665 727.879 70.4641C726.993 70.2636 726.104 70.7899 725.895 71.6405C725.686 72.491 726.235 73.3432 727.122 73.5442C728.008 73.7447 728.897 73.2183 729.106 72.3678Z" fill="white"/>
<path d="M592.65 171.511C592.86 170.66 592.311 169.808 591.424 169.607C590.537 169.407 589.649 169.934 589.439 170.784C589.23 171.635 589.779 172.487 590.666 172.687C591.553 172.888 592.441 172.362 592.65 171.511Z" fill="white"/>
<path d="M436.256 280.066C436.465 279.216 435.915 278.364 435.029 278.163C434.142 277.962 433.254 278.489 433.045 279.34C432.835 280.19 433.384 281.042 434.271 281.243C435.158 281.444 436.046 280.917 436.256 280.066Z" fill="white"/>
<path d="M792.1 154.575C792.308 153.725 791.761 152.872 790.874 152.672C789.988 152.471 789.098 152.998 788.89 153.848C788.682 154.699 789.229 155.551 790.115 155.752C791.002 155.952 791.892 155.426 792.1 154.575Z" fill="white"/>
<path d="M651.849 305.814C652.059 304.963 651.51 304.111 650.623 303.91C649.736 303.709 648.848 304.236 648.638 305.087C648.429 305.937 648.978 306.789 649.865 306.99C650.752 307.191 651.64 306.664 651.849 305.814Z" fill="white"/>
<path d="M668.068 180.163C668.278 179.313 667.729 178.461 666.842 178.26C665.955 178.059 665.067 178.586 664.857 179.436C664.648 180.287 665.197 181.139 666.084 181.34C666.971 181.541 667.859 181.014 668.068 180.163Z" fill="white"/>
</svg>
