<svg width="397" height="397" viewBox="0 0 397 397" fill="none" xmlns="http://www.w3.org/2000/svg">
<path d="M198.5 397C308.129 397 397 308.129 397 198.5C397 88.8715 308.129 0 198.5 0C88.8715 0 0 88.8715 0 198.5C0 308.129 88.8715 397 198.5 397Z" fill="#988430"/>
<path d="M198.5 390.642C304.617 390.642 390.642 304.617 390.642 198.5C390.642 92.3831 304.617 6.35835 198.5 6.35835C92.3831 6.35835 6.35834 92.3831 6.35834 198.5C6.35834 304.617 92.3831 390.642 198.5 390.642Z" fill="#7A6A2A"/>
<path d="M198.5 386.593C302.381 386.593 386.593 302.381 386.593 198.5C386.593 94.6189 302.381 10.4067 198.5 10.4067C94.6189 10.4067 10.4067 94.6189 10.4067 198.5C10.4067 302.381 94.6189 386.593 198.5 386.593Z" fill="#BA9F33"/>
<path fill-rule="evenodd" clip-rule="evenodd" d="M86.7874 177.301C85.6631 176.274 84.4752 175.245 83.3827 174.218C82.2902 173.192 81.168 172.162 80.0437 171.136L76.7025 167.96C76.1562 167.413 75.5782 166.933 75.0319 166.384C74.4857 165.904 73.8441 165.357 73.2978 164.875C68.8641 160.667 64.405 156.46 60.0327 152.251C64.5617 156.395 68.9954 160.509 73.5244 164.714L75.0976 166.289C75.6438 166.833 76.2219 167.316 76.7682 167.862L80.1072 170.945C81.2315 171.972 82.324 173.001 83.4483 174.121C84.5726 175.241 85.6652 176.272 86.7895 177.297L86.7874 177.301ZM27.9446 176.666C27.9446 176.666 44.0681 178.335 51.9382 179.459C59.2282 180.488 82.034 183.988 82.034 183.988L27.9446 176.666ZM27.9446 176.666C32.4735 177.051 37.0025 177.532 41.5315 178.015C43.8436 178.239 46.0605 178.495 48.2773 178.72L51.6799 179.107C52.8042 179.266 53.8967 179.427 55.021 179.588L68.5127 181.739L75.2564 182.863C77.4732 183.249 79.6901 183.668 82.0022 184.053C79.7854 183.829 77.4732 183.507 75.2564 183.185L68.5127 182.222L55.021 180.232C53.8967 180.071 52.8042 179.844 51.6799 179.685L48.2752 179.294C46.0583 179.069 43.7462 178.747 41.5294 178.489C37.0004 177.945 32.4714 177.365 27.9424 176.66L27.9446 176.666ZM80.429 188.189C80.429 188.189 63.213 192.559 57.3988 194.229C51.682 195.803 34.3686 201.07 34.3686 201.07L80.4269 188.191L80.429 188.189Z" fill="#CFB66C"/>
<path fill-rule="evenodd" clip-rule="evenodd" d="M80.4269 188.189C76.6052 189.313 72.8045 190.405 68.9277 191.434L57.4285 194.517C53.6067 195.642 49.8061 196.734 45.9949 197.858L40.2781 199.432C38.383 199.978 36.4563 200.459 34.4977 201.007C36.3906 200.372 38.3195 199.722 40.2145 199.175L45.9313 197.346C49.7531 196.156 53.5537 195.032 57.3649 193.844C61.2502 192.881 65.0742 191.852 68.9595 190.92C72.6521 189.988 76.5395 189.059 80.4269 188.191V188.189ZM36.7781 211.67C38.671 210.963 60.5134 200.783 65.5887 198.405C68.1295 197.215 75.5147 194.594 75.5147 194.594L36.7781 211.67Z" fill="#CFB66C"/>
<path fill-rule="evenodd" clip-rule="evenodd" d="M36.7781 211.67C38.4466 211.035 40.0219 210.258 41.6268 209.519L46.3802 207.302L55.9209 202.709C59.0969 201.2 62.184 199.533 65.4595 198.115C67.1301 197.41 68.8007 196.832 70.4691 196.285L73.0099 195.483C73.8759 195.258 74.6805 195 75.5507 194.776C72.3747 196.285 69.0315 197.57 65.8512 199.046C62.6752 200.622 59.4272 201.907 56.1496 203.319L46.4501 207.59C43.1936 208.909 40.0176 210.321 36.776 211.67H36.7781ZM38.8955 220.563C38.8955 220.563 58.6798 208.968 65.4892 205.242C69.0548 203.251 80.5858 197.532 80.5858 197.532L38.8955 220.563Z" fill="#CFB66C"/>
<path fill-rule="evenodd" clip-rule="evenodd" d="M38.8975 220.567C42.2366 218.511 45.6412 216.423 49.0459 214.304L54.1275 211.219C55.8616 210.192 57.5322 209.229 59.3002 208.202C61.0342 207.173 62.7048 206.146 64.4707 205.182C65.3113 204.663 66.1921 204.212 67.1046 203.834L69.8021 202.485C73.3677 200.751 76.9333 198.983 80.6916 197.473C77.2869 199.626 73.7848 201.458 70.2849 203.351C68.5508 204.314 66.7828 205.182 65.0487 206.146C63.3146 207.109 61.644 208.138 59.8761 209.07C58.142 210.097 56.4714 211.06 54.7055 211.992L49.4694 214.85L38.9018 220.567H38.8975ZM80.4269 200.073C80.4269 200.073 68.1252 209.516 64.1425 212.536C60.1598 215.555 48.4361 224.035 48.4361 224.035L80.4269 200.073V200.073Z" fill="#CFB66C"/>
<path fill-rule="evenodd" clip-rule="evenodd" d="M151.027 276.229L144.732 264.313L148.393 249.409L174.506 239.324L163.392 216.521L168.885 193.49L179.196 172.868L211.06 167.858L234.473 145.535L285.031 149.357L294.955 203.414L275.844 271.476L264.957 306.713L220.823 308.383L200.331 294.187L176.338 284.163L151.027 276.229Z" fill="#E2CC85"/>
<path fill-rule="evenodd" clip-rule="evenodd" d="M228.437 275.844C228.437 275.844 222.333 278.639 211.922 277.995C208.909 273.949 187.807 272.054 187.807 272.054C187.807 272.054 185.173 271.252 180.515 273.178C175.828 275.084 171.394 274.849 167.25 275.876C163.107 276.903 158.993 271.508 155.817 270.383C152.641 269.196 148.429 266.337 148.429 266.337L139.536 265.469L121.679 257.921L93.3087 229.657L85.5995 241.725L83.2217 256.661L91.7991 274.36L114.893 295.398L159.924 306.831L186.615 298.967L220.052 284.834L228.437 275.842V275.844Z" fill="#F1D789"/>
<path fill-rule="evenodd" clip-rule="evenodd" d="M68.4471 175.953L74.1639 158.641L80.9754 147.462L102.911 145.63L96.326 164.839L77.9878 197.473L85.5996 226.605L72.1101 233.349L67.9643 226.991L64.6253 212.409L64.4009 196.027L68.4471 175.953Z" fill="#F4ECB4"/>
<path fill-rule="evenodd" clip-rule="evenodd" d="M93.0504 274.656L88.8433 268.779C88.8433 268.779 87.719 265.984 88.3627 263.542C88.9979 261.069 88.9068 260.908 88.5871 259.977C88.2674 259.045 85.5678 255.833 85.7287 253.07C85.8875 250.275 85.5043 249.344 87.5581 247.129C89.7093 244.978 89.0677 241.251 89.0677 241.251L91.8626 242.985L92.4978 242.022C92.4978 242.022 93.5247 242.824 93.5247 244.078C93.7492 242.344 92.8175 234.313 94.937 232.483C97.0564 230.654 100.815 241.058 100.815 241.058L98.5026 225.962L92.5592 210.482L81.9916 196.349L81.3564 180.769V179.421C81.3564 179.421 76.5056 186.874 75.1568 192.76C74.1935 196.806 76.5056 201.72 76.025 207.535C75.6375 213.317 75.1568 212.866 76.5691 215.157C77.9814 217.448 81.4199 222.159 80.0712 225.564C78.8834 228.488 74.835 226.432 74.835 226.432C74.835 226.432 74.0325 228.808 72.94 229.676C72.5546 228.263 72.1375 227.364 71.3668 226.5C71.3012 227.046 71.1424 227.785 71.1424 227.785C71.1424 227.785 70.4352 225.568 69.728 222.773C68.7667 219.049 67.7377 214.134 66.8061 211.5C66.4207 213.01 65.4573 217.603 65.4573 217.603L66.0036 224.67L68.6376 234.37L71.1784 240.722L73.6514 248.494L75.8005 253.716L77.5346 257.699L79.0443 266.661L86.3343 274.368L90.2217 276.105L93.0462 274.658L93.0504 274.656Z" fill="#F3E19D"/>
<path fill-rule="evenodd" clip-rule="evenodd" d="M72.2689 161.819C72.2689 161.819 67.0327 170.712 65.5252 179.677C64.0176 188.642 62.6668 198.115 63.6196 210.319C64.5829 222.623 66.4144 230.169 67.8923 235.566C70.4331 244.529 77.0138 256.991 77.0138 256.991L77.2383 256.509C76.1321 254.412 75.2493 252.205 74.6043 249.924C73.7362 246.519 73.4143 242.473 72.6119 240.641C71.9047 238.812 70.7169 237.237 70.1388 234.988C69.5926 232.837 69.5036 229.432 67.8267 226.896C67.1195 225.867 66.2514 223.169 65.9952 220.472C65.6734 216.423 66.1561 211.894 65.7708 208.17C65.0636 201.97 64.5829 197.763 65.2245 194.517C65.866 191.271 69.2093 182.057 71.2652 174.733C72.614 170.043 71.8094 166.092 74.2825 162.012C76.7555 157.966 78.2673 154.4 78.8114 151.927C79.4466 149.679 72.2604 161.819 72.2604 161.819H72.2689Z" fill="#F2E8B0"/>
<path fill-rule="evenodd" clip-rule="evenodd" d="M97.0988 158.254C97.0988 158.254 94.4013 159.058 93.1161 160.471C91.8308 161.819 91.2846 162.944 89.5505 165.224C87.8164 167.504 87.719 169.368 86.3046 172.226C84.8923 175.021 81.7756 179.228 81.3903 180.738C81.0049 182.247 80.3634 189.313 79.5609 192.654C78.8537 195.995 80.3634 200.107 80.3634 200.107L82.1927 199.72C82.1927 199.72 82.1927 202.097 84.0242 203.704C85.8536 205.278 86.1754 198.371 86.1754 198.371L93.0165 175.277L103.326 168.275L104.45 162.622L97.0945 158.254H97.0988Z" fill="#F5EEC0"/>
<path fill-rule="evenodd" clip-rule="evenodd" d="M102.108 168.726C102.108 168.726 97.2576 169.046 94.882 170.782C93.9186 171.487 93.5332 172.065 92.5063 172.933C90.6113 174.506 88.6824 175.953 87.7529 178.015C86.7239 180.069 85.5996 183.185 84.8289 189.063C84.5071 191.536 84.5071 193.816 84.2826 195.809C83.9608 198.506 83.4802 200.658 83.7364 202.161C84.0582 205.244 87.2384 206.851 87.5476 210.351L94.1324 207.012L100.332 182.567L113.502 174.309L106.049 165.959L102.1 168.711L102.108 168.726Z" fill="#E6DB9D"/>
<path fill-rule="evenodd" clip-rule="evenodd" d="M67.3693 333.33C67.3968 333.088 67.4244 332.847 67.4519 332.599C68.4131 324.342 68.5762 318.083 69.2813 314.164C70.3082 308.608 71.0154 306.541 70.8544 304.462C70.63 301.123 70.3738 298.682 70.6956 296.111C71.1763 292.707 74.5174 288.66 74.4221 285.865C74.3565 283.649 73.2322 282.205 72.2688 280.856C71.3054 279.507 70.5347 278.383 70.5347 278.383C70.5347 278.383 77.1196 273.854 77.0561 255.609C77.1906 255.647 77.32 255.701 77.4415 255.77L80.6852 264.986L82.9021 267.684L91.4137 283.551L102.367 294.184L118.554 305.072L128.704 316.118L129.731 345.572L116.466 362.788L114.294 366.722C97.0346 358.058 81.2081 346.795 67.3672 333.328L67.3693 333.33Z" fill="#E5CB7A"/>
<path fill-rule="evenodd" clip-rule="evenodd" d="M107.891 361.507C107.891 361.507 108.115 357.846 111.135 355.468C111.617 356.271 111.937 357.044 111.842 357.62C112.388 356.658 116.21 350.491 124.851 348.884C133.492 347.31 135.579 341.016 135.579 341.016L153.917 324.346L174.892 305.042L200.395 296.079L212.313 293.155C212.313 293.155 212.538 294.023 212.089 295.95C214.304 295.791 219.218 294.667 224.325 292.867C226.381 292.065 228.31 291.743 229.337 292.804C230.847 294.216 231.071 297.557 231.166 299.548C233.639 299.001 236.498 296.626 238.789 296.85C242.452 297.235 245.695 301.54 249.422 301.54C254.336 301.54 256.551 298.521 259.989 296.143C262.045 294.731 264.999 292.967 266.67 291.775C270.652 288.851 312.794 275.971 312.794 275.971L327.568 276.934L329.946 292.802L328.676 334.28C328.519 334.431 328.362 334.587 328.204 334.738L261.025 369.824L167.905 384.099C147.045 380.691 126.916 373.767 108.374 363.622L107.897 361.505L107.891 361.507Z" fill="#D8C173"/>
<path fill-rule="evenodd" clip-rule="evenodd" d="M73.0162 338.606C74.3396 335.839 75.5295 333.524 75.7391 332.697C75.9043 334.365 76.2071 338.026 76.8168 341.918C75.5366 340.829 74.2697 339.725 73.0162 338.604V338.606Z" fill="#F1D789"/>
<path fill-rule="evenodd" clip-rule="evenodd" d="M141.04 377.641L153.083 374.292L154.11 374.613C154.11 374.613 154.656 374.935 154.656 376.026C156.166 375.16 157.451 375.319 158.383 374.743C158.864 375.769 159.344 379.174 161.466 379.591C163.681 380.074 166.058 378.628 168.468 376.799C170.843 374.903 173.549 372.526 175.597 371.562C176.348 372.944 177.013 374.37 177.589 375.833C180.287 373.682 184.977 364.946 191.657 365.104C193.588 360.542 196.813 356.645 200.935 353.895C207.135 349.688 211.02 349.366 215.871 349.752C217.797 347.249 220.171 345.125 222.873 343.489C223.675 343.81 225.892 345.159 228.655 343.874C231.45 342.591 234.596 337.611 238.74 336.969C240.973 336.662 243.243 337.139 245.164 338.318C245.164 338.318 257.233 326.336 265.56 322.353C265.238 321.39 264.597 317.761 274.36 309.73C274.906 310.213 274.521 311.561 274.906 311.635C275.065 311.635 277.447 310.609 280.462 308.294C284.189 305.502 288.652 302.578 291.349 301.775C296.431 300.265 301.822 303.348 301.822 303.348C302.28 303.027 302.791 302.787 303.331 302.641C304.614 302.417 305.546 302.256 306.253 302.006C306.19 303.676 307.121 306.535 306.253 309.008C307.259 309.573 308.324 310.026 309.429 310.357C308.885 311.544 307.695 314.564 305.705 316.01C307.373 316.812 307.598 317.744 309.976 318.551C309.012 319.899 307.435 322.214 306.732 323.632C306.025 325.142 303.486 331.405 302.362 333.781C301.174 336.158 299.569 340.526 298.796 341.403C298.023 342.28 295.23 345.996 293.079 347.825C294.985 347.118 302.781 344.742 306.088 343.842C305.104 345.286 300.113 352.691 295.315 359.811C272.343 373.58 246.7 382.295 220.096 385.375C193.491 388.455 166.535 385.829 141.025 377.673L141.04 377.641Z" fill="#E0CD81"/>
<path fill-rule="evenodd" clip-rule="evenodd" d="M102.902 167.858C102.902 167.858 100.11 167.858 99.5633 168.243C99.0171 168.629 102.358 169.433 103.385 169.819C104.412 170.204 106.629 171.97 107.207 173.384C107.753 174.733 127.281 182.601 127.281 182.601L141.093 181.894L145.855 175.315L136.797 167.382L143.149 148.656L134.734 150.005L114.499 162.073L104.349 165.961L102.902 167.858Z" fill="#DFC57C"/>
<path fill-rule="evenodd" clip-rule="evenodd" d="M133.233 174.058C133.433 174.381 133.714 174.646 134.049 174.826C134.383 175.006 134.759 175.095 135.139 175.084C137.997 175.084 140.629 175.792 141.722 177.236C143.553 179.55 148.628 186.937 148.628 186.937L160.769 191.305L161.553 177.009L148.287 167.792L133.191 173.348V174.055H133.225L133.233 174.058Z" fill="#E5CC7C"/>
<path fill-rule="evenodd" clip-rule="evenodd" d="M130.851 179.357C130.851 179.357 133.066 179.518 135.861 178.489C138.656 177.46 143.248 175.245 145.241 176.113C148.033 177.301 147.455 181.028 150.477 184.371C152.306 186.427 155.647 186.363 157.542 188.58C159.437 190.797 165.957 189.768 165.957 189.768L168.43 203.107L158.506 215.828L155.26 231.63H141.84L129.581 226.766L123.542 212.157L126.561 197.382L130.851 179.357Z" fill="#D2C281"/>
<path fill-rule="evenodd" clip-rule="evenodd" d="M156.81 179.999C157.143 180.101 157.488 180.155 157.837 180.16C157.451 180.481 156.647 181.187 156.969 183.018C157.29 184.85 158.317 187.162 157.451 188.574C158.143 189.33 158.658 190.229 158.961 191.208C159.507 192.783 159.668 194.227 163.232 194.454C162.717 194.77 162.243 195.148 161.819 195.578C161.819 195.578 164.292 197.729 165.546 199.72C166.829 199.665 170.234 198.606 170.234 198.606L170.941 199.089L172.45 198.453C172.45 198.453 171.038 197.907 172.065 194.471C173.029 191.451 173.897 191.612 173.971 191.388C174.045 191.163 174.678 187.983 174.678 186.698C175.159 185.03 175.544 179.954 175.544 179.954L174.517 168.745L168.737 165.243L164.036 160.706L159.602 169.056L156.683 171.968L156.458 179.194L156.81 179.999Z" fill="#E2C270"/>
<path fill-rule="evenodd" clip-rule="evenodd" d="M170.716 170.621C170.716 170.621 171.743 173.543 172.131 175.792C172.267 175.354 172.343 174.901 172.355 174.443C172.355 174.443 173.158 178.877 173.316 180.708C173.638 180.642 173.952 180.547 174.024 180.867C174.096 181.187 174.828 184.754 174.659 186.745C175.996 184.538 177.847 182.687 180.054 181.35C181.339 180.545 182.849 179.679 184.424 179.613C186.897 179.55 188.695 181.189 191.65 181.189C198.779 181.189 205.237 175.953 209.991 174.348C213.491 173.158 216.51 172.292 218.629 170.363C219.658 169.497 221.49 167.57 223.158 164.709C225.375 160.898 227.687 157.58 230.002 157.163C228.955 157.356 227.889 157.431 226.826 157.388C226.826 157.388 227.533 156.681 228.731 155.717C229.93 154.754 231.365 153.566 233.419 153.566C237.082 153.566 238.911 154.11 240.967 154.11C243.023 154.047 244.211 153.566 244.211 153.566C244.211 153.566 246.364 155.076 251.213 155.076C256.064 155.139 259.308 155.556 261.846 155.783C264.385 156.009 272.895 155.076 275.336 155.148C276.928 155.209 278.49 155.591 279.93 156.272L272.06 133.405L243.79 108.695L226.959 120.612L201.068 146.5L176.016 155.783L170.78 161.661V170.621H170.716Z" fill="#CCB360"/>
<path fill-rule="evenodd" clip-rule="evenodd" d="M226.927 157.515C226.927 157.515 227.634 156.81 228.82 155.846C230.006 154.883 231.456 153.693 233.51 153.693C237.171 153.693 239.002 154.239 241.058 154.239C243.114 154.176 244.302 153.693 244.302 153.693C244.302 153.693 246.458 155.201 251.304 155.201C256.155 155.264 259.399 155.681 261.937 155.906C264.476 156.13 272.986 155.201 275.427 155.27C277.018 155.33 278.581 155.713 280.019 156.395L276.454 146.083L272.312 138.215L260.491 125.27C260.491 125.27 246.305 116.919 246.197 116.856C246.134 116.792 241.283 115.507 241.283 115.507L228.435 123.28L216.777 153.441L216.552 159.793L224.099 163.359C225.994 160.183 228.083 157.642 230.042 157.32C228.274 157.513 226.925 157.513 226.925 157.513L226.927 157.515Z" fill="#D5B457"/>
<path fill-rule="evenodd" clip-rule="evenodd" d="M226.766 159.668C225.642 159.732 224.713 159.507 224.454 158.705C223.491 156.007 222.72 155.622 221.913 155.622C221.107 155.622 220.018 157.356 219.373 157.515C218.727 157.674 217.96 155.524 217.96 155.524L217.253 155.203C217.253 155.203 213.11 157.9 210.188 161.08C207.266 164.261 202.478 169.658 200.327 170.619C198.176 171.58 190.787 171.904 188.258 172.45C185.73 172.997 182.927 174.828 182.542 175.245C182.156 175.662 183.668 176.111 183.892 176.528C184.117 176.914 181.417 176.753 181.193 177.164C181.034 177.485 181.828 179.315 182.222 180.246C182.911 179.904 183.667 179.717 184.437 179.7C186.91 179.637 188.709 181.275 191.663 181.275C198.794 181.275 205.25 176.039 210.003 174.432C213.506 173.244 216.525 172.376 218.644 170.45C219.671 169.584 221.503 167.655 223.173 164.796C224.393 162.838 225.583 161.006 226.773 159.658L226.766 159.668Z" fill="#D2B257"/>
<path fill-rule="evenodd" clip-rule="evenodd" d="M124.499 318.629C124.499 318.629 123.864 316.251 117.978 310.117C116.307 308.383 115.28 306.941 114.156 305.91C111.361 303.274 109.722 302.569 107.732 301.059C103.364 297.816 98.6105 297.816 94.9497 293.833C91.2888 289.85 87.0224 282.241 84.0581 274.464C81.1362 266.691 80.3316 264.218 80.3316 263.993C80.3316 263.769 81.1362 262.259 82.1631 262.484C83.19 262.708 83.19 264.698 83.4483 265.181C83.9599 265.969 84.5402 266.71 85.1824 267.396C86.6921 269.132 88.8433 271.207 89.9358 274.303C89.7114 271.669 88.8115 268.747 88.8115 268.747C88.8115 268.747 94.4648 272.312 99.2817 276.037C104.133 279.763 106.123 281.048 107.539 283.424C108.956 285.8 112.293 292.065 113.891 293.896C115.49 295.728 137.394 302.633 137.394 302.633L147.813 310.401L152.986 321.739L148.937 328.091L141.165 329.762L128.541 324.109L124.499 318.627V318.629Z" fill="#D2B159"/>
<path fill-rule="evenodd" clip-rule="evenodd" d="M96.4551 279.571C96.4551 279.571 99.0891 283.778 105.513 287.76C111.296 291.262 120.449 294.443 128.609 296.338C133.297 297.462 137.987 298.328 142.194 298.394C153.532 298.552 161.337 295.311 171.006 294.25C176.243 293.704 182.667 293.287 189.347 291.709C197.922 289.653 202.997 287.339 209.904 284.087C214.914 281.775 219.508 280.041 223.233 277.824C228.469 274.741 232.291 271.304 236.724 270.278C236.178 271.787 235.6 274.485 231.232 277.28C233.544 277.214 236.724 277.055 236.724 277.055C236.724 277.055 233.641 278.885 228.213 282.996C224.871 285.537 220.44 289.838 215.911 292.696C212.987 294.527 209.807 295.872 207.719 296.969C202.637 299.764 200.588 301.176 197.249 304.591C198.437 304.528 198.534 304.591 198.534 304.591C198.534 304.591 194.325 305.137 191.307 306.742C190.672 306.742 189.571 306.518 187.644 307.064C186.135 307.545 184.142 308.639 182.089 309.215C179.165 310.083 178.203 309.698 178.203 309.698L178.684 310.661C178.684 310.661 174.873 310.596 173.602 310.725C173.827 310.789 173.763 310.886 173.763 310.886C173.54 310.923 173.325 310.999 173.128 311.11C172.517 311.506 171.844 311.799 171.138 311.976C170.752 312.04 170.431 312.04 169.948 312.137C170.109 312.523 171.362 314.678 171.94 315.948C171.46 316.27 164.231 321.731 164.231 321.731C164.455 322.084 164.638 322.461 164.777 322.855C165.002 323.56 165.099 324.589 165.324 325.07C165.868 326.033 166.19 326.194 166.19 326.194C166.19 326.194 165.324 326.355 163.812 326.741C162.529 327.062 160.953 327.607 158.73 327.928C158.048 328.017 157.362 328.071 156.674 328.089C156.996 328.796 158.408 331.494 155.806 334.609C153.204 337.723 152.401 338.176 151.599 340.167C151.195 339.861 150.765 339.592 150.314 339.362C149.448 338.977 148.258 338.401 147.841 337.628C147.598 338.658 147.275 339.667 146.877 340.647C146.075 342.798 144.887 344.92 144.663 346.525C143.794 345.562 142.19 343.667 139.973 344.052C137.756 344.437 135.99 347.457 135.605 348.325C135.605 347.778 135.219 347.361 135.124 348.003C135.058 348.71 133.839 356.095 127.029 362.07C126.966 360.561 126.966 357.22 126.805 356.129C126.17 356.764 125.393 357.702 120.766 359.695C116.237 361.685 116.955 363.677 116.955 363.677C116.955 363.677 116.57 360.501 119.011 357.156C121.484 353.817 122.994 352.242 122.994 351.986C122.954 351.725 122.842 351.48 122.672 351.278C122.35 350.956 121.709 350.571 121.709 350.315C122.094 350.156 125.916 348.325 125.691 344.532C125.467 341.13 124.023 339.362 122.994 338.111C122.835 337.95 124.506 336.762 124.279 336.377C124.118 336.152 122.064 334.64 121.806 333.836C121.867 333.356 121.974 332.883 122.128 332.423C122.352 331.716 122.513 331.234 122.45 330.753C122.289 329.95 121.421 327.734 121.164 327.509C121.389 327.573 122.994 327.509 122.994 327.509C122.994 327.509 121.711 325.453 121.484 324.49C121.258 323.526 120.777 320.988 120.521 320.507C121.067 320.571 122.416 320.666 122.416 320.507C122.481 320.024 121.228 319.222 121.781 318.601C122.166 318.665 122.905 318.987 123.61 319.887C123.225 318.858 122.583 316.867 121.232 316.065C121.867 315.84 124.027 315.26 125.922 316.385C127.817 317.509 128.463 319.082 128.463 319.082C128.463 319.082 129.587 319.95 131.323 321.235C133.314 322.809 135.85 325.047 139.899 326.63C140.767 327.113 142.981 327.113 144.588 326.791C145.288 326.625 145.959 326.354 146.579 325.989C146.803 325.857 147.04 325.749 147.286 325.667C146.941 324.974 146.544 324.308 146.098 323.675C146.644 323.675 147.286 323.74 147.286 323.74C147.286 323.74 147.671 322.872 145.937 321.199C146.323 320.814 146.805 320.564 146.805 319.914C146.259 319.851 145.296 319.048 145.071 318.726C145.391 318.502 145.874 317.763 146.42 317.539C145.937 317.153 144.749 315.546 144.203 315.387C144.725 315.194 145.23 314.957 145.713 314.68C145.713 314.68 143.015 313.973 142.147 313.395C141.279 312.76 139.996 311.661 139.225 311.339C138.421 311.017 137.008 310.858 136.43 310.215C136.975 310.376 137.843 310.215 138.486 310.215C138.967 310.215 139.194 310.278 139.352 310.278C139.289 310.054 139.289 309.571 140.542 309.412C141.145 309.321 141.73 309.137 142.276 308.866C142.276 308.866 141.086 308.802 139.736 307.517C138.385 306.232 137.263 305.205 136.492 305.044C135.689 304.883 134.18 305.59 133.248 305.525C131.963 305.366 131.417 304.722 131.417 304.722C131.417 304.722 127.146 305.108 117.671 299.327C109.479 294.316 105.913 289.884 105.913 289.884C105.147 289.606 104.406 289.262 103.699 288.855C100.616 287.25 96.3429 283.909 96.4721 279.539L96.4551 279.571Z" fill="#C2A44D"/>
<path fill-rule="evenodd" clip-rule="evenodd" d="M214.623 86.7874C215.367 87.0288 216.027 87.4741 216.529 88.0726C218.039 89.8067 219.002 93.0822 215.566 96.5843C216.914 97.0649 217.471 97.2195 218.648 97.0649C217.461 98.4793 214.763 101.499 214.602 104.133C214.441 106.284 215.79 106.927 215.79 106.927C215.79 106.927 213.734 109.303 213.639 113.279C214.61 112.185 215.672 111.174 216.815 110.26C219.193 108.365 222.468 106.214 224.685 104.865C224.655 105.43 224.731 105.996 224.909 106.534C224.909 106.534 229.051 103.129 232.532 104.641C234.105 105.348 233.398 107.563 233.398 107.563C233.398 107.563 235.551 106.76 237.061 108.27C238.57 109.78 240.705 113.673 241.799 115.183C242.28 115.89 243.534 117.239 244.817 119.327C246.57 122.249 248.033 125.336 249.187 128.543C249.25 126.873 249.667 124.273 254.423 125.909C259.176 127.58 264.571 131.082 269.1 137.978C273.629 144.874 274.751 152.66 277.032 155.624C279.344 158.482 281.722 163.236 281.883 165.228C282.044 167.221 281.175 173.643 285.929 191.019C287.278 185.625 289.334 173.643 289.334 173.643L290.458 163.075L291.743 130.377L257.599 102.011L230.908 82.6416L213.531 84.3122L214.621 86.7853L214.623 86.7874Z" fill="#CAA13E"/>
<path fill-rule="evenodd" clip-rule="evenodd" d="M278.061 135.448C278.061 135.448 277.578 132.272 269.549 126.873C261.518 121.541 255.255 121.541 249.475 117.012C245.041 113.447 240.417 105.255 237.406 102.557C234.482 99.8916 234.001 92.1823 234.001 92.1823L243.862 83.9247L258.526 62.7281L270.923 49.0777L276.865 57.3353L285.122 67.0348L289.715 86.4994L291.385 114.99L278.046 135.45L278.061 135.448Z" fill="#B59544"/>
<path fill-rule="evenodd" clip-rule="evenodd" d="M287.987 169.598C288.23 165.278 287.696 160.948 286.412 156.816C284.294 150.231 279.668 138.539 277.519 134.161C276.651 129.31 277.294 128.924 278.226 128.378C279.158 127.832 282.66 125.837 284.578 118.84C286.496 111.842 292.448 111.613 292.448 111.613L296.109 108.916L301.667 122.822L306.516 135.382L308.025 144.987L309.15 153.176L306.516 170.49L293.509 182.245L287.985 169.598H287.987Z" fill="#C89D3A"/>
<path fill-rule="evenodd" clip-rule="evenodd" d="M106.479 362.57V362.214C106.749 362.045 106.987 361.83 107.184 361.579C107.408 361.257 107.571 360.872 107.73 360.777C108.052 360.616 109.561 360.141 110.364 360.294C111.166 360.446 113.288 361.321 114.412 361.257C116.724 361.194 119.422 359.426 123.695 360.23C130.119 361.418 131.628 365.786 135.355 368.259C137.896 369.996 140.525 369.223 140.911 369.223H141.777C141.938 369.223 143.125 367.874 143.769 367.94C145.054 368.003 145.181 369.064 145.984 369.127C147.879 369.352 151.542 368.164 153.373 368.647C153.916 368.817 154.41 369.116 154.813 369.518C155.215 369.92 155.515 370.414 155.685 370.957C156.071 372.145 155.749 373.654 154.817 374.522C152.827 376.352 150.932 378.088 150.547 379.604C151.037 379.978 151.507 380.376 151.957 380.798C136.064 376.749 120.774 370.627 106.479 362.589V362.57Z" fill="#CEB052"/>
<path fill-rule="evenodd" clip-rule="evenodd" d="M277.515 298.394C277.515 298.394 282.524 291.713 284.26 288.404C285.995 284.993 278.768 241.799 278.768 241.799L293.287 194.231L292.899 178.75C292.899 178.75 293.606 164.455 295.277 158.256C297.269 161.821 303.469 166.126 304.818 168.406C305.453 164.036 307.61 154.819 307.291 144.991C308.479 146.82 311.337 165.226 311.337 165.226L314.195 177.623L317.922 190.793L322.065 204.702L324.539 214.306L325.951 216.618L327.141 220.664L328.265 225.034L331.509 235.28L333.414 243.694L334.924 258.952C335.252 260.12 335.489 261.312 335.631 262.518C335.695 264.188 335.407 265.152 335.407 265.442C335.407 265.732 335.953 269.102 335.729 271.641C335.407 274.182 335.407 276.17 333.414 277.993C331.422 279.816 330.171 290.712 330.171 290.712L326.605 288.336C326.605 288.336 327.312 285.09 325.642 282.137C323.971 279.183 320.727 278.571 318.896 279.054C317.066 279.439 313.406 280.015 312.216 281.044C311.091 282.071 308.33 285.251 305.792 286.698C302.616 288.603 297.441 288.753 294.68 289.395C291.885 290.03 288.802 291.936 285.556 294.148C283.011 295.796 280.324 297.213 277.527 298.383V298.383L277.515 298.394Z" fill="#CCA847"/>
<path fill-rule="evenodd" clip-rule="evenodd" d="M277.515 368.575C277.515 368.575 277.726 368.712 278.135 368.937C300.955 358.246 321.401 343.091 338.267 324.367C338.083 317.867 337.844 311.204 337.581 308.735C337.037 303.499 337.422 298.167 337.262 295.084C337.101 292.001 335.367 279.441 334.564 276.198C333.696 272.954 332.023 271.347 331.769 271.347C331.545 271.413 330.194 277.451 330.194 278.969C330.194 280.487 329.872 284.142 329.872 285.074C329.648 285.008 329.552 284.438 329.552 284.205C329.231 285.008 328.845 286.422 328.684 286.583C328.523 286.744 328.909 285.234 328.684 284.913C328.46 284.591 328.049 284.752 328.138 283.949C328.176 283.473 328.251 283.001 328.362 282.537C328.362 282.537 327.399 283.949 326.694 287.547C325.987 291.112 325.987 291.21 325.731 291.529C325.506 291.917 324.221 293.2 324.155 293.683C324.092 294.549 325.345 295.417 325.441 295.897C325.504 296.702 324.316 300.426 323.931 302.249C323.545 304.072 323.706 307.644 323.296 309.476C322.974 311.146 322.66 312.11 321.562 312.815C322.364 312.976 323.135 313.2 323.135 313.2C323.135 313.2 324.259 317.954 321.401 322.002C320.374 323.414 320.118 324.058 319.025 325.343C316.872 327.719 315.201 330.425 315.04 332.184C314.929 331.665 314.854 331.139 314.816 330.609C314.816 330.609 311.477 334.496 310.062 336.713C308.233 339.572 305.694 339.411 304.981 340.118C304.267 340.825 304.113 342.108 304.346 343.137C303.71 343.296 302.516 343.523 301.712 345.996C301.326 347.279 300.363 348.536 298.853 349.4C297.343 350.264 295.512 350.525 294.58 350.749C295.383 350.973 295.705 350.973 296.09 351.23C295.609 352.032 293.393 353.286 290.919 354.893C288.446 356.402 287.257 358.617 286.647 360.063C286.012 361.412 285.074 362.28 283.564 362.441C284.199 362.826 285.139 363.724 285.62 364.014C284.913 364.175 283.714 364.175 281.574 366.007C279.325 367.87 278.554 368.416 277.525 368.577L277.515 368.575Z" fill="#C39D3C"/>
<path fill-rule="evenodd" clip-rule="evenodd" d="M232.822 383.46C234.052 382.598 235.384 381.891 236.788 381.357C241.797 379.367 247.097 378.982 249.185 378.34C251.177 377.705 252.75 376.828 255.223 376.348C255.158 376.911 255.103 377.44 255.043 377.94C247.752 380.232 240.328 382.075 232.811 383.46H232.822Z" fill="#D2BA6B"/>
<path fill-rule="evenodd" clip-rule="evenodd" d="M325.222 251.692C325.222 251.692 324.195 257.248 322.364 260.75C320.532 264.252 318.553 269.1 318.553 269.1C318.565 268.008 318.694 266.92 318.938 265.854C316.626 267.203 311.004 270.449 309.41 271.893C307.9 273.242 305.362 275.62 304.72 276.744C306.23 272.312 307.803 268.33 308.061 266.498C305.749 268.169 294.955 277.066 289.336 282.943L271.83 297.108C269.809 298.198 267.729 299.172 265.598 300.026C262.581 301.309 259.015 302.402 256.382 303.431C257.089 301.536 258.211 299.863 259.786 298.258C261.457 296.685 266.466 291.256 267.237 288.73C267.944 286.096 268.105 284.523 267.174 282.306C266.305 282.531 264.315 282.628 262.966 283.013C261.618 283.399 260.172 284.843 260.172 284.843C260.172 284.843 261.198 278.965 263.415 273.409C261.745 273.473 258.886 273.953 258.886 273.953C258.886 273.953 262.869 267.273 269.685 262.617C267.597 263.061 265.555 263.695 263.583 264.51C259.6 266.181 255.232 268.654 251.988 270.002C253.817 267.462 266.665 249.125 274.311 232.036C281.934 214.981 284.781 210.613 286.452 201.46C287.318 196.931 287.087 190.238 287.318 184.244C287.542 178.301 288.281 172.969 287.801 169.404C289.791 171.877 297.244 178.847 297.5 194.426C297.725 210.003 290.371 231.043 282.564 242.38C284.47 242.926 289.408 243.57 294.481 234.757C299.554 225.945 299.493 223.485 301.324 219.822C301.548 221.653 301.483 222.295 301.483 222.295C301.483 222.295 308.872 213.334 312.372 202.059C313.079 206.91 315.167 211.183 311.89 220.08C308.968 228.109 305.146 230.069 305.146 230.069C305.146 230.069 307.041 229.748 309.834 228.077C310.316 229.265 310.221 230.618 311.024 231.096C311.826 231.575 312.919 232.382 313.079 233.152C313.945 231.867 315.294 230.228 315.713 229.009C315.392 231.549 315.167 242.659 316.349 248.312C318.824 248.088 321.36 247.927 323.094 243.462C321.907 247.832 321.907 250.464 322.709 254.19C324.026 253.292 325.214 251.685 325.214 251.685L325.222 251.692Z" fill="#C0993A"/>
<path fill-rule="evenodd" clip-rule="evenodd" d="M241.766 74.6466C241.766 74.6466 239.293 75.6735 235.085 75.6735C231.425 75.6735 232.451 74.2612 226.735 74.2612C217.935 74.2612 187.196 79.3428 181.798 79.2708C178.296 79.2073 193.617 80.7805 193.617 80.7805L232.773 81.3268L240.641 80.6916L243.565 74.7419L241.766 74.6466Z" fill="#A88F33"/>
<path fill-rule="evenodd" clip-rule="evenodd" d="M140.235 151.188C140.235 151.188 135.223 155.01 133.104 157.934C130.985 160.858 129.86 162.783 127.451 165.16C128.016 165.182 128.581 165.106 129.121 164.936C129.121 164.936 129.121 165.571 128.736 165.739C129.069 165.701 129.406 165.739 129.723 165.849C130.039 165.959 130.327 166.138 130.565 166.374C129.858 166.759 127.931 168.688 129.441 170.968C130.565 172.702 132.943 172.861 132.943 172.861C132.943 172.861 132.397 174.437 134.677 174.276C139.592 174.051 145.084 171.898 147.62 172.444C150.161 173.079 151.605 173.312 153.403 176.429C155.309 179.512 156.969 179.994 156.969 179.994C156.969 179.994 158.093 177.134 157.837 172.863C158.758 170.561 159.269 168.115 159.346 165.637L157.676 153.335L150.386 144.116L140.942 149.352L140.235 151.182V151.188Z" fill="#E3C571"/>
<path fill-rule="evenodd" clip-rule="evenodd" d="M149.196 149.357C149.196 149.357 149.903 151.027 152.859 151.186C152.537 151.893 152.537 151.991 152.634 152.535C152.698 153.081 152.793 153.884 152.793 153.884C153.119 153.726 153.413 153.511 153.661 153.248C153.822 153.956 153.5 155.078 153.661 155.882C153.761 156.372 153.922 156.846 154.142 157.295C154.189 157.185 154.242 157.078 154.303 156.975C154.366 156.814 154.938 158.709 156.52 160.151C156.518 159.929 156.573 159.711 156.678 159.516C156.703 159.918 156.836 160.307 157.064 160.64C156.945 160.584 156.837 160.508 156.744 160.416C156.744 160.416 156.903 165.497 157.771 168.125C157.916 167.955 158.045 167.772 158.156 167.578C158.156 167.42 158.093 168.993 157.932 170.119C157.707 171.244 157.868 172.817 157.868 172.817C158.447 172.361 159.084 171.983 159.761 171.692C160.725 171.305 162.302 170.117 163.263 167.483C163.821 165.992 164.251 164.455 164.549 162.891C164.859 163.489 165.073 164.132 165.184 164.796C165.249 165.599 166.759 165.182 166.759 165.182L167.081 161.68L168.987 153.746L170.721 148.832L179.071 135.825L194.159 124.205L207.329 127.224L218.441 112.128L199.298 100.628L181.182 102.523L164.741 125.295L151.574 145.95L149.196 149.355V149.357Z" fill="#D8B65B"/>
<path fill-rule="evenodd" clip-rule="evenodd" d="M244.078 116.403C244.078 116.403 242.953 116.627 239.71 118.308C236.466 119.989 234.217 120.523 232.964 122.996C231.71 125.469 231.615 127.43 231.615 127.43C231.615 127.43 233.832 126.466 235.117 126.144C236.466 125.825 237.976 125.92 237.815 126.466C237.66 126.841 237.446 127.188 237.179 127.493C237.179 127.493 239.72 127.43 239.652 128.683C239.585 129.937 239.172 131.317 238.691 131.927C238.208 132.562 236.218 133.502 235.994 134.241C235.447 135.751 236.218 135.814 235.928 137.034C235.704 138.224 234.645 140.536 231.175 144.582C227.609 148.63 226.093 151.489 226.093 151.489C226.093 151.489 224.359 148.245 223.459 145.45C222.824 145.77 219.413 147.665 219.413 147.665L211.511 120.14L211.67 118.308C211.67 118.308 212.377 117.442 212.538 115.835C211.35 115.45 211.189 115.128 209.614 113.62C208.039 112.113 206.755 110.279 204.124 109.026C203.738 108.319 203.256 107.357 201.329 106.97C199.402 106.582 198.246 106.265 198.246 106.265C198.246 106.265 199.273 105.877 199.756 105.075C198.566 105.236 197.604 105.621 195.002 105.558C192.368 105.492 192.078 105.397 190.634 105.621C189.19 105.845 187.458 106.489 186.812 104.272C186.105 103.726 184.595 104.209 183.31 106.102C182.025 107.995 181.576 109.506 179.103 110.245C178.929 111.335 178.548 112.382 177.979 113.328C177.272 114.518 176.147 115.706 174.638 117.472C172.26 120.267 172.645 124.859 168.855 128.361C165.033 131.861 169.49 118.66 169.49 118.66L175.593 104.05L192.97 87.0584L219.951 85.229L222.585 99.2034L235.754 103.732L244.073 116.419L244.078 116.403Z" fill="#D3AE4D"/>
<path fill-rule="evenodd" clip-rule="evenodd" d="M248.35 119.485L237.012 103.137L229.079 97.0331C229.079 97.0331 223.425 86.6286 223.04 86.3067C222.718 86.0823 217.387 85.5043 213.982 85.2798L214.617 86.853C215.36 87.0944 216.021 87.5397 216.523 88.1382C218.032 89.8723 218.996 93.1478 215.559 96.6499C216.908 97.1305 217.465 97.2851 218.642 97.1305C217.454 98.5449 214.757 101.564 214.596 104.198C214.435 106.349 215.784 106.991 215.784 106.991C215.784 106.991 213.728 109.369 213.633 113.343C214.603 112.248 215.666 111.238 216.809 110.324C219.186 108.418 222.462 106.275 224.679 104.927C224.648 105.493 224.725 106.059 224.903 106.597C224.903 106.597 229.045 103.192 232.526 104.702C234.099 105.409 233.392 107.626 233.392 107.626C233.392 107.626 235.545 106.824 237.054 108.333C238.564 109.843 240.715 113.728 241.808 115.24C242.289 115.947 243.542 117.296 244.825 119.382C246.578 122.305 248.042 125.393 249.195 128.6C249.259 127.315 249.517 125.518 251.736 125.518L248.363 119.479L248.35 119.485Z" fill="#CAA13E"/>
<path fill-rule="evenodd" clip-rule="evenodd" d="M78.3731 165.931C78.3731 165.931 77.5706 163.939 78.3731 160.053C79.1755 156.168 80.429 154.337 80.8461 148.62C81.2632 142.903 84.9897 135.772 84.9897 135.772L95.299 131.084L102.591 133.074L104.742 142.84L95.5235 147.921C95.5235 147.921 95.0428 150.072 92.4406 151.806C89.8384 153.541 86.2411 154.889 85.3751 156.657C84.8574 157.74 84.4796 158.884 84.2508 160.062C84.2508 160.062 81.6168 159.516 80.0436 161.25C78.3731 163.018 78.4366 164.591 78.3731 165.94V165.931Z" fill="#F4EFC8"/>
<path fill-rule="evenodd" clip-rule="evenodd" d="M99.1865 163.329C99.1865 163.329 98.3184 163.875 97.6768 165.235C97.0416 164.208 95.5235 158.103 95.46 152.611C95.3965 147.119 95.0683 145.757 96.3387 143.864C97.6091 141.971 102.591 139.977 101.884 136.568C101.177 133.324 98.221 131.976 94.5919 132.907C92.0511 133.542 90.1603 138.946 87.5263 141.643C85.5339 143.699 83.1583 143.377 82.5167 144.502C81.6486 146.011 82.4511 147.521 82.1949 148.484C82.1292 148.806 81.3268 150.54 79.8806 152.628C76.9587 156.835 72.0126 162.778 71.369 168.11C71.5934 165.091 71.4346 165.027 72.2371 161.686L71.7543 160.883L74.9303 150.477L76.9862 141.902L81.5809 127.542L89.6733 112.864L97.5434 104.063L105.733 104.609L106.697 116.911L111.387 140.007L121.247 152.147L105.443 162.783L99.1801 163.329H99.1865Z" fill="#EBCC73"/>
<path fill-rule="evenodd" clip-rule="evenodd" d="M104.101 167.693C104.101 167.693 102.752 168.015 102.269 167.758C101.787 167.502 101.308 167.212 101.467 166.89C101.626 166.568 102.494 166.024 102.494 165.766C102.512 165.533 102.438 165.301 102.288 165.122C102.138 164.942 101.924 164.827 101.691 164.803C100.952 164.707 100.728 165.188 100.728 165.188C100.728 165.188 100.021 164.644 99.4448 164.553C99.7855 164.511 100.128 164.489 100.472 164.487C99.5841 164.085 98.6425 163.815 97.6768 163.685C98.4793 163.204 100.055 161.79 101.081 161.79C102.108 161.79 102.752 161.631 102.591 161.085C102.43 160.538 101.628 159.736 100.762 159.414C101.081 159.029 101.308 158.451 100.537 156.873C99.7327 155.3 100.055 154.239 100.313 153.856C100.537 153.373 101.34 152.507 101.725 151.961C102.111 151.415 102.432 150.676 103.074 150.29C103.396 150.066 104.423 149.655 105.452 149.264C106.576 148.878 107.508 148.395 108.149 148.878C108.856 149.359 108.534 150.002 108.534 150.002C108.534 150.002 110.751 149.198 112.742 150.227C114.734 151.188 119.585 151.8 119.585 151.8L121.323 155.302L109.824 165.163L105.071 167.54L104.107 167.699L104.101 167.693Z" fill="#E5C66B"/>
<path fill-rule="evenodd" clip-rule="evenodd" d="M120.063 151.574C120.063 151.574 116.498 153.951 115.695 154.817C116.176 154.883 116.978 155.205 116.657 155.685C116.271 156.166 113.959 157.837 112.674 159.412C111.325 160.985 110.04 162.978 109.591 163.941C109.11 164.807 105.447 167.346 104.196 167.665C106.83 167.665 112.13 164.422 114.12 164.422C114.057 165.385 114.666 166.477 115.791 166.573C116.915 166.668 120.159 167.28 124.527 164.582C128.895 161.948 127.451 159.988 129.28 158.705C132.782 156.39 134.194 154.335 136.121 153.051C138.048 151.768 139.045 151.476 139.045 151.476C139.045 151.476 139.109 150.513 139.681 150.61C139.837 150.628 139.986 150.688 140.11 150.785C140.235 150.881 140.331 151.01 140.388 151.156C140.388 151.156 143.729 148.779 148.01 148.137C147.91 148.092 147.83 148.013 147.786 147.913C147.786 147.913 148.105 147.752 148.171 147.591C148.171 147.591 148.395 147.269 148.556 147.43C148.717 147.591 148.942 148.779 149.264 149.261C149.971 148.94 151.319 145.92 151.319 145.92L154.565 136.638V128.158L152.025 128.641L132.969 136.733L121.404 148.715L120.055 151.574H120.063Z" fill="#E6BD62"/>
<path fill-rule="evenodd" clip-rule="evenodd" d="M174.924 109.979C175.954 109.728 176.942 109.327 177.856 108.789C177.471 109.818 177.471 110.942 175.8 113.383C174.13 115.824 174.066 116.178 172.717 118.715C171.368 121.349 171.208 125.139 169.922 126.807C170.498 126.527 171.116 126.343 171.752 126.263C171.752 126.263 170.469 127.387 169.922 128.575C169.376 129.763 168.413 132.236 166.037 133.748C163.661 135.259 160.64 136.221 157.396 139.786C154.15 143.286 150.811 147.72 149.139 149.314C150.007 147.805 151.195 144.785 151.516 142.795C151.838 140.805 151.451 138.425 151.997 135.793C152.543 133.161 152.543 131.264 155.173 126.669C157.803 122.075 162.304 106.112 162.304 106.112L172.004 103.029L174.928 109.968L174.924 109.979Z" fill="#B6933F"/>
<path fill-rule="evenodd" clip-rule="evenodd" d="M167.922 104.101C167.922 104.101 165 108.308 164.197 112.034C163.395 115.761 164.131 115.439 163.651 117.271C163.363 118.387 163.363 119.559 163.651 120.675C164.663 119.045 166.048 117.679 167.693 116.69C170.456 115.022 172.705 113.832 174.045 112.42C175.394 110.91 176.518 108.437 179.44 106.542C178.252 106.381 176.581 105.835 176.264 105.907C177.454 104.558 181.017 102.502 184.615 100.029C188.18 97.4884 187.956 96.4636 193.738 93.927C191.843 94.2489 190.943 93.7661 189.368 93.927C190.003 92.5783 192.226 91.9346 194.45 89.7199C196.673 87.5051 193.037 84.2275 193.037 84.2275L176.099 94.4733L167.909 104.109L167.922 104.101Z" fill="#C49937"/>
<path fill-rule="evenodd" clip-rule="evenodd" d="M121.958 96.4551L122.344 93.3723L127.195 85.5996L132.27 71.9491V53.2869L131.884 42.4949L132.687 35.4272L133.297 33.1807L133.94 32.3126L138.082 34.4638L143.801 42.2366L144.347 57.2379L138.789 80.9097L122.922 98.2231L121.958 96.4551Z" fill="#DFC068"/>
<path fill-rule="evenodd" clip-rule="evenodd" d="M134.582 31.4445C134.582 31.4445 132.041 31.5101 131.499 42.0778C130.957 52.6454 130.694 58.2013 130.309 63.4374C129.924 68.6736 129.026 71.8517 128.575 74.9367C128.124 78.0216 127.868 82.2266 126.424 84.7971C125.789 85.9849 124.431 89.7114 121.251 92.5063C117.686 95.5891 112.358 97.7425 111.552 97.9034C110.137 98.2231 102.974 98.9303 100.052 100.537C99.0256 101.084 97.2576 101.725 95.299 103.557C91.4116 107.057 86.2411 113.32 82.5146 120.868C76.7978 132.143 71.081 163.973 71.081 163.973L72.3662 161.821C72.3662 161.821 72.5271 158.963 75.3855 153.951C78.1804 148.942 77.3779 143.32 81.2632 133.716C82.7729 130.055 84.6679 125.302 86.98 121.253C90.643 114.668 95.0746 109.015 99.5401 105.932C106.83 100.923 114.861 99.8302 114.861 99.8302L123.502 94.1134C123.502 94.1134 125.012 91.1914 127.004 87.8503C129.797 83.1625 133.356 77.9263 134.133 70.3145C135.323 59.0397 132.462 51.6523 132.623 44.9722C132.784 38.292 132.848 33.3776 134.199 32.1877C135.55 30.9978 134.584 31.4487 134.584 31.4487L134.582 31.4445Z" fill="#A88F33"/>
<path fill-rule="evenodd" clip-rule="evenodd" d="M134.582 81.873C134.582 81.873 138.393 72.4933 140.138 64.1743C140.46 62.5037 141.101 60.8352 141.262 59.4865C142.065 51.6164 142.289 48.3726 141.262 44.0681C140.46 40.8921 137.377 38.0294 135.77 35.8105C134.197 33.4962 133.458 32.6345 133.779 32.1475C134.101 31.6605 135.353 30.8644 136.572 30.9597C137.869 30.9974 139.144 31.2984 140.32 31.8444C141.497 32.3904 142.55 33.1699 143.415 34.1357C145.889 36.9941 147.847 46.6957 147.847 46.6957L149.907 59.4971L155.143 75.6206L134.586 81.8858L134.582 81.873Z" fill="#C99E3D"/>
<path fill-rule="evenodd" clip-rule="evenodd" d="M170.395 72.11C170.395 72.11 169.687 72.4297 168.404 72.11C168.459 72.6344 168.368 73.1637 168.141 73.6396C167.914 74.1155 167.561 74.5197 167.119 74.8075C165.77 74.2612 153.145 75.3538 153.145 75.3538C153.145 75.3538 147.267 74.3248 145.435 66.552C144.152 61.3794 146.399 54.2503 145.66 49.5604C144.536 42.6537 142.962 41.3028 142.801 39.1537C142.641 37.0046 142.48 36.4562 142.48 35.1075C141.772 34.9466 141.355 34.7221 140.65 34.7221C140.489 34.0869 140.809 33.5322 140.104 32.4079C140.489 32.5688 143.123 32.8907 146.206 35.8126C148.747 38.1903 148.747 39.0563 149.13 39.5391C149.611 40.0197 153.498 43.3503 155.169 46.6703C156.839 49.9902 160.083 60.5769 160.822 62.311C161.047 63.0182 161.529 63.7254 162.728 65.3303C164.591 67.6446 167.32 71.4706 170.403 72.1058L170.395 72.11Z" fill="#B58634"/>
<path fill-rule="evenodd" clip-rule="evenodd" d="M149.583 39.7C151.529 42.8432 153.277 46.1046 154.817 49.4651C156.712 53.7358 157.837 57.2379 160.214 60.0963C158.929 56.3719 156.649 49.048 155.3 46.4458C153.79 43.6933 150.708 40.729 149.583 39.7021V39.7Z" fill="#A88F33"/>
<path fill-rule="evenodd" clip-rule="evenodd" d="M127.741 92.5063C127.741 92.5063 124.497 93.3088 118.458 96.489C116.466 97.5159 114.573 98.3819 112.742 99.1865C107.984 101.338 102.881 103.326 98.8329 104.423C99.1547 104.808 99.3135 104.967 99.3135 104.967C99.3135 104.967 99.3135 106.542 100.182 107.44C99.701 107.923 93.2749 112.291 95.172 126.904C96.4551 126.424 97.9648 125.78 98.1892 125.78C98.5767 125.846 98.672 126.904 99.1526 126.904C99.6332 126.904 101.209 126.269 102.879 124.11C102.816 124.978 101.852 133.714 107.023 139.592C107.986 138.467 110.427 134.741 110.427 134.741L110.491 133.553C110.491 133.553 110.715 129.409 112.066 125.619C113.417 121.829 116.049 119.034 116.049 119.034L129.793 99.4088L127.737 92.5042L127.741 92.5063Z" fill="#E6C367"/>
<path fill-rule="evenodd" clip-rule="evenodd" d="M114.893 121.323C114.264 121.768 113.57 122.114 112.837 122.35C112.612 121.548 112.291 118.785 114.186 116.087C116.403 112.841 121.251 108.634 122.6 105.289C123.468 103.135 123.083 97.7403 130.792 90.8336C138.501 83.9269 141.518 81.5512 141.518 81.5512L153.981 75.2881L169.302 81.3268L161.69 111.16L155.781 125.134L132.278 120.703L114.891 121.323H114.893Z" fill="#DCBA5A"/>
<path fill-rule="evenodd" clip-rule="evenodd" d="M123.864 113.222L126.788 109.561V106.959C126.788 106.959 130.032 106.091 133.532 102.526C137.032 98.9599 141.882 92.1188 146.155 92.5359C150.428 93.0187 150.845 101.818 151.006 104.293C151.167 106.769 151.713 112.386 152.579 115.407C153.543 118.427 142.173 129.86 142.173 129.86L134.451 135.738L123.864 113.222Z" fill="#E9CE77"/>
<path fill-rule="evenodd" clip-rule="evenodd" d="M132.911 143.703C132.911 143.703 135.289 139.977 133.547 139.174C134.573 136.862 136.469 134.421 136.469 134.421C136.469 134.421 137.817 131.082 142.185 126.97C146.553 122.858 149.253 120.127 149.96 117.366C150.396 115.566 150.633 113.725 150.667 111.874C151.14 112.259 151.645 112.603 152.177 112.9C152.884 113.222 156.223 115.983 155.743 121.541C155.262 127.099 153.202 129.411 153.202 129.411C153.202 129.411 151.211 131.402 149.799 132.431C148.287 133.458 147.743 134.645 145.205 134.743C145.466 134.535 145.759 134.372 146.073 134.26C146.073 134.26 143.439 133.94 142.024 135.223C140.61 136.507 137.603 140.46 136.094 141.65C134.584 142.613 132.918 143.706 132.918 143.706L132.911 143.703Z" fill="#CDAE50"/>
<path fill-rule="evenodd" clip-rule="evenodd" d="M239.71 81.2294C235.915 79.8464 231.927 79.0662 227.891 78.9172C221.145 78.6928 211.284 79.0782 201.617 79.1417C191.21 79.2052 181.767 75.5761 168.663 74.9345C166.511 73.6493 161.04 68.0278 143.962 79.9442C144.989 79.8806 156.361 77.3102 160.31 82.2584C164.292 87.1727 163.168 95.5235 162.624 97.5138C161.595 101.947 158.254 108.403 156.907 112.932C155.56 117.461 155.878 119.841 154.915 123.017C153.951 126.193 151.832 127.77 153.083 131.431C154.754 130.404 155.624 130.404 158.415 124.141C161.205 117.878 160.631 113.413 165.258 108.113C169.787 102.782 177.327 95.4896 180.194 93.6581C183.06 91.8266 205.824 80.0077 229.659 91.2825C235.407 90.6727 239.712 81.2273 239.712 81.2273L239.71 81.2294Z" fill="#D2A83E"/>
<path fill-rule="evenodd" clip-rule="evenodd" d="M153.564 76.8592C153.54 76.6178 153.487 76.3803 153.405 76.152C153.182 75.6823 152.889 75.249 152.537 74.8668C152.537 74.8668 146.884 73.8399 144.025 74.1596C139.014 74.7059 134.485 80.9054 132.365 84.0857C130.246 87.2659 127.612 92.1781 124.753 94.7168C124.785 94.4695 124.728 94.219 124.592 94.0096C124.592 94.0096 124.753 94.234 124.434 94.5559C124.114 94.8777 124.112 95.0365 124.273 95.1911L124.755 95.6717C124.914 95.6717 129.348 93.6793 135.387 88.0493C141.811 82.1716 146.725 79.1565 149.295 78.1232C150.666 77.5407 152.099 77.1166 153.566 76.8592V76.8592H153.564Z" fill="#C29637"/>
<path fill-rule="evenodd" clip-rule="evenodd" d="M263.223 52.7089C263.223 52.7089 262.194 53.992 260.908 55.4064C258.05 58.4257 254.323 61.8282 251.143 65.3303C248.126 68.6715 244.721 71.2737 240.897 75.6417C237.074 80.0098 232.64 84.8585 231.518 86.2729C230.491 87.6872 229.688 89.9994 229.688 91.1872C229.142 90.8018 228.5 90.3847 228.5 90.3847C228.771 90.889 229.094 91.3631 229.464 91.7991C230.266 92.9234 231.518 94.3399 232.161 95.2038C232.951 96.3035 233.518 97.5472 233.83 98.8646C234.215 98.9282 236.688 99.4109 239.773 94.3357C242.858 89.2604 246.902 83.7045 246.902 83.7045L253.326 74.1638L257.375 66.0714L262.456 57.0134L263.229 52.7089H263.223Z" fill="#AC8132"/>
<path fill-rule="evenodd" clip-rule="evenodd" d="M269.808 46.2214C269.808 46.2214 265.92 49.3974 264.41 51.303C262.901 53.2086 259.329 58.2097 259.329 58.2097L260.614 58.0488L267.135 52.2685L269.676 47.7395L269.805 46.2299L269.808 46.2214Z" fill="#A88F33"/>
<path fill-rule="evenodd" clip-rule="evenodd" d="M268.618 301.477C268.618 301.477 268.554 298.843 270.032 297.269C271.542 295.694 275.363 293.382 279.09 284.709C282.816 276.037 283.231 274.078 283.231 274.078C283.231 274.078 276.551 279.795 272.433 281.144C273.396 279.151 273.943 277.739 274.425 276.71C273.879 276.229 271.567 275.683 271.343 275.427C272.626 274.142 273.333 270.993 275.935 268.906C279.276 266.365 285.378 261.999 290.121 258.107C294.864 254.216 304.189 245.164 305.379 242.53C306.086 243.557 306.245 244.198 306.245 244.198C306.245 244.198 301.557 250.303 299.116 254.188C296.962 257.529 297.123 259.424 297.123 259.424L301.557 257.519C301.557 257.519 302.84 262.272 297.028 269.501C299.569 268.537 300.594 269.115 302.038 268.311C299.66 269.822 296.384 271.878 293.301 277.529C290.282 283.183 286.17 289.768 279.234 293.877C272.488 298.214 268.601 301.457 268.601 301.457L268.618 301.477Z" fill="#A67A2E"/>
<path fill-rule="evenodd" clip-rule="evenodd" d="M251.209 84.5726C251.209 84.5726 248.575 90.0629 248.19 94.3357C248.126 95.3647 247.868 96.1672 247.868 97.355C247.804 101.177 248.092 105.45 247.233 107.44C246.911 106.637 246.75 106.091 246.428 105.771C245.947 107.12 245.079 111.327 244.372 112.9C244.052 111.874 243.345 108.308 243.411 104.101C243.476 99.8937 243.57 99.0891 243.57 98.2231C243.411 99.5062 242.543 101.242 242.221 102.269C241.74 101.403 241.194 100.279 240.55 99.3474C240.165 99.9826 239.684 100.921 239.267 101.403C239.201 101.018 239.043 99.989 238.945 98.5449C238.882 96.8744 238.784 94.7231 238.882 94.2722C239.041 93.4062 240.391 90.0015 243.25 86.8848C246.654 83.1583 250.157 75.9974 251.183 73.7806C252.21 71.5638 256.578 62.347 256.578 62.347H259.92L255.069 73.3953C255.069 73.3953 252.147 79.4339 250.637 81.6528C249.128 83.8718 245.947 90.2302 244.533 92.7032C245.56 91.3545 246.428 90.6473 247.457 89.3621C248.452 88.4622 251.213 84.5769 251.213 84.5769L251.209 84.5726Z" fill="#8C6228"/>
<path fill-rule="evenodd" clip-rule="evenodd" d="M269.871 45.8022C269.325 47.4819 268.463 49.0415 267.33 50.3968C265.338 52.7745 261.065 55.9527 258.979 58.4892C257.074 60.9623 253.263 67.7081 254.995 75.7053C255.63 73.9712 256.826 70.5347 260.006 66.6473C263.187 62.7599 266.591 58.2965 268.264 54.8284C269.932 51.3263 270.157 48.5653 270.157 48.5653L270.792 47.7628L270.407 45.9313L269.86 45.8022H269.871Z" fill="#CBA94C"/>
<path fill-rule="evenodd" clip-rule="evenodd" d="M334.913 258.852C334.913 258.852 333.628 255.352 333.243 252.172C332.857 248.992 333.878 248.361 332.697 244.721C331.989 242.505 330.706 242.816 330.384 242.504C330.063 242.193 329.838 238.844 329.902 237.012C329.965 235.181 329.838 232.805 329.516 231.776C329.036 231.391 328.714 231.069 328.007 228.693C327.204 226.315 326.819 225.128 326.433 224.422C326.048 223.717 324.922 223.074 324.922 222.367C324.922 220.952 326.207 220.215 326.207 219.826C326.143 219.023 325.18 219.667 324.922 219.44C324.602 219.055 325.726 216.743 325.309 216.421C325.148 216.262 324.024 217.611 323.734 217.226C323.412 216.838 323.027 213.016 322.449 210.48C321.905 208.007 321.324 206.209 321.261 205.47C321.197 204.763 316.827 192.3 315.768 189.281C314.915 186.73 314.197 184.135 313.617 181.508C313.295 179.999 313.071 176.914 312.91 177.236C312.749 177.557 312.847 179.131 312.588 179.067C312.364 179.001 311.561 173.511 311.305 172.643C311.081 171.775 309.73 168.832 309.4 166.702C309.078 164.549 308.373 158.927 307.89 155.105C307.407 151.283 307.183 149.71 307.183 148.753C307.262 146.412 307.133 144.069 306.797 141.751C306.162 137.703 304.892 132.789 303.778 129.932C301.627 124.535 295.908 110.724 294.885 107.287C294.885 106.419 296.01 106.902 296.01 106.902C296.01 106.902 298.802 113.904 300.858 119.299C302.851 124.696 304.746 129.449 305.228 129.932C305.614 130.413 308.633 135.713 309.982 144.385C311.331 153.058 311.811 161.055 312.616 166.386C313.001 168.927 313.323 171.623 314.125 174.32C314.991 177.244 316.34 180.263 318.108 184.888C319.618 188.775 320.742 192.019 321.352 194.814C322.059 198.379 322.059 201.077 322.476 202.845C322.864 204.354 323.44 207.372 324.79 211.738C326.141 216.103 328.129 221.727 329.478 225.227C332.114 232.229 333.289 238.075 333.687 241.192C334.039 244.404 335.229 255.518 334.907 258.857L334.913 258.852Z" fill="#A88F33"/>
<path fill-rule="evenodd" clip-rule="evenodd" d="M270.032 45.4168L269.871 45.8022C269.871 45.8022 270.352 45.9631 270.256 46.6067C270.263 47.4874 270.209 48.3674 270.095 49.2407C269.937 50.365 269.615 51.231 269.551 51.9382C269.551 53.4478 269.776 55.1819 267.646 59.4865C267.01 60.6743 266.619 61.7012 266.297 62.4084C265.494 64.1425 265.334 64.4008 264.626 65.2033C265.751 64.5681 269.799 62.0273 271.853 62.4084C270.441 63.2109 268.287 64.7862 266.939 66.8421C267.26 66.9056 268.609 67.1639 270.75 66.8421C274.315 66.2958 278.298 65.0106 281.798 65.2668C285.622 65.4912 284.112 60.6743 284.112 60.6743L279.7 50.9748L271.349 45.0992L270.032 45.4189V45.4168Z" fill="#BE9C44"/>
<path fill-rule="evenodd" clip-rule="evenodd" d="M291.809 118.073C291.809 118.073 288.082 114.347 286.573 101.558C285.063 88.7099 285.385 69.7979 285.385 69.7979L282.365 62.4105C282.365 62.4105 281.73 57.4962 280.149 55.6668C278.567 53.8374 275.461 50.7525 274.046 49.2428C272.632 47.7332 271.027 45.6772 270.064 45.3554C270.544 44.5529 272.698 40.024 280.951 39.9604C289.204 39.8969 291.749 44.4894 292.611 46.16C293.473 47.8306 297.365 55.0528 298.809 68.8155C300.157 82.5612 300.223 83.5902 299.999 88.3436C299.838 90.9776 298.97 97.0797 297.458 103.599C296.077 109.125 294.568 115.293 291.805 118.086L291.809 118.073Z" fill="#A17C34"/>
<path fill-rule="evenodd" clip-rule="evenodd" d="M280.123 129.026C281.365 129.116 282.606 128.836 283.689 128.221C284.877 128.158 289.181 128.704 292.488 124.497C292.713 125.458 293.293 128.063 291.781 130.375C292.586 129.57 293.774 129.25 293.935 129.026C293.998 130.214 295.122 133.875 290.369 142.772C291.652 141.36 293.162 141.423 294.51 141.262C294.576 142.933 295.474 148.552 293.098 151.574C291.525 153.629 288.955 152.986 288.955 152.986C288.992 152.537 288.992 152.086 288.955 151.637C288.891 150.769 288.569 149.903 288.796 149.325C287.554 148.758 286.422 147.974 285.455 147.011C282.66 144.377 279.031 139.882 278.774 136.54C278.453 132.814 281.794 132.011 281.794 132.011C281.514 131.761 281.275 131.468 281.087 131.143C280.926 130.599 280.765 129.731 280.123 129.026V129.026Z" fill="#8C6228"/>
<path fill-rule="evenodd" clip-rule="evenodd" d="M255.35 88.6189C255.35 88.6189 255.189 88.3944 254.323 89.4213C254.484 88.3944 254.645 87.4289 254.709 86.4973C255.119 85.6348 255.649 84.8349 256.284 84.1216C255.801 85.0829 255.48 85.951 255.48 85.951C255.48 85.951 256.669 83.7342 258.404 82.3854C259.591 81.4221 261.101 80.9732 261.743 80.0733C262.45 79.1099 262.289 78.949 262.45 78.7881C262.45 78.7881 264.025 77.7612 266.435 74.7397C266.754 74.3544 267.237 73.9373 267.559 73.5519C268.103 73.3275 269.388 72.7495 270.898 71.9766C272.473 71.1106 274.239 69.9228 275.332 69.4358C277.483 68.4724 279.765 68.5698 280.824 67.0581C281.627 66.8336 282.492 64.4241 282.334 62.3703C283.521 62.8509 289.624 66.6409 291.713 74.9282C293.223 80.8059 290.524 89.8639 289.399 94.234C288.275 98.6042 288.116 101.846 286.541 103.836C284.548 106.472 278.127 110.188 276.551 112.028C275.203 113.538 271.156 117.36 271.315 120.121C271.476 122.176 274.013 123.297 274.561 123.686C275.109 124.076 275.105 124.554 276.134 124.321C277.163 124.088 277.546 123.614 277.966 123.614C278.446 123.678 278.446 123.775 278.671 123.775C278.833 123.77 278.995 123.748 279.153 123.709C279.153 123.709 278.993 126.633 272.151 127.521C271.669 127.586 271.188 127.745 270.576 127.842C271.381 127.457 271.861 127.457 272.729 126.269C271.766 126.108 269.003 125.947 268.296 125.723C268.52 125.338 269.259 124.309 269.869 123.828C270.415 123.347 269.805 123.193 269.325 123.443C268.497 124.006 267.703 124.616 266.947 125.272C266.145 125.979 265.437 126.943 264.152 127.813C263.767 126.528 263.83 124.086 265.342 122.32C264.955 122.384 264.216 123.508 263.511 123.284C263.383 122.112 263.459 120.927 263.735 119.782C264.12 118.336 266.208 115.799 266.208 115.799L276.293 97.7785L278.444 84.128L255.35 88.6146V88.6189Z" fill="#92723A"/>
<path fill-rule="evenodd" clip-rule="evenodd" d="M254.806 89.3896C254.806 89.3896 254.26 89.7749 255.353 90.5139C255.192 90.7383 254.806 91.5408 254.324 92.0871C253.779 92.7223 253.199 93.1161 252.975 93.6624C252.494 94.7867 252.109 95.5574 252.109 96.0401C252.109 96.5229 251.948 99.6057 250.599 101.596C250.116 102.303 249.57 103.491 249.185 104.293C248.382 105.706 247.675 106.834 247.514 107.469C247.194 108.594 246.97 111.677 246.97 111.677C246.97 111.677 247.677 110.809 247.933 110.489C247.546 111.291 247.129 112.157 246.519 112.801C246.904 112.479 248.029 111.677 249.924 110.006C252.558 107.791 256.67 104.065 261.681 101.113C260.169 101.66 258.886 101.66 257.859 101.82C258.662 101.018 265.888 92.5381 269.678 91.7356C269.909 91.4438 270.023 91.0775 270 90.7066L266.754 90.3868L260.169 91.7991L259.208 86.7175L254.806 89.3832V89.3896Z" fill="#B18E3E"/>
<path fill-rule="evenodd" clip-rule="evenodd" d="M265.279 118.298C265.279 118.298 264.41 119.164 263.608 121.317C262.99 120.672 262.46 119.948 262.033 119.164C260.845 117.173 259.015 114.635 254.743 116.081C254.679 114.732 254.582 114.025 254.743 113.061C255.45 112.903 257.601 111.168 259.752 108.63C261.264 106.896 262.676 104.903 263.64 102.367C264.275 101.884 265.374 101.081 266.816 100.15C268.872 98.7376 271.345 96.8087 271.73 94.6575C270.767 95.0429 268.711 96.0062 265.626 95.8474C266.816 95.3012 268.645 94.7231 268.421 92.3454C268.903 92.0235 269.289 91.7991 269.289 91.7991C268.927 91.6783 268.546 91.6238 268.164 91.6382C268.099 91.4137 268.004 91.094 267.457 91.2528C266.911 91.4116 266.822 91.4137 266.75 91.6382C266.526 91.7038 265.787 91.6382 265.24 92.0257C264.694 92.4131 263.185 93.6941 262.606 93.9186C262.831 93.5332 263.151 92.9573 263.151 92.9573C263.151 92.9573 261.577 93.1161 260.453 93.5925C258.397 94.2997 256.022 95.5849 253.612 96.8362C253.836 96.4509 253.934 96.201 254.093 96.1291C254.251 96.0571 254.639 95.9703 254.639 95.9046C254.639 95.839 254.48 95.2694 254.575 95.0386C255.296 93.5125 256.146 92.0511 257.116 90.6706C258.241 89.1588 258.465 87.0076 258.465 87.0076L263.379 84.5345L277.191 81.3585L286.153 81.9048L285.029 88.1044L279.736 98.9282L275.207 108.789L270.034 114.829L265.281 118.298H265.279Z" fill="#543E26"/>
<path fill-rule="evenodd" clip-rule="evenodd" d="M287.665 91.4688C287.665 91.4688 282.268 98.149 280.758 99.178C281.722 97.1221 287.665 84.8839 289.816 81.4792C289.336 81.0939 288.692 81.0939 290.202 75.1272C288.919 78.1444 288.468 79.7197 287.409 80.5222C286.35 81.3247 286.219 81.0685 285.503 81.0685C285.639 80.824 285.694 80.5435 285.662 80.266C285.662 80.266 281.133 79.7197 278.04 79.7197C274.946 79.7197 268.823 81.3903 265.416 82.739C262.719 83.8633 261.209 83.8633 260.246 84.5684C259.282 85.3709 258.736 86.239 258.253 86.4634C257.868 86.6879 256.039 87.2659 255.619 87.8757C255.234 88.5109 254.592 89.2244 254.592 89.3854C254.592 89.5463 254.432 89.7728 254.914 89.6098C255.073 89.5463 256.263 88.9026 257.612 88.1001C259.441 87.0732 261.658 85.8854 263.265 85.1782C267.858 83.3467 269.304 83.6685 271.357 83.2832C273.509 82.8978 276.594 81.998 278.647 81.998C280.703 81.9345 284.591 81.998 285.491 82.1589C285.105 82.4807 284.784 82.8661 284.944 84.2148C284.944 84.6002 284.623 85.0173 284.309 85.9489C283.348 88.5829 281.516 92.9509 280.498 95.1678C279.086 98.185 277.481 100.724 276.687 102.297C275.893 103.87 274.146 108.014 272.416 110.23C270.686 112.447 269.782 113.796 269.24 114.279C268.698 114.762 264.806 117.618 265.097 118.647C265.804 118.422 270.269 116.741 273.511 113.091C276.752 109.441 277.398 107.213 279.935 105.221C282.471 103.228 284.464 99.8894 285.652 97.1284C286.647 94.558 286.422 93.7555 287.674 91.4752L287.665 91.4688Z" fill="#806031"/>
<path fill-rule="evenodd" clip-rule="evenodd" d="M171.36 141.328C171.36 141.328 170.653 144.25 169.046 145.696C167.473 147.11 164.678 148.33 164.358 150.708C163.973 153.083 167.153 154.273 167.153 154.273C167.153 154.273 165.417 157.132 165.417 159.283C165.417 161.5 165.353 161.917 165.578 164.036C165.323 164.2 165.106 164.417 164.942 164.671C164.942 164.671 165.101 166.727 166.676 168.01C168.252 169.293 169.598 170.066 170.401 169.744C170.523 170.006 170.631 170.275 170.723 170.549C170.723 170.549 171.913 167.53 172.715 164.896C173.518 162.198 174.225 162.582 174.544 158.952C174.864 155.323 178.356 149.092 178.356 149.092L180.738 143.767L176.852 140.748L171.36 141.326V141.328Z" fill="#B6903C"/>
<path fill-rule="evenodd" clip-rule="evenodd" d="M178.586 146.562C177.785 147.384 177.046 148.265 176.374 149.196C175.347 150.61 174.544 151.893 173.035 152.442C171.525 152.99 170.562 152.986 170.657 154.498C170.752 156.009 172.167 156.649 172.969 157.419C173.837 158.222 174.544 159.571 174.159 161.082C174.64 160.858 175.508 160.6 176.31 158.866C177.113 157.132 182.726 146.564 182.726 146.564H178.586V146.562Z" fill="#685026"/>
<path fill-rule="evenodd" clip-rule="evenodd" d="M200.723 122.183C200.723 122.183 201.204 120.9 200.723 119.968C200.24 119.005 197.319 118.683 195.872 117.59C194.363 116.466 192.531 115.685 191.022 116.178C191.246 115.632 192.146 114.442 191.407 114.186C190.7 113.961 188.068 115.149 187.361 115.695C186.654 116.242 185.046 116.883 184.727 117.271C184.407 117.658 183.859 118.395 183.537 118.073C183.215 117.849 183.056 117.271 182.51 117.59C181.964 117.91 179.334 120.063 178.849 121.317C178.364 122.57 177.274 125.365 173.998 128.543C170.723 131.721 169.308 133.779 170.272 134.967C171.235 136.155 171.686 135.289 171.847 136.316C171.971 137.324 171.916 138.346 171.686 139.335C171.301 141.006 170.659 142.579 171.525 142.901C173.742 143.608 175.895 142.266 176.376 142.676C177.339 143.542 175.83 146.659 178.11 147.269C180.424 147.904 182.705 146.723 182.705 146.723L191.119 142.194L199.214 137.923L203.355 129.731L201.134 122.89L200.711 122.183H200.723Z" fill="#D4B968"/>
<path fill-rule="evenodd" clip-rule="evenodd" d="M192.783 141.745C192.783 141.745 191.369 139.594 193.105 137.697C194.841 135.799 197.312 134.999 198.276 133.811C198.092 133.585 197.846 133.418 197.568 133.331C198.208 132.186 199.183 131.266 200.363 130.695C199.883 130.214 199.239 129.829 198.534 129.829C196.959 129.829 195.993 130.792 194.549 130.792C193.137 130.792 192.976 130.085 192.976 130.085C192.976 130.085 195.354 129.86 195.127 128.8C194.903 127.675 194.492 127.675 194.492 127.675C194.492 127.675 199.084 125.77 199.887 124.753C200.689 123.737 200.594 122.536 200.755 122.056C201.299 122.056 204.479 120.385 205.765 121.092C207.05 121.8 206.15 123.726 206.15 123.726C206.15 123.726 210.039 120.802 212.021 117.935C213.755 118.096 214.562 116.748 215.832 116.748C217.408 116.748 219.881 118.899 220.361 123.491C220.683 126.125 221.164 127.635 220.683 132.293C220.459 134.927 220.522 140.551 221.318 143.341C221.863 145.558 223.148 145.334 223.148 145.334C222.951 146.009 222.56 146.612 222.023 147.068C221.155 147.87 221.06 149.992 221.155 150.794C221.283 151.381 221.445 151.96 221.638 152.528C221.638 152.528 220.611 153.716 220.353 154.521C220.128 155.323 219.07 155.87 218.297 155.87C217.524 155.87 217.912 155.804 216.885 155.87C215.858 155.935 215.536 156.094 214.892 155.87C214.249 155.645 213.768 155.387 214.026 153.329C214.251 151.273 206.093 146.488 206.093 146.488L192.754 141.734L192.783 141.745Z" fill="#CCA849"/>
<path fill-rule="evenodd" clip-rule="evenodd" d="M177.462 162.044C177.462 162.044 180.384 165.931 192.398 165.931C198.115 165.931 200.107 165.385 201.291 165.063C202.576 164.741 207.393 162.848 212.244 157.129C216.612 151.959 215.648 149.839 215.648 149.839L213.108 149.454L204.85 150.578L180.416 160.985L177.452 162.044H177.462Z" fill="#585136"/>
<path fill-rule="evenodd" clip-rule="evenodd" d="M186.423 163.007C186.423 163.007 176.016 165.321 176.016 158.736C176.016 152.312 182.44 145.567 184.047 144.379C185.718 143.189 189.7 141.838 189.7 141.838H199.305L201.134 146.689L200.331 157.159L186.423 163.005V163.007Z" fill="#252211"/>
<path fill-rule="evenodd" clip-rule="evenodd" d="M196.027 143.801C196.027 143.801 194.037 141.969 189.508 144.436C184.979 146.903 181.316 152.058 181.091 156.74C180.867 160.881 184.496 163.966 190.149 164.127C194.356 164.286 196.895 163.805 198.18 163.492C197.858 163.107 196.188 161.019 196.188 161.019L196.029 143.803L196.027 143.801Z" fill="#C3B378"/>
<path fill-rule="evenodd" clip-rule="evenodd" d="M194.068 144.826C194.068 144.826 193.588 144.44 192.163 145.211C190.975 145.846 189.241 147.525 187.892 148.713C187.024 149.42 186.478 149.74 185.986 150.286C183.994 152.664 182.323 156.551 183.289 158.478C184.255 160.405 187.433 162.622 195.527 161.112L194.045 144.828L194.068 144.826Z" fill="#E6D89C"/>
<path fill-rule="evenodd" clip-rule="evenodd" d="M191.434 148.81C191.434 148.81 190.149 150.803 190.149 153.983C190.149 157.227 191.981 162.397 198.727 162.783C203.897 163.105 207.365 155.332 211.124 152.312C213.982 150 215.716 149.935 215.716 149.935C215.716 149.935 212.794 146.759 204.99 142.645C197.28 138.501 188.64 137.955 183.95 144.315C186.167 144.154 193.329 142.323 193.329 142.323L196.832 143.447L191.434 148.813V148.81Z" fill="#252211"/>
<path fill-rule="evenodd" clip-rule="evenodd" d="M201.519 153.018C201.295 152.537 201.134 151.893 202.066 151.734C202.997 151.576 203.414 151.669 203.736 152.37C204.058 153.071 204.371 153.655 203.895 153.945C203.414 154.201 202.161 153.945 201.517 153.013L201.519 153.018ZM200.01 148.489C200.01 148.489 199.688 148.713 199.849 148.264C199.912 147.72 200.331 146.754 201.358 146.981C202.385 147.208 202.163 148.33 201.994 148.652C201.824 148.973 200.967 149.518 200.323 149.287C200.241 149.266 200.166 149.226 200.103 149.171C200.039 149.115 199.99 149.045 199.959 148.967C199.927 148.889 199.915 148.805 199.922 148.721C199.929 148.637 199.957 148.556 200.001 148.484L200.01 148.489Z" fill="#6F674D"/>
<path fill-rule="evenodd" clip-rule="evenodd" d="M113.066 150.542C113.066 150.542 115.606 152.448 118.558 152.374C121.48 152.308 125.238 149.291 126.972 147.362C127.999 146.238 128.878 145.05 129.831 144.118C130.635 143.316 131.179 142.931 131.565 142.384C132.111 141.749 132.689 140.555 132.979 140.167C132.272 140.714 131.245 141.679 130.184 142.321C129.157 142.956 126.941 144.15 126.041 144.472C125.175 144.794 116.18 149.554 116.18 149.554L113.066 150.542Z" fill="#AC924C"/>
<path fill-rule="evenodd" clip-rule="evenodd" d="M116.949 126.809C116.949 126.809 118.361 125.846 121.092 125.234C123.726 124.599 129.026 124.11 129.026 124.11L133.394 126.015L135.128 132.6L131.952 139.443L127.906 141.984L123.311 134.597L116.959 126.822L116.949 126.809Z" fill="#9F8E57"/>
<path fill-rule="evenodd" clip-rule="evenodd" d="M111.232 132.687L109.72 133.815C109.72 133.815 110.108 133.108 110.427 130.957C110.747 128.806 112.42 123.57 114.861 120.55C117.302 117.531 117.239 117.692 117.239 117.692C117.014 117.651 116.783 117.658 116.562 117.713C116.34 117.768 116.133 117.87 115.954 118.012C116.275 117.3 118.331 114.759 120.387 113.489C122.443 112.219 123.246 111.818 125.397 112.854C127.548 113.889 128.094 114.427 129.67 114.364C131.245 114.3 132.592 112.629 132.592 112.629C132.592 112.629 132.914 113.656 131.726 116.034C130.538 118.412 125.848 123.261 125.848 123.261L116.083 129.941L111.232 132.693V132.687Z" fill="#EAC970"/>
<path fill-rule="evenodd" clip-rule="evenodd" d="M118.456 126.007C118.456 126.007 125.524 126.97 127.675 124.98C127.739 125.204 127.997 125.204 127.997 125.365C127.98 125.486 127.923 125.599 127.836 125.685C128.07 125.648 128.306 125.626 128.543 125.621C128.826 125.706 129.117 125.76 129.411 125.782C129.648 125.777 129.885 125.755 130.119 125.717C130.096 125.876 130.042 126.03 129.959 126.168C129.876 126.306 129.766 126.426 129.636 126.521C129.958 126.521 130.271 126.585 130.271 126.841C130.271 127.097 130.335 127.87 129.949 128.031C129.63 128.119 129.29 128.096 128.986 127.965C129.011 128.573 129.177 129.167 129.469 129.701C130.104 130.889 131.459 132.242 133.28 131.853C133.28 131.853 134.241 134.165 130.195 139.304C129.651 140.011 129.071 140.974 128.365 141.777C128.087 142.384 127.874 143.019 127.73 143.672C127.73 143.672 134.573 141.038 136.532 135.031C138.524 128.992 138.91 123.051 138.524 117.495C138.459 115.92 138.203 114.798 137.817 113.993C136.854 112.001 134.154 112.322 133.064 113.447C131.489 115.022 128.855 118.939 125.194 121.637C121.467 124.334 121.308 124.813 118.448 126.007H118.456Z" fill="#D7BC6B"/>
<path fill-rule="evenodd" clip-rule="evenodd" d="M109.979 134.679C109.979 134.679 108.63 135.482 107.923 138.491C107.215 141.573 108.558 145.332 109.335 146.519C110.112 147.707 111.876 150.953 115.534 151.114C116.44 151.109 117.336 150.924 118.168 150.568C119.446 149.982 120.644 149.237 121.734 148.351C123.309 147.163 124.592 146.136 124.431 146.039C124.046 145.878 114.732 138.169 114.732 138.169L111.23 134.26L109.976 134.684L109.979 134.679Z" fill="#585136"/>
<path fill-rule="evenodd" clip-rule="evenodd" d="M118.782 147.462C118.782 147.462 120.677 147.303 121.802 146.596C122.926 145.888 115.217 138.245 115.217 138.245L115.763 146.503L118.782 147.462Z" fill="#453A25"/>
<path fill-rule="evenodd" clip-rule="evenodd" d="M110.588 134.099C110.588 134.099 109.625 135.931 109.625 136.413C109.464 137.987 109.947 142.933 110.332 144.506C110.717 146.176 112.805 148.713 115.505 148.713C117.173 148.713 119.487 147.686 119.487 147.43C119.487 147.108 117.11 146.795 116.468 145.598C116.083 144.963 115.922 143.384 115.833 141.787C115.769 140.76 115.769 139.636 116.155 139.246C117.023 138.283 117.182 135.52 117.182 135.52L120.265 129.793H116.21L111.359 132.812L110.588 134.099Z" fill="#84754B"/>
<path fill-rule="evenodd" clip-rule="evenodd" d="M109.401 135.867C109.401 135.867 112.577 131.66 115.439 130.695C118.302 129.729 119.583 130.309 119.583 130.309L117.912 134.582L115.534 137.216L115.695 138.565C115.695 138.565 115.308 142.13 117.686 144.603C120.063 147.076 121.829 146.981 122.858 146.981C123.887 146.981 126.841 146.113 128.351 142.547C129.699 139.208 130.824 134.925 128.126 130.631C125.49 126.358 120.834 126.193 119.934 126.193C119.034 126.193 111.969 126.547 109.401 135.861V135.867Z" fill="#252211"/>
<path fill-rule="evenodd" clip-rule="evenodd" d="M190.952 150.159C189.764 149.613 190.888 146.274 192.076 145.245C193.264 144.216 194.773 143.03 197.41 142.867C198.371 142.804 199.302 143.413 199.144 144.057C198.919 145.245 197.249 146.915 195.739 148.103C193.651 149.742 192.3 150.769 190.952 150.159Z" fill="#F7F7E7"/>
<path fill-rule="evenodd" clip-rule="evenodd" d="M126.712 131.948C127.58 131.884 128.704 132.583 128.929 133.523C129.153 134.55 128.382 136.606 126.712 136.606C125.363 136.606 124.656 134.936 124.656 134.455C124.671 134.06 124.781 133.674 124.978 133.331C125.041 133.233 125.202 132.109 126.712 131.948V131.948Z" fill="#F8F6DE"/>
<path fill-rule="evenodd" clip-rule="evenodd" d="M114.186 132.687C114.186 132.687 111.969 133.714 110.942 135.863C110.208 137.45 109.986 139.226 110.307 140.945C110.468 141.747 111.27 143.737 111.816 144.444C112.363 145.152 113.102 145.634 113.648 145.569C114.194 145.503 115.316 144.059 115.316 143.193C115.316 142.327 115.382 138.664 116.441 136.672C117.372 134.681 114.192 132.689 114.192 132.689L114.186 132.687Z" fill="#D4C38B"/>
<path fill-rule="evenodd" clip-rule="evenodd" d="M114.508 132.526C114.122 132.75 113.481 133.072 113.639 133.489C113.8 133.875 115.149 134.125 115.632 135.065C116.178 136.028 116.178 137.055 116.017 137.538C116.437 137.338 116.817 137.066 117.141 136.733C117.849 135.931 118.715 134.84 119.454 134.84C119.936 134.84 120.417 135.065 120.868 135.065C121.575 135.065 122.28 134.84 122.378 134.101C122.536 133.138 121.029 132.27 120.161 132.431C120.322 131.796 120.546 130.858 119.839 130.214C119.132 129.57 116.917 130.697 116.434 131.018C115.952 131.34 114.508 132.528 114.508 132.528V132.526Z" fill="#E2D59D"/>
<path fill-rule="evenodd" clip-rule="evenodd" d="M165.546 200.01L170.299 198.606L171.648 199.569C171.648 199.569 172.609 201.625 174.121 201.881C173.638 202.908 172.385 203.787 172.45 204.515C172.516 205.244 173.158 205.801 173.158 205.801C173.158 205.801 168.885 212.866 177.301 219.987C175.309 220.789 172.772 221.892 171.424 222.527C172.385 222.752 174.441 223.163 175.309 223.942C176.177 224.721 176.177 224.969 176.979 225.452C177.782 225.934 178.263 226.576 178.104 226.864C177.557 226.542 175.726 225.581 175.406 226.478C175.087 227.376 167.473 227.025 167.473 227.025L154.625 229.498C154.625 229.498 155.105 228.213 153.757 227.025C152.183 225.612 150.257 227.088 148.201 225.515C145.503 223.459 145.406 221.081 144.54 220.184C145.406 219.637 147.174 218.835 151.381 218.278C151.22 217.956 150.674 216.993 150.996 216.127C151.381 215.002 152.986 214.295 152.505 212.951C153.212 212.79 153.532 212.79 155.3 210.573C156.971 208.356 157.998 207.876 159.283 207.715C160.568 207.554 161.339 207.715 163.716 205.498C165.385 203.925 164.841 202.576 164.841 202.576C164.841 202.576 165.931 202.222 165.548 200.005L165.546 200.01Z" fill="#CBAC5A"/>
<path fill-rule="evenodd" clip-rule="evenodd" d="M151.51 200.723C151.574 200.401 151.832 200.24 153.566 200.401C155.3 200.562 166.285 199.374 169.272 199.214C172.292 198.989 182.923 199.148 188.095 200.24C193.268 201.333 198.502 202.618 201.039 203.26C203.579 203.967 204.38 204.221 204.282 204.543C204.219 204.865 203.647 205.178 203.319 205.089C202.999 205.026 194.583 202.455 191.983 201.913C189.383 201.371 180.386 199.921 175.468 200.008C170.875 200.073 169.044 199.944 165.158 200.393C161.271 200.876 154.847 201.517 152.92 201.261C151.015 201.037 151.408 201.037 151.506 200.715L151.51 200.723Z" fill="#D6BC6F"/>
<path fill-rule="evenodd" clip-rule="evenodd" d="M177.365 225.898C177.365 225.898 183.95 229.464 186.327 233.832C188.062 237.076 185.301 238.683 185.301 238.683C185.301 238.683 189.027 238.683 188.544 240.739C188.32 242.022 182.12 245.49 177.977 247.321C173.77 249.153 173.93 249.058 171.874 249.377C169.882 249.699 164.421 248.742 163.297 250.341C162.173 251.939 162.662 253.587 162.975 253.843C163.297 254.067 165.899 254.389 165.899 254.389C165.899 254.389 165.353 255.899 159.958 256.06C154.563 256.221 153.212 256.604 152.89 257.184C152.569 257.728 153.917 257.408 156.393 257.819C158.866 258.205 162.334 258.454 162.334 258.454C162.334 258.454 161.209 259.418 158.288 260.188C154.946 261.054 149.71 261.859 148.137 262.822C148.94 263.369 150.129 264.171 150.678 264.235C149.329 264.557 147.432 265.264 147.112 265.52C147.593 265.842 148.237 266.227 148.237 266.227C148.237 266.227 145.537 269.471 143.964 270.275C142.391 271.08 133.333 275.285 130.216 274.483C122.443 272.427 121.48 263.915 119.585 263.273C116.726 262.31 115.378 264.235 112.839 262.886C113.963 262.083 114.575 261.603 115.763 261.057C114.478 260.421 107.829 256.206 107.829 256.206C107.134 254.69 106.362 253.211 105.517 251.774C104.232 249.557 102.341 246.602 100.923 243.999C97.8398 238.283 97.6789 235.649 94.884 232.405C95.3668 231.77 97.0352 231.859 97.0352 231.859L120.453 239.568L161.976 240.77L172.774 225.354L177.367 225.9L177.365 225.898Z" fill="#DFC677"/>
<path fill-rule="evenodd" clip-rule="evenodd" d="M115.856 249.409C116.107 249.688 116.399 249.927 116.722 250.116C117.527 250.663 118.715 251.306 119.517 252.268C119.839 251.787 120.641 250.919 122.058 252.268C123.474 253.616 125.234 252.655 126.329 252.975C127.453 253.362 127.516 253.521 127.516 253.521C127.516 253.521 128.152 252.975 129.572 252.397C130.44 252.075 131.467 251.85 132.592 251.531C133.619 251.306 134.743 250.984 135.516 250.984C136.223 251.465 138.759 254.16 148.942 250.182C158.546 246.455 160.761 246.038 162.368 246.614C162.529 246.229 162.69 245.49 165.163 245.587C165.163 244.56 163.107 241.058 163.107 241.058L151.768 237.173H145.567L126.97 240.578L116.665 246.458L115.863 249.422L115.856 249.409Z" fill="#C4A859"/>
<path fill-rule="evenodd" clip-rule="evenodd" d="M109.657 242.89C109.657 242.89 109.881 244.624 112.452 246.455C114.992 248.285 115.791 249.377 115.791 249.377C115.791 249.377 116.273 248.742 116.659 248.094C117.044 247.387 117.366 246.585 118.007 246.36C119.293 245.814 122.215 246.841 122.858 246.68C123.405 246.521 123.244 245.397 123.822 245.397C125.17 245.331 126.036 246.263 126.519 246.263C127.002 246.263 128.188 246.199 128.348 245.943C128.509 245.687 128.573 243.019 130.404 241.734C132.397 240.322 134.838 240.931 135.486 241.253C135.486 241.734 135.55 242.924 136.835 242.987C138.12 243.051 138.247 242.826 139.376 243.212C140.504 243.597 141.849 243.148 142.458 245.041C143.005 244.882 144.29 244.721 143.968 242.89C144.603 242.409 145.158 242.087 146.509 240.192C146.831 239.712 147.375 239.165 147.794 238.458C148.918 238.458 150.267 238.234 152.065 239.807C151.518 240.192 151.197 240.442 151.038 240.834C151.508 241.299 151.937 241.805 152.321 242.344C152.804 242.979 153.126 243.758 153.735 243.919C155.084 244.304 157.301 243.758 159.774 243.919C162.152 244.08 164.142 244.946 165.01 245.492C165.332 245.333 165.332 245.268 166.134 245.429C166.937 245.589 167.547 245.653 166.681 244.626C167.161 244.851 167.708 245.333 168.19 244.851C168.673 244.368 169.056 243.663 170.405 243.502C171.754 243.341 172.237 243.565 172.783 242.153C173.49 240.419 171.049 240.419 171.049 240.419C171.049 240.419 172.173 239.39 173.427 238.041C174.936 236.629 176.67 234.797 177.087 232.549C177.795 228.405 173.748 227.861 173.748 227.861L154.123 233.9L130.129 232.71L109.669 242.892L109.657 242.89Z" fill="#927D49"/>
<path fill-rule="evenodd" clip-rule="evenodd" d="M92.0235 186.198C92.0235 186.198 91.3883 187.001 90.9966 188.896C90.6049 190.791 90.7721 190.566 90.4503 191.915C90.1285 193.264 86.1754 206.69 87.6575 211.219C89.1397 215.748 91.7059 217.418 93.3108 221.079C93.6327 221.882 93.946 222.364 94.1133 223.072C94.6596 225.447 94.1789 227.279 94.8205 229.657C95.0449 230.459 95.6251 231.391 96.4911 232.354C98.3967 234.344 101.503 236.239 102.843 237.588C104.736 239.581 107.436 243.629 110.872 244.012C112.703 244.237 115.306 243.466 117.457 242.183C119.363 240.993 120.54 239.324 122.539 238.372C123.951 237.664 125.46 237.408 126.809 237.086C129.604 236.54 132.143 236.451 133.652 236.764C135.965 237.247 141.425 238.918 144.451 238.918C146.815 238.88 149.166 238.556 151.453 237.954C156.045 236.606 161.601 234.291 165.264 233.265C167.415 232.629 169.149 232.462 170.917 232.077C173.937 231.369 176.473 230.406 177.919 228.575C176.956 227.45 175.768 225.716 169.342 225.78C162.052 225.941 153.636 229.987 149.492 230.631C145.349 231.274 143.551 231.818 138.925 230.148C134.389 228.46 134.239 227.344 134.239 227.344C134.239 227.344 129.477 224.014 127.485 215.523C125.492 207.033 127.485 200.846 132.657 194.966C134.006 193.457 133.684 192.108 133.684 192.108C133.684 192.108 137.089 187.515 136.157 183.215C135.13 178.942 128.545 179.81 128.545 179.81L92.0256 186.198H92.0235Z" fill="#6E6342"/>
<path fill-rule="evenodd" clip-rule="evenodd" d="M97.5159 200.492C97.2327 201.025 97.0995 201.624 97.1306 202.227C97.1941 203.092 97.4524 204.217 100.052 206.755C102.269 208.97 101.787 211.443 101.787 211.443C101.787 211.443 102.902 211.668 105.93 210.251C108.308 209.127 109.106 211.119 109.106 211.119C109.798 210.756 110.549 210.517 111.323 210.412C112.025 210.347 112.704 210.131 113.313 209.777C113.313 209.777 116.108 212.635 118.55 213.984C120.766 215.174 122.052 215.976 123.144 215.174C124.171 214.467 124.171 213.021 124.105 212.379C123.851 211.787 123.528 211.226 123.144 210.709C122.437 209.682 121.313 208.492 121.239 207.533C121.078 205.318 122.909 202.682 122.522 202.04C122.134 201.399 120.692 201.238 117.127 202.523C113.434 203.743 97.5011 200.499 97.5011 200.499L97.5159 200.492Z" fill="#39331F"/>
<path fill-rule="evenodd" clip-rule="evenodd" d="M105.93 214.85C105.93 214.85 104.101 213.116 104.742 204.7C105.519 204.688 106.294 204.764 107.054 204.924C107.054 204.924 108.052 211.445 105.93 214.85Z" fill="#292311"/>
<path fill-rule="evenodd" clip-rule="evenodd" d="M92.8916 179.774C93.1469 179.585 93.3837 179.373 93.5988 179.139C92.9636 180.327 90.0311 185.08 92.4089 192.565C94.7866 200.016 100.76 205.572 108.115 205.83C115.471 206.089 119.337 202.489 123.758 197.094C125.492 194.943 127.485 192.243 129.25 190.414C131.884 187.553 133.94 186.751 133.94 183.99C133.94 178.337 128.158 175.798 119.646 173.261C111.135 170.725 103.457 171.038 99.4744 172.774C95.5891 174.667 93.9185 176.66 92.8895 179.776L92.8916 179.774Z" fill="#252211"/>
<path fill-rule="evenodd" clip-rule="evenodd" d="M120.224 217.387L120.86 217.065C120.86 217.065 121.018 214.524 122.047 214.592C123.074 214.753 123.557 216.103 123.46 216.584C123.396 217.065 123.14 217.869 122.111 217.772C120.762 217.804 120.218 217.387 120.218 217.387H120.224Z" fill="#3F3824"/>
<path fill-rule="evenodd" clip-rule="evenodd" d="M117.366 206.595C117.366 206.595 118.001 206.37 118.778 207.141C119.413 207.141 122.183 206.819 123.051 207.365C123.919 207.912 124.175 208.392 124.175 208.392C124.175 208.392 120.931 209.099 119.164 208.392C117.366 207.782 117.366 206.595 117.366 206.595V206.595Z" fill="#2D2815"/>
<path fill-rule="evenodd" clip-rule="evenodd" d="M131.66 207.075C131.66 206.914 129.926 205.726 128.094 205.339C127.773 205.275 127.707 205.5 127.459 205.5C127.298 205.436 127.235 204.954 127.235 204.954L126.193 205.502C126.193 205.502 126.032 205.726 126.578 206.137C127.059 206.523 127.864 206.844 128.088 207.486C128.313 208.127 128.313 208.352 128.41 208.449C128.473 208.513 129.598 208.449 130.144 208.127C130.69 207.806 131.719 207.281 131.654 207.069L131.66 207.075Z" fill="#82764F"/>
<path fill-rule="evenodd" clip-rule="evenodd" d="M115.439 213.597C115.439 213.597 115.759 211.382 117.912 211.284C120.127 211.124 120.546 213.275 120.546 213.275L119.261 214.56C119.261 214.528 118.298 213.179 115.45 213.597H115.439Z" fill="#2D2816"/>
<path fill-rule="evenodd" clip-rule="evenodd" d="M129.411 204.056C129.411 204.056 128.221 205.341 125.59 205.726C125.365 205.405 124.882 204.763 125.59 203.736C126.297 202.709 127.099 202.387 127.902 202.707C128.256 202.765 128.586 202.922 128.854 203.161C129.121 203.4 129.315 203.71 129.411 204.056V204.056Z" fill="#574F35"/>
<path fill-rule="evenodd" clip-rule="evenodd" d="M134.26 205.631C134.326 205.309 134.101 205.246 134.26 205.085C134.419 204.924 135.289 204.604 135.45 204.763C135.514 204.829 135.45 205.085 135.45 205.398C135.45 205.712 135.45 206.033 135.289 206.264C135.065 206.586 134.423 206.747 134.101 206.652C133.779 206.556 133.716 206.105 133.716 206.017C133.875 205.953 134.26 205.792 134.26 205.631ZM139.744 202.163C139.744 202.002 140.29 201.68 140.612 201.68C141.093 201.68 141.093 202.066 141.158 202.163C141.317 202.227 141.317 202.097 141.478 202.387C141.639 202.677 141.866 203.19 141.703 203.512C141.539 203.834 140.9 204.056 140.741 203.992C140.517 203.831 139.81 202.387 139.744 202.163V202.163Z" fill="#82764F"/>
<path fill-rule="evenodd" clip-rule="evenodd" d="M128.704 206.37C128.704 206.37 129.411 206.529 130.375 207.334C130.053 207.558 129.57 207.814 129.57 207.814C129.57 207.814 129.507 207.075 128.704 206.368V206.37Z" fill="#6E6342"/>
<path fill-rule="evenodd" clip-rule="evenodd" d="M127.131 199.302C126.97 199.144 127.612 198.758 127.997 198.822C128.382 198.885 128.543 199.144 128.96 199.207C129.378 199.271 129.443 199.046 129.596 198.885C129.748 198.724 130.303 198.822 130.398 198.885C130.457 198.956 130.511 199.031 130.559 199.11C130.566 198.988 130.598 198.868 130.653 198.759C130.708 198.65 130.785 198.553 130.879 198.475C131.002 198.384 131.144 198.323 131.294 198.295C131.445 198.267 131.599 198.273 131.747 198.314C131.81 198.538 132.132 199.341 132.069 199.502C132.005 199.662 131.042 199.889 130.879 199.726C131.04 200.113 131.747 200.916 131.842 201.075C131.937 201.233 131.135 201.621 130.815 201.557C130.366 201.526 127.603 199.919 127.123 199.309L127.131 199.302ZM131.338 193.971C131.279 193.809 131.165 193.673 131.016 193.586C130.792 193.522 130.053 193.586 130.053 193.971C130.053 194.356 130.688 196.512 131.402 197.634C132.206 198.758 132.75 199.688 133.297 199.946C133.468 200.024 133.663 200.034 133.842 199.975C134.021 199.915 134.17 199.79 134.26 199.624C134.324 199.463 134.485 198.276 134.421 195.481C134.358 192.686 134.26 189.988 134.099 189.827C133.938 189.666 133.297 189.669 133.072 189.988C132.848 190.308 131.402 193.49 131.336 193.971H131.338Z" fill="#585136"/>
<path fill-rule="evenodd" clip-rule="evenodd" d="M128.48 210.416C128.48 210.416 127.355 209.709 126.263 210.192C125.236 210.675 125.3 212.57 125.3 212.57C125.531 212.66 125.78 212.693 126.027 212.665C126.273 212.637 126.509 212.549 126.714 212.409C127.421 211.928 128.319 211.126 128.48 210.419V210.416Z" fill="#574F35"/>
<path fill-rule="evenodd" clip-rule="evenodd" d="M130.599 212.955C130.536 212.32 129.964 212.32 129.964 211.992C130.003 211.835 130.094 211.696 130.222 211.597C130.35 211.498 130.507 211.444 130.669 211.445C130.991 211.445 131.304 211.831 131.698 212.081C132.083 212.305 132.661 212.716 132.725 213.205C132.789 213.694 132.09 215.034 131.313 215.034C130.536 215.034 130.766 213.588 130.606 212.947L130.599 212.955ZM136.799 212.087C136.799 212.087 135.514 212.472 135.609 212.087C135.704 211.702 135.996 211.606 136.413 211.606C136.625 211.384 136.91 211.247 137.216 211.219C137.391 211.21 137.562 211.268 137.696 211.38C137.696 211.38 138.565 210.994 138.821 211.219C139.077 211.443 138.886 211.443 139.045 211.702C139.247 211.988 139.38 212.318 139.433 212.665C139.433 212.921 138.469 213.467 137.696 213.372C136.799 213.179 136.958 212.248 136.799 212.087V212.087ZM144.281 210.641C144.281 210.641 144.667 210.865 144.347 211.124C144.123 211.348 142.998 211.759 142.033 211.831C141.069 211.831 140.203 211.99 140.203 211.67C140.203 211.35 141.006 210.706 141.487 210.545C141.583 210.425 141.705 210.327 141.845 210.261C141.984 210.194 142.137 210.16 142.291 210.16C142.676 210.16 144.184 209.999 144.603 209.936C144.989 209.87 145.31 210.094 145.084 210.416C144.989 210.641 144.281 210.641 144.281 210.641V210.641ZM146.498 200.723C146.498 200.723 146.016 201.75 145.471 201.75C144.925 201.687 144.925 201.526 144.925 201.365C144.925 201.14 145.471 200.562 145.406 200.401C145.247 200.401 144.859 200.401 144.925 200.016C144.925 199.694 145.471 199.309 145.952 199.381C146.315 199.082 146.767 198.913 147.237 198.9C147.783 198.9 148.264 199.059 148.264 199.381C148.264 199.703 147.629 200.408 147.396 200.571C147.14 200.827 146.818 200.994 146.498 200.73V200.723ZM139.174 219.705C139.174 219.705 138.539 219.771 138.539 220.09C138.539 220.251 138.698 220.251 138.925 220.156C139.055 220.149 139.184 220.127 139.31 220.09C139.373 220.156 139.373 220.476 139.856 220.476C140.253 220.422 140.635 220.291 140.98 220.09C141.366 219.932 141.688 219.769 141.688 219.455C141.527 218.909 141.205 218.651 140.724 218.651C140.478 218.635 140.232 218.691 140.017 218.812C140.017 218.812 139.856 218.49 139.31 218.812C138.764 219.133 138.827 219.133 138.988 219.294C139.276 219.551 139.181 219.718 139.181 219.718L139.174 219.705ZM135.545 223.046C135.545 222.885 136.348 222.563 136.572 222.661C136.797 222.724 137.438 223.944 137.438 224.073C137.438 224.234 136.636 224.619 136.314 224.619C135.992 224.619 135.448 224.073 135.448 223.984C135.448 223.921 135.833 223.825 135.833 223.76C135.929 223.601 135.545 223.213 135.545 223.053V223.046ZM133.004 218.356C133.165 218.293 133.165 218.132 133.39 217.971C133.46 217.924 133.54 217.894 133.624 217.883C133.708 217.872 133.793 217.88 133.873 217.907C133.929 217.806 134.008 217.719 134.102 217.652C134.197 217.585 134.305 217.54 134.419 217.52C134.804 217.456 135.126 217.52 135.054 217.681C135.054 218.164 135.376 218.483 135.376 218.869C135.376 219.254 135.151 219.737 134.349 220.059C133.547 220.283 132.454 220.283 132.293 220.22C132.132 220.156 131.971 219.512 132.132 219.191C132.293 218.869 132.742 218.517 133 218.356H133.004Z" fill="#82764F"/>
<path fill-rule="evenodd" clip-rule="evenodd" d="M134.027 218.574C134.027 218.574 133.481 218.896 133.481 219.057C133.433 219.213 133.411 219.375 133.417 219.538C133.417 219.633 134.125 219.474 134.22 219.377C134.252 219.313 134.027 218.742 134.027 218.574Z" fill="#6E6342"/>
<path fill-rule="evenodd" clip-rule="evenodd" d="M129.251 217.065C129.57 217.13 130.117 217.065 130.534 217.226C130.855 217.387 131.08 217.708 130.758 218.094C130.436 218.479 130.123 219.057 129.409 218.96C128.607 218.896 127.836 218.479 127.836 218.157C127.823 217.954 127.85 217.749 127.916 217.556C127.982 217.363 128.086 217.186 128.221 217.033C128.543 216.777 128.702 216.938 129.248 217.065H129.251Z" fill="#585136"/>
<path fill-rule="evenodd" clip-rule="evenodd" d="M128.865 217.387C128.865 217.387 127.838 218.189 127.58 218.577C127.258 218.962 125.685 220.952 125.204 221.369C125.364 221.088 125.546 220.819 125.748 220.567C125.113 220.973 124.637 221.585 124.4 222.301C124.014 223.491 126.553 224.132 128.221 224.615C129.89 225.098 130.536 225.25 130.536 225.25C129.921 224.327 129.394 223.349 128.96 222.328C128.325 220.819 127.997 220.658 128.414 219.951C128.736 219.244 129.219 218.763 129.219 218.217C129.026 217.708 128.865 217.387 128.865 217.387Z" fill="#574F35"/>
<path fill-rule="evenodd" clip-rule="evenodd" d="M92.248 219.925C92.4818 219.968 92.7214 219.968 92.9552 219.925C93.4358 219.86 98.4476 218.02 103.684 218.35C107.604 218.587 111.489 219.225 115.278 220.256C121.863 221.99 130.053 225.426 135.353 227.387C136.765 227.931 138.148 228.896 139.164 229.28C143.212 230.855 143.371 230.855 145.749 231.272C148.544 231.657 151.402 230.726 154.39 230.084C158.05 229.28 164.314 228.894 169.806 228.092C171.582 227.846 173.334 227.448 175.042 226.904C175.042 226.904 170.674 231.272 160.202 232.845C155.969 233.488 151.667 233.542 147.419 233.006C144.078 232.684 141.863 232.202 140.193 231.721C138.298 231.175 134.41 229.729 129.625 228.545C126.284 227.677 122.558 227.035 118.287 226.233C107.751 224.304 96.3175 222.089 92.2438 219.938L92.248 219.925Z" fill="#252211"/>
<path fill-rule="evenodd" clip-rule="evenodd" d="M80.4269 200.075C77.8861 202.226 75.1907 204.282 72.5589 206.273L64.6253 212.369C61.9278 214.359 59.2938 216.415 56.5942 218.407C53.8946 220.4 51.1992 222.292 48.3366 224.124C50.8774 221.973 53.5728 219.98 56.2703 218.022C58.9677 216.063 61.7647 214.143 64.3669 212.157L72.3006 206.053C75.0298 204.062 77.6638 202.006 80.4269 200.08V200.075ZM66.3911 222.559C66.3911 222.559 69.2495 220.181 72.8151 216.842C77.2467 212.701 82.6755 207.399 84.4096 206.438L66.389 222.561L66.3911 222.559Z" fill="#CFB66C"/>
<path fill-rule="evenodd" clip-rule="evenodd" d="M66.3911 222.557C67.8054 221.145 69.3151 219.764 70.8248 218.414L73.1369 216.423C73.8441 215.788 74.6487 215.074 75.3537 214.367C76.766 212.955 78.1486 211.443 79.5609 209.999C80.2608 209.273 81.001 208.587 81.7777 207.943C82.1661 207.6 82.5974 207.308 83.0608 207.075C83.4483 206.851 83.8654 206.44 84.4096 206.368C84.0898 206.851 83.7045 207.075 83.3827 207.492C82.9973 207.814 82.6755 208.2 82.3557 208.519C81.6486 209.226 80.8461 209.868 80.1389 210.512C78.6292 211.797 77.0561 213.052 75.5464 214.397C74.0367 215.741 72.6245 217.192 71.1127 218.541C69.476 219.923 67.9663 221.272 66.3911 222.563V222.557ZM85.5995 209.709C85.5995 209.709 75.1293 219.957 72.976 221.626L85.5995 209.709Z" fill="#CFB66C"/>
<path fill-rule="evenodd" clip-rule="evenodd" d="M85.5996 209.709C84.6577 210.799 83.6478 211.829 82.576 212.792L79.4 215.811C78.3731 216.838 77.4076 217.867 76.3172 218.894C75.1929 219.858 74.166 220.8 72.976 221.689L76.0589 218.67C77.0879 217.643 78.2122 216.777 79.3047 215.748L82.3876 212.728C83.4462 211.67 84.4753 210.641 85.5996 209.709V209.709ZM86.0802 215.265C85.1151 217.959 83.9779 220.587 82.6755 223.135C79.978 228.532 75.9318 235.276 74.1638 238.715L86.0802 215.265Z" fill="#CFB66C"/>
<path fill-rule="evenodd" clip-rule="evenodd" d="M86.0801 215.267C86.0801 216.455 85.7583 217.484 85.373 218.511C84.9973 219.539 84.5691 220.546 84.0899 221.53C83.6071 222.494 83.0608 223.523 82.5146 224.454C81.9683 225.386 81.3267 226.347 80.844 227.313L77.6002 233.029C76.4759 234.935 75.3834 236.851 74.1956 238.683C74.998 236.627 76.0906 234.7 77.1196 232.805C78.2439 230.899 79.2708 228.994 80.2956 227.023C80.7959 226.04 81.2461 225.033 81.6443 224.005C82.125 222.976 82.6056 222.013 82.9931 221.081C83.4737 220.054 83.8591 219.089 84.3418 218.159C84.886 217.162 85.337 216.199 86.0759 215.267H86.0801Z" fill="#CFB66C"/>
<path fill-rule="evenodd" clip-rule="evenodd" d="M97.5159 241.605C97.5159 241.605 94.3399 245.812 94.6575 251.143C95.5235 248.351 96.616 244.078 97.5159 241.605ZM100.535 245.822C100.535 245.822 99.4109 257.256 98.4793 262.878C99.7963 256.379 100.052 256.926 100.535 245.822ZM121.573 263.553C121.573 263.553 116.82 277.527 116.722 281.411C117.751 277.417 119.742 269.259 121.573 263.542V263.553Z" fill="#DEC270"/>
<path fill-rule="evenodd" clip-rule="evenodd" d="M132.687 240.741C132.687 240.741 140.396 253.46 146.179 264.315C144.614 258.852 141.014 248.833 132.687 240.741Z" fill="#CBAF59"/>
<path fill-rule="evenodd" clip-rule="evenodd" d="M153.405 259.464C157.638 266.946 161.455 274.656 164.839 282.558C164.197 277.098 162.461 267.752 153.405 259.464Z" fill="#E3C677"/>
<path fill-rule="evenodd" clip-rule="evenodd" d="M214.304 278.218C215.587 277.415 218.126 273.045 220.342 271.955C222.557 270.83 224.228 270.606 226.22 268.389C228.21 266.075 228.761 264.662 233.125 262.833C239.229 260.197 235.03 256.792 235.03 256.792C235.703 256.132 236.422 255.52 237.182 254.963C238.757 253.775 240.586 252.329 240.427 249.79C240.203 245.52 239.401 239.32 235.898 235.723C239.303 235.016 245.822 234.535 249.873 233.508C254.561 232.318 256.714 230.647 256.714 230.647C256.714 230.647 254.016 226.055 258.385 221.431C262.753 216.806 266.318 214.043 268.952 208.871C265.933 208.485 261.33 206.88 249.583 211.344C250.217 211.642 250.829 211.985 251.414 212.371C251.414 212.371 244.188 214.363 241.554 216.58C236.959 220.465 236.381 223.645 231.403 226.023C226.425 228.401 221.414 227.757 217.272 229.684C213.131 231.611 212.519 233.25 211.007 233.957C211.329 234.342 210.944 234.984 211.553 235.53C211.168 236.076 208.919 239.737 206.639 239.737C206.863 240.605 208.79 241.247 208.79 241.247C208.79 241.247 207.378 242.276 203.781 242.532C205.61 244.438 207.346 246.515 212.131 249.534C211.746 250.337 210.139 251.526 210.783 253.036C211.49 254.546 213.323 256.602 220.643 258.272C216.917 258.431 212.551 259.299 206.669 258.497C200.791 257.79 199.828 257.372 196.198 258.272C196.584 258.658 197.611 258.658 198.511 259.685C197.547 259.748 191.509 258.977 189.453 261.677C187.301 264.47 186.37 269.064 186.531 272.147C185.406 272.693 184.314 273.657 184.86 275.649C185.406 277.642 188.265 278.283 190.096 279.535C191.926 280.883 192.087 281.364 193.823 281.044C195.652 280.659 198.35 278.829 199.925 278.829C201.5 278.829 202.622 280.017 202.622 280.017C202.622 280.017 206.895 277.961 207.312 278.347C207.698 278.732 207.376 281.205 207.793 281.59C208.216 281.881 213.029 279.022 214.314 278.218H214.304Z" fill="#ECD592"/>
<path fill-rule="evenodd" clip-rule="evenodd" d="M307.676 149.679C287.602 97.8377 237.976 88.2335 237.976 88.2335H96.3916L96.9379 141.038H125.134V258.95H96.3895V311.659H234.056C267.235 311.659 293.831 278.317 293.831 278.317C336.421 217.869 307.674 149.679 307.674 149.679H307.676ZM234.795 242.793C234.795 242.793 223.997 258.372 212.248 258.372H188.745L188.189 141.167H218.35C218.35 141.167 232.324 144.089 242.087 171.743C242.087 171.743 255.031 211.337 234.795 242.793V242.793Z" fill="white" fill-opacity="0.8"/>
</svg>
