<svg width="721" height="233" viewBox="0 0 721 233" fill="none" xmlns="http://www.w3.org/2000/svg">
<path d="M0 16C0 7.16345 7.16344 0 16 0H705C713.837 0 721 7.16344 721 16V217C721 225.837 713.837 233 705 233H16C7.16345 233 0 225.837 0 217V16Z" fill="#61656D"/>
<path d="M225 23L226 207" stroke="black" stroke-width="3"/>
<path d="M339.818 62.9531H335.365V75H327.139V40.875H340.568C344.615 40.875 347.779 41.7734 350.06 43.5703C352.342 45.3672 353.482 47.9062 353.482 51.1875C353.482 53.5625 352.998 55.5312 352.029 57.0938C351.076 58.6562 349.576 59.9219 347.529 60.8906L354.654 74.6484V75H345.842L339.818 62.9531ZM335.365 56.6016H340.568C342.131 56.6016 343.303 56.1953 344.084 55.3828C344.881 54.5547 345.279 53.4062 345.279 51.9375C345.279 50.4688 344.881 49.3203 344.084 48.4922C343.287 47.6484 342.115 47.2266 340.568 47.2266H335.365V56.6016ZM366.324 75H358.402V49.6406H366.324V75ZM357.933 43.1016C357.933 41.9766 358.339 41.0547 359.152 40.3359C359.964 39.6172 361.019 39.2578 362.316 39.2578C363.613 39.2578 364.668 39.6172 365.48 40.3359C366.293 41.0547 366.699 41.9766 366.699 43.1016C366.699 44.2266 366.293 45.1484 365.48 45.8672C364.668 46.5859 363.613 46.9453 362.316 46.9453C361.019 46.9453 359.964 46.5859 359.152 45.8672C358.339 45.1484 357.933 44.2266 357.933 43.1016ZM370.189 62.1328C370.189 59.5703 370.611 57.3047 371.454 55.3359C372.298 53.3672 373.509 51.8516 375.087 50.7891C376.665 49.7109 378.501 49.1719 380.595 49.1719C383.236 49.1719 385.298 50.0625 386.782 51.8438L387.064 49.6406H394.236V74.0391C394.236 76.2734 393.712 78.2109 392.665 79.8516C391.634 81.5078 390.134 82.7734 388.165 83.6484C386.197 84.5391 383.915 84.9844 381.322 84.9844C379.462 84.9844 377.657 84.6328 375.907 83.9297C374.173 83.2266 372.845 82.3125 371.923 81.1875L375.228 76.5469C376.697 78.2812 378.634 79.1484 381.04 79.1484C384.54 79.1484 386.29 77.3516 386.29 73.7578V72.9609C384.775 74.6328 382.861 75.4688 380.548 75.4688C377.454 75.4688 374.954 74.2891 373.048 71.9297C371.142 69.5547 370.189 66.3828 370.189 62.4141V62.1328ZM378.111 62.625C378.111 64.7031 378.501 66.3516 379.282 67.5703C380.064 68.7734 381.157 69.375 382.564 69.375C384.267 69.375 385.509 68.8047 386.29 67.6641V57C385.525 55.8438 384.298 55.2656 382.611 55.2656C381.204 55.2656 380.103 55.8984 379.306 57.1641C378.509 58.4141 378.111 60.2344 378.111 62.625ZM406.35 52.3594C408.038 50.2344 410.194 49.1719 412.819 49.1719C415.616 49.1719 417.725 50 419.147 51.6562C420.569 53.3125 421.296 55.7578 421.327 58.9922V75H413.405V59.1797C413.405 57.8359 413.132 56.8516 412.585 56.2266C412.038 55.5859 411.108 55.2656 409.796 55.2656C408.171 55.2656 407.022 55.7812 406.35 56.8125V75H398.452V39H406.35V52.3594ZM434.825 43.3359V49.6406H438.997V55.125H434.825V66.7266C434.825 67.6797 434.997 68.3438 435.34 68.7188C435.684 69.0938 436.364 69.2812 437.38 69.2812C438.161 69.2812 438.817 69.2344 439.348 69.1406V74.7891C437.926 75.2422 436.442 75.4688 434.895 75.4688C432.176 75.4688 430.169 74.8281 428.872 73.5469C427.575 72.2656 426.926 70.3203 426.926 67.7109V55.125H423.692V49.6406H426.926V43.3359H434.825ZM454.25 75V40.875H466.508C470.898 40.875 474.234 41.6797 476.516 43.2891C478.812 44.8984 479.961 47.2344 479.961 50.2969C479.961 52.0625 479.555 53.5703 478.742 54.8203C477.93 56.0703 476.734 56.9922 475.156 57.5859C476.938 58.0547 478.305 58.9297 479.258 60.2109C480.211 61.4922 480.688 63.0547 480.688 64.8984C480.688 68.2422 479.625 70.7578 477.5 72.4453C475.391 74.1172 472.258 74.9688 468.102 75H454.25ZM462.477 60.4922V68.6719H467.867C469.352 68.6719 470.492 68.3359 471.289 67.6641C472.086 66.9766 472.484 66.0156 472.484 64.7812C472.484 61.9375 471.07 60.5078 468.242 60.4922H462.477ZM462.477 55.1016H466.766C468.562 55.0859 469.844 54.7578 470.609 54.1172C471.375 53.4766 471.758 52.5312 471.758 51.2812C471.758 49.8438 471.344 48.8125 470.516 48.1875C469.688 47.5469 468.352 47.2266 466.508 47.2266H462.477V55.1016ZM483.779 62.0859C483.779 59.5547 484.271 57.3047 485.256 55.3359C486.24 53.3516 487.654 51.8281 489.498 50.7656C491.341 49.7031 493.506 49.1719 495.99 49.1719C499.787 49.1719 502.779 50.3516 504.966 52.7109C507.154 55.0547 508.248 58.25 508.248 62.2969V62.5781C508.248 66.5312 507.146 69.6719 504.943 72C502.756 74.3125 499.787 75.4688 496.037 75.4688C492.427 75.4688 489.529 74.3906 487.341 72.2344C485.154 70.0625 483.974 67.125 483.802 63.4219L483.779 62.0859ZM491.677 62.5781C491.677 64.9219 492.045 66.6406 492.779 67.7344C493.513 68.8281 494.599 69.375 496.037 69.375C498.849 69.375 500.287 67.2109 500.349 62.8828V62.0859C500.349 57.5391 498.896 55.2656 495.99 55.2656C493.349 55.2656 491.92 57.2266 491.701 61.1484L491.677 62.5781ZM510.636 62.0859C510.636 59.5547 511.128 57.3047 512.113 55.3359C513.097 53.3516 514.511 51.8281 516.355 50.7656C518.199 49.7031 520.363 49.1719 522.847 49.1719C526.644 49.1719 529.636 50.3516 531.824 52.7109C534.011 55.0547 535.105 58.25 535.105 62.2969V62.5781C535.105 66.5312 534.003 69.6719 531.8 72C529.613 74.3125 526.644 75.4688 522.894 75.4688C519.285 75.4688 516.386 74.3906 514.199 72.2344C512.011 70.0625 510.831 67.125 510.66 63.4219L510.636 62.0859ZM518.535 62.5781C518.535 64.9219 518.902 66.6406 519.636 67.7344C520.37 68.8281 521.456 69.375 522.894 69.375C525.706 69.375 527.144 67.2109 527.206 62.8828V62.0859C527.206 57.5391 525.753 55.2656 522.847 55.2656C520.206 55.2656 518.777 57.2266 518.558 61.1484L518.535 62.5781ZM551.767 67.875C551.767 67.2031 551.415 66.6641 550.712 66.2578C550.009 65.8516 548.673 65.4297 546.704 64.9922C544.735 64.5547 543.11 63.9844 541.829 63.2812C540.548 62.5625 539.571 61.6953 538.9 60.6797C538.228 59.6641 537.892 58.5 537.892 57.1875C537.892 54.8594 538.853 52.9453 540.775 51.4453C542.696 49.9297 545.212 49.1719 548.321 49.1719C551.665 49.1719 554.353 49.9297 556.384 51.4453C558.415 52.9609 559.431 54.9531 559.431 57.4219H551.509C551.509 55.3906 550.439 54.375 548.298 54.375C547.47 54.375 546.775 54.6094 546.212 55.0781C545.65 55.5312 545.368 56.1016 545.368 56.7891C545.368 57.4922 545.712 58.0625 546.4 58.5C547.087 58.9375 548.181 59.2969 549.681 59.5781C551.196 59.8594 552.525 60.1953 553.665 60.5859C557.478 61.8984 559.384 64.25 559.384 67.6406C559.384 69.9531 558.353 71.8359 556.29 73.2891C554.243 74.7422 551.587 75.4688 548.321 75.4688C546.15 75.4688 544.212 75.0781 542.509 74.2969C540.806 73.5156 539.478 72.4531 538.525 71.1094C537.571 69.7656 537.095 68.3516 537.095 66.8672H544.478C544.509 68.0391 544.9 68.8984 545.65 69.4453C546.4 69.9766 547.36 70.2422 548.532 70.2422C549.61 70.2422 550.415 70.0234 550.946 69.5859C551.493 69.1484 551.767 68.5781 551.767 67.875ZM572.202 43.3359V49.6406H576.374V55.125H572.202V66.7266C572.202 67.6797 572.374 68.3438 572.718 68.7188C573.061 69.0938 573.741 69.2812 574.757 69.2812C575.538 69.2812 576.194 69.2344 576.725 69.1406V74.7891C575.303 75.2422 573.819 75.4688 572.272 75.4688C569.553 75.4688 567.546 74.8281 566.249 73.5469C564.952 72.2656 564.303 70.3203 564.303 67.7109V55.125H561.069V49.6406H564.303V43.3359H572.202ZM591.676 75.4688C587.786 75.4688 584.637 74.3125 582.231 72C579.825 69.6719 578.622 66.6484 578.622 62.9297V62.2734C578.622 59.6797 579.098 57.3906 580.051 55.4062C581.02 53.4219 582.426 51.8906 584.27 50.8125C586.114 49.7188 588.301 49.1719 590.833 49.1719C594.395 49.1719 597.208 50.2812 599.27 52.5C601.333 54.7031 602.364 57.7812 602.364 61.7344V64.8047H586.661C586.942 66.2266 587.559 67.3438 588.512 68.1562C589.465 68.9688 590.7 69.375 592.215 69.375C594.715 69.375 596.668 68.5 598.075 66.75L601.684 71.0156C600.7 72.375 599.301 73.4609 597.489 74.2734C595.692 75.0703 593.754 75.4688 591.676 75.4688ZM590.786 55.2656C588.473 55.2656 587.098 56.7969 586.661 59.8594H594.629V59.25C594.661 57.9844 594.34 57.0078 593.668 56.3203C592.997 55.6172 592.036 55.2656 590.786 55.2656ZM620.807 56.7891L618.205 56.6016C615.721 56.6016 614.127 57.3828 613.424 58.9453V75H605.526V49.6406H612.932L613.19 52.8984C614.518 50.4141 616.369 49.1719 618.744 49.1719C619.588 49.1719 620.322 49.2656 620.947 49.4531L620.807 56.7891Z" fill="black"/>
<path d="M598.863 200.953C598.863 199.719 598.558 198.75 597.949 198.047C597.339 197.344 596.269 196.68 594.738 196.055C593.207 195.43 591.792 194.797 590.496 194.156C589.199 193.516 588.082 192.773 587.144 191.93C586.207 191.086 585.488 190.109 584.988 189C584.488 187.891 584.238 186.547 584.238 184.969C584.238 182.328 585.128 180.156 586.91 178.453C588.691 176.734 591.066 175.734 594.035 175.453V170.508H597.761V175.547C600.621 175.969 602.863 177.148 604.488 179.086C606.128 181.008 606.949 183.453 606.949 186.422H599.027C599.027 184.797 598.714 183.547 598.089 182.672C597.464 181.797 596.574 181.359 595.417 181.359C594.386 181.359 593.582 181.688 593.003 182.344C592.441 182.984 592.16 183.875 592.16 185.016C592.16 186.172 592.488 187.094 593.144 187.781C593.8 188.453 594.855 189.102 596.308 189.727C597.761 190.336 599.128 190.977 600.41 191.648C601.707 192.305 602.824 193.055 603.761 193.898C604.699 194.742 605.433 195.727 605.964 196.852C606.496 197.977 606.761 199.328 606.761 200.906C606.761 203.578 605.91 205.758 604.207 207.445C602.519 209.133 600.214 210.117 597.292 210.398V215.109H593.566V210.375C590.16 210.016 587.542 208.852 585.714 206.883C583.902 204.898 582.996 202.289 582.996 199.055H590.894C590.894 200.836 591.285 202.195 592.066 203.133C592.863 204.055 593.988 204.516 595.441 204.516C596.503 204.516 597.339 204.203 597.949 203.578C598.558 202.938 598.863 202.062 598.863 200.953ZM611.306 193.312L613.392 175.875H633.337V182.016H619.814L619.04 188.789C619.603 188.461 620.337 188.172 621.243 187.922C622.165 187.672 623.064 187.547 623.939 187.547C627.329 187.547 629.931 188.555 631.743 190.57C633.571 192.57 634.486 195.383 634.486 199.008C634.486 201.195 633.993 203.18 633.009 204.961C632.04 206.727 630.673 208.086 628.907 209.039C627.142 209.992 625.056 210.469 622.65 210.469C620.509 210.469 618.501 210.031 616.626 209.156C614.751 208.266 613.282 207.055 612.22 205.523C611.157 203.977 610.634 202.234 610.65 200.297H618.571C618.65 201.547 619.048 202.539 619.767 203.273C620.486 204.008 621.431 204.375 622.603 204.375C625.259 204.375 626.587 202.406 626.587 198.469C626.587 194.828 624.962 193.008 621.712 193.008C619.868 193.008 618.493 193.602 617.587 194.789L611.306 193.312ZM662.233 196.055C662.233 200.664 661.194 204.219 659.116 206.719C657.054 209.219 654.139 210.469 650.374 210.469C646.577 210.469 643.639 209.211 641.561 206.695C639.483 204.18 638.444 200.633 638.444 196.055V189.82C638.444 185.211 639.475 181.656 641.538 179.156C643.616 176.656 646.546 175.406 650.327 175.406C654.108 175.406 657.038 176.664 659.116 179.18C661.194 181.695 662.233 185.25 662.233 189.844V196.055ZM654.335 188.812C654.335 186.359 654.014 184.531 653.374 183.328C652.733 182.109 651.718 181.5 650.327 181.5C648.968 181.5 647.975 182.062 647.35 183.188C646.741 184.312 646.413 186.016 646.366 188.297V197.016C646.366 199.562 646.686 201.43 647.327 202.617C647.968 203.789 648.983 204.375 650.374 204.375C651.718 204.375 652.71 203.805 653.35 202.664C653.991 201.508 654.319 199.703 654.335 197.25V188.812ZM689.934 196.055C689.934 200.664 688.895 204.219 686.817 206.719C684.754 209.219 681.84 210.469 678.075 210.469C674.278 210.469 671.34 209.211 669.262 206.695C667.184 204.18 666.145 200.633 666.145 196.055V189.82C666.145 185.211 667.176 181.656 669.239 179.156C671.317 176.656 674.247 175.406 678.028 175.406C681.809 175.406 684.739 176.664 686.817 179.18C688.895 181.695 689.934 185.25 689.934 189.844V196.055ZM682.036 188.812C682.036 186.359 681.715 184.531 681.075 183.328C680.434 182.109 679.419 181.5 678.028 181.5C676.669 181.5 675.676 182.062 675.051 183.188C674.442 184.312 674.114 186.016 674.067 188.297V197.016C674.067 199.562 674.387 201.43 675.028 202.617C675.669 203.789 676.684 204.375 678.075 204.375C679.419 204.375 680.411 203.805 681.051 202.664C681.692 201.508 682.02 199.703 682.036 197.25V188.812Z" fill="black"/>
<path d="M449 186C449 177.163 456.163 170 465 170H547C555.837 170 563 177.163 563 186V202C563 210.837 555.837 218 547 218H465C456.163 218 449 210.837 449 202V186Z" fill="#0E1A13"/>
<path d="M457.252 196.658V201H454.168V188.203H459.274C460.252 188.203 461.117 188.385 461.867 188.748C462.623 189.105 463.206 189.618 463.616 190.286C464.032 190.948 464.24 191.701 464.24 192.545C464.24 193.793 463.792 194.792 462.895 195.542C462.004 196.286 460.78 196.658 459.221 196.658H457.252ZM457.252 194.276H459.274C459.872 194.276 460.326 194.127 460.636 193.828C460.953 193.529 461.111 193.107 461.111 192.562C461.111 191.965 460.95 191.487 460.627 191.13C460.305 190.772 459.866 190.591 459.309 190.585H457.252V194.276ZM475.965 188.203V196.579C475.965 197.528 475.763 198.352 475.359 199.049C474.954 199.74 474.374 200.268 473.619 200.631C472.863 200.994 471.969 201.176 470.938 201.176C469.379 201.176 468.152 200.771 467.255 199.963C466.359 199.154 465.902 198.047 465.884 196.641V188.203H468.987V196.702C469.022 198.103 469.672 198.803 470.938 198.803C471.577 198.803 472.06 198.627 472.388 198.275C472.716 197.924 472.88 197.353 472.88 196.562V188.203H475.965ZM482.69 196.482H481.02V201H477.935V188.203H482.971C484.489 188.203 485.675 188.54 486.531 189.214C487.386 189.888 487.814 190.84 487.814 192.07C487.814 192.961 487.632 193.699 487.269 194.285C486.911 194.871 486.349 195.346 485.581 195.709L488.253 200.868V201H484.949L482.69 196.482ZM481.02 194.101H482.971C483.557 194.101 483.996 193.948 484.289 193.644C484.588 193.333 484.738 192.902 484.738 192.352C484.738 191.801 484.588 191.37 484.289 191.06C483.99 190.743 483.551 190.585 482.971 190.585H481.02V194.101ZM500.067 196.667C500.026 197.558 499.785 198.346 499.346 199.031C498.906 199.711 498.288 200.238 497.491 200.613C496.7 200.988 495.795 201.176 494.776 201.176C493.094 201.176 491.77 200.628 490.803 199.532C489.836 198.437 489.353 196.89 489.353 194.892V194.259C489.353 193.005 489.569 191.909 490.003 190.972C490.443 190.028 491.072 189.302 491.893 188.792C492.713 188.276 493.662 188.019 494.74 188.019C496.293 188.019 497.541 188.429 498.485 189.249C499.428 190.063 499.964 191.188 500.093 192.624H497.017C496.993 191.845 496.797 191.285 496.428 190.945C496.059 190.605 495.496 190.436 494.74 190.436C493.973 190.436 493.41 190.723 493.053 191.297C492.695 191.871 492.508 192.788 492.49 194.048V194.953C492.49 196.318 492.66 197.294 493 197.88C493.346 198.466 493.938 198.759 494.776 198.759C495.485 198.759 496.027 198.592 496.402 198.258C496.777 197.924 496.976 197.394 496.999 196.667H500.067ZM512.258 201H509.19V195.656H504.646V201H501.562V188.203H504.646V193.283H509.19V188.203H512.258V201ZM521.681 198.609H517.453L516.715 201H513.419L518.112 188.203H521.013L525.741 201H522.428L521.681 198.609ZM518.191 196.228H520.942L519.562 191.789L518.191 196.228ZM533.318 197.599C533.318 197.147 533.157 196.796 532.835 196.544C532.518 196.292 531.959 196.031 531.156 195.762C530.353 195.492 529.697 195.231 529.187 194.979C527.529 194.165 526.7 193.046 526.7 191.622C526.7 190.913 526.905 190.289 527.315 189.75C527.731 189.205 528.317 188.783 529.073 188.484C529.829 188.18 530.678 188.027 531.622 188.027C532.542 188.027 533.365 188.191 534.092 188.52C534.824 188.848 535.392 189.316 535.797 189.926C536.201 190.529 536.403 191.221 536.403 192H533.327C533.327 191.479 533.166 191.074 532.843 190.787C532.527 190.5 532.096 190.356 531.551 190.356C531.001 190.356 530.564 190.479 530.242 190.726C529.926 190.966 529.767 191.273 529.767 191.648C529.767 191.977 529.943 192.275 530.295 192.545C530.646 192.809 531.264 193.084 532.149 193.371C533.034 193.652 533.76 193.957 534.329 194.285C535.712 195.082 536.403 196.181 536.403 197.581C536.403 198.7 535.981 199.579 535.137 200.218C534.294 200.856 533.136 201.176 531.666 201.176C530.629 201.176 529.688 200.991 528.844 200.622C528.007 200.247 527.374 199.737 526.946 199.093C526.524 198.442 526.313 197.695 526.313 196.852H529.407C529.407 197.537 529.583 198.044 529.934 198.372C530.292 198.694 530.869 198.855 531.666 198.855C532.176 198.855 532.577 198.747 532.87 198.53C533.169 198.308 533.318 197.997 533.318 197.599ZM545.958 195.577H541.106V198.627H546.837V201H538.021V188.203H546.854V190.585H541.106V193.283H545.958V195.577ZM548.129 201V188.203H552.251C553.382 188.203 554.399 188.461 555.301 188.977C556.204 189.486 556.907 190.21 557.411 191.147C557.92 192.079 558.178 193.125 558.184 194.285V194.874C558.184 196.046 557.935 197.098 557.437 198.029C556.945 198.955 556.248 199.682 555.345 200.209C554.449 200.73 553.447 200.994 552.339 201H548.129ZM551.214 190.585V198.627H552.287C553.171 198.627 553.851 198.313 554.326 197.687C554.8 197.054 555.038 196.116 555.038 194.874V194.32C555.038 193.084 554.8 192.152 554.326 191.525C553.851 190.898 553.16 190.585 552.251 190.585H551.214Z" fill="white"/>
<path opacity="0.2" d="M110.219 197.075C110.27 197.075 110.317 197.043 110.363 197.034L110.219 197.075Z" fill="#F4F4F4"/>
<path d="M122.549 160.224H107.455L104.733 171.725C101.801 183.995 102.608 196.909 107.042 208.681C109.445 215.02 112.274 220.347 115.002 220.347C117.73 220.347 120.556 215.02 122.959 208.681C127.393 196.909 128.201 183.995 125.271 171.725L122.549 160.232V160.224Z" fill="#FB5521"/>
<path opacity="0.2" d="M122.548 160.294H107.454L104.732 171.787C101.799 184.058 102.606 196.974 107.041 208.749C109.444 215.087 112.273 220.412 115.001 220.412C117.728 220.412 120.555 215.087 122.958 208.749C127.391 196.976 128.2 184.063 125.27 171.792L122.548 160.3V160.294Z" fill="black"/>
<path opacity="0.2" d="M121.11 160.224H108.891L106.686 169.53C104.314 179.464 104.967 189.918 108.557 199.449C110.502 204.582 112.797 208.893 115.002 208.893C117.206 208.893 119.498 204.582 121.446 199.449C125.035 189.918 125.688 179.463 123.314 169.53L121.11 160.224Z" fill="white"/>
<path opacity="0.2" d="M119.673 160.224H110.326L108.63 167.34C106.816 174.944 107.32 182.944 110.071 190.237C111.561 194.162 113.311 197.462 115.001 197.462C116.691 197.462 118.441 194.162 119.928 190.237C122.674 182.947 123.175 174.951 121.361 167.352L119.665 160.235L119.673 160.224Z" fill="white"/>
<path d="M118.238 160.224H111.765L110.598 165.154C109.341 170.417 109.686 175.955 111.587 181.004C112.619 183.722 113.831 185.999 115.001 185.999C116.172 185.999 117.384 183.716 118.413 181.004C120.316 175.956 120.663 170.417 119.405 165.154L118.238 160.224Z" fill="white"/>
<path d="M121.378 153.149V152.017H124.012L121.392 141.624H108.11L105.49 152.017H108.124V153.149H108.627L106.779 160.486H122.726L120.875 153.149H121.378Z" fill="#B2B6BB"/>
<path opacity="0.2" d="M113.867 152.804H108.175V152.017H113.867V152.804Z" fill="black"/>
<path opacity="0.2" d="M107.916 141.718L105.462 151.885H113.608V141.718H107.916Z" fill="black"/>
<path opacity="0.2" d="M108.602 153.148L106.649 160.538H113.888V153.148H108.602Z" fill="black"/>
<path d="M108.108 141.623H121.468V34.421H120.245V32.4317H121.468V30.3454L116.01 16H113.534L108.108 30.3777V32.464H109.114V34.421H108.108V141.623Z" fill="#B2B6BB"/>
<path d="M108.108 141.623H121.468V34.421H120.245V32.4317H121.468V30.3454L116.01 16H113.534L108.108 30.3777V32.464H109.114V34.421H108.108V141.623Z" fill="#B2B6BB"/>
<path opacity="0.2" d="M108.175 105.916H113.986V87.8445H108.175V105.916Z" fill="black"/>
<path opacity="0.2" d="M108.175 123.365H113.986V106.14H108.175V123.365Z" fill="black"/>
<path opacity="0.2" d="M108.175 131.063H113.986V123.461H108.175V131.063Z" fill="black"/>
<path opacity="0.2" d="M108.175 135.662H113.986V130.24H108.175V135.662Z" fill="black"/>
<path opacity="0.2" d="M108.175 141.068H113.986V135.609H108.175V141.068Z" fill="black"/>
<path opacity="0.3" d="M120.499 150.321H108.794L108.834 150.16L110.988 141.588L111.231 141.656L109.117 150.06H120.185L118.306 141.653L118.549 141.594L120.499 150.321Z" fill="black"/>
<path opacity="0.2" d="M108.175 69.9527H113.986V52.2839H108.175V69.9527Z" fill="black"/>
<path opacity="0.2" d="M108.175 87.8003H113.986V70.2373H108.175V87.8003Z" fill="black"/>
<path opacity="0.2" d="M113.359 16L108.175 30.3924V32.464H109.21V34.421H108.175V52.1867H113.986V34.421V32.464V32.3494V30.3924V16.0176L113.359 16Z" fill="black"/>
<path opacity="0.3" d="M111.233 141.491H118.3V38.9843H111.233V141.491ZM118.551 141.753H110.982V38.7228H118.551V141.753Z" fill="black"/>
<path d="M121.426 123.984H108.108V123.461H121.426V123.984Z" fill="#61656D"/>
<path d="M121.737 131.771H107.799V130.193H121.737V131.771Z" fill="#61656D"/>
<path d="M121.737 137.187H107.799V135.609H121.737V137.187Z" fill="#61656D"/>
<path d="M121.737 142.602H107.799V141.024H121.737V142.602Z" fill="#61656D"/>
<path d="M121.426 106.119H108.108V105.599H121.426V106.119Z" fill="#61656D"/>
<path d="M124.077 152.278H105.425V151.755H124.077V152.278Z" fill="#61656D"/>
<path opacity="0.3" d="M119.795 158.887H109.603L110.988 153.116L111.231 153.181L109.925 158.626H119.478L118.303 153.178L118.548 153.119L119.795 158.887Z" fill="black"/>
<path opacity="0.3" d="M114.572 148.846H118.879V146.322H114.572V148.846ZM119.131 149.105H114.326V146.061H119.131V149.099V149.105Z" fill="black"/>
<path opacity="0.3" d="M119.004 148.464H114.447V148.203H119.004V148.464Z" fill="black"/>
<path d="M121.466 52.0137H108.108V52.5543H121.466V52.0137Z" fill="#61656D"/>
<path d="M121.466 69.8616H108.108V70.4022H121.466V69.8616Z" fill="#61656D"/>
<path d="M121.466 87.7067H108.108V88.2473H121.466V87.7067Z" fill="#61656D"/>
<path d="M120.245 32.4323H121.468V30.346L121.415 30.205H108.175L108.108 30.3783V32.4646H109.114L120.245 32.4323Z" fill="#61656D"/>
<path d="M121.466 36.1517H108.108V40.2068H121.466V36.1517Z" fill="#61656D"/>
<path d="M108.37 34.8004H107.867V34.2068H121.666V34.8004H121.163H108.37Z" fill="#61656D"/>
<path d="M121.477 152.696H107.952V153.236H121.477V152.696Z" fill="#61656D"/>
<path d="M122.853 160.662H106.651V160.139H122.853V160.662Z" fill="#61656D"/>
<path d="M108.071 53.0328H106.392V41.5348H108.071V53.0328Z" fill="#868A91"/>
</svg>
