<svg width="721" height="233" viewBox="0 0 721 233" fill="none" xmlns="http://www.w3.org/2000/svg">
<path d="M0 16C0 7.16345 7.16344 0 16 0H705C713.837 0 721 7.16344 721 16V217C721 225.837 713.837 233 705 233H16C7.16345 233 0 225.837 0 217V16Z" fill="#61656D"/>
<path d="M225 23L226 207" stroke="black" stroke-width="3"/>
<path d="M393.486 61.4062H380.22V75H371.993V40.875H394.822V47.2266H380.22V55.0781H393.486V61.4062ZM412.374 72.2578C410.702 74.3984 408.444 75.4688 405.6 75.4688C402.819 75.4688 400.71 74.6641 399.272 73.0547C397.85 71.4297 397.14 69.1016 397.14 66.0703V49.6406H405.038V66.1172C405.038 68.2891 406.093 69.375 408.202 69.375C410.015 69.375 411.304 68.7266 412.069 67.4297V49.6406H420.015V75H412.608L412.374 72.2578ZM436.536 75.4688C432.645 75.4688 429.497 74.3125 427.09 72C424.684 69.6719 423.481 66.6484 423.481 62.9297V62.2734C423.481 59.6797 423.958 57.3906 424.911 55.4062C425.88 53.4219 427.286 51.8906 429.13 50.8125C430.973 49.7188 433.161 49.1719 435.692 49.1719C439.255 49.1719 442.067 50.2812 444.13 52.5C446.192 54.7031 447.223 57.7812 447.223 61.7344V64.8047H431.52C431.801 66.2266 432.419 67.3438 433.372 68.1562C434.325 68.9688 435.559 69.375 437.075 69.375C439.575 69.375 441.528 68.5 442.934 66.75L446.544 71.0156C445.559 72.375 444.161 73.4609 442.348 74.2734C440.551 75.0703 438.614 75.4688 436.536 75.4688ZM435.645 55.2656C433.333 55.2656 431.958 56.7969 431.52 59.8594H439.489V59.25C439.52 57.9844 439.2 57.0078 438.528 56.3203C437.856 55.6172 436.895 55.2656 435.645 55.2656ZM458.659 75H450.737V39H458.659V75ZM501.052 47.2266H490.81V75H482.584V47.2266H472.529V40.875H501.052V47.2266ZM514.433 75C514.152 74.4844 513.902 73.7266 513.683 72.7266C512.23 74.5547 510.199 75.4688 507.589 75.4688C505.199 75.4688 503.167 74.75 501.495 73.3125C499.824 71.8594 498.988 70.0391 498.988 67.8516C498.988 65.1016 500.003 63.0234 502.035 61.6172C504.066 60.2109 507.019 59.5078 510.894 59.5078H513.331V58.1719C513.331 55.8438 512.324 54.6797 510.308 54.6797C508.433 54.6797 507.495 55.6016 507.495 57.4453H499.597C499.597 54.9922 500.636 53 502.714 51.4688C504.808 49.9375 507.472 49.1719 510.706 49.1719C513.941 49.1719 516.495 49.9609 518.37 51.5391C520.245 53.1172 521.206 55.2812 521.253 58.0312V69.2578C521.285 71.5859 521.644 73.3672 522.331 74.6016V75H514.433ZM509.488 69.8438C510.472 69.8438 511.285 69.6328 511.925 69.2109C512.581 68.7891 513.05 68.3125 513.331 67.7812V63.7266H511.035C508.285 63.7266 506.91 64.9609 506.91 67.4297C506.91 68.1484 507.152 68.7344 507.636 69.1875C508.12 69.625 508.738 69.8438 509.488 69.8438ZM532.806 49.6406L533.064 52.6172C534.814 50.3203 537.228 49.1719 540.306 49.1719C542.946 49.1719 544.915 49.9609 546.212 51.5391C547.525 53.1172 548.204 55.4922 548.251 58.6641V75H540.329V58.9922C540.329 57.7109 540.071 56.7734 539.556 56.1797C539.04 55.5703 538.103 55.2656 536.743 55.2656C535.196 55.2656 534.048 55.875 533.298 57.0938V75H525.4V49.6406H532.806ZM562.733 65.5547L560.507 67.7812V75H552.608V38.9766H560.507V58.1016L561.303 57.0469L567.257 49.6406H576.725L567.843 60.0703L577.311 75H568.264L562.733 65.5547Z" fill="black"/>
<path d="M598.863 200.953C598.863 199.719 598.558 198.75 597.949 198.047C597.339 197.344 596.269 196.68 594.738 196.055C593.207 195.43 591.792 194.797 590.496 194.156C589.199 193.516 588.082 192.773 587.144 191.93C586.207 191.086 585.488 190.109 584.988 189C584.488 187.891 584.238 186.547 584.238 184.969C584.238 182.328 585.128 180.156 586.91 178.453C588.691 176.734 591.066 175.734 594.035 175.453V170.508H597.761V175.547C600.621 175.969 602.863 177.148 604.488 179.086C606.128 181.008 606.949 183.453 606.949 186.422H599.027C599.027 184.797 598.714 183.547 598.089 182.672C597.464 181.797 596.574 181.359 595.417 181.359C594.386 181.359 593.582 181.688 593.003 182.344C592.441 182.984 592.16 183.875 592.16 185.016C592.16 186.172 592.488 187.094 593.144 187.781C593.8 188.453 594.855 189.102 596.308 189.727C597.761 190.336 599.128 190.977 600.41 191.648C601.707 192.305 602.824 193.055 603.761 193.898C604.699 194.742 605.433 195.727 605.964 196.852C606.496 197.977 606.761 199.328 606.761 200.906C606.761 203.578 605.91 205.758 604.207 207.445C602.519 209.133 600.214 210.117 597.292 210.398V215.109H593.566V210.375C590.16 210.016 587.542 208.852 585.714 206.883C583.902 204.898 582.996 202.289 582.996 199.055H590.894C590.894 200.836 591.285 202.195 592.066 203.133C592.863 204.055 593.988 204.516 595.441 204.516C596.503 204.516 597.339 204.203 597.949 203.578C598.558 202.938 598.863 202.062 598.863 200.953ZM611.306 193.312L613.392 175.875H633.337V182.016H619.814L619.04 188.789C619.603 188.461 620.337 188.172 621.243 187.922C622.165 187.672 623.064 187.547 623.939 187.547C627.329 187.547 629.931 188.555 631.743 190.57C633.571 192.57 634.486 195.383 634.486 199.008C634.486 201.195 633.993 203.18 633.009 204.961C632.04 206.727 630.673 208.086 628.907 209.039C627.142 209.992 625.056 210.469 622.65 210.469C620.509 210.469 618.501 210.031 616.626 209.156C614.751 208.266 613.282 207.055 612.22 205.523C611.157 203.977 610.634 202.234 610.65 200.297H618.571C618.65 201.547 619.048 202.539 619.767 203.273C620.486 204.008 621.431 204.375 622.603 204.375C625.259 204.375 626.587 202.406 626.587 198.469C626.587 194.828 624.962 193.008 621.712 193.008C619.868 193.008 618.493 193.602 617.587 194.789L611.306 193.312ZM662.233 196.055C662.233 200.664 661.194 204.219 659.116 206.719C657.054 209.219 654.139 210.469 650.374 210.469C646.577 210.469 643.639 209.211 641.561 206.695C639.483 204.18 638.444 200.633 638.444 196.055V189.82C638.444 185.211 639.475 181.656 641.538 179.156C643.616 176.656 646.546 175.406 650.327 175.406C654.108 175.406 657.038 176.664 659.116 179.18C661.194 181.695 662.233 185.25 662.233 189.844V196.055ZM654.335 188.812C654.335 186.359 654.014 184.531 653.374 183.328C652.733 182.109 651.718 181.5 650.327 181.5C648.968 181.5 647.975 182.062 647.35 183.188C646.741 184.312 646.413 186.016 646.366 188.297V197.016C646.366 199.562 646.686 201.43 647.327 202.617C647.968 203.789 648.983 204.375 650.374 204.375C651.718 204.375 652.71 203.805 653.35 202.664C653.991 201.508 654.319 199.703 654.335 197.25V188.812ZM689.934 196.055C689.934 200.664 688.895 204.219 686.817 206.719C684.754 209.219 681.84 210.469 678.075 210.469C674.278 210.469 671.34 209.211 669.262 206.695C667.184 204.18 666.145 200.633 666.145 196.055V189.82C666.145 185.211 667.176 181.656 669.239 179.156C671.317 176.656 674.247 175.406 678.028 175.406C681.809 175.406 684.739 176.664 686.817 179.18C688.895 181.695 689.934 185.25 689.934 189.844V196.055ZM682.036 188.812C682.036 186.359 681.715 184.531 681.075 183.328C680.434 182.109 679.419 181.5 678.028 181.5C676.669 181.5 675.676 182.062 675.051 183.188C674.442 184.312 674.114 186.016 674.067 188.297V197.016C674.067 199.562 674.387 201.43 675.028 202.617C675.669 203.789 676.684 204.375 678.075 204.375C679.419 204.375 680.411 203.805 681.051 202.664C681.692 201.508 682.02 199.703 682.036 197.25V188.812Z" fill="black"/>
<path d="M449 186C449 177.163 456.163 170 465 170H547C555.837 170 563 177.163 563 186V202C563 210.837 555.837 218 547 218H465C456.163 218 449 210.837 449 202V186Z" fill="#0E1A13"/>
<path d="M457.252 196.658V201H454.168V188.203H459.274C460.252 188.203 461.117 188.385 461.867 188.748C462.623 189.105 463.206 189.618 463.616 190.286C464.032 190.948 464.24 191.701 464.24 192.545C464.24 193.793 463.792 194.792 462.895 195.542C462.004 196.286 460.78 196.658 459.221 196.658H457.252ZM457.252 194.276H459.274C459.872 194.276 460.326 194.127 460.636 193.828C460.953 193.529 461.111 193.107 461.111 192.562C461.111 191.965 460.95 191.487 460.627 191.13C460.305 190.772 459.866 190.591 459.309 190.585H457.252V194.276ZM475.965 188.203V196.579C475.965 197.528 475.763 198.352 475.359 199.049C474.954 199.74 474.374 200.268 473.619 200.631C472.863 200.994 471.969 201.176 470.938 201.176C469.379 201.176 468.152 200.771 467.255 199.963C466.359 199.154 465.902 198.047 465.884 196.641V188.203H468.987V196.702C469.022 198.103 469.672 198.803 470.938 198.803C471.577 198.803 472.06 198.627 472.388 198.275C472.716 197.924 472.88 197.353 472.88 196.562V188.203H475.965ZM482.69 196.482H481.02V201H477.935V188.203H482.971C484.489 188.203 485.675 188.54 486.531 189.214C487.386 189.888 487.814 190.84 487.814 192.07C487.814 192.961 487.632 193.699 487.269 194.285C486.911 194.871 486.349 195.346 485.581 195.709L488.253 200.868V201H484.949L482.69 196.482ZM481.02 194.101H482.971C483.557 194.101 483.996 193.948 484.289 193.644C484.588 193.333 484.738 192.902 484.738 192.352C484.738 191.801 484.588 191.37 484.289 191.06C483.99 190.743 483.551 190.585 482.971 190.585H481.02V194.101ZM500.067 196.667C500.026 197.558 499.785 198.346 499.346 199.031C498.906 199.711 498.288 200.238 497.491 200.613C496.7 200.988 495.795 201.176 494.776 201.176C493.094 201.176 491.77 200.628 490.803 199.532C489.836 198.437 489.353 196.89 489.353 194.892V194.259C489.353 193.005 489.569 191.909 490.003 190.972C490.443 190.028 491.072 189.302 491.893 188.792C492.713 188.276 493.662 188.019 494.74 188.019C496.293 188.019 497.541 188.429 498.485 189.249C499.428 190.063 499.964 191.188 500.093 192.624H497.017C496.993 191.845 496.797 191.285 496.428 190.945C496.059 190.605 495.496 190.436 494.74 190.436C493.973 190.436 493.41 190.723 493.053 191.297C492.695 191.871 492.508 192.788 492.49 194.048V194.953C492.49 196.318 492.66 197.294 493 197.88C493.346 198.466 493.938 198.759 494.776 198.759C495.485 198.759 496.027 198.592 496.402 198.258C496.777 197.924 496.976 197.394 496.999 196.667H500.067ZM512.258 201H509.19V195.656H504.646V201H501.562V188.203H504.646V193.283H509.19V188.203H512.258V201ZM521.681 198.609H517.453L516.715 201H513.419L518.112 188.203H521.013L525.741 201H522.428L521.681 198.609ZM518.191 196.228H520.942L519.562 191.789L518.191 196.228ZM533.318 197.599C533.318 197.147 533.157 196.796 532.835 196.544C532.518 196.292 531.959 196.031 531.156 195.762C530.353 195.492 529.697 195.231 529.187 194.979C527.529 194.165 526.7 193.046 526.7 191.622C526.7 190.913 526.905 190.289 527.315 189.75C527.731 189.205 528.317 188.783 529.073 188.484C529.829 188.18 530.678 188.027 531.622 188.027C532.542 188.027 533.365 188.191 534.092 188.52C534.824 188.848 535.392 189.316 535.797 189.926C536.201 190.529 536.403 191.221 536.403 192H533.327C533.327 191.479 533.166 191.074 532.843 190.787C532.527 190.5 532.096 190.356 531.551 190.356C531.001 190.356 530.564 190.479 530.242 190.726C529.926 190.966 529.767 191.273 529.767 191.648C529.767 191.977 529.943 192.275 530.295 192.545C530.646 192.809 531.264 193.084 532.149 193.371C533.034 193.652 533.76 193.957 534.329 194.285C535.712 195.082 536.403 196.181 536.403 197.581C536.403 198.7 535.981 199.579 535.137 200.218C534.294 200.856 533.136 201.176 531.666 201.176C530.629 201.176 529.688 200.991 528.844 200.622C528.007 200.247 527.374 199.737 526.946 199.093C526.524 198.442 526.313 197.695 526.313 196.852H529.407C529.407 197.537 529.583 198.044 529.934 198.372C530.292 198.694 530.869 198.855 531.666 198.855C532.176 198.855 532.577 198.747 532.87 198.53C533.169 198.308 533.318 197.997 533.318 197.599ZM545.958 195.577H541.106V198.627H546.837V201H538.021V188.203H546.854V190.585H541.106V193.283H545.958V195.577ZM548.129 201V188.203H552.251C553.382 188.203 554.399 188.461 555.301 188.977C556.204 189.486 556.907 190.21 557.411 191.147C557.92 192.079 558.178 193.125 558.184 194.285V194.874C558.184 196.046 557.935 197.098 557.437 198.029C556.945 198.955 556.248 199.682 555.345 200.209C554.449 200.73 553.447 200.994 552.339 201H548.129ZM551.214 190.585V198.627H552.287C553.171 198.627 553.851 198.313 554.326 197.687C554.8 197.054 555.038 196.116 555.038 194.874V194.32C555.038 193.084 554.8 192.152 554.326 191.525C553.851 190.898 553.16 190.585 552.251 190.585H551.214Z" fill="white"/>
<path d="M96 218V77.7244C97.4867 48.0207 105.505 25.6984 119.313 10C133.033 25.3494 140.922 46.9588 142.431 75.4149V217.993L96 218Z" fill="#F8BF1A"/>
<path opacity="0.3" d="M104.969 34.4757H133.649V34.5203H134.162C133.984 34.0673 133.814 33.6069 133.631 33.1539H104.969C104.791 33.6069 104.616 34.0673 104.442 34.5203H104.951C104.959 34.5069 104.965 34.4921 104.969 34.4757Z" fill="black"/>
<path opacity="0.3" d="M142.436 91.3807L141.815 91.3733H96.4207L96.0457 91.3807V92.606H142.436V91.3807Z" fill="black"/>
<path opacity="0.3" d="M142.431 94.1125H96V155.815H142.431V94.1125ZM98.1296 154.508H96.7902V95.4121H98.1296V154.508ZM101.317 154.508H98.9064V95.4121H101.317V154.508ZM104.505 154.508H102.094V95.4121H104.505V154.508ZM107.692 154.508H105.282V95.4121H107.692V154.508ZM110.88 154.508H108.501V95.4121H110.907L110.88 154.508ZM114.068 154.508H111.657V95.4121H114.068V154.508ZM117.255 154.508H114.849V95.4121H117.255V154.508ZM120.443 154.508H118.037V95.4121H120.443V154.508ZM123.631 154.508H121.224V95.4121H123.631V154.508ZM126.823 154.508H124.412V95.4121H126.823V154.508ZM130.01 154.508H127.6V95.4121H130.01V154.508ZM133.198 154.508H130.787V95.4121H133.198V154.508ZM136.386 154.508H133.975V95.4121H136.386V154.508ZM139.573 154.508H137.162V95.4121H139.573V154.508ZM140.355 154.508V95.4121H141.814V154.508H140.355Z" fill="black"/>
<path opacity="0.3" d="M96.7996 158.547H141.819H142.435V157.255H96.0228V158.547H96.7996Z" fill="black"/>
<path opacity="0.2" d="M98.5725 218V77.7244C99.9118 48.0207 106.988 25.6984 119.212 10C119.212 43.4166 119.122 218 119.122 218H98.5725Z" fill="black"/>
</svg>
