<svg width="721" height="233" viewBox="0 0 721 233" fill="none" xmlns="http://www.w3.org/2000/svg">
<path d="M0 16C0 7.16345 7.16344 0 16 0H705C713.837 0 721 7.16344 721 16V217C721 225.837 713.837 233 705 233H16C7.16345 233 0 225.837 0 217V16Z" fill="#61656D"/>
<path d="M225 23L226 207" stroke="black" stroke-width="3"/>
<path d="M340.193 68.6719H354.514V75H331.967V40.875H340.193V68.6719ZM369.793 75.4688C365.902 75.4688 362.753 74.3125 360.347 72C357.941 69.6719 356.738 66.6484 356.738 62.9297V62.2734C356.738 59.6797 357.214 57.3906 358.168 55.4062C359.136 53.4219 360.543 51.8906 362.386 50.8125C364.23 49.7188 366.418 49.1719 368.949 49.1719C372.511 49.1719 375.324 50.2812 377.386 52.5C379.449 54.7031 380.48 57.7812 380.48 61.7344V64.8047H364.777C365.058 66.2266 365.675 67.3438 366.628 68.1562C367.582 68.9688 368.816 69.375 370.332 69.375C372.832 69.375 374.785 68.5 376.191 66.75L379.8 71.0156C378.816 72.375 377.418 73.4609 375.605 74.2734C373.808 75.0703 371.871 75.4688 369.793 75.4688ZM368.902 55.2656C366.589 55.2656 365.214 56.7969 364.777 59.8594H372.746V59.25C372.777 57.9844 372.457 57.0078 371.785 56.3203C371.113 55.6172 370.152 55.2656 368.902 55.2656ZM385.329 75V55.125H381.65V49.6406H385.329V47.625C385.329 44.7344 386.181 42.4922 387.884 40.8984C389.587 39.3047 391.978 38.5078 395.056 38.5078C396.181 38.5078 397.415 38.6719 398.759 39L398.782 44.8125C398.298 44.6719 397.65 44.6016 396.837 44.6016C394.447 44.6016 393.251 45.6328 393.251 47.6953V49.6406H398.197V55.125H393.251V75H385.329ZM410.077 43.3359V49.6406H414.249V55.125H410.077V66.7266C410.077 67.6797 410.249 68.3438 410.593 68.7188C410.936 69.0938 411.616 69.2812 412.632 69.2812C413.413 69.2812 414.069 69.2344 414.6 69.1406V74.7891C413.179 75.2422 411.694 75.4688 410.147 75.4688C407.429 75.4688 405.421 74.8281 404.124 73.5469C402.827 72.2656 402.179 70.3203 402.179 67.7109V55.125H398.944V49.6406H402.179V43.3359H410.077ZM437.729 63.4219V75H429.502V40.875H443.119C445.729 40.875 448.034 41.3594 450.034 42.3281C452.049 43.2812 453.604 44.6484 454.698 46.4297C455.807 48.1953 456.362 50.2031 456.362 52.4531C456.362 55.7812 455.166 58.4453 452.776 60.4453C450.401 62.4297 447.135 63.4219 442.979 63.4219H437.729ZM437.729 57.0703H443.119C444.713 57.0703 445.924 56.6719 446.752 55.875C447.596 55.0781 448.018 53.9531 448.018 52.5C448.018 50.9062 447.588 49.6328 446.729 48.6797C445.869 47.7266 444.698 47.2422 443.213 47.2266H437.729V57.0703ZM468.641 75H460.719V39H468.641V75ZM487.717 75C487.435 74.4844 487.185 73.7266 486.967 72.7266C485.513 74.5547 483.482 75.4688 480.873 75.4688C478.482 75.4688 476.451 74.75 474.779 73.3125C473.107 71.8594 472.271 70.0391 472.271 67.8516C472.271 65.1016 473.287 63.0234 475.318 61.6172C477.349 60.2109 480.302 59.5078 484.177 59.5078H486.615V58.1719C486.615 55.8438 485.607 54.6797 483.592 54.6797C481.717 54.6797 480.779 55.6016 480.779 57.4453H472.881C472.881 54.9922 473.92 53 475.998 51.4688C478.092 49.9375 480.756 49.1719 483.99 49.1719C487.224 49.1719 489.779 49.9609 491.654 51.5391C493.529 53.1172 494.49 55.2812 494.537 58.0312V69.2578C494.568 71.5859 494.927 73.3672 495.615 74.6016V75H487.717ZM482.771 69.8438C483.756 69.8438 484.568 69.6328 485.209 69.2109C485.865 68.7891 486.334 68.3125 486.615 67.7812V63.7266H484.318C481.568 63.7266 480.193 64.9609 480.193 67.4297C480.193 68.1484 480.435 68.7344 480.92 69.1875C481.404 69.625 482.021 69.8438 482.771 69.8438ZM508.035 43.3359V49.6406H512.206V55.125H508.035V66.7266C508.035 67.6797 508.206 68.3438 508.55 68.7188C508.894 69.0938 509.574 69.2812 510.589 69.2812C511.37 69.2812 512.027 69.2344 512.558 69.1406V74.7891C511.136 75.2422 509.652 75.4688 508.105 75.4688C505.386 75.4688 503.378 74.8281 502.081 73.5469C500.785 72.2656 500.136 70.3203 500.136 67.7109V55.125H496.902V49.6406H500.136V43.3359H508.035ZM516.985 75V55.125H513.306V49.6406H516.985V47.625C516.985 44.7344 517.837 42.4922 519.54 40.8984C521.243 39.3047 523.634 38.5078 526.712 38.5078C527.837 38.5078 529.071 38.6719 530.415 39L530.439 44.8125C529.954 44.6719 529.306 44.6016 528.493 44.6016C526.103 44.6016 524.907 45.6328 524.907 47.6953V49.6406H529.853V55.125H524.907V75H516.985ZM531.538 62.0859C531.538 59.5547 532.03 57.3047 533.014 55.3359C533.999 53.3516 535.413 51.8281 537.257 50.7656C539.1 49.7031 541.264 49.1719 543.749 49.1719C547.546 49.1719 550.538 50.3516 552.725 52.7109C554.913 55.0547 556.007 58.25 556.007 62.2969V62.5781C556.007 66.5312 554.905 69.6719 552.702 72C550.514 74.3125 547.546 75.4688 543.796 75.4688C540.186 75.4688 537.288 74.3906 535.1 72.2344C532.913 70.0625 531.733 67.125 531.561 63.4219L531.538 62.0859ZM539.436 62.5781C539.436 64.9219 539.803 66.6406 540.538 67.7344C541.272 68.8281 542.358 69.375 543.796 69.375C546.608 69.375 548.046 67.2109 548.108 62.8828V62.0859C548.108 57.5391 546.655 55.2656 543.749 55.2656C541.108 55.2656 539.678 57.2266 539.46 61.1484L539.436 62.5781ZM574.731 56.7891L572.129 56.6016C569.645 56.6016 568.051 57.3828 567.348 58.9453V75H559.45V49.6406H566.856L567.114 52.8984C568.442 50.4141 570.293 49.1719 572.668 49.1719C573.512 49.1719 574.247 49.2656 574.872 49.4531L574.731 56.7891ZM584.947 49.6406L585.205 52.6172C587.002 50.3203 589.416 49.1719 592.447 49.1719C595.651 49.1719 597.815 50.4453 598.94 52.9922C600.658 50.4453 603.143 49.1719 606.393 49.1719C611.533 49.1719 614.174 52.2812 614.315 58.5V75H606.393V58.9922C606.393 57.6953 606.174 56.75 605.737 56.1562C605.299 55.5625 604.502 55.2656 603.346 55.2656C601.783 55.2656 600.619 55.9609 599.854 57.3516L599.877 57.6797V75H591.955V59.0391C591.955 57.7109 591.744 56.75 591.322 56.1562C590.901 55.5625 590.096 55.2656 588.908 55.2656C587.393 55.2656 586.237 55.9609 585.44 57.3516V75H577.541V49.6406H584.947Z" fill="black"/>
<path d="M585.012 200.953C585.012 199.719 584.708 198.75 584.098 198.047C583.489 197.344 582.419 196.68 580.887 196.055C579.356 195.43 577.942 194.797 576.645 194.156C575.348 193.516 574.231 192.773 573.294 191.93C572.356 191.086 571.637 190.109 571.137 189C570.637 187.891 570.387 186.547 570.387 184.969C570.387 182.328 571.278 180.156 573.059 178.453C574.84 176.734 577.215 175.734 580.184 175.453V170.508H583.911V175.547C586.77 175.969 589.012 177.148 590.637 179.086C592.278 181.008 593.098 183.453 593.098 186.422H585.176C585.176 184.797 584.864 183.547 584.239 182.672C583.614 181.797 582.723 181.359 581.567 181.359C580.536 181.359 579.731 181.688 579.153 182.344C578.59 182.984 578.309 183.875 578.309 185.016C578.309 186.172 578.637 187.094 579.294 187.781C579.95 188.453 581.005 189.102 582.458 189.727C583.911 190.336 585.278 190.977 586.559 191.648C587.856 192.305 588.973 193.055 589.911 193.898C590.848 194.742 591.583 195.727 592.114 196.852C592.645 197.977 592.911 199.328 592.911 200.906C592.911 203.578 592.059 205.758 590.356 207.445C588.669 209.133 586.364 210.117 583.442 210.398V215.109H579.715V210.375C576.309 210.016 573.692 208.852 571.864 206.883C570.051 204.898 569.145 202.289 569.145 199.055H577.044C577.044 200.836 577.434 202.195 578.215 203.133C579.012 204.055 580.137 204.516 581.59 204.516C582.653 204.516 583.489 204.203 584.098 203.578C584.708 202.938 585.012 202.062 585.012 200.953ZM614.494 210H606.573V184.781L598.791 187.055V181.055L613.768 175.875H614.494V210ZM648.383 196.055C648.383 200.664 647.344 204.219 645.266 206.719C643.203 209.219 640.289 210.469 636.523 210.469C632.727 210.469 629.789 209.211 627.711 206.695C625.633 204.18 624.594 200.633 624.594 196.055V189.82C624.594 185.211 625.625 181.656 627.688 179.156C629.766 176.656 632.695 175.406 636.477 175.406C640.258 175.406 643.188 176.664 645.266 179.18C647.344 181.695 648.383 185.25 648.383 189.844V196.055ZM640.484 188.812C640.484 186.359 640.164 184.531 639.523 183.328C638.883 182.109 637.867 181.5 636.477 181.5C635.117 181.5 634.125 182.062 633.5 183.188C632.891 184.312 632.562 186.016 632.516 188.297V197.016C632.516 199.562 632.836 201.43 633.477 202.617C634.117 203.789 635.133 204.375 636.523 204.375C637.867 204.375 638.859 203.805 639.5 202.664C640.141 201.508 640.469 199.703 640.484 197.25V188.812ZM676.084 196.055C676.084 200.664 675.045 204.219 672.966 206.719C670.904 209.219 667.99 210.469 664.224 210.469C660.427 210.469 657.49 209.211 655.412 206.695C653.334 204.18 652.295 200.633 652.295 196.055V189.82C652.295 185.211 653.326 181.656 655.388 179.156C657.466 176.656 660.396 175.406 664.177 175.406C667.959 175.406 670.888 176.664 672.966 179.18C675.045 181.695 676.084 185.25 676.084 189.844V196.055ZM668.185 188.812C668.185 186.359 667.865 184.531 667.224 183.328C666.584 182.109 665.568 181.5 664.177 181.5C662.818 181.5 661.826 182.062 661.201 183.188C660.591 184.312 660.263 186.016 660.216 188.297V197.016C660.216 199.562 660.537 201.43 661.177 202.617C661.818 203.789 662.834 204.375 664.224 204.375C665.568 204.375 666.56 203.805 667.201 202.664C667.841 201.508 668.17 199.703 668.185 197.25V188.812ZM703.785 196.055C703.785 200.664 702.745 204.219 700.667 206.719C698.605 209.219 695.691 210.469 691.925 210.469C688.128 210.469 685.191 209.211 683.113 206.695C681.035 204.18 679.995 200.633 679.995 196.055V189.82C679.995 185.211 681.027 181.656 683.089 179.156C685.167 176.656 688.097 175.406 691.878 175.406C695.66 175.406 698.589 176.664 700.667 179.18C702.745 181.695 703.785 185.25 703.785 189.844V196.055ZM695.886 188.812C695.886 186.359 695.566 184.531 694.925 183.328C694.285 182.109 693.269 181.5 691.878 181.5C690.519 181.5 689.527 182.062 688.902 183.188C688.292 184.312 687.964 186.016 687.917 188.297V197.016C687.917 199.562 688.238 201.43 688.878 202.617C689.519 203.789 690.535 204.375 691.925 204.375C693.269 204.375 694.261 203.805 694.902 202.664C695.542 201.508 695.87 199.703 695.886 197.25V188.812Z" fill="black"/>
<path d="M449 186C449 177.163 456.163 170 465 170H547C555.837 170 563 177.163 563 186V202C563 210.837 555.837 218 547 218H465C456.163 218 449 210.837 449 202V186Z" fill="#0E1A13"/>
<path d="M457.252 196.658V201H454.168V188.203H459.274C460.252 188.203 461.117 188.385 461.867 188.748C462.623 189.105 463.206 189.618 463.616 190.286C464.032 190.948 464.24 191.701 464.24 192.545C464.24 193.793 463.792 194.792 462.895 195.542C462.004 196.286 460.78 196.658 459.221 196.658H457.252ZM457.252 194.276H459.274C459.872 194.276 460.326 194.127 460.636 193.828C460.953 193.529 461.111 193.107 461.111 192.562C461.111 191.965 460.95 191.487 460.627 191.13C460.305 190.772 459.866 190.591 459.309 190.585H457.252V194.276ZM475.965 188.203V196.579C475.965 197.528 475.763 198.352 475.359 199.049C474.954 199.74 474.374 200.268 473.619 200.631C472.863 200.994 471.969 201.176 470.938 201.176C469.379 201.176 468.152 200.771 467.255 199.963C466.359 199.154 465.902 198.047 465.884 196.641V188.203H468.987V196.702C469.022 198.103 469.672 198.803 470.938 198.803C471.577 198.803 472.06 198.627 472.388 198.275C472.716 197.924 472.88 197.353 472.88 196.562V188.203H475.965ZM482.69 196.482H481.02V201H477.935V188.203H482.971C484.489 188.203 485.675 188.54 486.531 189.214C487.386 189.888 487.814 190.84 487.814 192.07C487.814 192.961 487.632 193.699 487.269 194.285C486.911 194.871 486.349 195.346 485.581 195.709L488.253 200.868V201H484.949L482.69 196.482ZM481.02 194.101H482.971C483.557 194.101 483.996 193.948 484.289 193.644C484.588 193.333 484.738 192.902 484.738 192.352C484.738 191.801 484.588 191.37 484.289 191.06C483.99 190.743 483.551 190.585 482.971 190.585H481.02V194.101ZM500.067 196.667C500.026 197.558 499.785 198.346 499.346 199.031C498.906 199.711 498.288 200.238 497.491 200.613C496.7 200.988 495.795 201.176 494.776 201.176C493.094 201.176 491.77 200.628 490.803 199.532C489.836 198.437 489.353 196.89 489.353 194.892V194.259C489.353 193.005 489.569 191.909 490.003 190.972C490.443 190.028 491.072 189.302 491.893 188.792C492.713 188.276 493.662 188.019 494.74 188.019C496.293 188.019 497.541 188.429 498.485 189.249C499.428 190.063 499.964 191.188 500.093 192.624H497.017C496.993 191.845 496.797 191.285 496.428 190.945C496.059 190.605 495.496 190.436 494.74 190.436C493.973 190.436 493.41 190.723 493.053 191.297C492.695 191.871 492.508 192.788 492.49 194.048V194.953C492.49 196.318 492.66 197.294 493 197.88C493.346 198.466 493.938 198.759 494.776 198.759C495.485 198.759 496.027 198.592 496.402 198.258C496.777 197.924 496.976 197.394 496.999 196.667H500.067ZM512.258 201H509.19V195.656H504.646V201H501.562V188.203H504.646V193.283H509.19V188.203H512.258V201ZM521.681 198.609H517.453L516.715 201H513.419L518.112 188.203H521.013L525.741 201H522.428L521.681 198.609ZM518.191 196.228H520.942L519.562 191.789L518.191 196.228ZM533.318 197.599C533.318 197.147 533.157 196.796 532.835 196.544C532.518 196.292 531.959 196.031 531.156 195.762C530.353 195.492 529.697 195.231 529.187 194.979C527.529 194.165 526.7 193.046 526.7 191.622C526.7 190.913 526.905 190.289 527.315 189.75C527.731 189.205 528.317 188.783 529.073 188.484C529.829 188.18 530.678 188.027 531.622 188.027C532.542 188.027 533.365 188.191 534.092 188.52C534.824 188.848 535.392 189.316 535.797 189.926C536.201 190.529 536.403 191.221 536.403 192H533.327C533.327 191.479 533.166 191.074 532.843 190.787C532.527 190.5 532.096 190.356 531.551 190.356C531.001 190.356 530.564 190.479 530.242 190.726C529.926 190.966 529.767 191.273 529.767 191.648C529.767 191.977 529.943 192.275 530.295 192.545C530.646 192.809 531.264 193.084 532.149 193.371C533.034 193.652 533.76 193.957 534.329 194.285C535.712 195.082 536.403 196.181 536.403 197.581C536.403 198.7 535.981 199.579 535.137 200.218C534.294 200.856 533.136 201.176 531.666 201.176C530.629 201.176 529.688 200.991 528.844 200.622C528.007 200.247 527.374 199.737 526.946 199.093C526.524 198.442 526.313 197.695 526.313 196.852H529.407C529.407 197.537 529.583 198.044 529.934 198.372C530.292 198.694 530.869 198.855 531.666 198.855C532.176 198.855 532.577 198.747 532.87 198.53C533.169 198.308 533.318 197.997 533.318 197.599ZM545.958 195.577H541.106V198.627H546.837V201H538.021V188.203H546.854V190.585H541.106V193.283H545.958V195.577ZM548.129 201V188.203H552.251C553.382 188.203 554.399 188.461 555.301 188.977C556.204 189.486 556.907 190.21 557.411 191.147C557.92 192.079 558.178 193.125 558.184 194.285V194.874C558.184 196.046 557.935 197.098 557.437 198.029C556.945 198.955 556.248 199.682 555.345 200.209C554.449 200.73 553.447 200.994 552.339 201H548.129ZM551.214 190.585V198.627H552.287C553.171 198.627 553.851 198.313 554.326 197.687C554.8 197.054 555.038 196.116 555.038 194.874V194.32C555.038 193.084 554.8 192.152 554.326 191.525C553.851 190.898 553.16 190.585 552.251 190.585H551.214Z" fill="white"/>
<path d="M101.465 219.482H97.8091V16.4667H101.465V219.482Z" fill="#4760E9"/>
<path d="M118.78 219.482H117.985V16.4667H118.78V219.482Z" fill="#4760E9"/>
<path d="M107.523 219.482H106.728V16.4667H107.523V219.482Z" fill="#4760E9"/>
<path d="M120.493 219.482H119.698V16.4667H120.493V219.482Z" fill="#4760E9"/>
<path d="M129.953 45.4222V61.114H127.278L110.825 44.2134V38.6868L127.278 21.7863H129.95V45.4147L129.953 45.4222ZM126.125 65.0064H87.5195V62.3899L104.267 45.4247H109.363L126.11 62.3899V65.0064H126.125ZM83.6915 61.114V21.7863H86.3663L102.822 38.6868V44.2134L86.3663 61.114H83.6915ZM87.5195 17.8938H126.125V20.5104L109.377 37.4756H104.281L87.5338 20.5104V17.8938H87.5195ZM110.825 16.0035H82V66.8967H131.644V16.0035H110.825Z" fill="#4760E9"/>
<path d="M129.953 96.3133V112.008H127.278L110.825 95.0945V89.5754L127.278 72.6798H129.95V96.3083L129.953 96.3133ZM126.125 115.9H87.5195V113.283L104.267 96.3182H109.363L126.11 113.283V115.9H126.125ZM83.6915 112.008V72.6798H86.3663L102.817 89.5754V95.102L86.3615 112.015L83.6915 112.008ZM87.5195 68.7874H126.125V71.4039L109.377 88.3691H104.281L87.5338 71.4039V68.7874H87.5195ZM110.825 66.8971H82V117.79H131.644V66.8971H110.825Z" fill="#4760E9"/>
<path d="M129.953 147.206V162.9H127.278L110.825 146V140.473L127.278 123.573H129.95V147.201L129.953 147.206ZM126.125 166.793H87.5195V164.176L104.267 147.211H109.363L126.11 164.176V166.793H126.125ZM83.6915 162.9V123.573H86.3663L102.822 140.473V146L86.3663 162.9H83.6915ZM87.5195 119.68H126.125V122.297L109.377 139.262H104.281L87.5338 122.297V119.67L87.5195 119.68ZM110.825 117.79H82V168.683H131.644V117.79H110.825Z" fill="#4760E9"/>
<path d="M129.953 198.1V213.794H127.278L110.825 196.881V191.367L127.278 174.454H129.95V198.082L129.953 198.1ZM126.125 217.686H87.5195V215.07L104.267 198.102H109.363L126.11 215.07V217.686H126.125ZM83.6915 213.794V174.466H86.3663L102.822 191.379V196.906L86.3663 213.819L83.6915 213.794ZM87.5195 170.574H126.125V173.19L109.377 190.156H104.281L87.5338 173.19V170.574H87.5195ZM110.825 168.684H82V219.577H131.644V168.684H110.825Z" fill="#4760E9"/>
<path d="M94.278 21.3762H92.4501V18.8666H94.278V21.3762ZM94.278 24.8359H92.4501V22.3263H94.278V24.8359ZM94.278 28.2956H92.4501V25.786H94.278V28.2956ZM94.278 31.7553H92.4501V29.2457H94.278V31.7553ZM94.278 35.215H92.4501V32.7054H94.278V35.215ZM94.278 38.6722H92.4501V36.1626H94.278V38.6722ZM94.278 42.1319H92.4501V39.6223H94.278V42.1319ZM94.278 45.5916H92.4501V43.082H94.278V45.5916ZM94.278 49.0513H92.4501V46.5467H94.278V49.0563V49.0513ZM94.278 52.511H92.4501V50.0015H94.278V52.516V52.511ZM94.278 55.9707H92.4501V53.4611H94.278V55.9707ZM94.278 59.4304H92.4501V56.9208H94.278V59.4304ZM94.278 62.8877H92.4501V60.3805H94.278V62.8877ZM94.278 66.3474H92.4501V63.8378H94.278V66.3474ZM94.278 69.8071H92.4501V67.2975H94.278V69.8071ZM94.278 73.2668H92.4501V70.7572H94.278V73.2668ZM94.278 76.7265H92.4501V74.2169H94.278V76.7265ZM94.278 80.1862H92.4501V77.6766H94.278V80.1862ZM94.278 83.6459H92.4501V81.1363H94.278V83.6459ZM94.278 87.1056H92.4501V84.6009H94.278V87.1105V87.1056ZM94.278 90.5653H92.4501V88.0557H94.278V90.5702V90.5653ZM94.278 94.0225H92.4501V91.5129H94.278V94.0225ZM94.278 97.4822H92.4501V94.9726H94.278V97.4822ZM94.278 100.942H92.4501V98.4323H94.278V100.942ZM94.278 104.402H92.4501V101.892H94.278V104.402ZM94.278 107.861H92.4501V105.352H94.278V107.861ZM94.278 111.321H92.4501V108.811H94.278V111.321ZM94.278 114.781H92.4501V112.271H94.278V114.781ZM94.278 118.238H92.4501V115.731H94.278V118.238ZM94.278 121.698H92.4501V119.188H94.278V121.698ZM94.278 125.157H92.4501V122.655H94.278V125.165V125.157ZM94.278 128.617H92.4501V126.107H94.278V128.624V128.617ZM94.278 132.077H92.4501V129.567H94.278V132.077ZM94.278 135.536H92.4501V133.027H94.278V135.536ZM94.278 138.996H92.4501V136.487H94.278V138.996ZM94.278 142.456H92.4501V139.946H94.278V142.456ZM94.278 145.913H92.4501V143.403H94.278V145.913ZM94.278 149.373H92.4501V146.863H94.278V149.373ZM94.278 152.832H92.4501V150.323H94.278V152.832ZM94.278 156.292H92.4501V153.783H94.278V156.292ZM94.278 16.663V17.9066H92.4501V16.663H91.5362V158.498H92.4501V157.242H94.278V158.498H95.1919V16.663H94.278Z" fill="#4760E9"/>
<path d="M131.34 30.6209H82.9113V28.9595H131.34V30.6209Z" fill="#4760E9"/>
<path d="M131.644 13.7604H82V12.099H131.644V13.7604Z" fill="#4760E9"/>
<path d="M131.644 10.398H82V10H131.644V10.398Z" fill="#4760E9"/>
<path d="M83.5971 10.0022H82.0252V16.8669H83.5971V10.0022Z" fill="#4760E9"/>
<path d="M131.716 10.0022H130.144V16.8669H131.716V10.0022Z" fill="#4760E9"/>
<path d="M125.56 200.838H123.235V40.2817H125.56V200.838Z" fill="#B2B6BB"/>
<path d="M136.584 200.838H136.079V40.2817H136.584V200.838Z" fill="#B2B6BB"/>
<path d="M129.419 200.838H128.911V40.2817H129.419V200.838Z" fill="#B2B6BB"/>
<path d="M137.678 200.838H137.171V40.2817H137.678V200.838Z" fill="#B2B6BB"/>
<path d="M143.7 58.7191V68.7102H141.999L131.522 57.9481V54.4312L141.999 43.669H143.7V58.7191ZM141.262 71.1899H116.681V69.5235L127.35 58.7191H130.594L141.262 69.5235V71.1899ZM114.243 68.7027V43.669H115.945L126.421 54.4312V57.9481L115.945 68.7102L114.243 68.7027ZM116.681 41.1818H141.262V42.8483L130.594 53.6601H127.35L116.681 42.8557V41.1893V41.1818ZM131.515 39.978H113.162V72.3863H144.776V39.9855L131.515 39.978Z" fill="#B2B6BB"/>
<path d="M143.7 91.1252V101.116H141.999L131.522 90.3566V86.8397L141.999 76.0776H143.7V91.1277V91.1252ZM141.262 103.596H116.681V101.93L127.35 91.1252H130.594L141.262 101.93V103.596ZM114.243 101.109V76.0751H115.945L126.421 86.8397V90.3591L115.945 101.116L114.243 101.109ZM116.681 73.5904H141.262V75.2543L130.594 86.0588H127.35L116.681 75.2543V73.5904ZM131.515 72.3866H113.162V104.8H144.776V72.3941L131.515 72.3866Z" fill="#B2B6BB"/>
<path d="M143.7 123.531V133.524H141.999L131.522 122.762V119.243L141.999 108.478H143.7V123.528V123.531ZM141.262 136.001H116.681V134.345L127.35 123.543H130.594L141.262 134.345V136.011V136.001ZM114.243 133.514V108.478H115.945L126.421 119.24V122.76L115.945 133.524L114.243 133.514ZM116.681 105.993H141.262V107.66L130.594 118.462H127.35L116.681 107.66V105.993ZM131.515 104.79H113.162V137.205H144.776V104.8L131.515 104.79Z" fill="#B2B6BB"/>
<path d="M143.7 155.936V165.933H141.999L131.522 155.17V151.649L141.999 140.886H143.7V155.936ZM141.262 168.42H116.681V166.753L127.35 155.951H130.594L141.262 166.753V168.42ZM114.243 165.933V140.886H115.945L126.421 151.649V155.168L115.945 165.933H114.243ZM116.681 138.412H141.262V140.066L130.594 150.868H127.35L116.681 140.066V138.399V138.412ZM131.515 137.208H113.162V169.611H144.776V137.205L131.515 137.208Z" fill="#B2B6BB"/>
<path d="M143.7 188.342V198.336H141.999L131.522 187.571V184.054L141.999 173.295H143.7V188.342ZM141.262 200.813H116.681V199.149L127.35 188.345H130.594L141.262 199.149V200.813ZM114.243 198.326V173.295H115.945L126.421 184.054V187.571L115.945 198.333L114.243 198.326ZM116.681 170.805H141.262V172.471L130.594 183.276H127.35L116.681 172.471V170.805ZM131.515 169.601H113.162V202.009H144.776V169.611L131.515 169.601Z" fill="#B2B6BB"/>
<path d="M144.585 49.2948H113.748V48.2352H144.585V49.2948Z" fill="#B2B6BB"/>
<path d="M144.776 38.558H113.167V37.501H144.776V38.558Z" fill="#B2B6BB"/>
<path d="M144.776 36.4164H113.167V36.1652H144.776V36.4164Z" fill="#B2B6BB"/>
<path d="M114.186 36.1652H113.184V40.5377H114.186V36.1652Z" fill="#B2B6BB"/>
<path d="M144.824 36.1652H143.821V40.5377H144.824V36.1652Z" fill="#B2B6BB"/>
<path opacity="0.2" d="M120.521 125.784L120.557 125.724C120.528 125.744 120.519 125.767 120.521 125.784Z" fill="#F4F4F4"/>
<path opacity="0.2" d="M112.567 120.961C112.581 121.013 112.667 121.061 112.768 121.105C112.708 121.053 112.579 121.006 112.567 120.961Z" fill="#F4F4F4"/>
<path opacity="0.2" d="M120.959 125.436C121.031 125.369 121.112 125.314 121.198 125.272C121.11 125.311 121.029 125.367 120.959 125.436Z" fill="#F4F4F4"/>
<path opacity="0.2" d="M105.425 129.249C105.434 129.271 105.446 129.292 105.461 129.311L105.425 129.249Z" fill="#F4F4F4"/>
<path opacity="0.2" d="M147.023 163.766L146.927 163.609C146.96 163.659 146.989 163.714 147.023 163.766Z" fill="#F4F4F4"/>
<path opacity="0.2" d="M86.9094 141.807L87.0218 141.785C87.0505 141.785 87.0768 141.765 87.1032 141.76L86.9094 141.807Z" fill="#F4F4F4"/>
<path opacity="0.2" d="M91.0773 139.319C91.1003 139.291 91.1203 139.26 91.137 139.228C91.1179 139.27 91.0988 139.3 91.0773 139.319Z" fill="#F4F4F4"/>
<path opacity="0.2" d="M146.927 163.609C146.916 163.592 146.906 163.575 146.896 163.557C146.905 163.575 146.916 163.593 146.927 163.609Z" fill="#F4F4F4"/>
<path opacity="0.2" d="M119.818 124.103C119.737 123.938 119.648 123.779 119.55 123.625C119.586 123.595 119.693 123.807 119.818 124.103Z" fill="#F4F4F4"/>
<path opacity="0.2" d="M120.521 125.784L120.557 125.724C120.528 125.744 120.519 125.767 120.521 125.784Z" fill="black"/>
<path opacity="0.2" d="M112.567 120.961C112.581 121.013 112.667 121.061 112.768 121.105C112.708 121.053 112.579 121.006 112.567 120.961Z" fill="black"/>
<path opacity="0.2" d="M120.959 125.436C121.031 125.369 121.112 125.314 121.198 125.272C121.11 125.311 121.029 125.367 120.959 125.436Z" fill="black"/>
<path opacity="0.2" d="M105.425 129.249C105.434 129.271 105.446 129.292 105.461 129.311L105.425 129.249Z" fill="black"/>
<path opacity="0.2" d="M147.023 163.766L146.927 163.609C146.96 163.659 146.989 163.714 147.023 163.766Z" fill="black"/>
<path opacity="0.2" d="M86.9094 141.807L87.0218 141.785C87.0505 141.785 87.0768 141.765 87.1032 141.76L86.9094 141.807Z" fill="black"/>
<path opacity="0.2" d="M91.0773 139.319C91.1003 139.291 91.1203 139.26 91.137 139.228C91.1179 139.27 91.0988 139.3 91.0773 139.319Z" fill="black"/>
<path opacity="0.2" d="M146.927 163.609C146.916 163.592 146.906 163.575 146.896 163.557C146.905 163.575 146.916 163.593 146.927 163.609Z" fill="black"/>
<path d="M147.15 163.995C147.109 163.913 147.064 163.836 147.023 163.766C147.069 163.84 147.109 163.918 147.15 163.995Z" fill="#F4F4F4"/>
</svg>
