<svg width="203" height="203" viewBox="0 0 203 203" fill="none" xmlns="http://www.w3.org/2000/svg">
<g filter="url(#filter0_d)">
<circle cx="101.5" cy="97.5" r="96.5" fill="#DD4545"/>
<path d="M38.1035 106.254H48.8438V111H31.9336V85.4062H38.1035V106.254ZM66.334 106.219H57.8789L56.4023 111H49.8105L59.1973 85.4062H64.998L74.4551 111H67.8281L66.334 106.219ZM59.3555 101.455H64.8574L62.0977 92.5781L59.3555 101.455ZM96.0938 85.4062V102.158C96.0938 104.057 95.6895 105.703 94.8809 107.098C94.0723 108.48 92.9121 109.535 91.4004 110.262C89.8887 110.988 88.1016 111.352 86.0391 111.352C82.9219 111.352 80.4668 110.543 78.6738 108.926C76.8809 107.309 75.9668 105.094 75.9316 102.281V85.4062H82.1367V102.404C82.207 105.205 83.5078 106.605 86.0391 106.605C87.3164 106.605 88.2832 106.254 88.9395 105.551C89.5957 104.848 89.9238 103.705 89.9238 102.123V85.4062H96.0938ZM121.336 111H115.201L106.131 95.0742V111H99.9609V85.4062H106.131L115.184 101.332V85.4062H121.336V111ZM145.945 102.334C145.863 104.115 145.383 105.691 144.504 107.062C143.625 108.422 142.389 109.477 140.795 110.227C139.213 110.977 137.402 111.352 135.363 111.352C132 111.352 129.352 110.256 127.418 108.064C125.484 105.873 124.518 102.779 124.518 98.7832V97.5176C124.518 95.0098 124.951 92.8184 125.818 90.9434C126.697 89.0566 127.957 87.6035 129.598 86.584C131.238 85.5527 133.137 85.0371 135.293 85.0371C138.398 85.0371 140.895 85.8574 142.781 87.498C144.668 89.127 145.74 91.377 145.998 94.248H139.846C139.799 92.6895 139.406 91.5703 138.668 90.8906C137.93 90.2109 136.805 89.8711 135.293 89.8711C133.758 89.8711 132.633 90.4453 131.918 91.5938C131.203 92.7422 130.828 94.5762 130.793 97.0957V98.9062C130.793 101.637 131.133 103.588 131.812 104.76C132.504 105.932 133.688 106.518 135.363 106.518C136.781 106.518 137.865 106.184 138.615 105.516C139.365 104.848 139.764 103.787 139.811 102.334H145.945ZM170.256 111H164.121V100.312H155.033V111H148.863V85.4062H155.033V95.5664H164.121V85.4062H170.256V111Z" fill="white"/>
</g>
<defs>
<filter id="filter0_d" x="0" y="0" width="203" height="203" filterUnits="userSpaceOnUse" color-interpolation-filters="sRGB">
<feFlood flood-opacity="0" result="BackgroundImageFix"/>
<feColorMatrix in="SourceAlpha" type="matrix" values="0 0 0 0 0 0 0 0 0 0 0 0 0 0 0 0 0 0 127 0"/>
<feOffset dy="4"/>
<feGaussianBlur stdDeviation="2.5"/>
<feColorMatrix type="matrix" values="0 0 0 0 0 0 0 0 0 0 0 0 0 0 0 0 0 0 0.25 0"/>
<feBlend mode="normal" in2="BackgroundImageFix" result="effect1_dropShadow"/>
<feBlend mode="normal" in="SourceGraphic" in2="effect1_dropShadow" result="shape"/>
</filter>
</defs>
</svg>
