<svg width="1920" height="1080" viewBox="0 0 1920 1080" fill="none" xmlns="http://www.w3.org/2000/svg">
<path d="M1093.49 15.4928C1093.84 14.056 1092.91 12.6163 1091.42 12.2775C1089.92 11.9381 1088.42 12.828 1088.06 14.2649C1087.71 15.7017 1088.64 17.1414 1090.14 17.4809C1091.63 17.8196 1093.13 16.9297 1093.49 15.4928Z" fill="white"/>
<path d="M1040.7 121.28C1041.2 119.26 1039.89 117.236 1037.79 116.759C1035.68 116.282 1033.57 117.533 1033.07 119.553C1032.58 121.574 1033.88 123.599 1035.99 124.076C1038.09 124.553 1040.2 123.301 1040.7 121.28Z" fill="white"/>
<path d="M1278.33 212.73C1278.83 210.71 1277.53 208.686 1275.42 208.209C1273.31 207.732 1271.2 208.983 1270.7 211.004C1270.21 213.025 1271.51 215.049 1273.62 215.526C1275.73 216.003 1277.84 214.751 1278.33 212.73Z" fill="white"/>
<path d="M1060.65 352.992C1062.57 352.035 1063.32 349.765 1062.32 347.923C1061.32 346.082 1058.95 345.366 1057.03 346.323C1055.12 347.282 1054.37 349.552 1055.37 351.393C1056.37 353.235 1058.73 353.951 1060.65 352.992Z" fill="white"/>
<path d="M1315.62 151.079C1316.12 149.058 1314.82 147.034 1312.71 146.557C1310.6 146.08 1308.49 147.331 1308 149.352C1307.49 151.373 1308.8 153.397 1310.9 153.874C1313.01 154.351 1315.12 153.1 1315.62 151.079Z" fill="white"/>
<path d="M1297.35 274.403C1297.85 272.382 1296.55 270.358 1294.44 269.881C1292.33 269.404 1290.22 270.655 1289.73 272.676C1289.23 274.696 1290.53 276.721 1292.64 277.198C1294.75 277.675 1296.86 276.423 1297.35 274.403Z" fill="white"/>
<path d="M860.135 194.945C860.401 193.862 859.703 192.778 858.575 192.522C857.446 192.268 856.316 192.938 856.049 194.02C855.783 195.102 856.482 196.187 857.61 196.442C858.738 196.697 859.869 196.027 860.135 194.945Z" fill="white"/>
<path d="M975.519 73.7053C975.785 72.623 975.086 71.5386 973.958 71.2837C972.83 71.0281 971.699 71.6981 971.433 72.7804C971.167 73.8627 971.865 74.947 972.994 75.2027C974.122 75.4583 975.252 74.7876 975.519 73.7053Z" fill="white"/>
<path d="M1039.33 266.906C1040.36 266.392 1040.76 265.177 1040.23 264.19C1039.69 263.204 1038.42 262.82 1037.4 263.333C1036.37 263.846 1035.97 265.063 1036.5 266.049C1037.04 267.035 1038.31 267.419 1039.33 266.906Z" fill="white"/>
<path d="M1199.44 25.1813C1199.7 24.099 1199.01 23.0147 1197.88 22.759C1196.75 22.5041 1195.62 23.1741 1195.35 24.2564C1195.09 25.3387 1195.78 26.4231 1196.91 26.6787C1198.04 26.9337 1199.17 26.2637 1199.44 25.1813Z" fill="white"/>
<path d="M882.396 315.606C882.663 314.523 881.964 313.439 880.836 313.183C879.708 312.928 878.577 313.598 878.311 314.681C878.044 315.763 878.744 316.847 879.872 317.103C881 317.358 882.131 316.688 882.396 315.606Z" fill="white"/>
<path d="M1396.11 91.5308C1396.37 90.4485 1395.68 89.3641 1394.54 89.1085C1393.42 88.8529 1392.29 89.5236 1392.02 90.6059C1391.75 91.6882 1392.45 92.7726 1393.58 93.0275C1394.71 93.2831 1395.84 92.6131 1396.11 91.5308Z" fill="white"/>
<path d="M1453.43 301.944C1453.71 300.861 1453 299.777 1451.87 299.521C1450.75 299.266 1449.61 299.936 1449.35 301.019C1449.08 302.101 1449.78 303.185 1450.91 303.441C1452.04 303.696 1453.17 303.026 1453.43 301.944Z" fill="white"/>
<path d="M1458.68 230.116C1458.94 229.034 1458.24 227.949 1457.12 227.694C1455.98 227.438 1454.85 228.109 1454.59 229.191C1454.32 230.273 1455.02 231.358 1456.15 231.613C1457.28 231.868 1458.41 231.198 1458.68 230.116Z" fill="white"/>
<path d="M1500.62 341.745C1500.89 340.663 1500.19 339.579 1499.06 339.323C1497.93 339.068 1496.8 339.738 1496.53 340.82C1496.27 341.903 1496.97 342.987 1498.09 343.243C1499.23 343.498 1500.35 342.828 1500.62 341.745Z" fill="white"/>
<path d="M1078.11 73.4765C1078.62 71.3785 1077.27 69.2764 1075.08 68.7816C1072.9 68.2862 1070.7 69.5856 1070.19 71.6836C1069.67 73.7816 1071.03 75.8837 1073.21 76.3791C1075.4 76.8739 1077.59 75.5751 1078.11 73.4765Z" fill="white"/>
<path d="M1222.53 161.5C1222.8 160.417 1222.1 159.333 1220.97 159.077C1219.84 158.822 1218.71 159.492 1218.45 160.575C1218.18 161.657 1218.88 162.741 1220.01 162.997C1221.14 163.252 1222.27 162.582 1222.53 161.5Z" fill="white"/>
<path d="M1332.74 315.294C1333 314.212 1332.31 313.128 1331.18 312.872C1330.05 312.616 1328.92 313.287 1328.66 314.369C1328.39 315.452 1329.09 316.536 1330.22 316.791C1331.34 317.047 1332.47 316.377 1332.74 315.294Z" fill="white"/>
<path d="M1280.64 386.044C1280.9 384.962 1280.2 383.878 1279.08 383.622C1277.95 383.367 1276.82 384.037 1276.55 385.12C1276.28 386.202 1276.98 387.286 1278.11 387.541C1279.24 387.797 1280.37 387.127 1280.64 386.044Z" fill="white"/>
<path d="M1007.77 153.036C1008.03 151.954 1007.33 150.87 1006.2 150.614C1005.08 150.358 1003.95 151.029 1003.68 152.111C1003.41 153.194 1004.11 154.278 1005.24 154.533C1006.37 154.789 1007.5 154.119 1007.77 153.036Z" fill="white"/>
<path d="M834.543 276.359C834.809 275.276 834.111 274.192 832.982 273.936C831.854 273.681 830.723 274.351 830.457 275.434C830.191 276.516 830.89 277.6 832.018 277.855C833.146 278.111 834.277 277.441 834.543 276.359Z" fill="white"/>
<path d="M1472.94 179.804C1473.21 178.722 1472.51 177.638 1471.38 177.382C1470.25 177.126 1469.12 177.797 1468.86 178.879C1468.59 179.962 1469.29 181.046 1470.42 181.301C1471.54 181.557 1472.68 180.887 1472.94 179.804Z" fill="white"/>
<path d="M1333.46 207.863C1333.73 206.781 1333.03 205.696 1331.9 205.441C1330.77 205.186 1329.64 205.856 1329.37 206.938C1329.11 208.021 1329.81 209.105 1330.93 209.36C1332.06 209.615 1333.19 208.945 1333.46 207.863Z" fill="white"/>
<path d="M1480.98 391.541C1481.24 390.458 1480.55 389.374 1479.42 389.118C1478.29 388.863 1477.16 389.533 1476.9 390.616C1476.62 391.698 1477.33 392.782 1478.45 393.038C1479.58 393.293 1480.71 392.623 1480.98 391.541Z" fill="white"/>
<path d="M902.023 229.43C902.289 228.348 901.59 227.264 900.461 227.008C899.333 226.752 898.203 227.423 897.937 228.505C897.67 229.588 898.369 230.672 899.497 230.927C900.626 231.183 901.756 230.513 902.023 229.43Z" fill="white"/>
<path d="M1110.59 159.695C1110.95 158.258 1110.02 156.819 1108.52 156.48C1107.02 156.14 1105.52 157.03 1105.17 158.467C1104.81 159.904 1105.74 161.344 1107.24 161.682C1108.74 162.022 1110.24 161.132 1110.59 159.695Z" fill="white"/>
<path d="M1358.67 265.822C1359.02 264.385 1358.1 262.946 1356.6 262.606C1355.11 262.267 1353.6 263.157 1353.25 264.593C1352.89 266.03 1353.82 267.47 1355.32 267.809C1356.82 268.148 1358.32 267.258 1358.67 265.822Z" fill="white"/>
<path d="M1300.93 54.8855C1301.28 53.4486 1300.35 52.009 1298.85 51.6695C1297.36 51.3307 1295.86 52.22 1295.5 53.6569C1295.15 55.0938 1296.08 56.5334 1297.57 56.8729C1299.07 57.2117 1300.57 56.3224 1300.93 54.8855Z" fill="white"/>
<path d="M1070.4 222.375C1070.76 220.938 1069.83 219.498 1068.33 219.159C1066.83 218.82 1065.33 219.71 1064.98 221.147C1064.62 222.584 1065.55 224.024 1067.05 224.362C1068.55 224.702 1070.05 223.812 1070.4 222.375Z" fill="white"/>
<path d="M806.194 405.765C806.548 404.328 805.62 402.889 804.122 402.549C802.624 402.21 801.123 403.1 800.77 404.537C800.416 405.974 801.344 407.414 802.842 407.753C804.34 408.092 805.841 407.202 806.194 405.765Z" fill="white"/>
<path d="M1407.35 193.764C1407.7 192.327 1406.77 190.888 1405.28 190.549C1403.78 190.209 1402.27 191.099 1401.92 192.536C1401.57 193.973 1402.5 195.413 1403.99 195.752C1405.49 196.091 1407 195.201 1407.35 193.764Z" fill="white"/>
<path d="M1426.27 118.805C1426.63 117.368 1425.69 115.929 1424.2 115.59C1422.7 115.25 1421.2 116.14 1420.84 117.577C1420.49 119.014 1421.42 120.454 1422.92 120.793C1424.42 121.132 1425.92 120.242 1426.27 118.805Z" fill="white"/>
<path d="M1170.41 449.262C1170.77 447.825 1169.84 446.385 1168.34 446.046C1166.84 445.707 1165.34 446.597 1164.99 448.034C1164.63 449.471 1165.56 450.91 1167.06 451.249C1168.56 451.589 1170.06 450.699 1170.41 449.262Z" fill="white"/>
<path d="M1197.81 236.992C1198.17 235.556 1197.24 234.116 1195.74 233.777C1194.24 233.437 1192.74 234.327 1192.39 235.764C1192.03 237.201 1192.96 238.641 1194.46 238.98C1195.96 239.319 1197.46 238.429 1197.81 236.992Z" fill="white"/>
<path d="M1228.19 106.175C1228.54 104.738 1227.61 103.299 1226.11 102.96C1224.62 102.621 1223.12 103.51 1222.76 104.947C1222.41 106.384 1223.34 107.824 1224.83 108.163C1226.33 108.502 1227.83 107.612 1228.19 106.175Z" fill="white"/>
<path d="M289.793 767.172C290.147 765.735 289.219 764.295 287.721 763.956C286.223 763.617 284.722 764.507 284.368 765.944C284.015 767.38 284.943 768.82 286.441 769.16C287.939 769.498 289.44 768.608 289.793 767.172Z" fill="white"/>
<path d="M237.006 872.959C237.503 870.939 236.199 868.914 234.092 868.437C231.986 867.961 229.876 869.212 229.378 871.232C228.881 873.253 230.186 875.278 232.292 875.754C234.398 876.231 236.51 874.98 237.006 872.959Z" fill="white"/>
<path d="M474.639 964.409C475.136 962.389 473.831 960.364 471.724 959.888C469.618 959.411 467.507 960.662 467.01 962.682C466.513 964.703 467.818 966.728 469.924 967.205C472.031 967.682 474.141 966.43 474.639 964.409Z" fill="white"/>
<path d="M511.923 902.758C512.425 900.737 511.121 898.713 509.015 898.236C506.909 897.759 504.795 899.01 504.301 901.031C503.799 903.051 505.103 905.076 507.209 905.553C509.316 906.03 511.429 904.778 511.923 902.758Z" fill="white"/>
<path d="M493.659 1026.08C494.156 1024.06 492.852 1022.04 490.746 1021.56C488.639 1021.08 486.529 1022.33 486.032 1024.35C485.534 1026.38 486.839 1028.4 488.945 1028.88C491.051 1029.35 493.163 1028.1 493.659 1026.08Z" fill="white"/>
<path d="M56.4403 946.624C56.7068 945.541 56.0083 944.457 54.88 944.201C53.7516 943.946 52.6211 944.616 52.3546 945.699C52.0881 946.781 52.7873 947.865 53.9157 948.121C55.0433 948.376 56.1745 947.706 56.4403 946.624Z" fill="white"/>
<path d="M171.824 825.384C172.091 824.302 171.392 823.217 170.263 822.962C169.135 822.707 168.004 823.377 167.739 824.459C167.472 825.541 168.171 826.626 169.299 826.881C170.427 827.137 171.558 826.466 171.824 825.384Z" fill="white"/>
<path d="M235.639 1018.58C236.667 1018.07 237.067 1016.86 236.532 1015.87C235.997 1014.88 234.73 1014.5 233.701 1015.01C232.673 1015.53 232.273 1016.74 232.808 1017.73C233.343 1018.71 234.611 1019.1 235.639 1018.58Z" fill="white"/>
<path d="M395.743 776.86C396.01 775.778 395.311 774.693 394.183 774.438C393.055 774.183 391.924 774.853 391.658 775.935C391.391 777.017 392.09 778.102 393.219 778.358C394.347 778.612 395.478 777.942 395.743 776.86Z" fill="white"/>
<path d="M78.702 1067.28C78.9685 1066.2 78.27 1065.12 77.1417 1064.86C76.0133 1064.61 74.8829 1065.28 74.6163 1066.36C74.3498 1067.44 75.049 1068.53 76.1774 1068.78C77.3057 1069.04 78.4362 1068.37 78.702 1067.28Z" fill="white"/>
<path d="M592.412 843.21C592.677 842.127 591.982 841.043 590.85 840.787C589.725 840.532 588.593 841.202 588.328 842.285C588.056 843.367 588.758 844.451 589.89 844.706C591.015 844.962 592.147 844.292 592.412 843.21Z" fill="white"/>
<path d="M453.171 739.155C453.437 738.073 452.739 736.988 451.61 736.733C450.482 736.478 449.351 737.148 449.085 738.23C448.819 739.313 449.518 740.397 450.646 740.653C451.774 740.907 452.905 740.237 453.171 739.155Z" fill="white"/>
<path d="M649.739 1053.62C650.011 1052.54 649.309 1051.46 648.177 1051.2C647.052 1050.95 645.92 1051.62 645.655 1052.7C645.39 1053.78 646.085 1054.86 647.217 1055.12C648.342 1055.37 649.474 1054.7 649.739 1053.62Z" fill="white"/>
<path d="M654.983 981.795C655.248 980.713 654.546 979.628 653.421 979.373C652.289 979.117 651.157 979.788 650.892 980.87C650.627 981.952 651.329 983.037 652.454 983.292C653.586 983.547 654.711 982.877 654.983 981.795Z" fill="white"/>
<path d="M274.413 825.155C274.93 823.057 273.575 820.955 271.388 820.46C269.201 819.965 267.009 821.264 266.493 823.362C265.976 825.46 267.331 827.562 269.518 828.058C271.706 828.553 273.897 827.254 274.413 825.155Z" fill="white"/>
<path d="M418.84 913.178C419.106 912.096 418.407 911.012 417.279 910.756C416.15 910.501 415.02 911.171 414.753 912.253C414.488 913.336 415.186 914.42 416.314 914.676C417.443 914.931 418.573 914.261 418.84 913.178Z" fill="white"/>
<path d="M529.045 1066.97C529.31 1065.89 528.616 1064.81 527.484 1064.55C526.359 1064.3 525.227 1064.97 524.962 1066.05C524.697 1067.13 525.392 1068.21 526.524 1068.47C527.648 1068.73 528.78 1068.06 529.045 1066.97Z" fill="white"/>
<path d="M204.071 904.715C204.337 903.633 203.638 902.548 202.51 902.293C201.382 902.037 200.251 902.708 199.985 903.79C199.719 904.872 200.417 905.957 201.546 906.212C202.674 906.467 203.805 905.797 204.071 904.715Z" fill="white"/>
<path d="M30.8489 1028.04C31.1147 1026.96 30.4162 1025.87 29.2878 1025.62C28.1595 1025.36 27.029 1026.03 26.7625 1027.11C26.4967 1028.19 27.1952 1029.28 28.3235 1029.53C29.4519 1029.79 30.5824 1029.12 30.8489 1028.04Z" fill="white"/>
<path d="M669.246 931.483C669.511 930.401 668.816 929.316 667.685 929.061C666.56 928.805 665.428 929.476 665.163 930.558C664.891 931.64 665.593 932.725 666.725 932.98C667.849 933.235 668.981 932.565 669.246 931.483Z" fill="white"/>
<path d="M529.762 959.542C530.034 958.46 529.332 957.375 528.207 957.12C527.075 956.865 525.943 957.535 525.678 958.617C525.413 959.699 526.115 960.784 527.24 961.039C528.365 961.294 529.497 960.624 529.762 959.542Z" fill="white"/>
<path d="M98.3279 981.109C98.5944 980.027 97.8952 978.942 96.7669 978.687C95.6385 978.431 94.508 979.102 94.2422 980.184C93.9757 981.266 94.6742 982.351 95.8026 982.606C96.9309 982.861 98.0614 982.191 98.3279 981.109Z" fill="white"/>
<path d="M306.897 911.374C307.251 909.937 306.324 908.497 304.826 908.159C303.328 907.819 301.827 908.709 301.473 910.146C301.12 911.583 302.047 913.022 303.545 913.361C305.043 913.701 306.544 912.811 306.897 911.374Z" fill="white"/>
<path d="M554.979 1017.5C555.33 1016.06 554.406 1014.62 552.909 1014.28C551.412 1013.95 549.907 1014.84 549.556 1016.27C549.198 1017.71 550.129 1019.15 551.627 1019.49C553.124 1019.83 554.628 1018.94 554.979 1017.5Z" fill="white"/>
<path d="M497.233 806.564C497.586 805.127 496.658 803.688 495.16 803.348C493.662 803.009 492.161 803.899 491.808 805.336C491.454 806.773 492.382 808.212 493.88 808.552C495.378 808.89 496.879 808.001 497.233 806.564Z" fill="white"/>
<path d="M266.708 974.054C267.062 972.617 266.134 971.177 264.636 970.838C263.138 970.499 261.637 971.389 261.284 972.826C260.93 974.263 261.858 975.702 263.356 976.041C264.854 976.381 266.355 975.491 266.708 974.054Z" fill="white"/>
<path d="M603.652 945.443C604.003 944.006 603.079 942.566 601.582 942.228C600.085 941.888 598.58 942.778 598.229 944.215C597.878 945.652 598.802 947.092 600.3 947.431C601.797 947.77 603.301 946.88 603.652 945.443Z" fill="white"/>
<path d="M622.573 870.484C622.931 869.047 621.999 867.607 620.502 867.269C619.005 866.929 617.508 867.819 617.149 869.256C616.798 870.693 617.722 872.132 619.227 872.472C620.724 872.811 622.222 871.921 622.573 870.484Z" fill="white"/>
<path d="M394.117 988.671C394.471 987.235 393.543 985.794 392.045 985.456C390.547 985.116 389.046 986.006 388.692 987.443C388.339 988.88 389.267 990.319 390.765 990.659C392.263 990.998 393.764 990.108 394.117 988.671Z" fill="white"/>
<path d="M424.492 857.854C424.845 856.417 423.918 854.978 422.42 854.639C420.922 854.299 419.421 855.189 419.067 856.626C418.714 858.063 419.641 859.503 421.139 859.842C422.637 860.181 424.138 859.291 424.492 857.854Z" fill="white"/>
<path d="M1892.26 813.144C1892.49 812.184 1891.87 811.222 1890.87 810.996C1889.87 810.769 1888.87 811.364 1888.63 812.324C1888.4 813.284 1889.02 814.246 1890.02 814.473C1891.02 814.699 1892.02 814.105 1892.26 813.144Z" fill="white"/>
<path d="M1856.99 883.831C1857.32 882.481 1856.45 881.128 1855.04 880.809C1853.63 880.491 1852.22 881.327 1851.89 882.677C1851.56 884.027 1852.43 885.38 1853.84 885.699C1855.24 886.017 1856.65 885.181 1856.99 883.831Z" fill="white"/>
<path d="M1870.32 1038.66C1871.6 1038.02 1872.1 1036.5 1871.43 1035.27C1870.76 1034.04 1869.18 1033.56 1867.9 1034.2C1866.62 1034.84 1866.12 1036.36 1866.79 1037.59C1867.45 1038.82 1869.04 1039.3 1870.32 1038.66Z" fill="white"/>
<path d="M1736.33 933.053C1736.51 932.33 1736.05 931.605 1735.29 931.434C1734.54 931.264 1733.78 931.712 1733.6 932.435C1733.43 933.158 1733.89 933.883 1734.65 934.053C1735.4 934.224 1736.16 933.776 1736.33 933.053Z" fill="white"/>
<path d="M1813.43 852.042C1813.61 851.318 1813.14 850.594 1812.39 850.423C1811.64 850.253 1810.88 850.7 1810.7 851.424C1810.52 852.147 1810.99 852.871 1811.75 853.042C1812.5 853.213 1813.25 852.765 1813.43 852.042Z" fill="white"/>
<path d="M1856.07 981.137C1856.76 980.794 1857.03 979.981 1856.67 979.322C1856.31 978.663 1855.47 978.406 1854.78 978.749C1854.09 979.092 1853.82 979.905 1854.18 980.564C1854.54 981.223 1855.39 981.48 1856.07 981.137Z" fill="white"/>
<path d="M1751.21 1013.68C1751.39 1012.95 1750.92 1012.23 1750.17 1012.06C1749.41 1011.89 1748.66 1012.34 1748.48 1013.06C1748.3 1013.78 1748.77 1014.51 1749.52 1014.68C1750.28 1014.85 1751.03 1014.4 1751.21 1013.68Z" fill="white"/>
<path d="M1881.98 851.889C1882.33 850.487 1881.42 849.082 1879.96 848.752C1878.5 848.421 1877.03 849.289 1876.69 850.691C1876.34 852.093 1877.25 853.497 1878.71 853.828C1880.17 854.159 1881.64 853.291 1881.98 851.889Z" fill="white"/>
<path d="M1834.98 905.05C1835.16 904.327 1834.69 903.602 1833.94 903.431C1833.18 903.261 1832.43 903.709 1832.25 904.432C1832.07 905.155 1832.54 905.88 1833.29 906.05C1834.05 906.221 1834.8 905.773 1834.98 905.05Z" fill="white"/>
<path d="M1719.23 987.453C1719.41 986.73 1718.94 986.005 1718.19 985.834C1717.44 985.663 1716.68 986.112 1716.5 986.835C1716.33 987.558 1716.79 988.283 1717.55 988.453C1718.3 988.624 1719.06 988.176 1719.23 987.453Z" fill="white"/>
<path d="M1764.32 956.096C1764.5 955.373 1764.03 954.648 1763.28 954.477C1762.53 954.306 1761.77 954.755 1761.59 955.478C1761.41 956.201 1761.88 956.925 1762.64 957.096C1763.39 957.267 1764.14 956.819 1764.32 956.096Z" fill="white"/>
<path d="M1903.69 909.499C1903.92 908.539 1903.3 907.577 1902.3 907.351C1901.3 907.124 1900.3 907.719 1900.06 908.679C1899.83 909.639 1900.45 910.601 1901.45 910.827C1902.45 911.054 1903.45 910.459 1903.69 909.499Z" fill="white"/>
<path d="M1876.83 951.381C1877.07 950.421 1876.45 949.459 1875.45 949.233C1874.45 949.006 1873.44 949.601 1873.21 950.561C1872.97 951.521 1873.59 952.483 1874.59 952.709C1875.59 952.936 1876.6 952.342 1876.83 951.381Z" fill="white"/>
<path d="M1700.29 1073.92C1700.53 1072.96 1699.91 1072 1698.91 1071.77C1697.91 1071.55 1696.9 1072.14 1696.67 1073.1C1696.43 1074.06 1697.05 1075.02 1698.05 1075.25C1699.05 1075.48 1700.05 1074.88 1700.29 1073.92Z" fill="white"/>
<path d="M349.082 356.889C349.436 355.452 348.508 354.012 347.01 353.673C345.512 353.334 344.011 354.224 343.657 355.661C343.304 357.098 344.232 358.537 345.73 358.877C347.228 359.216 348.729 358.326 349.082 356.889Z" fill="white"/>
<path d="M296.295 462.676C296.792 460.656 295.487 458.631 293.381 458.155C291.275 457.678 289.164 458.929 288.667 460.949C288.17 462.97 289.475 464.995 291.581 465.472C293.687 465.949 295.798 464.697 296.295 462.676Z" fill="white"/>
<path d="M533.927 554.126C534.425 552.106 533.12 550.082 531.013 549.605C528.907 549.128 526.796 550.379 526.299 552.399C525.802 554.42 527.106 556.445 529.213 556.922C531.32 557.399 533.43 556.147 533.927 554.126Z" fill="white"/>
<path d="M316.247 694.388C318.167 693.43 318.913 691.161 317.915 689.319C316.915 687.477 314.549 686.761 312.629 687.719C310.71 688.678 309.963 690.948 310.962 692.789C311.961 694.631 314.327 695.347 316.247 694.388Z" fill="white"/>
<path d="M571.212 492.475C571.714 490.454 570.41 488.43 568.304 487.953C566.197 487.476 564.084 488.727 563.59 490.748C563.088 492.769 564.392 494.793 566.498 495.27C568.604 495.747 570.718 494.495 571.212 492.475Z" fill="white"/>
<path d="M552.948 615.799C553.445 613.778 552.141 611.753 550.035 611.276C547.928 610.8 545.818 612.051 545.321 614.072C544.823 616.092 546.128 618.117 548.234 618.594C550.34 619.071 552.452 617.819 552.948 615.799Z" fill="white"/>
<path d="M115.729 536.341C115.996 535.258 115.297 534.174 114.169 533.918C113.041 533.663 111.91 534.333 111.644 535.416C111.377 536.498 112.076 537.582 113.205 537.838C114.332 538.093 115.463 537.423 115.729 536.341Z" fill="white"/>
<path d="M231.113 415.101C231.38 414.019 230.681 412.935 229.552 412.68C228.424 412.424 227.293 413.094 227.028 414.176C226.761 415.259 227.46 416.343 228.588 416.599C229.716 416.854 230.847 416.184 231.113 415.101Z" fill="white"/>
<path d="M294.928 608.302C295.956 607.788 296.356 606.573 295.821 605.586C295.286 604.6 294.019 604.216 292.99 604.729C291.962 605.242 291.562 606.459 292.097 607.445C292.632 608.431 293.9 608.815 294.928 608.302Z" fill="white"/>
<path d="M455.032 366.577C455.299 365.495 454.6 364.411 453.472 364.155C452.344 363.9 451.213 364.57 450.947 365.652C450.68 366.735 451.379 367.819 452.508 368.075C453.636 368.33 454.766 367.66 455.032 366.577Z" fill="white"/>
<path d="M137.991 657.001C138.257 655.919 137.559 654.835 136.43 654.579C135.302 654.324 134.172 654.994 133.905 656.076C133.639 657.159 134.338 658.243 135.466 658.499C136.595 658.754 137.725 658.084 137.991 657.001Z" fill="white"/>
<path d="M651.701 432.927C651.966 431.844 651.271 430.76 650.139 430.504C649.014 430.249 647.882 430.919 647.617 432.002C647.345 433.084 648.047 434.168 649.179 434.423C650.304 434.679 651.436 434.009 651.701 432.927Z" fill="white"/>
<path d="M512.46 328.872C512.726 327.79 512.027 326.706 510.899 326.45C509.771 326.195 508.64 326.865 508.374 327.947C508.108 329.03 508.807 330.114 509.935 330.37C511.063 330.625 512.194 329.955 512.46 328.872Z" fill="white"/>
<path d="M709.028 643.34C709.3 642.257 708.598 641.173 707.466 640.917C706.341 640.662 705.209 641.332 704.944 642.415C704.679 643.497 705.374 644.581 706.506 644.837C707.631 645.092 708.763 644.422 709.028 643.34Z" fill="white"/>
<path d="M714.272 571.512C714.537 570.43 713.835 569.345 712.71 569.09C711.578 568.834 710.446 569.505 710.181 570.587C709.916 571.669 710.618 572.754 711.743 573.009C712.875 573.264 714 572.594 714.272 571.512Z" fill="white"/>
<path d="M756.217 683.141C756.482 682.059 755.78 680.975 754.656 680.719C753.524 680.464 752.399 681.134 752.127 682.216C751.862 683.299 752.564 684.383 753.688 684.639C754.82 684.894 755.945 684.224 756.217 683.141Z" fill="white"/>
<path d="M333.702 414.872C334.219 412.774 332.864 410.672 330.677 410.178C328.49 409.682 326.298 410.982 325.782 413.08C325.265 415.177 326.62 417.28 328.807 417.775C330.995 418.27 333.186 416.971 333.702 414.872Z" fill="white"/>
<path d="M478.129 502.896C478.394 501.813 477.696 500.729 476.568 500.473C475.439 500.218 474.309 500.888 474.042 501.971C473.776 503.053 474.475 504.137 475.603 504.393C476.732 504.648 477.862 503.978 478.129 502.896Z" fill="white"/>
<path d="M588.334 656.69C588.599 655.608 587.905 654.524 586.773 654.268C585.648 654.012 584.516 654.683 584.251 655.765C583.986 656.848 584.681 657.932 585.813 658.187C586.937 658.443 588.069 657.772 588.334 656.69Z" fill="white"/>
<path d="M536.23 727.44C536.496 726.358 535.798 725.274 534.67 725.018C533.541 724.762 532.411 725.433 532.144 726.515C531.878 727.598 532.577 728.682 533.705 728.937C534.833 729.193 535.964 728.523 536.23 727.44Z" fill="white"/>
<path d="M263.36 494.432C263.626 493.35 262.928 492.266 261.799 492.01C260.671 491.754 259.54 492.425 259.274 493.507C259.008 494.59 259.707 495.674 260.835 495.929C261.963 496.185 263.094 495.515 263.36 494.432Z" fill="white"/>
<path d="M90.1378 617.755C90.4036 616.672 89.7051 615.588 88.5768 615.332C87.4484 615.077 86.3179 615.747 86.0514 616.83C85.7856 617.912 86.4841 618.996 87.6125 619.251C88.7408 619.507 89.8713 618.837 90.1378 617.755Z" fill="white"/>
<path d="M728.535 521.2C728.8 520.118 728.106 519.033 726.974 518.778C725.849 518.522 724.717 519.193 724.452 520.275C724.18 521.357 724.882 522.442 726.014 522.697C727.138 522.952 728.27 522.282 728.535 521.2Z" fill="white"/>
<path d="M589.051 549.259C589.323 548.177 588.621 547.092 587.496 546.837C586.364 546.582 585.232 547.252 584.967 548.334C584.702 549.416 585.404 550.501 586.529 550.756C587.654 551.011 588.786 550.341 589.051 549.259Z" fill="white"/>
<path d="M736.574 732.936C736.839 731.854 736.144 730.77 735.012 730.514C733.887 730.259 732.755 730.929 732.49 732.011C732.218 733.094 732.92 734.178 734.045 734.434C735.177 734.689 736.309 734.019 736.574 732.936Z" fill="white"/>
<path d="M157.617 570.826C157.883 569.744 157.184 568.66 156.056 568.404C154.927 568.148 153.797 568.819 153.531 569.901C153.265 570.984 153.963 572.068 155.092 572.323C156.22 572.579 157.35 571.908 157.617 570.826Z" fill="white"/>
<path d="M366.186 501.091C366.54 499.654 365.612 498.214 364.114 497.876C362.616 497.536 361.115 498.426 360.762 499.863C360.408 501.3 361.336 502.74 362.834 503.078C364.332 503.418 365.833 502.528 366.186 501.091Z" fill="white"/>
<path d="M614.268 607.218C614.619 605.781 613.695 604.341 612.198 604.002C610.701 603.663 609.196 604.552 608.845 605.989C608.487 607.426 609.418 608.866 610.916 609.205C612.413 609.544 613.917 608.654 614.268 607.218Z" fill="white"/>
<path d="M556.522 396.281C556.875 394.844 555.947 393.405 554.449 393.065C552.951 392.727 551.45 393.616 551.097 395.053C550.743 396.49 551.671 397.929 553.169 398.269C554.667 398.608 556.168 397.718 556.522 396.281Z" fill="white"/>
<path d="M325.997 563.771C326.351 562.334 325.423 560.894 323.925 560.555C322.427 560.216 320.926 561.106 320.573 562.543C320.219 563.98 321.147 565.419 322.645 565.758C324.143 566.098 325.644 565.208 325.997 563.771Z" fill="white"/>
<path d="M61.7888 747.161C62.142 745.724 61.2143 744.285 59.7163 743.945C58.2183 743.606 56.7174 744.496 56.3642 745.933C56.0103 747.37 56.9381 748.81 58.4361 749.148C59.9341 749.488 61.4349 748.598 61.7888 747.161Z" fill="white"/>
<path d="M662.941 535.16C663.292 533.723 662.368 532.284 660.871 531.945C659.373 531.605 657.869 532.495 657.518 533.932C657.167 535.369 658.091 536.809 659.588 537.148C661.086 537.487 662.59 536.597 662.941 535.16Z" fill="white"/>
<path d="M681.861 460.201C682.22 458.764 681.288 457.324 679.791 456.986C678.294 456.646 676.796 457.536 676.438 458.973C676.087 460.41 677.011 461.849 678.516 462.189C680.013 462.528 681.51 461.638 681.861 460.201Z" fill="white"/>
<path d="M426.007 790.658C426.36 789.221 425.433 787.781 423.935 787.442C422.437 787.103 420.936 787.993 420.582 789.43C420.229 790.867 421.156 792.306 422.654 792.645C424.152 792.984 425.653 792.094 426.007 790.658Z" fill="white"/>
<path d="M453.406 578.388C453.76 576.952 452.832 575.511 451.334 575.173C449.836 574.833 448.335 575.723 447.981 577.16C447.628 578.597 448.556 580.037 450.054 580.376C451.552 580.715 453.053 579.825 453.406 578.388Z" fill="white"/>
<path d="M483.781 447.571C484.134 446.134 483.206 444.695 481.708 444.356C480.21 444.016 478.709 444.906 478.356 446.343C478.002 447.78 478.93 449.22 480.428 449.559C481.926 449.898 483.427 449.008 483.781 447.571Z" fill="white"/>
<path d="M1746.76 370.058C1747.12 368.621 1746.19 367.182 1744.69 366.843C1743.19 366.503 1741.69 367.393 1741.34 368.83C1740.99 370.267 1741.91 371.707 1743.41 372.046C1744.91 372.385 1746.41 371.495 1746.76 370.058Z" fill="white"/>
<path d="M1693.98 475.846C1694.47 473.825 1693.17 471.801 1691.06 471.324C1688.96 470.847 1686.85 472.099 1686.35 474.119C1685.85 476.14 1687.16 478.164 1689.26 478.641C1691.37 479.118 1693.48 477.867 1693.98 475.846Z" fill="white"/>
<path d="M1713.93 707.558C1715.85 706.6 1716.6 704.33 1715.6 702.489C1714.6 700.647 1712.23 699.931 1710.31 700.889C1708.39 701.847 1707.65 704.117 1708.64 705.959C1709.64 707.8 1712.01 708.516 1713.93 707.558Z" fill="white"/>
<path d="M1513.41 549.51C1513.68 548.428 1512.98 547.344 1511.85 547.088C1510.72 546.833 1509.59 547.503 1509.33 548.585C1509.06 549.668 1509.76 550.752 1510.89 551.008C1512.01 551.263 1513.15 550.593 1513.41 549.51Z" fill="white"/>
<path d="M1628.8 428.271C1629.06 427.188 1628.36 426.104 1627.23 425.849C1626.11 425.594 1624.98 426.264 1624.71 427.346C1624.44 428.428 1625.14 429.512 1626.27 429.768C1627.4 430.024 1628.53 429.353 1628.8 428.271Z" fill="white"/>
<path d="M1692.61 621.471C1693.64 620.958 1694.04 619.742 1693.5 618.755C1692.97 617.769 1691.7 617.385 1690.67 617.898C1689.64 618.412 1689.24 619.628 1689.78 620.614C1690.31 621.6 1691.58 621.985 1692.61 621.471Z" fill="white"/>
<path d="M1852.71 379.747C1852.98 378.664 1852.28 377.58 1851.15 377.324C1850.03 377.07 1848.89 377.74 1848.63 378.822C1848.36 379.904 1849.06 380.989 1850.19 381.244C1851.32 381.499 1852.45 380.829 1852.71 379.747Z" fill="white"/>
<path d="M1535.67 670.171C1535.94 669.089 1535.24 668.004 1534.11 667.749C1532.98 667.494 1531.85 668.164 1531.59 669.246C1531.32 670.328 1532.02 671.413 1533.15 671.668C1534.28 671.923 1535.41 671.253 1535.67 670.171Z" fill="white"/>
<path d="M1910.14 342.042C1910.41 340.96 1909.71 339.875 1908.58 339.62C1907.45 339.365 1906.32 340.035 1906.06 341.117C1905.79 342.199 1906.49 343.284 1907.62 343.539C1908.75 343.794 1909.88 343.124 1910.14 342.042Z" fill="white"/>
<path d="M1731.38 428.042C1731.9 425.944 1730.55 423.842 1728.36 423.347C1726.17 422.852 1723.98 424.151 1723.46 426.249C1722.95 428.347 1724.3 430.449 1726.49 430.945C1728.68 431.439 1730.87 430.141 1731.38 428.042Z" fill="white"/>
<path d="M1875.81 516.065C1876.08 514.983 1875.38 513.898 1874.25 513.643C1873.12 513.388 1871.99 514.058 1871.72 515.14C1871.46 516.222 1872.16 517.307 1873.29 517.562C1874.41 517.817 1875.54 517.147 1875.81 516.065Z" fill="white"/>
<path d="M1661.04 507.602C1661.31 506.519 1660.61 505.435 1659.48 505.179C1658.35 504.924 1657.22 505.595 1656.96 506.677C1656.69 507.759 1657.39 508.844 1658.52 509.098C1659.65 509.354 1660.78 508.684 1661.04 507.602Z" fill="white"/>
<path d="M1487.82 630.924C1488.09 629.842 1487.39 628.757 1486.26 628.502C1485.13 628.246 1484 628.917 1483.73 629.999C1483.47 631.081 1484.17 632.166 1485.29 632.421C1486.42 632.676 1487.55 632.006 1487.82 630.924Z" fill="white"/>
<path d="M1555.3 583.996C1555.57 582.913 1554.87 581.829 1553.74 581.573C1552.61 581.318 1551.48 581.989 1551.21 583.071C1550.95 584.153 1551.65 585.238 1552.77 585.492C1553.9 585.748 1555.03 585.078 1555.3 583.996Z" fill="white"/>
<path d="M1763.87 514.261C1764.22 512.824 1763.29 511.384 1761.8 511.045C1760.3 510.706 1758.8 511.596 1758.44 513.033C1758.09 514.469 1759.02 515.909 1760.52 516.248C1762.01 516.587 1763.51 515.697 1763.87 514.261Z" fill="white"/>
<path d="M1723.68 576.94C1724.03 575.504 1723.11 574.064 1721.61 573.724C1720.11 573.386 1718.61 574.276 1718.25 575.713C1717.9 577.149 1718.83 578.589 1720.33 578.928C1721.82 579.267 1723.33 578.377 1723.68 576.94Z" fill="white"/>
<path d="M1459.47 760.331C1459.82 758.894 1458.9 757.454 1457.4 757.115C1455.9 756.776 1454.4 757.666 1454.05 759.103C1453.69 760.54 1454.62 761.979 1456.12 762.318C1457.62 762.657 1459.12 761.768 1459.47 760.331Z" fill="white"/>
<path d="M1823.69 803.827C1824.04 802.39 1823.11 800.951 1821.62 800.611C1820.12 800.272 1818.62 801.162 1818.26 802.599C1817.91 804.036 1818.84 805.476 1820.34 805.814C1821.83 806.154 1823.34 805.264 1823.69 803.827Z" fill="white"/>
<path d="M1851.09 591.558C1851.44 590.121 1850.51 588.681 1849.02 588.342C1847.52 588.003 1846.02 588.893 1845.66 590.33C1845.31 591.766 1846.24 593.206 1847.74 593.546C1849.23 593.884 1850.73 592.994 1851.09 591.558Z" fill="white"/>
<path d="M1881.46 460.741C1881.82 459.304 1880.89 457.864 1879.39 457.525C1877.89 457.186 1876.39 458.076 1876.04 459.513C1875.68 460.95 1876.61 462.389 1878.11 462.729C1879.61 463.068 1881.11 462.178 1881.46 460.741Z" fill="white"/>
<path d="M1023.22 439.958C1023.57 438.521 1022.65 437.082 1021.15 436.743C1019.65 436.404 1018.15 437.293 1017.79 438.73C1017.44 440.167 1018.37 441.607 1019.87 441.946C1021.37 442.285 1022.87 441.395 1023.22 439.958Z" fill="white"/>
<path d="M970.432 545.746C970.929 543.725 969.625 541.701 967.519 541.224C965.412 540.747 963.302 541.999 962.805 544.019C962.307 546.04 963.612 548.064 965.718 548.541C967.824 549.018 969.936 547.767 970.432 545.746Z" fill="white"/>
<path d="M1208.06 637.196C1208.56 635.176 1207.26 633.151 1205.15 632.674C1203.04 632.197 1200.93 633.449 1200.44 635.469C1199.94 637.49 1201.24 639.514 1203.35 639.991C1205.46 640.468 1207.57 639.217 1208.06 637.196Z" fill="white"/>
<path d="M990.384 777.458C992.304 776.5 993.051 774.23 992.052 772.389C991.052 770.547 988.686 769.831 986.766 770.789C984.847 771.748 984.1 774.017 985.099 775.859C986.098 777.7 988.464 778.417 990.384 777.458Z" fill="white"/>
<path d="M1245.35 575.545C1245.85 573.524 1244.55 571.499 1242.44 571.022C1240.33 570.545 1238.22 571.797 1237.73 573.818C1237.23 575.838 1238.53 577.863 1240.64 578.34C1242.74 578.816 1244.86 577.565 1245.35 575.545Z" fill="white"/>
<path d="M1227.09 698.868C1227.58 696.847 1226.28 694.823 1224.17 694.346C1222.07 693.869 1219.95 695.121 1219.46 697.142C1218.96 699.162 1220.27 701.186 1222.37 701.663C1224.48 702.14 1226.59 700.889 1227.09 698.868Z" fill="white"/>
<path d="M789.866 619.41C790.133 618.328 789.434 617.244 788.306 616.988C787.178 616.733 786.047 617.403 785.781 618.485C785.514 619.568 786.213 620.652 787.342 620.908C788.469 621.163 789.601 620.493 789.866 619.41Z" fill="white"/>
<path d="M905.251 498.171C905.517 497.089 904.818 496.004 903.69 495.749C902.561 495.494 901.431 496.164 901.165 497.246C900.898 498.328 901.597 499.413 902.725 499.668C903.854 499.924 904.984 499.253 905.251 498.171Z" fill="white"/>
<path d="M969.065 691.371C970.093 690.858 970.494 689.642 969.959 688.655C969.423 687.669 968.156 687.285 967.127 687.799C966.099 688.312 965.699 689.528 966.234 690.514C966.769 691.5 968.037 691.885 969.065 691.371Z" fill="white"/>
<path d="M1129.17 449.647C1129.44 448.565 1128.74 447.48 1127.61 447.225C1126.48 446.97 1125.35 447.64 1125.08 448.722C1124.82 449.804 1125.52 450.889 1126.64 451.144C1127.77 451.399 1128.9 450.729 1129.17 449.647Z" fill="white"/>
<path d="M812.128 740.071C812.395 738.989 811.696 737.904 810.568 737.649C809.439 737.394 808.309 738.064 808.042 739.146C807.776 740.228 808.475 741.313 809.604 741.568C810.732 741.823 811.862 741.153 812.128 740.071Z" fill="white"/>
<path d="M1325.84 515.996C1326.1 514.914 1325.41 513.83 1324.28 513.574C1323.15 513.318 1322.02 513.989 1321.75 515.071C1321.48 516.154 1322.18 517.238 1323.32 517.493C1324.44 517.749 1325.57 517.079 1325.84 515.996Z" fill="white"/>
<path d="M1186.6 411.942C1186.86 410.86 1186.16 409.775 1185.04 409.52C1183.91 409.265 1182.78 409.935 1182.51 411.017C1182.25 412.099 1182.94 413.184 1184.07 413.439C1185.2 413.694 1186.33 413.024 1186.6 411.942Z" fill="white"/>
<path d="M1383.17 726.409C1383.44 725.327 1382.74 724.243 1381.6 723.987C1380.48 723.732 1379.35 724.402 1379.08 725.484C1378.82 726.567 1379.51 727.651 1380.64 727.907C1381.77 728.162 1382.9 727.492 1383.17 726.409Z" fill="white"/>
<path d="M1388.41 654.582C1388.67 653.499 1387.97 652.415 1386.85 652.159C1385.72 651.904 1384.58 652.574 1384.32 653.657C1384.05 654.739 1384.76 655.823 1385.88 656.078C1387.01 656.334 1388.14 655.664 1388.41 654.582Z" fill="white"/>
<path d="M1430.35 766.211C1430.62 765.128 1429.92 764.044 1428.79 763.788C1427.66 763.534 1426.54 764.204 1426.26 765.286C1426 766.368 1426.7 767.453 1427.83 767.708C1428.96 767.963 1430.08 767.293 1430.35 766.211Z" fill="white"/>
<path d="M1007.84 497.942C1008.36 495.844 1007 493.742 1004.81 493.247C1002.63 492.752 1000.44 494.051 999.919 496.149C999.402 498.247 1000.76 500.349 1002.94 500.845C1005.13 501.339 1007.32 500.041 1007.84 497.942Z" fill="white"/>
<path d="M1152.27 585.965C1152.53 584.883 1151.83 583.798 1150.7 583.543C1149.58 583.288 1148.45 583.958 1148.18 585.04C1147.91 586.123 1148.61 587.207 1149.74 587.462C1150.87 587.717 1152 587.047 1152.27 585.965Z" fill="white"/>
<path d="M1262.47 739.76C1262.74 738.677 1262.04 737.593 1260.91 737.338C1259.79 737.082 1258.65 737.753 1258.39 738.835C1258.12 739.917 1258.82 741.002 1259.95 741.256C1261.07 741.512 1262.21 740.842 1262.47 739.76Z" fill="white"/>
<path d="M1210.37 810.51C1210.63 809.428 1209.94 808.343 1208.81 808.088C1207.68 807.832 1206.55 808.503 1206.28 809.585C1206.02 810.667 1206.71 811.752 1207.84 812.007C1208.97 812.262 1210.1 811.592 1210.37 810.51Z" fill="white"/>
<path d="M937.497 577.502C937.763 576.42 937.065 575.335 935.936 575.08C934.808 574.824 933.677 575.495 933.411 576.577C933.145 577.659 933.844 578.744 934.972 578.999C936.1 579.254 937.231 578.584 937.497 577.502Z" fill="white"/>
<path d="M764.275 700.824C764.541 699.742 763.842 698.657 762.714 698.402C761.586 698.146 760.455 698.817 760.189 699.899C759.923 700.981 760.621 702.066 761.75 702.321C762.878 702.576 764.009 701.906 764.275 700.824Z" fill="white"/>
<path d="M1402.67 604.27C1402.94 603.187 1402.24 602.103 1401.11 601.847C1399.99 601.592 1398.85 602.262 1398.59 603.345C1398.32 604.427 1399.02 605.511 1400.15 605.766C1401.28 606.022 1402.41 605.352 1402.67 604.27Z" fill="white"/>
<path d="M1263.19 632.329C1263.46 631.246 1262.76 630.162 1261.63 629.906C1260.5 629.651 1259.37 630.321 1259.1 631.404C1258.84 632.486 1259.54 633.57 1260.67 633.826C1261.79 634.081 1262.92 633.411 1263.19 632.329Z" fill="white"/>
<path d="M1410.71 816.006C1410.98 814.924 1410.28 813.839 1409.15 813.584C1408.02 813.329 1406.89 813.999 1406.63 815.081C1406.35 816.163 1407.06 817.248 1408.18 817.503C1409.31 817.758 1410.45 817.088 1410.71 816.006Z" fill="white"/>
<path d="M831.754 653.896C832.021 652.814 831.321 651.729 830.193 651.474C829.065 651.218 827.934 651.889 827.668 652.971C827.402 654.053 828.1 655.138 829.229 655.392C830.357 655.648 831.488 654.978 831.754 653.896Z" fill="white"/>
<path d="M1040.32 584.161C1040.68 582.724 1039.75 581.284 1038.25 580.945C1036.75 580.606 1035.25 581.496 1034.9 582.933C1034.55 584.369 1035.47 585.809 1036.97 586.148C1038.47 586.487 1039.97 585.598 1040.32 584.161Z" fill="white"/>
<path d="M1288.41 690.288C1288.76 688.851 1287.83 687.411 1286.34 687.072C1284.84 686.733 1283.33 687.622 1282.98 689.059C1282.62 690.496 1283.56 691.935 1285.05 692.275C1286.55 692.614 1288.05 691.724 1288.41 690.288Z" fill="white"/>
<path d="M1230.66 479.351C1231.01 477.914 1230.08 476.474 1228.59 476.135C1227.09 475.796 1225.59 476.685 1225.23 478.122C1224.88 479.559 1225.81 480.999 1227.31 481.338C1228.8 481.677 1230.3 480.788 1230.66 479.351Z" fill="white"/>
<path d="M1000.13 646.841C1000.49 645.404 999.56 643.964 998.062 643.625C996.564 643.286 995.064 644.176 994.71 645.613C994.356 647.049 995.284 648.489 996.782 648.828C998.28 649.167 999.781 648.277 1000.13 646.841Z" fill="white"/>
<path d="M735.926 830.231C736.279 828.794 735.351 827.354 733.853 827.015C732.355 826.676 730.855 827.566 730.501 829.003C730.148 830.44 731.075 831.879 732.573 832.218C734.071 832.557 735.572 831.668 735.926 830.231Z" fill="white"/>
<path d="M1337.08 618.23C1337.43 616.793 1336.51 615.353 1335.01 615.014C1333.51 614.675 1332.01 615.565 1331.66 617.002C1331.3 618.439 1332.23 619.878 1333.73 620.218C1335.22 620.557 1336.73 619.667 1337.08 618.23Z" fill="white"/>
<path d="M1356 543.271C1356.36 541.834 1355.43 540.394 1353.93 540.055C1352.43 539.716 1350.93 540.606 1350.58 542.043C1350.22 543.479 1351.15 544.919 1352.65 545.259C1354.15 545.597 1355.65 544.707 1356 543.271Z" fill="white"/>
<path d="M1100.14 873.727C1100.5 872.29 1099.57 870.851 1098.07 870.511C1096.57 870.172 1095.07 871.062 1094.72 872.499C1094.37 873.936 1095.29 875.376 1096.79 875.715C1098.29 876.054 1099.79 875.164 1100.14 873.727Z" fill="white"/>
<path d="M1127.54 661.458C1127.9 660.021 1126.97 658.581 1125.47 658.242C1123.97 657.903 1122.47 658.793 1122.12 660.23C1121.77 661.666 1122.69 663.106 1124.19 663.446C1125.69 663.784 1127.19 662.895 1127.54 661.458Z" fill="white"/>
<path d="M1157.92 530.641C1158.27 529.204 1157.34 527.764 1155.85 527.426C1154.35 527.086 1152.85 527.976 1152.49 529.413C1152.14 530.85 1153.07 532.289 1154.57 532.629C1156.06 532.968 1157.56 532.078 1157.92 530.641Z" fill="white"/>
<path d="M1887.01 15.5344C1887.24 14.5743 1886.62 13.6123 1885.62 13.386C1884.62 13.1591 1883.62 13.7538 1883.38 14.7139C1883.14 15.674 1883.76 16.636 1884.77 16.8628C1885.77 17.0892 1886.77 16.4945 1887.01 15.5344Z" fill="white"/>
<path d="M1851.73 86.2208C1852.07 84.8708 1851.19 83.5181 1849.79 83.1995C1848.38 82.8808 1846.97 83.7169 1846.64 85.0669C1846.3 86.4173 1847.18 87.77 1848.58 88.0887C1849.99 88.4073 1851.4 87.5712 1851.73 86.2208Z" fill="white"/>
<path d="M1865.07 241.049C1866.35 240.409 1866.85 238.892 1866.18 237.662C1865.51 236.431 1863.93 235.953 1862.65 236.593C1861.37 237.233 1860.87 238.75 1861.53 239.98C1862.2 241.211 1863.78 241.689 1865.07 241.049Z" fill="white"/>
<path d="M1731.08 135.443C1731.26 134.72 1730.79 133.995 1730.04 133.824C1729.28 133.654 1728.53 134.102 1728.35 134.825C1728.17 135.548 1728.64 136.273 1729.39 136.443C1730.15 136.614 1730.9 136.166 1731.08 135.443Z" fill="white"/>
<path d="M1808.18 54.4315C1808.36 53.7084 1807.89 52.9838 1807.14 52.8134C1806.38 52.6426 1805.63 53.0903 1805.45 53.8135C1805.27 54.5367 1805.74 55.2613 1806.49 55.4321C1807.25 55.6029 1808 55.1547 1808.18 54.4315Z" fill="white"/>
<path d="M1850.82 183.526C1851.51 183.183 1851.77 182.371 1851.42 181.712C1851.06 181.053 1850.21 180.796 1849.53 181.139C1848.84 181.482 1848.57 182.295 1848.93 182.954C1849.29 183.613 1850.13 183.869 1850.82 183.526Z" fill="white"/>
<path d="M1745.96 216.067C1746.13 215.344 1745.67 214.62 1744.91 214.449C1744.16 214.278 1743.4 214.726 1743.23 215.449C1743.05 216.173 1743.52 216.897 1744.27 217.068C1745.02 217.238 1745.78 216.791 1745.96 216.067Z" fill="white"/>
<path d="M1876.73 54.2786C1877.07 52.8768 1876.17 51.4722 1874.71 51.1416C1873.25 50.8105 1871.78 51.6788 1871.44 53.0806C1871.09 54.4825 1872 55.8871 1873.46 56.2181C1874.92 56.5487 1876.38 55.6809 1876.73 54.2786Z" fill="white"/>
<path d="M1829.73 107.44C1829.9 106.717 1829.44 105.992 1828.68 105.821C1827.93 105.651 1827.17 106.099 1827 106.822C1826.82 107.545 1827.29 108.27 1828.04 108.44C1828.79 108.611 1829.55 108.163 1829.73 107.44Z" fill="white"/>
<path d="M1713.98 189.843C1714.16 189.12 1713.69 188.395 1712.94 188.224C1712.18 188.053 1711.43 188.502 1711.25 189.225C1711.07 189.948 1711.54 190.673 1712.29 190.843C1713.05 191.014 1713.8 190.566 1713.98 189.843Z" fill="white"/>
<path d="M1759.07 158.486C1759.25 157.763 1758.78 157.038 1758.03 156.867C1757.27 156.696 1756.52 157.144 1756.34 157.868C1756.16 158.591 1756.63 159.315 1757.38 159.486C1758.14 159.657 1758.89 159.209 1759.07 158.486Z" fill="white"/>
<path d="M1898.43 111.889C1898.67 110.929 1898.05 109.967 1897.05 109.741C1896.05 109.514 1895.05 110.109 1894.81 111.069C1894.57 112.029 1895.19 112.991 1896.19 113.217C1897.2 113.444 1898.2 112.849 1898.43 111.889Z" fill="white"/>
<path d="M1871.58 153.771C1871.82 152.811 1871.2 151.849 1870.2 151.622C1869.19 151.396 1868.19 151.991 1867.96 152.951C1867.72 153.911 1868.34 154.873 1869.34 155.099C1870.34 155.326 1871.34 154.732 1871.58 153.771Z" fill="white"/>
<path d="M1695.04 276.311C1695.27 275.351 1694.65 274.389 1693.65 274.162C1692.65 273.936 1691.65 274.531 1691.41 275.491C1691.18 276.451 1691.8 277.413 1692.8 277.639C1693.8 277.866 1694.8 277.271 1695.04 276.311Z" fill="white"/>
<path d="M217.476 13.2768C217.713 12.3167 217.093 11.3547 216.092 11.1283C215.091 10.9015 214.088 11.4961 213.851 12.4562C213.615 13.4164 214.235 14.3783 215.236 14.6052C216.237 14.8315 217.24 14.2369 217.476 13.2768Z" fill="white"/>
<path d="M182.204 83.9631C182.536 82.6132 181.665 81.2605 180.257 80.9418C178.85 80.6231 177.44 81.4593 177.107 82.8092C176.775 84.1596 177.647 85.5123 179.054 85.831C180.462 86.1497 181.872 85.3135 182.204 83.9631Z" fill="white"/>
<path d="M340.988 145.069C341.321 143.719 340.449 142.367 339.041 142.048C337.634 141.729 336.223 142.566 335.891 143.915C335.559 145.266 336.431 146.619 337.838 146.937C339.246 147.256 340.656 146.42 340.988 145.069Z" fill="white"/>
<path d="M195.536 238.791C196.819 238.151 197.318 236.635 196.65 235.404C195.983 234.173 194.401 233.695 193.118 234.335C191.836 234.976 191.337 236.492 192.005 237.723C192.672 238.953 194.253 239.432 195.536 238.791Z" fill="white"/>
<path d="M365.902 103.875C366.237 102.524 365.366 101.171 363.958 100.853C362.551 100.534 361.139 101.37 360.809 102.721C360.473 104.071 361.345 105.423 362.752 105.742C364.159 106.061 365.572 105.224 365.902 103.875Z" fill="white"/>
<path d="M353.698 186.278C354.03 184.928 353.158 183.575 351.751 183.257C350.344 182.938 348.933 183.774 348.601 185.125C348.269 186.474 349.141 187.827 350.548 188.146C351.955 188.465 353.366 187.628 353.698 186.278Z" fill="white"/>
<path d="M61.5518 133.185C61.7299 132.462 61.2631 131.737 60.5092 131.567C59.7552 131.396 58.9999 131.844 58.8218 132.567C58.6437 133.29 59.1109 134.015 59.8649 134.186C60.6183 134.356 61.3742 133.908 61.5518 133.185Z" fill="white"/>
<path d="M138.65 52.1739C138.828 51.4507 138.361 50.7261 137.607 50.5558C136.853 50.385 136.098 50.8327 135.92 51.5558C135.742 52.279 136.209 53.0036 136.963 53.1744C137.717 53.3452 138.472 52.8971 138.65 52.1739Z" fill="white"/>
<path d="M181.291 181.269C181.978 180.926 182.245 180.114 181.888 179.454C181.53 178.795 180.683 178.539 179.996 178.882C179.309 179.225 179.041 180.037 179.399 180.696C179.757 181.355 180.604 181.612 181.291 181.269Z" fill="white"/>
<path d="M288.271 19.7506C288.449 19.0274 287.983 18.3028 287.229 18.132C286.475 17.9616 285.719 18.4093 285.541 19.1325C285.363 19.8557 285.83 20.5803 286.584 20.7511C287.338 20.9215 288.094 20.4738 288.271 19.7506Z" fill="white"/>
<path d="M76.4268 213.81C76.6049 213.087 76.1381 212.362 75.3842 212.191C74.6302 212.021 73.8749 212.468 73.6968 213.192C73.5187 213.915 73.9859 214.639 74.7399 214.81C75.4938 214.981 76.2492 214.533 76.4268 213.81Z" fill="white"/>
<path d="M419.683 64.0848C419.86 63.3616 419.396 62.637 418.64 62.4662C417.888 62.2954 417.132 62.7435 416.955 63.4667C416.773 64.1899 417.242 64.9145 417.998 65.0848C418.75 65.2556 419.506 64.8079 419.683 64.0848Z" fill="white"/>
<path d="M457.989 204.681C458.171 203.958 457.702 203.233 456.945 203.062C456.194 202.892 455.438 203.34 455.26 204.063C455.083 204.786 455.548 205.511 456.304 205.682C457.056 205.852 457.812 205.404 457.989 204.681Z" fill="white"/>
<path d="M461.493 156.686C461.67 155.963 461.201 155.239 460.449 155.068C459.693 154.897 458.937 155.345 458.76 156.068C458.582 156.791 459.052 157.516 459.803 157.686C460.559 157.857 461.311 157.41 461.493 156.686Z" fill="white"/>
<path d="M489.521 231.276C489.698 230.553 489.229 229.828 488.477 229.658C487.721 229.487 486.969 229.935 486.787 230.658C486.61 231.381 487.079 232.106 487.831 232.277C488.587 232.447 489.339 231.999 489.521 231.276Z" fill="white"/>
<path d="M207.199 52.021C207.545 50.6191 206.639 49.2145 205.178 48.8839C203.716 48.5529 202.252 49.4212 201.907 50.823C201.562 52.2249 202.467 53.6295 203.928 53.9605C205.39 54.2911 206.855 53.4233 207.199 52.021Z" fill="white"/>
<path d="M303.704 110.837C303.882 110.114 303.415 109.39 302.661 109.219C301.907 109.048 301.152 109.496 300.973 110.219C300.796 110.942 301.263 111.667 302.017 111.838C302.771 112.008 303.526 111.561 303.704 110.837Z" fill="white"/>
<path d="M377.343 213.602C377.52 212.879 377.055 212.154 376.299 211.983C375.548 211.812 374.791 212.261 374.614 212.984C374.437 213.707 374.901 214.431 375.658 214.602C376.409 214.773 377.165 214.325 377.343 213.602Z" fill="white"/>
<path d="M342.527 260.876C342.705 260.153 342.238 259.429 341.484 259.258C340.73 259.087 339.975 259.535 339.797 260.258C339.619 260.982 340.086 261.706 340.84 261.876C341.593 262.047 342.349 261.6 342.527 260.876Z" fill="white"/>
<path d="M160.198 105.182C160.375 104.459 159.908 103.734 159.154 103.564C158.4 103.393 157.645 103.841 157.467 104.564C157.289 105.287 157.756 106.012 158.51 106.182C159.264 106.353 160.019 105.905 160.198 105.182Z" fill="white"/>
<path d="M44.4517 187.585C44.6293 186.862 44.1625 186.137 43.4086 185.967C42.6546 185.796 41.8993 186.244 41.7212 186.967C41.5436 187.69 42.0103 188.415 42.7643 188.585C43.5182 188.756 44.2736 188.308 44.4517 187.585Z" fill="white"/>
<path d="M471.024 123.068C471.201 122.345 470.737 121.621 469.98 121.45C469.229 121.279 468.472 121.727 468.295 122.45C468.113 123.173 468.583 123.898 469.339 124.068C470.09 124.239 470.847 123.791 471.024 123.068Z" fill="white"/>
<path d="M377.821 141.817C378.003 141.094 377.534 140.369 376.783 140.198C376.026 140.028 375.27 140.476 375.093 141.199C374.916 141.922 375.385 142.647 376.136 142.818C376.888 142.988 377.644 142.54 377.821 141.817Z" fill="white"/>
<path d="M476.395 264.549C476.572 263.826 476.108 263.101 475.351 262.93C474.6 262.76 473.843 263.208 473.666 263.931C473.484 264.654 473.954 265.379 474.705 265.549C475.461 265.72 476.218 265.272 476.395 264.549Z" fill="white"/>
<path d="M89.5406 156.228C89.7187 155.505 89.2515 154.78 88.4975 154.609C87.7436 154.439 86.9882 154.887 86.8106 155.61C86.6325 156.333 87.0992 157.058 87.8532 157.228C88.6072 157.399 89.3625 156.951 89.5406 156.228Z" fill="white"/>
<path d="M228.905 109.632C229.142 108.671 228.522 107.709 227.521 107.483C226.52 107.256 225.517 107.851 225.28 108.811C225.044 109.771 225.664 110.733 226.665 110.959C227.666 111.186 228.669 110.592 228.905 109.632Z" fill="white"/>
<path d="M394.672 180.545C394.906 179.585 394.289 178.623 393.288 178.396C392.288 178.17 391.282 178.764 391.048 179.724C390.808 180.684 391.431 181.646 392.431 181.873C393.432 182.099 394.437 181.504 394.672 180.545Z" fill="white"/>
<path d="M356.086 39.5987C356.322 38.6385 355.702 37.6766 354.701 37.4497C353.7 37.2234 352.697 37.8175 352.461 38.7777C352.224 39.7378 352.844 40.6998 353.845 40.9266C354.846 41.153 355.849 40.5588 356.086 39.5987Z" fill="white"/>
<path d="M202.051 151.514C202.287 150.554 201.668 149.592 200.667 149.365C199.666 149.138 198.663 149.733 198.426 150.693C198.19 151.653 198.81 152.615 199.811 152.842C200.812 153.069 201.815 152.474 202.051 151.514Z" fill="white"/>
<path d="M25.5091 274.054C25.7451 273.094 25.1252 272.132 24.1242 271.905C23.1233 271.678 22.1204 272.273 21.8844 273.233C21.6479 274.193 22.2678 275.155 23.2688 275.382C24.2697 275.608 25.2726 275.014 25.5091 274.054Z" fill="white"/>
<path d="M427.194 132.396C427.429 131.436 426.811 130.474 425.811 130.248C424.81 130.021 423.805 130.616 423.571 131.576C423.336 132.536 423.954 133.498 424.954 133.725C425.954 133.951 426.96 133.356 427.194 132.396Z" fill="white"/>
<path d="M439.837 82.3092C440.076 81.3491 439.454 80.3871 438.453 80.1607C437.453 79.9339 436.452 80.5285 436.213 81.4886C435.978 82.4488 436.596 83.4107 437.601 83.6376C438.601 83.8639 439.602 83.2693 439.837 82.3092Z" fill="white"/>
<path d="M268.876 303.118C269.113 302.158 268.493 301.196 267.492 300.969C266.491 300.742 265.488 301.337 265.252 302.297C265.016 303.257 265.636 304.219 266.637 304.446C267.637 304.672 268.64 304.078 268.876 303.118Z" fill="white"/>
<path d="M287.185 161.281C287.421 160.321 286.801 159.359 285.8 159.132C284.799 158.905 283.796 159.5 283.56 160.46C283.324 161.42 283.944 162.382 284.945 162.609C285.946 162.836 286.949 162.241 287.185 161.281Z" fill="white"/>
<path d="M307.481 73.8701C307.717 72.91 307.097 71.948 306.096 71.7217C305.095 71.4948 304.092 72.0894 303.856 73.0496C303.62 74.0097 304.24 74.9716 305.241 75.1985C306.242 75.4248 307.244 74.8302 307.481 73.8701Z" fill="white"/>
<path d="M681.422 40.3685C681.659 39.4084 681.039 38.4465 680.038 38.2201C679.037 37.9933 678.034 38.5879 677.798 39.548C677.562 40.5081 678.182 41.4701 679.183 41.6969C680.183 41.9233 681.186 41.3287 681.422 40.3685Z" fill="white"/>
<path d="M646.15 111.055C646.483 109.705 645.611 108.352 644.203 108.034C642.796 107.715 641.386 108.551 641.054 109.901C640.721 111.251 641.593 112.604 643.001 112.923C644.408 113.241 645.819 112.405 646.15 111.055Z" fill="white"/>
<path d="M659.482 265.883C660.765 265.243 661.264 263.726 660.597 262.496C659.929 261.265 658.348 260.787 657.065 261.427C655.782 262.067 655.283 263.584 655.951 264.815C656.618 266.045 658.199 266.524 659.482 265.883Z" fill="white"/>
<path d="M829.848 130.966C830.183 129.616 829.312 128.263 827.905 127.945C826.497 127.626 825.085 128.462 824.755 129.812C824.42 131.162 825.291 132.515 826.698 132.834C828.106 133.152 829.518 132.316 829.848 130.966Z" fill="white"/>
<path d="M602.597 79.2657C602.775 78.5425 602.308 77.8179 601.554 77.6476C600.8 77.4768 600.044 77.9245 599.867 78.6476C599.689 79.3708 600.155 80.0954 600.909 80.2662C601.663 80.437 602.419 79.9889 602.597 79.2657Z" fill="white"/>
<path d="M752.217 46.8423C752.395 46.1191 751.929 45.3946 751.175 45.2238C750.421 45.0534 749.665 45.5011 749.487 46.2243C749.309 46.9475 749.776 47.6721 750.53 47.8429C751.284 48.0132 752.04 47.5655 752.217 46.8423Z" fill="white"/>
<path d="M540.373 240.901C540.551 240.178 540.084 239.454 539.33 239.283C538.577 239.113 537.821 239.56 537.643 240.283C537.465 241.007 537.932 241.731 538.686 241.902C539.44 242.072 540.195 241.625 540.373 240.901Z" fill="white"/>
<path d="M790.59 21.6483C790.768 20.9251 790.301 20.2005 789.547 20.0297C788.793 19.8593 788.038 20.307 787.86 21.0302C787.682 21.7534 788.149 22.478 788.903 22.6488C789.657 22.8192 790.412 22.3715 790.59 21.6483Z" fill="white"/>
<path d="M921.935 231.773C922.117 231.05 921.648 230.325 920.892 230.154C920.14 229.984 919.384 230.432 919.207 231.155C919.03 231.878 919.494 232.602 920.25 232.773C921.002 232.944 921.758 232.496 921.935 231.773Z" fill="white"/>
<path d="M953.467 258.368C953.644 257.645 953.175 256.92 952.423 256.749C951.667 256.579 950.915 257.027 950.734 257.75C950.556 258.473 951.026 259.198 951.777 259.368C952.533 259.539 953.285 259.091 953.467 258.368Z" fill="white"/>
<path d="M767.65 137.929C767.828 137.206 767.361 136.481 766.607 136.311C765.853 136.14 765.098 136.588 764.92 137.311C764.742 138.034 765.209 138.759 765.963 138.93C766.717 139.1 767.472 138.652 767.65 137.929Z" fill="white"/>
<path d="M841.289 240.694C841.466 239.97 841.002 239.246 840.245 239.075C839.494 238.904 838.737 239.352 838.56 240.076C838.383 240.799 838.848 241.523 839.604 241.694C840.355 241.864 841.112 241.417 841.289 240.694Z" fill="white"/>
<path d="M806.473 287.968C806.651 287.245 806.184 286.52 805.43 286.35C804.677 286.179 803.921 286.627 803.743 287.35C803.565 288.073 804.032 288.798 804.786 288.968C805.54 289.139 806.295 288.691 806.473 287.968Z" fill="white"/>
<path d="M508.398 214.677C508.575 213.954 508.109 213.229 507.355 213.058C506.601 212.888 505.845 213.336 505.667 214.059C505.49 214.782 505.956 215.507 506.71 215.677C507.464 215.848 508.22 215.4 508.398 214.677Z" fill="white"/>
<path d="M934.97 150.16C935.147 149.437 934.683 148.712 933.926 148.542C933.175 148.371 932.419 148.819 932.241 149.542C932.06 150.265 932.529 150.99 933.285 151.16C934.037 151.331 934.793 150.883 934.97 150.16Z" fill="white"/>
<path d="M841.768 168.909C841.949 168.186 841.48 167.461 840.729 167.29C839.972 167.12 839.216 167.568 839.039 168.291C838.862 169.014 839.331 169.739 840.083 169.909C840.834 170.08 841.59 169.632 841.768 168.909Z" fill="white"/>
<path d="M553.487 183.32C553.665 182.597 553.198 181.872 552.444 181.701C551.69 181.53 550.934 181.979 550.757 182.702C550.579 183.425 551.046 184.15 551.799 184.32C552.553 184.491 553.309 184.043 553.487 183.32Z" fill="white"/>
<path d="M692.851 136.723C693.088 135.763 692.468 134.801 691.467 134.575C690.466 134.348 689.463 134.943 689.227 135.903C688.991 136.863 689.611 137.825 690.611 138.051C691.612 138.278 692.615 137.683 692.851 136.723Z" fill="white"/>
<path d="M858.618 207.637C858.852 206.676 858.235 205.714 857.234 205.488C856.234 205.261 855.229 205.855 854.994 206.816C854.755 207.776 855.377 208.738 856.378 208.964C857.378 209.191 858.383 208.596 858.618 207.637Z" fill="white"/>
<path d="M820.032 66.6904C820.268 65.7303 819.648 64.7683 818.647 64.5415C817.646 64.3151 816.643 64.9093 816.407 65.8694C816.171 66.8296 816.791 67.7915 817.791 68.0184C818.792 68.2447 819.795 67.6506 820.032 66.6904Z" fill="white"/>
<path d="M665.997 178.606C666.234 177.645 665.614 176.683 664.613 176.457C663.612 176.23 662.609 176.825 662.373 177.785C662.137 178.745 662.756 179.707 663.757 179.934C664.758 180.16 665.761 179.566 665.997 178.606Z" fill="white"/>
<path d="M489.455 301.145C489.691 300.185 489.071 299.223 488.071 298.997C487.07 298.77 486.067 299.365 485.831 300.325C485.594 301.285 486.214 302.247 487.215 302.473C488.216 302.7 489.219 302.106 489.455 301.145Z" fill="white"/>
<path d="M891.141 159.488C891.375 158.528 890.758 157.566 889.757 157.34C888.757 157.113 887.751 157.707 887.517 158.667C887.282 159.628 887.9 160.59 888.9 160.816C889.901 161.043 890.906 160.448 891.141 159.488Z" fill="white"/>
<path d="M732.823 330.209C733.059 329.249 732.439 328.287 731.438 328.061C730.437 327.834 729.434 328.429 729.198 329.389C728.962 330.349 729.582 331.311 730.583 331.537C731.583 331.764 732.587 331.17 732.823 330.209Z" fill="white"/>
<path d="M751.131 188.373C751.367 187.413 750.747 186.45 749.746 186.224C748.746 185.997 747.743 186.592 747.506 187.552C747.27 188.512 747.89 189.474 748.891 189.701C749.892 189.927 750.895 189.333 751.131 188.373Z" fill="white"/>
</svg>
